# WaveFront *.obj file (generated by Autodesk ATF)

mtllib c22503a2-37a3-447a-a75e-b8eb295fea5f.mtl

g 33_MRSHLDSRVT-Body

v 5.849327 4.832000 -63.567806
v 6.700377 4.832000 -63.817509
v 6.450672 4.832000 -64.668556
v 5.599623 4.832000 -64.418854
v 6.266733 4.832000 -63.501991
v 6.033268 4.832000 -64.734375
v 6.500065 4.832000 -63.597824
v 5.799934 4.832000 -64.638542
v 5.522993 4.832000 -64.131599
v 6.777008 4.832000 -64.104767
v 6.731577 4.832000 -64.352882
v 5.568422 4.832000 -63.883480
v 8.052206 4.358001 -63.079002
v 8.299732 4.358001 -64.395554
v 8.936325 3.100000 -62.596004
v 9.196569 3.100000 -65.012070
v 7.726133 4.358001 -65.606163
v 8.622587 3.100000 -66.109901
v 7.672176 3.100000 -66.904503
v 6.550505 4.358001 -66.248413
v 6.490026 3.100000 -67.274925
v 5.221897 4.358001 -66.076988
v 5.256111 3.100000 -67.164749
v 4.158283 3.100000 -66.590767
v 4.247793 4.358001 -65.157364
v 3.363675 3.100000 -65.640358
v 4.000267 4.358001 -63.840809
v 3.103430 3.100000 -63.224293
v 4.573866 4.358001 -62.630199
v 3.677412 3.100000 -62.126465
v 4.627825 3.100000 -61.331856
v 5.749495 4.358001 -61.987949
v 7.043888 3.100000 -61.071613
v 7.078102 4.358001 -62.159378
v 8.141716 3.100000 -61.645596
vt -0.110075 0.060135 0.000000
vt -0.085105 -0.024970 0.000000
vt 0.000000 0.000000 0.000000
vt -0.024970 0.085105 0.000000
vt -0.110075 0.060135 0.000000
vt 0.000000 0.000000 0.000000
vt -0.006581 -0.041741 0.000000
vt 0.024970 -0.085105 0.000000
vt 0.000000 0.000000 0.000000
vt 0.006582 0.041740 0.000000
vt -0.024970 0.085105 0.000000
vt 0.000000 0.000000 0.000000
vt 0.009583 -0.023333 0.000000
vt 0.031552 -0.043364 0.000000
vt 0.000000 0.000000 0.000000
vt -0.009583 0.023333 0.000000
vt -0.031552 0.043365 0.000000
vt 0.000000 0.000000 0.000000
vt -0.028725 0.007663 0.000000
vt -0.085105 -0.024970 0.000000
vt 0.000000 0.000000 0.000000
vt 0.028726 -0.007663 0.000000
vt 0.085105 0.024970 0.000000
vt 0.000000 0.000000 0.000000
vt 0.024812 0.004543 0.000000
vt 0.056379 0.032634 0.000000
vt 0.000000 0.000000 0.000000
vt -0.024812 -0.004543 0.000000
vt -0.056379 -0.032633 0.000000
vt 0.000000 0.000000 0.000000
vt -0.105260 -0.133979 0.000000
vt 0.026153 -0.159985 0.000000
vt 0.000000 0.000000 0.000000
vt -0.028631 0.008012 0.000000
vt -0.106093 -0.133320 0.000000
vt 0.000000 0.000000 0.000000
vt 0.204541 0.102102 0.000000
vt 0.076597 0.141803 0.000000
vt 0.000000 0.000000 0.000000
vt -0.197865 -0.114504 0.000000
vt 0.040588 -0.161315 0.000000
vt 0.000000 0.000000 0.000000
vt -0.130730 0.103706 0.000000
vt -0.119869 -0.059811 0.000000
vt -0.000000 0.000000 0.000000
vt -0.006867 0.163734 0.000000
vt -0.031641 0.158991 0.000000
vt -0.000000 0.000000 0.000000
vt -0.003270 0.202401 0.000000
vt -0.111493 0.123447 0.000000
vt -0.000000 0.000000 0.000000
vt 0.095496 0.078913 0.000000
vt -0.010378 0.202161 0.000000
vt -0.000000 0.000000 0.000000
vt 0.124675 -0.104190 0.000000
vt 0.180755 0.006271 0.000000
vt -0.000000 0.000000 0.000000
vt -0.164936 0.010098 0.000000
vt -0.061683 -0.118916 0.000000
vt -0.000000 0.000000 0.000000
vt -0.101234 0.130605 0.000000
vt -0.132188 0.101841 0.000000
vt -0.000000 0.000000 0.000000
vt -0.135162 0.120178 0.000000
vt -0.180771 -0.005781 0.000000
vt -0.000000 0.000000 0.000000
vt 0.139204 -0.115473 0.000000
vt 0.162360 0.006226 0.000000
vt -0.000000 0.000000 0.000000
vt 0.158637 -0.051765 0.000000
vt 0.142345 0.081202 0.000000
vt -0.000000 0.000000 0.000000
vt -0.158633 0.051776 0.000000
vt -0.164942 0.009993 0.000000
vt -0.000000 0.000000 0.000000
vt 0.155120 0.130057 0.000000
vt -0.011186 0.133494 0.000000
vt -0.000000 0.000000 0.000000
vt 0.162366 0.006062 0.000000
vt 0.155379 0.129747 0.000000
vt -0.000000 0.000000 0.000000
vt 0.166301 -0.003683 0.000000
vt 0.129116 0.114487 0.000000
vt -0.000000 0.000000 0.000000
vt -0.061476 -0.158905 0.000000
vt 0.089446 -0.099726 0.000000
vt -0.000000 0.000000 0.000000
vt -0.082117 -0.138679 0.000000
vt -0.060632 -0.159228 0.000000
vt -0.000000 0.000000 0.000000
vt -0.151315 -0.058164 0.000000
vt -0.142094 -0.081642 0.000000
vt -0.000000 0.000000 0.000000
vt -0.190638 -0.010450 0.000000
vt -0.119832 -0.124170 0.000000
vt -0.000000 0.000000 0.000000
vt -0.073613 0.099639 0.000000
vt -0.190594 -0.011224 0.000000
vt -0.000000 0.000000 0.000000
vt 0.105260 0.133979 0.000000
vt -0.026154 0.159985 0.000000
vt -0.000000 0.000000 0.000000
vt 0.028630 -0.008012 0.000000
vt 0.106093 0.133320 0.000000
vt -0.000000 0.000000 0.000000
vt -0.204541 -0.102102 0.000000
vt -0.076597 -0.141803 0.000000
vt -0.000000 0.000000 0.000000
vt 0.197865 0.114504 0.000000
vt -0.040587 0.161315 0.000000
vt -0.000000 0.000000 0.000000
vt 0.130730 -0.103706 0.000000
vt 0.119869 0.059811 0.000000
vt 0.000000 -0.000000 0.000000
vt 0.006867 -0.163734 0.000000
vt 0.031641 -0.158991 0.000000
vt 0.000000 -0.000000 0.000000
vt 0.003270 -0.202401 0.000000
vt 0.111493 -0.123447 0.000000
vt 0.000000 -0.000000 0.000000
vt -0.095496 -0.078913 0.000000
vt 0.010378 -0.202161 0.000000
vt 0.000000 -0.000000 0.000000
vt -0.124675 0.104191 0.000000
vt -0.180755 -0.006271 0.000000
vt 0.000000 -0.000000 0.000000
vt 0.164936 -0.010098 0.000000
vt 0.061683 0.118916 0.000000
vt 0.000000 -0.000000 0.000000
vt 0.101234 -0.130605 0.000000
vt 0.132188 -0.101841 0.000000
vt 0.000000 -0.000000 0.000000
vt 0.135163 -0.120178 0.000000
vt 0.180771 0.005781 0.000000
vt 0.000000 -0.000000 0.000000
vt -0.141508 0.112637 0.000000
vt -0.155183 -0.129982 0.000000
vt 0.000000 -0.000000 0.000000
vt -0.158637 0.051766 0.000000
vt -0.142345 -0.081202 0.000000
vt 0.000000 0.000000 0.000000
vt 0.158633 -0.051776 0.000000
vt 0.164942 -0.009993 0.000000
vt 0.000000 -0.000000 0.000000
vt -0.155120 -0.130057 0.000000
vt 0.011187 -0.133494 0.000000
vt 0.000000 0.000000 0.000000
vt -0.166301 0.003683 0.000000
vt -0.129116 -0.114487 0.000000
vt 0.000000 0.000000 0.000000
vt 0.061476 0.158905 0.000000
vt -0.089446 0.099726 0.000000
vt 0.000000 0.000000 0.000000
vt 0.082117 0.138679 0.000000
vt 0.060632 0.159228 0.000000
vt 0.000000 0.000000 0.000000
vt 0.151315 0.058164 0.000000
vt 0.142094 0.081642 0.000000
vt 0.000000 0.000000 0.000000
vt 0.190639 0.010450 0.000000
vt 0.119833 0.124170 0.000000
vt 0.000000 0.000000 0.000000
vt 0.073613 -0.099639 0.000000
vt 0.190595 0.011224 0.000000
vt 0.000000 0.000000 0.000000
vn -0.000000 0.100000 0.000000
vn -0.000000 0.100000 0.000000
vn -0.000000 0.100000 0.000000
vn -0.000000 0.100000 0.000000
vn -0.000000 0.100000 0.000000
vn -0.000000 0.100000 0.000000
vn -0.000000 0.100000 0.000000
vn -0.000000 0.100000 0.000000
vn -0.000000 0.100000 0.000000
vn -0.000000 0.100000 0.000000
vn -0.000000 0.100000 0.000000
vn -0.000000 0.100000 0.000000
vn 0.030675 0.095004 0.005767
vn 0.030675 0.095004 0.005767
vn 0.030675 0.095004 0.005767
vn 0.029175 0.095332 0.007783
vn 0.029175 0.095332 0.007783
vn 0.029175 0.095332 0.007783
vn 0.078184 0.060591 0.014699
vn 0.078184 0.060591 0.014699
vn 0.078184 0.060591 0.014699
vn 0.083121 0.054870 0.008953
vn 0.083121 0.054870 0.008953
vn 0.083121 0.054870 0.008953
vn 0.028337 0.094957 -0.013426
vn 0.028337 0.094957 -0.013426
vn 0.028337 0.094957 -0.013426
vn 0.028762 0.095629 -0.005266
vn 0.028762 0.095629 -0.005266
vn 0.028762 0.095629 -0.005266
vn 0.068717 0.064945 -0.032559
vn 0.068717 0.064945 -0.032559
vn 0.068717 0.064945 -0.032559
vn 0.068626 0.063270 -0.035880
vn 0.068626 0.063270 -0.035880
vn 0.068626 0.063270 -0.035880
vn 0.050962 0.060724 -0.060955
vn 0.050962 0.060724 -0.060955
vn 0.050962 0.060724 -0.060955
vn 0.015043 0.094950 -0.027537
vn 0.015043 0.094950 -0.027537
vn 0.015043 0.094950 -0.027537
vn 0.021515 0.095763 -0.019145
vn 0.021515 0.095763 -0.019145
vn 0.021515 0.095763 -0.019145
vn 0.035899 0.066280 -0.065713
vn 0.035899 0.066280 -0.065713
vn 0.035899 0.066280 -0.065713
vn 0.023757 0.060724 -0.075817
vn 0.023757 0.060724 -0.075817
vn 0.023757 0.060724 -0.075817
vn -0.004013 0.094957 -0.031099
vn -0.004013 0.094957 -0.031099
vn -0.004013 0.094957 -0.031099
vn 0.004486 0.095763 -0.028448
vn 0.004486 0.095763 -0.028448
vn 0.004486 0.095763 -0.028448
vn -0.009731 0.064945 -0.075415
vn -0.009731 0.064945 -0.075415
vn -0.009731 0.064945 -0.075415
vn -0.006887 0.063270 -0.077133
vn -0.006887 0.063270 -0.077133
vn -0.006887 0.063270 -0.077133
vn -0.037001 0.060187 -0.070770
vn -0.037001 0.060187 -0.070770
vn -0.037001 0.060187 -0.070770
vn -0.021426 0.095004 -0.022696
vn -0.021426 0.095004 -0.022696
vn -0.021426 0.095004 -0.022696
vn -0.022313 0.095332 -0.020345
vn -0.022313 0.095332 -0.020345
vn -0.022313 0.095332 -0.020345
vn -0.011109 0.095630 -0.027048
vn -0.011109 0.095630 -0.027048
vn -0.011109 0.095630 -0.027048
vn -0.051602 0.065952 -0.054659
vn -0.051602 0.065952 -0.054659
vn -0.051602 0.065952 -0.054659
vn -0.060333 0.061769 -0.050443
vn -0.060333 0.061769 -0.050443
vn -0.060333 0.061769 -0.050443
vn -0.030675 0.095004 -0.005767
vn -0.030675 0.095004 -0.005767
vn -0.030675 0.095004 -0.005767
vn -0.029175 0.095332 -0.007783
vn -0.029175 0.095332 -0.007783
vn -0.029175 0.095332 -0.007783
vn -0.078184 0.060591 -0.014699
vn -0.078184 0.060591 -0.014699
vn -0.078184 0.060591 -0.014699
vn -0.083121 0.054870 -0.008953
vn -0.083121 0.054870 -0.008953
vn -0.083121 0.054870 -0.008953
vn -0.028337 0.094957 0.013426
vn -0.028337 0.094957 0.013426
vn -0.028337 0.094957 0.013426
vn -0.028762 0.095630 0.005266
vn -0.028762 0.095630 0.005266
vn -0.028762 0.095630 0.005266
vn -0.068717 0.064945 0.032559
vn -0.068717 0.064945 0.032559
vn -0.068717 0.064945 0.032559
vn -0.068626 0.063270 0.035880
vn -0.068626 0.063270 0.035880
vn -0.068626 0.063270 0.035880
vn -0.050962 0.060724 0.060955
vn -0.050962 0.060724 0.060955
vn -0.050962 0.060724 0.060955
vn -0.015043 0.094950 0.027537
vn -0.015043 0.094950 0.027537
vn -0.015043 0.094950 0.027537
vn -0.021515 0.095763 0.019145
vn -0.021515 0.095763 0.019145
vn -0.021515 0.095763 0.019145
vn -0.035899 0.066280 0.065713
vn -0.035899 0.066280 0.065713
vn -0.035899 0.066280 0.065713
vn -0.009126 0.052326 0.084727
vn -0.009126 0.052326 0.084727
vn -0.009126 0.052326 0.084727
vn 0.004013 0.094957 0.031099
vn 0.004013 0.094957 0.031099
vn 0.004013 0.094957 0.031099
vn -0.004486 0.095763 0.028448
vn -0.004486 0.095763 0.028448
vn -0.004486 0.095763 0.028448
vn 0.009731 0.064945 0.075415
vn 0.009731 0.064945 0.075415
vn 0.009731 0.064945 0.075415
vn 0.037001 0.060187 0.070770
vn 0.037001 0.060187 0.070770
vn 0.037001 0.060187 0.070770
vn 0.021426 0.095004 0.022696
vn 0.021426 0.095004 0.022696
vn 0.021426 0.095004 0.022696
vn 0.022312 0.095332 0.020345
vn 0.022312 0.095332 0.020345
vn 0.022312 0.095332 0.020345
vn 0.011109 0.095630 0.027048
vn 0.011109 0.095630 0.027048
vn 0.011109 0.095630 0.027048
vn 0.051602 0.065952 0.054659
vn 0.051602 0.065952 0.054659
vn 0.051602 0.065952 0.054659
vn 0.060333 0.061769 0.050443
vn 0.060333 0.061769 0.050443
vn 0.060333 0.061769 0.050443
usemtl Aluminum_-_Satin
f 1/1/1 2/2/2 3/3/3
f 4/4/4 1/5/1 3/6/3
f 5/7/5 2/8/2 1/9/1
f 6/10/6 4/11/4 3/12/3
f 7/13/7 2/14/2 5/15/5
f 8/16/8 4/17/4 6/18/6
f 9/19/9 1/20/1 4/21/4
f 10/22/10 3/23/3 2/24/2
f 11/25/11 3/26/3 10/27/10
f 12/28/12 1/29/1 9/30/9
f 13/31/13 14/32/14 10/33/15
f 2/34/16 13/35/17 10/36/18
f 14/37/19 13/38/20 15/39/21
f 15/40/22 16/41/23 14/42/24
f 11/43/25 14/44/26 17/45/27
f 11/46/28 10/47/29 14/48/30
f 17/49/31 14/50/32 16/51/33
f 18/52/34 17/53/35 16/54/36
f 18/55/37 19/56/38 17/57/39
f 3/58/40 17/59/41 20/60/42
f 3/61/43 11/62/44 17/63/45
f 20/64/46 17/65/47 19/66/48
f 19/67/49 21/68/50 20/69/51
f 20/70/52 22/71/53 6/72/54
f 6/73/55 3/74/56 20/75/57
f 23/76/58 22/77/59 20/78/60
f 21/79/61 23/80/62 20/81/63
f 23/82/64 24/83/65 22/84/66
f 8/85/67 22/86/68 25/87/69
f 4/88/70 8/89/71 25/90/72
f 8/91/73 6/92/74 22/93/75
f 25/94/76 22/95/77 24/96/78
f 26/97/79 25/98/80 24/99/81
f 25/100/82 27/101/83 9/102/84
f 4/103/85 25/104/86 9/105/87
f 27/106/88 25/107/89 26/108/90
f 26/109/91 28/110/92 27/111/93
f 12/112/94 27/113/95 29/114/96
f 12/115/97 9/116/98 27/117/99
f 29/118/100 27/119/101 28/120/102
f 30/121/103 29/122/104 28/123/105
f 30/124/106 31/125/107 29/126/108
f 1/127/109 29/128/110 32/129/111
f 1/130/112 12/131/113 29/132/114
f 32/133/115 29/134/116 31/135/117
f 31/136/118 33/137/119 32/138/120
f 32/139/121 34/140/122 5/141/123
f 5/142/124 1/143/125 32/144/126
f 33/145/127 34/146/128 32/147/129
f 33/148/130 35/149/131 34/150/132
f 7/151/133 34/152/134 13/153/135
f 2/154/136 7/155/137 13/156/138
f 7/157/139 5/158/140 34/159/141
f 13/160/142 34/161/143 35/162/144
f 15/163/145 13/164/146 35/165/147

# 35 vertices
# 165 texture params
# 147 normals
# 55 facets

# 1 groups
