# WaveFront *.obj file (generated by Autodesk ATF)

mtllib 45d2e07f-40b9-4b5e-9a8e-144b272a8471.mtl

g 21_MRSHLDSRVT-Body

v 5.599623 4.832000 127.935692
v 5.849327 4.832000 128.786743
v 6.700377 4.832000 128.537033
v 6.450672 4.832000 127.685989
v 6.033268 4.832000 127.620171
v 6.266733 4.832000 128.852554
v 6.500065 4.832000 128.756729
v 5.799934 4.832000 127.716003
v 5.522993 4.832000 128.222946
v 6.777008 4.832000 128.249786
v 6.731577 4.832000 128.001663
v 5.568422 4.832000 128.471069
v 8.052206 4.358001 129.275543
v 8.299732 4.358001 127.958992
v 8.936325 3.100000 129.758545
v 9.196569 3.100000 127.342476
v 7.726133 4.358001 126.748383
v 7.672176 3.100000 125.450035
v 6.550505 4.358001 126.106133
v 5.256111 3.100000 125.189796
v 5.221897 4.358001 126.277557
v 3.363675 3.100000 126.714188
v 4.247793 4.358001 127.197182
v 4.000267 4.358001 128.513733
v 2.993260 3.100000 127.896339
v 3.103430 3.100000 129.130249
v 4.573866 4.358001 129.724350
v 3.677412 3.100000 130.228073
v 4.627825 3.100000 131.022690
v 5.749495 4.358001 130.366592
v 5.809973 3.100000 131.393097
v 7.078102 4.358001 130.195160
v 7.043888 3.100000 131.282928
v 8.141716 3.100000 130.708954
vt 0.060134 0.110075 0.000000
vt -0.024971 0.085105 0.000000
vt 0.000000 0.000000 0.000000
vt 0.085104 0.024970 0.000000
vt 0.060134 0.110075 0.000000
vt 0.000000 0.000000 0.000000
vt 0.006582 0.041740 0.000000
vt -0.024970 0.085105 0.000000
vt 0.000000 0.000000 0.000000
vt -0.006581 -0.041741 0.000000
vt 0.024971 -0.085105 0.000000
vt 0.000000 0.000000 0.000000
vt 0.009583 -0.023333 0.000000
vt 0.031552 -0.043364 0.000000
vt 0.000000 0.000000 0.000000
vt -0.009583 0.023333 0.000000
vt -0.031552 0.043365 0.000000
vt 0.000000 0.000000 0.000000
vt -0.028725 0.007663 0.000000
vt -0.085105 -0.024970 0.000000
vt 0.000000 0.000000 0.000000
vt 0.028725 -0.007663 0.000000
vt 0.085104 0.024970 0.000000
vt 0.000000 0.000000 0.000000
vt 0.024812 0.004543 0.000000
vt 0.056380 0.032634 0.000000
vt 0.000000 0.000000 0.000000
vt -0.024812 -0.004543 0.000000
vt -0.056380 -0.032633 0.000000
vt 0.000000 0.000000 0.000000
vt -0.105259 -0.133979 0.000000
vt 0.026154 -0.159985 0.000000
vt 0.000000 0.000000 0.000000
vt -0.028629 0.008012 0.000000
vt -0.106093 -0.133320 0.000000
vt 0.000000 0.000000 0.000000
vt -0.173292 0.190418 0.000000
vt -0.239115 0.043304 0.000000
vt 0.000000 0.000000 0.000000
vt 0.148542 -0.210295 0.000000
vt 0.126003 -0.045487 0.000000
vt 0.000000 0.000000 0.000000
vt -0.130730 0.103706 0.000000
vt -0.119869 -0.059811 0.000000
vt -0.000000 0.000000 0.000000
vt -0.006867 0.163734 0.000000
vt -0.031642 0.158991 0.000000
vt -0.000000 0.000000 0.000000
vt -0.003270 0.202401 0.000000
vt -0.111493 0.123447 0.000000
vt -0.000000 0.000000 0.000000
vt 0.048344 -0.196570 0.000000
vt 0.180720 0.007213 0.000000
vt -0.000000 0.000000 0.000000
vt -0.164936 0.010098 0.000000
vt -0.061683 -0.118916 0.000000
vt -0.000000 0.000000 0.000000
vt -0.101234 0.130605 0.000000
vt -0.132188 0.101841 0.000000
vt -0.000000 0.000000 0.000000
vt 0.180772 0.005781 0.000000
vt 0.045609 0.125959 0.000000
vt -0.000000 0.000000 0.000000
vt 0.141508 -0.112637 0.000000
vt 0.155183 0.129982 0.000000
vt 0.000000 0.000000 0.000000
vt 0.158637 -0.051765 0.000000
vt 0.142345 0.081202 0.000000
vt -0.000000 0.000000 0.000000
vt -0.158633 0.051776 0.000000
vt -0.164942 0.009993 0.000000
vt -0.000000 0.000000 0.000000
vt 0.155120 0.130057 0.000000
vt -0.011186 0.133494 0.000000
vt -0.000000 0.000000 0.000000
vt -0.068057 -0.218244 0.000000
vt 0.098237 -0.222262 0.000000
vt -0.000000 0.000000 0.000000
vt 0.055289 0.221822 0.000000
vt -0.066516 0.116282 0.000000
vt -0.000000 0.000000 0.000000
vt -0.061476 -0.158905 0.000000
vt 0.089446 -0.099726 0.000000
vt -0.000000 0.000000 0.000000
vt -0.082117 -0.138679 0.000000
vt -0.060632 -0.159228 0.000000
vt -0.000000 0.000000 0.000000
vt -0.151315 -0.058164 0.000000
vt -0.142094 -0.081642 0.000000
vt -0.000000 0.000000 0.000000
vt 0.105260 0.133979 0.000000
vt -0.026153 0.159985 0.000000
vt -0.000000 0.000000 0.000000
vt 0.028630 -0.008012 0.000000
vt 0.106093 0.133320 0.000000
vt -0.000000 0.000000 0.000000
vt -0.042491 0.186137 0.000000
vt -0.128829 0.036726 0.000000
vt -0.000000 0.000000 0.000000
vt 0.089896 0.133768 0.000000
vt -0.020585 0.189812 0.000000
vt -0.000000 0.000000 0.000000
vt 0.046572 0.166160 0.000000
vt -0.075969 0.147981 0.000000
vt 0.000000 -0.000000 0.000000
vt 0.130730 -0.103706 0.000000
vt 0.119869 0.059811 0.000000
vt 0.000000 -0.000000 0.000000
vt 0.006866 -0.163734 0.000000
vt 0.031641 -0.158991 0.000000
vt 0.000000 -0.000000 0.000000
vt 0.003269 -0.202401 0.000000
vt 0.111492 -0.123447 0.000000
vt 0.000000 -0.000000 0.000000
vt -0.095496 -0.078913 0.000000
vt 0.010378 -0.202162 0.000000
vt 0.000000 -0.000000 0.000000
vt -0.124674 0.104191 0.000000
vt -0.180755 -0.006271 0.000000
vt 0.000000 -0.000000 0.000000
vt 0.164935 -0.010098 0.000000
vt 0.061683 0.118916 0.000000
vt 0.000000 -0.000000 0.000000
vt 0.101234 -0.130605 0.000000
vt 0.132188 -0.101841 0.000000
vt 0.000000 -0.000000 0.000000
vt 0.135163 -0.120178 0.000000
vt 0.180771 0.005781 0.000000
vt 0.000000 -0.000000 0.000000
vt -0.139204 0.115473 0.000000
vt -0.162359 -0.006226 0.000000
vt 0.000000 -0.000000 0.000000
vt -0.158637 0.051766 0.000000
vt -0.142345 -0.081202 0.000000
vt 0.000000 0.000000 0.000000
vt 0.158633 -0.051776 0.000000
vt 0.164942 -0.009993 0.000000
vt 0.000000 -0.000000 0.000000
vt -0.155120 -0.130057 0.000000
vt 0.011187 -0.133494 0.000000
vt 0.000000 0.000000 0.000000
vt -0.162366 -0.006062 0.000000
vt -0.155379 -0.129747 0.000000
vt 0.000000 0.000000 0.000000
vt -0.166302 0.003683 0.000000
vt -0.129116 -0.114487 0.000000
vt 0.000000 0.000000 0.000000
vt 0.061475 0.158905 0.000000
vt -0.089445 0.099726 0.000000
vt 0.000000 0.000000 0.000000
vt 0.082117 0.138679 0.000000
vt 0.060631 0.159228 0.000000
vt 0.000000 0.000000 0.000000
vt 0.151314 0.058164 0.000000
vt 0.142093 0.081642 0.000000
vt 0.000000 0.000000 0.000000
vt 0.190639 0.010450 0.000000
vt 0.119833 0.124170 0.000000
vt 0.000000 0.000000 0.000000
vt 0.073613 -0.099639 0.000000
vt 0.190595 0.011224 0.000000
vt 0.000000 0.000000 0.000000
vn -0.000000 0.100000 0.000000
vn -0.000000 0.100000 0.000000
vn -0.000000 0.100000 0.000000
vn -0.000000 0.100000 0.000000
vn -0.000000 0.100000 0.000000
vn -0.000000 0.100000 0.000000
vn -0.000000 0.100000 0.000000
vn -0.000000 0.100000 0.000000
vn -0.000000 0.100000 0.000000
vn -0.000000 0.100000 0.000000
vn -0.000000 0.100000 0.000000
vn -0.000000 0.100000 0.000000
vn 0.030675 0.095004 0.005767
vn 0.030675 0.095004 0.005767
vn 0.030675 0.095004 0.005767
vn 0.029175 0.095332 0.007783
vn 0.029175 0.095332 0.007783
vn 0.029175 0.095332 0.007783
vn 0.079927 0.059478 0.008609
vn 0.079927 0.059478 0.008609
vn 0.079927 0.059478 0.008609
vn 0.083897 0.052081 0.015774
vn 0.083897 0.052081 0.015774
vn 0.083897 0.052081 0.015774
vn 0.028337 0.094957 -0.013426
vn 0.028337 0.094957 -0.013426
vn 0.028337 0.094957 -0.013426
vn 0.028762 0.095630 -0.005266
vn 0.028762 0.095630 -0.005266
vn 0.028762 0.095630 -0.005266
vn 0.068717 0.064945 -0.032559
vn 0.068717 0.064945 -0.032559
vn 0.068717 0.064945 -0.032559
vn 0.066365 0.052326 -0.053458
vn 0.066365 0.052326 -0.053458
vn 0.066365 0.052326 -0.053458
vn 0.015043 0.094950 -0.027537
vn 0.015043 0.094950 -0.027537
vn 0.015043 0.094950 -0.027537
vn 0.021515 0.095763 -0.019145
vn 0.021515 0.095763 -0.019145
vn 0.021515 0.095763 -0.019145
vn 0.035899 0.066280 -0.065713
vn 0.035899 0.066280 -0.065713
vn 0.035899 0.066280 -0.065713
vn 0.009126 0.052326 -0.084727
vn 0.009126 0.052326 -0.084727
vn 0.009126 0.052326 -0.084727
vn -0.004013 0.094957 -0.031099
vn -0.004013 0.094957 -0.031099
vn -0.004013 0.094957 -0.031099
vn 0.004486 0.095763 -0.028448
vn 0.004486 0.095763 -0.028448
vn 0.004486 0.095763 -0.028448
vn -0.009731 0.064945 -0.075415
vn -0.009731 0.064945 -0.075415
vn -0.009731 0.064945 -0.075415
vn -0.052445 0.054870 -0.065107
vn -0.052445 0.054870 -0.065107
vn -0.052445 0.054870 -0.065107
vn -0.054612 0.060591 -0.057847
vn -0.054612 0.060591 -0.057847
vn -0.054612 0.060591 -0.057847
vn -0.021426 0.095004 -0.022696
vn -0.021426 0.095004 -0.022696
vn -0.021426 0.095004 -0.022696
vn -0.022313 0.095332 -0.020345
vn -0.022313 0.095332 -0.020345
vn -0.022313 0.095332 -0.020345
vn -0.011109 0.095630 -0.027048
vn -0.011109 0.095630 -0.027048
vn -0.011109 0.095630 -0.027048
vn -0.030675 0.095004 -0.005767
vn -0.030675 0.095004 -0.005767
vn -0.030675 0.095004 -0.005767
vn -0.029175 0.095332 -0.007783
vn -0.029175 0.095332 -0.007783
vn -0.029175 0.095332 -0.007783
vn -0.073875 0.065952 -0.013889
vn -0.073875 0.065952 -0.013889
vn -0.073875 0.065952 -0.013889
vn -0.075044 0.061769 -0.023514
vn -0.075044 0.061769 -0.023514
vn -0.075044 0.061769 -0.023514
vn -0.079543 0.060187 0.007102
vn -0.079543 0.060187 0.007102
vn -0.079543 0.060187 0.007102
vn -0.028337 0.094957 0.013426
vn -0.028337 0.094957 0.013426
vn -0.028337 0.094957 0.013426
vn -0.028762 0.095630 0.005266
vn -0.028762 0.095630 0.005266
vn -0.028762 0.095630 0.005266
vn -0.068717 0.064945 0.032559
vn -0.068717 0.064945 0.032559
vn -0.068717 0.064945 0.032559
vn -0.068626 0.063270 0.035880
vn -0.068626 0.063270 0.035880
vn -0.068626 0.063270 0.035880
vn -0.050963 0.060723 0.060955
vn -0.050963 0.060723 0.060955
vn -0.050963 0.060723 0.060955
vn -0.015043 0.094950 0.027537
vn -0.015043 0.094950 0.027537
vn -0.015043 0.094950 0.027537
vn -0.021515 0.095763 0.019145
vn -0.021515 0.095763 0.019145
vn -0.021515 0.095763 0.019145
vn -0.035899 0.066280 0.065713
vn -0.035899 0.066280 0.065713
vn -0.035899 0.066280 0.065713
vn -0.023756 0.060724 0.075818
vn -0.023756 0.060724 0.075818
vn -0.023756 0.060724 0.075818
vn 0.004013 0.094957 0.031099
vn 0.004013 0.094957 0.031099
vn 0.004013 0.094957 0.031099
vn -0.004485 0.095763 0.028448
vn -0.004485 0.095763 0.028448
vn -0.004485 0.095763 0.028448
vn 0.009731 0.064945 0.075415
vn 0.009731 0.064945 0.075415
vn 0.009731 0.064945 0.075415
vn 0.006887 0.063270 0.077133
vn 0.006887 0.063270 0.077133
vn 0.006887 0.063270 0.077133
vn 0.037001 0.060187 0.070770
vn 0.037001 0.060187 0.070770
vn 0.037001 0.060187 0.070770
vn 0.021426 0.095004 0.022696
vn 0.021426 0.095004 0.022696
vn 0.021426 0.095004 0.022696
vn 0.022313 0.095332 0.020344
vn 0.022313 0.095332 0.020344
vn 0.022313 0.095332 0.020344
vn 0.011108 0.095629 0.027048
vn 0.011108 0.095629 0.027048
vn 0.011108 0.095629 0.027048
vn 0.051602 0.065952 0.054659
vn 0.051602 0.065952 0.054659
vn 0.051602 0.065952 0.054659
vn 0.060333 0.061769 0.050443
vn 0.060333 0.061769 0.050443
vn 0.060333 0.061769 0.050443
usemtl Aluminum_-_Satin
f 1/1/1 2/2/2 3/3/3
f 4/4/4 1/5/1 3/6/3
f 5/7/5 1/8/1 4/9/4
f 6/10/6 3/11/3 2/12/2
f 7/13/7 3/14/3 6/15/6
f 8/16/8 1/17/1 5/18/5
f 9/19/9 2/20/2 1/21/1
f 10/22/10 4/23/4 3/24/3
f 11/25/11 4/26/4 10/27/10
f 12/28/12 2/29/2 9/30/9
f 13/31/13 14/32/14 10/33/15
f 3/34/16 13/35/17 10/36/18
f 13/37/19 15/38/20 16/39/21
f 16/40/22 14/41/23 13/42/24
f 11/43/25 14/44/26 17/45/27
f 11/46/28 10/47/29 14/48/30
f 17/49/31 14/50/32 16/51/33
f 16/52/34 18/53/35 17/54/36
f 4/55/37 17/56/38 19/57/39
f 4/58/40 11/59/41 17/60/42
f 18/61/43 19/62/44 17/63/45
f 18/64/46 20/65/47 19/66/48
f 19/67/49 21/68/50 5/69/51
f 5/70/52 4/71/53 19/72/54
f 20/73/55 21/74/56 19/75/57
f 21/76/58 20/77/59 22/78/60
f 22/79/61 23/80/62 21/81/63
f 8/82/64 21/83/65 23/84/66
f 1/85/67 8/86/68 23/87/69
f 8/88/70 5/89/71 21/90/72
f 23/91/73 24/92/74 9/93/75
f 1/94/76 23/95/77 9/96/78
f 25/97/79 24/98/80 23/99/81
f 22/100/82 25/101/83 23/102/84
f 25/103/85 26/104/86 24/105/87
f 12/106/88 24/107/89 27/108/90
f 12/109/91 9/110/92 24/111/93
f 27/112/94 24/113/95 26/114/96
f 28/115/97 27/116/98 26/117/99
f 28/118/100 29/119/101 27/120/102
f 2/121/103 27/122/104 30/123/105
f 2/124/106 12/125/107 27/126/108
f 30/127/109 27/128/110 29/129/111
f 29/130/112 31/131/113 30/132/114
f 30/133/115 32/134/116 6/135/117
f 6/136/118 2/137/119 30/138/120
f 33/139/121 32/140/122 30/141/123
f 31/142/124 33/143/125 30/144/126
f 33/145/127 34/146/128 32/147/129
f 7/148/130 32/149/131 13/150/132
f 3/151/133 7/152/134 13/153/135
f 7/154/136 6/155/137 32/156/138
f 13/157/139 32/158/140 34/159/141
f 15/160/142 13/161/143 34/162/144

# 34 vertices
# 162 texture params
# 144 normals
# 54 facets

# 1 groups
