# WaveFront *.obj file (generated by Autodesk ATF)

mtllib 5cda6c17-6176-43bf-9e59-9dfd9e753a3e.mtl

g 11_MRSHLDSRVT-Body

v -2882.971191 -67.315769 48.319998
v -2880.114746 -57.999344 48.319998
v -2887.665100 -55.684223 48.319998
v -2890.521851 -65.000648 48.319998
v -2879.814453 -64.506721 48.319998
v -2890.821838 -58.493271 48.319998
v -2882.311401 -55.996227 48.319998
v -2888.324890 -67.003765 48.319998
v -2885.452271 -67.770081 48.319998
v -2885.184021 -55.229931 48.319998
v -2879.156189 -60.332680 48.319998
v -2891.480103 -62.667332 48.319998
v -2895.709839 -80.522060 43.580008
v -2882.544556 -82.997322 43.580008
v -2900.539856 -89.363251 30.999999
v -2876.379395 -91.965694 30.999999
v -2870.438232 -77.261333 43.580008
v -2857.454834 -76.721764 30.999999
v -2864.015808 -65.505047 43.580008
v -2854.852600 -52.561111 30.999999
v -2865.730286 -52.218971 43.580008
v -2870.096436 -33.636751 30.999999
v -2874.926453 -42.477932 43.580008
v -2888.092041 -40.002670 43.580008
v -2881.918030 -29.932604 30.999999
v -2894.257202 -31.034298 30.999999
v -2900.198059 -45.738659 43.580008
v -2913.181458 -46.278248 30.999999
v -2906.620483 -57.494946 43.580008
v -2915.783997 -70.438881 30.999999
v -2904.906311 -70.781021 43.580008
v -2910.043945 -81.417160 30.999999
vt 0.469391 -1.163155 0.000000
vt 0.755035 -0.231512 0.000000
vt 0.000000 0.000000 0.000000
vt -0.285675 -0.931643 0.000000
vt 0.469391 -1.163155 0.000000
vt 0.000000 0.000000 0.000000
vt 0.315674 0.280905 0.000000
vt 0.285645 0.931643 0.000000
vt 0.000000 0.000000 0.000000
vt -0.315674 -0.280905 0.000000
vt -0.285675 -0.931643 0.000000
vt 0.000000 0.000000 0.000000
vt -0.219666 0.200312 0.000000
vt -0.755035 0.231512 0.000000
vt 0.000000 0.000000 0.000000
vt 0.219696 -0.200312 0.000000
vt 0.755066 -0.231512 0.000000
vt 0.000000 0.000000 0.000000
vt 0.287262 -0.076632 0.000000
vt 0.535370 -0.031200 0.000000
vt 0.000000 0.000000 0.000000
vt -0.287262 0.076630 0.000000
vt -0.535370 0.031200 0.000000
vt 0.000000 0.000000 0.000000
vt 0.065826 0.417404 0.000000
vt -0.030029 0.650738 0.000000
vt 0.000000 0.000000 0.000000
vt -0.065826 -0.417406 0.000000
vt 0.029999 -0.650738 0.000000
vt 0.000000 0.000000 0.000000
vt -1.052593 -1.339787 0.000000
vt 0.261516 -1.599850 0.000000
vt 0.000000 0.000000 0.000000
vt -0.286309 0.080117 0.000000
vt -1.060924 -1.333200 0.000000
vt 0.000000 0.000000 0.000000
vt -1.732891 1.904175 0.000000
vt -2.391126 0.433036 0.000000
vt 0.000000 0.000000 0.000000
vt 1.485392 -2.102951 0.000000
vt 1.260004 -0.454869 0.000000
vt 0.000000 0.000000 0.000000
vt -1.307312 1.037065 0.000000
vt -1.198710 -0.598115 0.000000
vt 0.000000 0.000000 0.000000
vt -0.068664 1.637343 0.000000
vt -0.316397 1.589907 0.000000
vt 0.000000 0.000000 0.000000
vt -0.032670 2.024020 0.000000
vt -1.114920 1.234475 0.000000
vt 0.000000 0.000000 0.000000
vt 0.483428 -1.965711 0.000000
vt 1.807197 0.072131 0.000000
vt 0.000000 0.000000 0.000000
vt -1.649368 0.100982 0.000000
vt -0.616826 -1.189161 0.000000
vt 0.000000 0.000000 0.000000
vt -1.012351 1.306046 0.000000
vt -1.321900 1.018405 0.000000
vt 0.000000 0.000000 0.000000
vt -1.351630 1.201780 0.000000
vt -1.807712 -0.057811 0.000000
vt 0.000000 0.000000 0.000000
vt 1.415085 -1.126372 0.000000
vt 1.551818 1.299817 0.000000
vt 0.000000 0.000000 0.000000
vt 1.586365 -0.517654 0.000000
vt 1.423433 0.812025 0.000000
vt 0.000000 0.000000 0.000000
vt -1.586331 0.517758 0.000000
vt -1.649432 0.099933 0.000000
vt 0.000000 0.000000 0.000000
vt 1.551190 1.300567 0.000000
vt -0.111878 1.334944 0.000000
vt 0.000000 0.000000 0.000000
vt -0.680573 -2.182432 0.000000
vt 0.982365 -2.222615 0.000000
vt 0.000000 0.000000 0.000000
vt 0.552901 2.218217 0.000000
vt -0.665152 1.162818 0.000000
vt 0.000000 0.000000 0.000000
vt -0.614765 -1.589045 0.000000
vt 0.894448 -0.997264 0.000000
vt 0.000000 0.000000 0.000000
vt -0.821164 -1.386789 0.000000
vt -0.606336 -1.592281 0.000000
vt 0.000000 0.000000 0.000000
vt -1.513151 -0.581639 0.000000
vt -1.420913 -0.816426 0.000000
vt 0.000000 0.000000 0.000000
vt 1.052593 1.339789 0.000000
vt -0.261547 1.599853 0.000000
vt 0.000000 0.000000 0.000000
vt 0.286309 -0.080115 0.000000
vt 1.060924 1.333202 0.000000
vt 0.000000 0.000000 0.000000
vt -0.424908 1.861369 0.000000
vt -1.288300 0.367258 0.000000
vt 0.000000 0.000000 0.000000
vt 0.898962 1.337680 0.000000
vt -0.205851 1.898122 0.000000
vt 0.000000 0.000000 0.000000
vt 0.465729 1.661598 0.000000
vt -0.759687 1.479815 0.000000
vt 0.000000 0.000000 0.000000
vt 1.307313 -1.037064 0.000000
vt 1.198679 0.598114 0.000000
vt 0.000000 0.000000 0.000000
vt 0.068694 -1.637342 0.000000
vt 0.316426 -1.589909 0.000000
vt 0.000000 0.000000 0.000000
vt 0.032708 -2.024010 0.000000
vt 1.114927 -1.234469 0.000000
vt 0.000000 0.000000 0.000000
vt -0.483450 1.965696 0.000000
vt -1.807197 -0.072133 0.000000
vt 0.000000 0.000000 0.000000
vt 1.649368 -0.100982 0.000000
vt 0.616826 1.189161 0.000000
vt 0.000000 0.000000 0.000000
vt 1.012351 -1.306046 0.000000
vt 1.321900 -1.018405 0.000000
vt 0.000000 0.000000 0.000000
vt 1.351630 -1.201778 0.000000
vt 1.807712 0.057813 0.000000
vt 0.000000 0.000000 0.000000
vt -1.415084 1.126371 0.000000
vt -1.551835 -1.299818 0.000000
vt 0.000000 0.000000 0.000000
vt -1.586365 0.517655 0.000000
vt -1.423462 -0.812023 0.000000
vt 0.000000 0.000000 0.000000
vt 1.586331 -0.517760 0.000000
vt 1.649432 -0.099933 0.000000
vt 0.000000 0.000000 0.000000
vt -1.551210 -1.300565 0.000000
vt 0.111858 -1.334942 0.000000
vt 0.000000 0.000000 0.000000
vt -1.663016 0.036828 0.000000
vt -1.291145 -1.144874 0.000000
vt 0.000000 0.000000 0.000000
vt 0.614735 1.589047 0.000000
vt -0.894478 0.997266 0.000000
vt 0.000000 0.000000 0.000000
vt 0.821158 1.386792 0.000000
vt 0.606300 1.592285 0.000000
vt 0.000000 0.000000 0.000000
vt 1.513152 0.581637 0.000000
vt 1.420944 0.816422 0.000000
vt 0.000000 0.000000 0.000000
vt 1.906390 0.104498 0.000000
vt 1.198311 1.241711 0.000000
vt 0.000000 0.000000 0.000000
vt 0.736134 -0.996387 0.000000
vt 1.905950 0.112240 0.000000
vt 0.000000 0.000000 0.000000
vn 0.000000 0.000000 0.100000
vn 0.000000 0.000000 0.100000
vn 0.000000 0.000000 0.100000
vn 0.000000 0.000000 0.100000
vn 0.000000 0.000000 0.100000
vn 0.000000 0.000000 0.100000
vn 0.000000 0.000000 0.100000
vn 0.000000 0.000000 0.100000
vn 0.000000 0.000000 0.100000
vn 0.000000 0.000000 0.100000
vn 0.000000 0.000000 0.100000
vn 0.000000 0.000000 0.100000
vn -0.005767 -0.030675 0.095004
vn -0.005767 -0.030675 0.095004
vn -0.005767 -0.030675 0.095004
vn -0.007783 -0.029175 0.095332
vn -0.007783 -0.029175 0.095332
vn -0.007783 -0.029175 0.095332
vn -0.008609 -0.079927 0.059478
vn -0.008609 -0.079927 0.059478
vn -0.008609 -0.079927 0.059478
vn -0.015774 -0.083897 0.052081
vn -0.015774 -0.083897 0.052081
vn -0.015774 -0.083897 0.052081
vn 0.013426 -0.028337 0.094957
vn 0.013426 -0.028337 0.094957
vn 0.013426 -0.028337 0.094957
vn 0.005267 -0.028762 0.095629
vn 0.005267 -0.028762 0.095629
vn 0.005267 -0.028762 0.095629
vn 0.032558 -0.068717 0.064945
vn 0.032558 -0.068717 0.064945
vn 0.032558 -0.068717 0.064945
vn 0.053458 -0.066365 0.052325
vn 0.053458 -0.066365 0.052325
vn 0.053458 -0.066365 0.052325
vn 0.027537 -0.015043 0.094950
vn 0.027537 -0.015043 0.094950
vn 0.027537 -0.015043 0.094950
vn 0.019145 -0.021515 0.095763
vn 0.019145 -0.021515 0.095763
vn 0.019145 -0.021515 0.095763
vn 0.065713 -0.035899 0.066280
vn 0.065713 -0.035899 0.066280
vn 0.065713 -0.035899 0.066280
vn 0.084728 -0.009126 0.052325
vn 0.084728 -0.009126 0.052325
vn 0.084728 -0.009126 0.052325
vn 0.031099 0.004013 0.094957
vn 0.031099 0.004013 0.094957
vn 0.031099 0.004013 0.094957
vn 0.028448 -0.004486 0.095763
vn 0.028448 -0.004486 0.095763
vn 0.028448 -0.004486 0.095763
vn 0.075415 0.009732 0.064945
vn 0.075415 0.009732 0.064945
vn 0.075415 0.009732 0.064945
vn 0.065107 0.052444 0.054870
vn 0.065107 0.052444 0.054870
vn 0.065107 0.052444 0.054870
vn 0.057847 0.054612 0.060591
vn 0.057847 0.054612 0.060591
vn 0.057847 0.054612 0.060591
vn 0.022696 0.021426 0.095004
vn 0.022696 0.021426 0.095004
vn 0.022696 0.021426 0.095004
vn 0.020346 0.022312 0.095332
vn 0.020346 0.022312 0.095332
vn 0.020346 0.022312 0.095332
vn 0.027047 0.011111 0.095630
vn 0.027047 0.011111 0.095630
vn 0.027047 0.011111 0.095630
vn 0.005767 0.030675 0.095004
vn 0.005767 0.030675 0.095004
vn 0.005767 0.030675 0.095004
vn 0.007783 0.029175 0.095332
vn 0.007783 0.029175 0.095332
vn 0.007783 0.029175 0.095332
vn 0.013889 0.073875 0.065952
vn 0.013889 0.073875 0.065952
vn 0.013889 0.073875 0.065952
vn 0.023514 0.075044 0.061769
vn 0.023514 0.075044 0.061769
vn 0.023514 0.075044 0.061769
vn -0.007102 0.079543 0.060187
vn -0.007102 0.079543 0.060187
vn -0.007102 0.079543 0.060187
vn -0.013426 0.028337 0.094957
vn -0.013426 0.028337 0.094957
vn -0.013426 0.028337 0.094957
vn -0.005266 0.028762 0.095630
vn -0.005266 0.028762 0.095630
vn -0.005266 0.028762 0.095630
vn -0.032559 0.068717 0.064945
vn -0.032559 0.068717 0.064945
vn -0.032559 0.068717 0.064945
vn -0.053458 0.066364 0.052326
vn -0.053458 0.066364 0.052326
vn -0.053458 0.066364 0.052326
vn -0.027537 0.015043 0.094950
vn -0.027537 0.015043 0.094950
vn -0.027537 0.015043 0.094950
vn -0.019145 0.021515 0.095763
vn -0.019145 0.021515 0.095763
vn -0.019145 0.021515 0.095763
vn -0.065713 0.035899 0.066280
vn -0.065713 0.035899 0.066280
vn -0.065713 0.035899 0.066280
vn -0.084727 0.009127 0.052326
vn -0.084727 0.009127 0.052326
vn -0.084727 0.009127 0.052326
vn -0.031099 -0.004012 0.094957
vn -0.031099 -0.004012 0.094957
vn -0.031099 -0.004012 0.094957
vn -0.028448 0.004486 0.095763
vn -0.028448 0.004486 0.095763
vn -0.028448 0.004486 0.095763
vn -0.075415 -0.009730 0.064945
vn -0.075415 -0.009730 0.064945
vn -0.075415 -0.009730 0.064945
vn -0.070770 -0.037002 0.060187
vn -0.070770 -0.037002 0.060187
vn -0.070770 -0.037002 0.060187
vn -0.022696 -0.021427 0.095004
vn -0.022696 -0.021427 0.095004
vn -0.022696 -0.021427 0.095004
vn -0.020344 -0.022313 0.095332
vn -0.020344 -0.022313 0.095332
vn -0.020344 -0.022313 0.095332
vn -0.027048 -0.011108 0.095630
vn -0.027048 -0.011108 0.095630
vn -0.027048 -0.011108 0.095630
vn -0.054658 -0.051603 0.065951
vn -0.054658 -0.051603 0.065951
vn -0.054658 -0.051603 0.065951
vn -0.050443 -0.060333 0.061769
vn -0.050443 -0.060333 0.061769
vn -0.050443 -0.060333 0.061769
usemtl Aluminum_-_Satin
f 1/1/1 2/2/2 3/3/3
f 4/4/4 1/5/1 3/6/3
f 5/7/5 2/8/2 1/9/1
f 6/10/6 4/11/4 3/12/3
f 7/13/7 3/14/3 2/15/2
f 8/16/8 1/17/1 4/18/4
f 9/19/9 1/20/1 8/21/8
f 10/22/10 3/23/3 7/24/7
f 11/25/11 2/26/2 5/27/5
f 12/28/12 4/29/4 6/30/6
f 13/31/13 14/32/14 9/33/15
f 8/34/16 13/35/17 9/36/18
f 13/37/19 15/38/20 16/39/21
f 16/40/22 14/41/23 13/42/24
f 1/43/25 14/44/26 17/45/27
f 1/46/28 9/47/29 14/48/30
f 17/49/31 14/50/32 16/51/33
f 16/52/34 18/53/35 17/54/36
f 5/55/37 17/56/38 19/57/39
f 5/58/40 1/59/41 17/60/42
f 19/61/43 17/62/44 18/63/45
f 18/64/46 20/65/47 19/66/48
f 19/67/49 21/68/50 11/69/51
f 11/70/52 5/71/53 19/72/54
f 20/73/55 21/74/56 19/75/57
f 21/76/58 20/77/59 22/78/60
f 22/79/61 23/80/62 21/81/63
f 2/82/64 21/83/65 23/84/66
f 7/85/67 2/86/68 23/87/69
f 2/88/70 11/89/71 21/90/72
f 23/91/73 24/92/74 10/93/75
f 7/94/76 23/95/77 10/96/78
f 25/97/79 24/98/80 23/99/81
f 22/100/82 25/101/83 23/102/84
f 25/103/85 26/104/86 24/105/87
f 3/106/88 24/107/89 27/108/90
f 3/109/91 10/110/92 24/111/93
f 27/112/94 24/113/95 26/114/96
f 26/115/97 28/116/98 27/117/99
f 6/118/100 27/119/101 29/120/102
f 6/121/103 3/122/104 27/123/105
f 29/124/106 27/125/107 28/126/108
f 28/127/109 30/128/110 29/129/111
f 29/130/112 31/131/113 12/132/114
f 12/133/115 6/134/116 29/135/117
f 30/136/118 31/137/119 29/138/120
f 30/139/121 32/140/122 31/141/123
f 4/142/124 31/143/125 13/144/126
f 8/145/127 4/146/128 13/147/129
f 4/148/130 12/149/131 31/150/132
f 13/151/133 31/152/134 32/153/135
f 15/154/136 13/155/137 32/156/138

# 32 vertices
# 156 texture params
# 138 normals
# 52 facets

# 1 groups
