# WaveFront *.obj file (generated by Autodesk ATF)

mtllib fcafcbe0-ada9-423a-9ebb-a8347727b69c.mtl

g 11_MRSHLDSRVT-Body

v 6.731577 4.832000 288.297119
v 5.799934 4.832000 288.011475
v 5.568422 4.832000 288.766510
v 6.500065 4.832000 289.052185
v 6.450672 4.832000 287.981445
v 5.849327 4.832000 289.082184
v 5.599623 4.832000 288.231140
v 6.700377 4.832000 288.832489
v 6.777008 4.832000 288.545227
v 5.522993 4.832000 288.518402
v 6.033268 4.832000 287.915619
v 6.266733 4.832000 289.148010
v 8.052206 4.358001 289.570984
v 8.299732 4.358001 288.254456
v 8.936325 3.100000 290.053986
v 9.196569 3.100000 287.637939
v 7.726133 4.358001 287.043823
v 7.672176 3.100000 285.745483
v 6.550505 4.358001 286.401581
v 5.256111 3.100000 285.485260
v 5.221897 4.358001 286.573029
v 3.363675 3.100000 287.009644
v 4.247793 4.358001 287.492645
v 4.000267 4.358001 288.809204
v 2.993260 3.100000 288.191803
v 3.103430 3.100000 289.425720
v 4.573866 4.358001 290.019806
v 4.627825 3.100000 291.318146
v 5.749495 4.358001 290.662048
v 7.043888 3.100000 291.578400
v 7.078102 4.358001 290.490631
v 8.141716 3.100000 291.004395
vt 0.046939 -0.116315 0.000000
vt 0.075504 -0.023151 0.000000
vt 0.000000 0.000000 0.000000
vt -0.028568 -0.093164 0.000000
vt 0.046939 -0.116315 0.000000
vt 0.000000 0.000000 0.000000
vt 0.031567 0.028090 0.000000
vt 0.028564 0.093164 0.000000
vt 0.000000 0.000000 0.000000
vt -0.031567 -0.028090 0.000000
vt -0.028568 -0.093164 0.000000
vt 0.000000 0.000000 0.000000
vt -0.021967 0.020031 0.000000
vt -0.075504 0.023151 0.000000
vt 0.000000 0.000000 0.000000
vt 0.021970 -0.020031 0.000000
vt 0.075507 -0.023151 0.000000
vt 0.000000 0.000000 0.000000
vt 0.028726 -0.007663 0.000000
vt 0.053537 -0.003120 0.000000
vt 0.000000 0.000000 0.000000
vt -0.028726 0.007663 0.000000
vt -0.053537 0.003120 0.000000
vt 0.000000 0.000000 0.000000
vt 0.006583 0.041740 0.000000
vt -0.003003 0.065074 0.000000
vt 0.000000 0.000000 0.000000
vt -0.006583 -0.041741 0.000000
vt 0.003000 -0.065074 0.000000
vt 0.000000 0.000000 0.000000
vt -0.105259 -0.133979 0.000000
vt 0.026152 -0.159985 0.000000
vt 0.000000 0.000000 0.000000
vt -0.028631 0.008012 0.000000
vt -0.106092 -0.133320 0.000000
vt 0.000000 0.000000 0.000000
vt -0.173289 0.190418 0.000000
vt -0.239113 0.043304 0.000000
vt 0.000000 0.000000 0.000000
vt 0.148539 -0.210295 0.000000
vt 0.126000 -0.045487 0.000000
vt 0.000000 0.000000 0.000000
vt -0.130731 0.103706 0.000000
vt -0.119871 -0.059811 0.000000
vt -0.000000 0.000000 0.000000
vt -0.006866 0.163734 0.000000
vt -0.031640 0.158991 0.000000
vt -0.000000 0.000000 0.000000
vt -0.003267 0.202402 0.000000
vt -0.111492 0.123447 0.000000
vt -0.000000 0.000000 0.000000
vt 0.048343 -0.196571 0.000000
vt 0.180720 0.007213 0.000000
vt -0.000000 0.000000 0.000000
vt -0.164937 0.010098 0.000000
vt -0.061683 -0.118916 0.000000
vt -0.000000 0.000000 0.000000
vt -0.101235 0.130605 0.000000
vt -0.132190 0.101841 0.000000
vt -0.000000 0.000000 0.000000
vt -0.135163 0.120178 0.000000
vt -0.180771 -0.005781 0.000000
vt -0.000000 0.000000 0.000000
vt 0.141508 -0.112637 0.000000
vt 0.155182 0.129982 0.000000
vt 0.000000 0.000000 0.000000
vt 0.158637 -0.051765 0.000000
vt 0.142343 0.081202 0.000000
vt -0.000000 0.000000 0.000000
vt -0.158633 0.051776 0.000000
vt -0.164943 0.009993 0.000000
vt -0.000000 0.000000 0.000000
vt 0.155119 0.130057 0.000000
vt -0.011188 0.133494 0.000000
vt -0.000000 0.000000 0.000000
vt -0.068057 -0.218243 0.000000
vt 0.098237 -0.222262 0.000000
vt -0.000000 0.000000 0.000000
vt 0.055290 0.221822 0.000000
vt -0.066515 0.116282 0.000000
vt -0.000000 0.000000 0.000000
vt -0.061477 -0.158905 0.000000
vt 0.089445 -0.099726 0.000000
vt -0.000000 0.000000 0.000000
vt -0.082116 -0.138679 0.000000
vt -0.060634 -0.159228 0.000000
vt -0.000000 0.000000 0.000000
vt -0.151315 -0.058164 0.000000
vt -0.142091 -0.081643 0.000000
vt -0.000000 0.000000 0.000000
vt 0.105259 0.133979 0.000000
vt -0.026155 0.159985 0.000000
vt -0.000000 0.000000 0.000000
vt 0.028631 -0.008012 0.000000
vt 0.106092 0.133320 0.000000
vt -0.000000 0.000000 0.000000
vt -0.042491 0.186137 0.000000
vt -0.128830 0.036726 0.000000
vt -0.000000 0.000000 0.000000
vt 0.089896 0.133768 0.000000
vt -0.020585 0.189812 0.000000
vt -0.000000 0.000000 0.000000
vt 0.046573 0.166160 0.000000
vt -0.075969 0.147981 0.000000
vt 0.000000 -0.000000 0.000000
vt 0.130731 -0.103706 0.000000
vt 0.119868 0.059811 0.000000
vt 0.000000 -0.000000 0.000000
vt 0.006869 -0.163734 0.000000
vt 0.031643 -0.158991 0.000000
vt 0.000000 -0.000000 0.000000
vt 0.003271 -0.202401 0.000000
vt 0.111493 -0.123447 0.000000
vt 0.000000 -0.000000 0.000000
vt -0.048345 0.196570 0.000000
vt -0.180720 -0.007213 0.000000
vt 0.000000 -0.000000 0.000000
vt 0.164937 -0.010098 0.000000
vt 0.061683 0.118916 0.000000
vt 0.000000 -0.000000 0.000000
vt 0.101235 -0.130605 0.000000
vt 0.132190 -0.101841 0.000000
vt 0.000000 -0.000000 0.000000
vt 0.135163 -0.120178 0.000000
vt 0.180771 0.005781 0.000000
vt 0.000000 -0.000000 0.000000
vt -0.141508 0.112637 0.000000
vt -0.155184 -0.129982 0.000000
vt 0.000000 -0.000000 0.000000
vt -0.158637 0.051766 0.000000
vt -0.142346 -0.081202 0.000000
vt 0.000000 0.000000 0.000000
vt 0.158633 -0.051776 0.000000
vt 0.164943 -0.009993 0.000000
vt 0.000000 -0.000000 0.000000
vt -0.155121 -0.130056 0.000000
vt 0.011186 -0.133494 0.000000
vt 0.000000 0.000000 0.000000
vt -0.166302 0.003683 0.000000
vt -0.129115 -0.114487 0.000000
vt 0.000000 0.000000 0.000000
vt 0.061474 0.158905 0.000000
vt -0.089448 0.099727 0.000000
vt 0.000000 0.000000 0.000000
vt 0.082116 0.138679 0.000000
vt 0.060630 0.159228 0.000000
vt 0.000000 0.000000 0.000000
vt 0.151315 0.058164 0.000000
vt 0.142094 0.081642 0.000000
vt 0.000000 0.000000 0.000000
vt 0.190639 0.010450 0.000000
vt 0.119831 0.124171 0.000000
vt 0.000000 0.000000 0.000000
vt 0.073613 -0.099639 0.000000
vt 0.190595 0.011224 0.000000
vt 0.000000 0.000000 0.000000
vn -0.000000 0.100000 0.000000
vn -0.000000 0.100000 0.000000
vn -0.000000 0.100000 0.000000
vn -0.000000 0.100000 0.000000
vn -0.000000 0.100000 0.000000
vn -0.000000 0.100000 0.000000
vn -0.000000 0.100000 0.000000
vn -0.000000 0.100000 0.000000
vn -0.000000 0.100000 0.000000
vn -0.000000 0.100000 0.000000
vn -0.000000 0.100000 0.000000
vn -0.000000 0.100000 0.000000
vn 0.030675 0.095004 0.005767
vn 0.030675 0.095004 0.005767
vn 0.030675 0.095004 0.005767
vn 0.029175 0.095332 0.007783
vn 0.029175 0.095332 0.007783
vn 0.029175 0.095332 0.007783
vn 0.079927 0.059478 0.008609
vn 0.079927 0.059478 0.008609
vn 0.079927 0.059478 0.008609
vn 0.083897 0.052081 0.015774
vn 0.083897 0.052081 0.015774
vn 0.083897 0.052081 0.015774
vn 0.028337 0.094957 -0.013426
vn 0.028337 0.094957 -0.013426
vn 0.028337 0.094957 -0.013426
vn 0.028762 0.095629 -0.005267
vn 0.028762 0.095629 -0.005267
vn 0.028762 0.095629 -0.005267
vn 0.068717 0.064945 -0.032558
vn 0.068717 0.064945 -0.032558
vn 0.068717 0.064945 -0.032558
vn 0.066365 0.052325 -0.053458
vn 0.066365 0.052325 -0.053458
vn 0.066365 0.052325 -0.053458
vn 0.015043 0.094950 -0.027537
vn 0.015043 0.094950 -0.027537
vn 0.015043 0.094950 -0.027537
vn 0.021515 0.095763 -0.019145
vn 0.021515 0.095763 -0.019145
vn 0.021515 0.095763 -0.019145
vn 0.035899 0.066280 -0.065713
vn 0.035899 0.066280 -0.065713
vn 0.035899 0.066280 -0.065713
vn 0.009126 0.052325 -0.084728
vn 0.009126 0.052325 -0.084728
vn 0.009126 0.052325 -0.084728
vn -0.004013 0.094957 -0.031099
vn -0.004013 0.094957 -0.031099
vn -0.004013 0.094957 -0.031099
vn 0.004486 0.095763 -0.028448
vn 0.004486 0.095763 -0.028448
vn 0.004486 0.095763 -0.028448
vn -0.009732 0.064945 -0.075415
vn -0.009732 0.064945 -0.075415
vn -0.009732 0.064945 -0.075415
vn -0.052444 0.054870 -0.065107
vn -0.052444 0.054870 -0.065107
vn -0.052444 0.054870 -0.065107
vn -0.054612 0.060591 -0.057847
vn -0.054612 0.060591 -0.057847
vn -0.054612 0.060591 -0.057847
vn -0.021426 0.095004 -0.022696
vn -0.021426 0.095004 -0.022696
vn -0.021426 0.095004 -0.022696
vn -0.022312 0.095332 -0.020346
vn -0.022312 0.095332 -0.020346
vn -0.022312 0.095332 -0.020346
vn -0.011111 0.095630 -0.027047
vn -0.011111 0.095630 -0.027047
vn -0.011111 0.095630 -0.027047
vn -0.030675 0.095004 -0.005767
vn -0.030675 0.095004 -0.005767
vn -0.030675 0.095004 -0.005767
vn -0.029175 0.095332 -0.007783
vn -0.029175 0.095332 -0.007783
vn -0.029175 0.095332 -0.007783
vn -0.073875 0.065952 -0.013889
vn -0.073875 0.065952 -0.013889
vn -0.073875 0.065952 -0.013889
vn -0.075044 0.061769 -0.023514
vn -0.075044 0.061769 -0.023514
vn -0.075044 0.061769 -0.023514
vn -0.079543 0.060187 0.007102
vn -0.079543 0.060187 0.007102
vn -0.079543 0.060187 0.007102
vn -0.028337 0.094957 0.013426
vn -0.028337 0.094957 0.013426
vn -0.028337 0.094957 0.013426
vn -0.028762 0.095630 0.005266
vn -0.028762 0.095630 0.005266
vn -0.028762 0.095630 0.005266
vn -0.068717 0.064945 0.032559
vn -0.068717 0.064945 0.032559
vn -0.068717 0.064945 0.032559
vn -0.066364 0.052326 0.053458
vn -0.066364 0.052326 0.053458
vn -0.066364 0.052326 0.053458
vn -0.015043 0.094950 0.027537
vn -0.015043 0.094950 0.027537
vn -0.015043 0.094950 0.027537
vn -0.021515 0.095763 0.019145
vn -0.021515 0.095763 0.019145
vn -0.021515 0.095763 0.019145
vn -0.035899 0.066280 0.065713
vn -0.035899 0.066280 0.065713
vn -0.035899 0.066280 0.065713
vn -0.009127 0.052326 0.084727
vn -0.009127 0.052326 0.084727
vn -0.009127 0.052326 0.084727
vn 0.004012 0.094957 0.031099
vn 0.004012 0.094957 0.031099
vn 0.004012 0.094957 0.031099
vn -0.004486 0.095763 0.028448
vn -0.004486 0.095763 0.028448
vn -0.004486 0.095763 0.028448
vn 0.009730 0.064945 0.075415
vn 0.009730 0.064945 0.075415
vn 0.009730 0.064945 0.075415
vn 0.037002 0.060187 0.070770
vn 0.037002 0.060187 0.070770
vn 0.037002 0.060187 0.070770
vn 0.021427 0.095004 0.022696
vn 0.021427 0.095004 0.022696
vn 0.021427 0.095004 0.022696
vn 0.022313 0.095332 0.020344
vn 0.022313 0.095332 0.020344
vn 0.022313 0.095332 0.020344
vn 0.011108 0.095630 0.027048
vn 0.011108 0.095630 0.027048
vn 0.011108 0.095630 0.027048
vn 0.051603 0.065951 0.054658
vn 0.051603 0.065951 0.054658
vn 0.051603 0.065951 0.054658
vn 0.060333 0.061769 0.050443
vn 0.060333 0.061769 0.050443
vn 0.060333 0.061769 0.050443
usemtl Aluminum_-_Satin
f 1/1/1 2/2/2 3/3/3
f 4/4/4 1/5/1 3/6/3
f 5/7/5 2/8/2 1/9/1
f 6/10/6 4/11/4 3/12/3
f 7/13/7 3/14/3 2/15/2
f 8/16/8 1/17/1 4/18/4
f 9/19/9 1/20/1 8/21/8
f 10/22/10 3/23/3 7/24/7
f 11/25/11 2/26/2 5/27/5
f 12/28/12 4/29/4 6/30/6
f 13/31/13 14/32/14 9/33/15
f 8/34/16 13/35/17 9/36/18
f 13/37/19 15/38/20 16/39/21
f 16/40/22 14/41/23 13/42/24
f 1/43/25 14/44/26 17/45/27
f 1/46/28 9/47/29 14/48/30
f 17/49/31 14/50/32 16/51/33
f 16/52/34 18/53/35 17/54/36
f 5/55/37 17/56/38 19/57/39
f 5/58/40 1/59/41 17/60/42
f 19/61/43 17/62/44 18/63/45
f 18/64/46 20/65/47 19/66/48
f 19/67/49 21/68/50 11/69/51
f 11/70/52 5/71/53 19/72/54
f 20/73/55 21/74/56 19/75/57
f 21/76/58 20/77/59 22/78/60
f 22/79/61 23/80/62 21/81/63
f 2/82/64 21/83/65 23/84/66
f 7/85/67 2/86/68 23/87/69
f 2/88/70 11/89/71 21/90/72
f 23/91/73 24/92/74 10/93/75
f 7/94/76 23/95/77 10/96/78
f 25/97/79 24/98/80 23/99/81
f 22/100/82 25/101/83 23/102/84
f 25/103/85 26/104/86 24/105/87
f 3/106/88 24/107/89 27/108/90
f 3/109/91 10/110/92 24/111/93
f 27/112/94 24/113/95 26/114/96
f 26/115/97 28/116/98 27/117/99
f 6/118/100 27/119/101 29/120/102
f 6/121/103 3/122/104 27/123/105
f 29/124/106 27/125/107 28/126/108
f 28/127/109 30/128/110 29/129/111
f 29/130/112 31/131/113 12/132/114
f 12/133/115 6/134/116 29/135/117
f 30/136/118 31/137/119 29/138/120
f 30/139/121 32/140/122 31/141/123
f 4/142/124 31/143/125 13/144/126
f 8/145/127 4/146/128 13/147/129
f 4/148/130 12/149/131 31/150/132
f 13/151/133 31/152/134 32/153/135
f 15/154/136 13/155/137 32/156/138

# 32 vertices
# 156 texture params
# 138 normals
# 52 facets

# 1 groups
