# WaveFront *.obj file (generated by Autodesk ATF)

mtllib 6f4ea61f-1571-404e-bb3f-e7e09a108fe0.mtl

g 4_MRSHLDSRVT-Body

v 217.157410 259.549133 365.000000
v 210.517838 255.199814 365.000000
v 212.842590 251.650879 365.000000
v 216.266922 251.282028 365.000000
v 212.177094 259.104462 365.000000
v 219.474121 255.118073 365.000000
v 218.949127 253.442596 365.000000
v 219.317978 256.866943 365.000000
v 211.050873 257.757416 365.000000
v 213.733078 259.917969 365.000000
v 211.495544 252.777100 365.000000
v 215.839630 263.394928 363.200012
v 212.792725 263.122864 363.200012
v 218.758698 262.480255 363.200012
v 208.119751 259.358704 363.200012
v 207.205093 256.439636 363.200012
v 207.477127 253.392731 363.200012
v 211.241302 248.719757 363.200012
v 215.697220 247.791077 363.200012
v 219.918121 249.494461 363.200012
v 221.880249 251.841309 363.200012
v 222.794907 254.760376 363.200012
v 222.522873 257.807281 363.200012
v 221.105545 260.518127 363.200012
v 218.758698 262.480255 362.200012
v 212.792725 263.122864 362.200012
v 210.081879 261.705536 362.200012
v 208.119751 259.358704 362.200012
v 207.477127 253.392731 362.200012
v 207.205093 256.439636 362.200012
v 211.241302 248.719757 362.200012
v 214.160370 247.805099 362.200012
v 218.632492 248.652298 362.200012
v 221.880249 251.841309 362.200012
v 222.794907 254.760376 362.200012
v 222.522873 257.807281 362.200012
vt 0.789825 -0.431482 0.000000
vt 0.354893 0.232475 0.000000
vt 0.000000 0.000000 0.000000
vt -0.036885 -0.342433 0.000000
vt 0.789825 -0.431482 0.000000
vt 0.000000 0.000000 0.000000
vt -0.044467 0.498032 0.000000
vt -0.434932 0.663957 0.000000
vt 0.000000 0.000000 0.000000
vt 0.383604 -0.320720 0.000000
vt 0.826711 -0.089049 0.000000
vt 0.000000 0.000000 0.000000
vt 0.216057 -0.268221 0.000000
vt 0.383604 -0.320720 0.000000
vt 0.000000 0.000000 0.000000
vt 0.174887 0.015614 0.000000
vt 0.443106 0.231671 0.000000
vt 0.000000 0.000000 0.000000
vt -0.134705 0.112622 0.000000
vt -0.390465 0.165926 0.000000
vt 0.000000 0.000000 0.000000
vt 0.036884 0.342433 0.000000
vt -0.044467 0.498032 0.000000
vt 0.000000 0.000000 0.000000
vt -0.242271 -0.097771 0.000000
vt -0.354893 -0.232475 0.000000
vt 0.000000 0.000000 0.000000
vt -0.391400 0.210889 0.000000
vt -0.424573 -0.131924 0.000000
vt 0.000000 0.000000 0.000000
vt -0.023866 0.304970 0.000000
vt -0.391421 0.210849 0.000000
vt 0.000000 -0.000000 0.000000
vt 0.343178 -0.161815 0.000000
vt 0.424185 0.133166 0.000000
vt 0.000000 0.000000 0.000000
vt 0.439734 -0.065568 0.000000
vt 0.104545 0.432130 0.000000
vt 0.000000 -0.000000 0.000000
vt 0.073140 -0.159622 0.000000
vt 0.440087 -0.063155 0.000000
vt 0.000000 -0.000000 0.000000
vt -0.210856 -0.315429 0.000000
vt -0.083811 -0.436626 0.000000
vt 0.000000 -0.000000 0.000000
vt -0.112252 0.430191 0.000000
vt -0.254361 0.059626 0.000000
vt 0.000000 -0.000000 0.000000
vt 0.187192 0.330022 0.000000
vt -0.100853 0.433006 0.000000
vt 0.000000 -0.000000 0.000000
vt -0.304308 -0.031197 0.000000
vt -0.114804 -0.379913 0.000000
vt 0.000000 0.000000 0.000000
vt 0.443707 -0.028120 0.000000
vt 0.432122 0.416326 0.000000
vt 0.000000 0.000000 0.000000
vt 0.340014 -0.168362 0.000000
vt 0.443792 -0.026731 0.000000
vt 0.000000 0.000000 0.000000
vt -0.026395 -0.443813 0.000000
vt 0.211500 -0.335830 0.000000
vt 0.000000 0.000000 0.000000
vt -0.343591 0.160937 0.000000
vt -0.424918 -0.286905 0.000000
vt 0.000000 0.000000 0.000000
vt 0.392759 -0.057038 0.000000
vt 0.425661 0.285801 0.000000
vt 0.000000 0.000000 0.000000
vt -0.392611 0.058043 0.000000
vt -0.243482 -0.371998 0.000000
vt 0.000000 0.000000 0.000000
vt 0.352523 0.270912 0.000000
vt 0.187192 0.330022 0.000000
vt 0.000000 0.000000 0.000000
vt -0.352523 -0.270912 0.000000
vt -0.064478 -0.373895 0.000000
vt 0.000000 0.000000 0.000000
vt 0.433020 0.100800 0.000000
vt 0.231097 0.379816 0.000000
vt 0.000000 0.000000 0.000000
vt -0.432196 -0.104277 0.000000
vt -0.210856 -0.315429 0.000000
vt 0.000000 0.000000 0.000000
vt 0.277385 -0.347454 0.000000
vt 0.174679 0.017795 0.000000
vt 0.000000 0.000000 0.000000
vt -0.026942 -0.378456 0.000000
vt 0.277385 -0.347454 0.000000
vt 0.000000 0.000000 0.000000
vt 0.101722 0.583331 0.000000
vt -0.150162 0.348435 0.000000
vt 0.000000 0.000000 0.000000
vt -0.133219 -0.576953 0.000000
vt 0.132012 -0.424546 0.000000
vt 0.000000 0.000000 0.000000
vt 0.180804 0.246751 0.000000
vt -0.159210 0.415113 0.000000
vt 0.000000 0.000000 0.000000
vt -0.099742 -0.305987 0.000000
vt 0.033072 -0.599136 0.000000
vt -0.000000 0.000000 0.000000
vt 0.100000 0.305903 0.000000
vt 0.000000 0.305903 0.000000
vt 0.000000 0.000000 0.000000
vt -0.000000 -0.305902 0.000000
vt 0.100000 -0.305902 0.000000
vt 0.000000 0.000000 0.000000
vt 0.100000 -0.000000 0.000000
vt 0.100000 0.305900 0.000000
vt 0.000000 0.000000 0.000000
vt -0.222121 0.232891 0.000000
vt 0.006835 -0.321758 0.000000
vt 0.000000 -0.000000 0.000000
vt 0.100000 -0.305901 0.000000
vt 0.100000 -0.000000 0.000000
vt 0.000000 0.000000 0.000000
vt -0.305903 0.100000 0.000000
vt -0.305903 -0.000000 0.000000
vt 0.000000 0.000000 0.000000
vt -0.000000 0.100000 0.000000
vt -0.305903 0.100000 0.000000
vt 0.000000 0.000000 0.000000
vt 0.305901 -0.100000 0.000000
vt 0.305901 -0.000000 0.000000
vt 0.000000 0.000000 0.000000
vt -0.305901 0.100000 0.000000
vt -0.305901 0.000000 0.000000
vt 0.000000 0.000000 0.000000
vt 0.100000 0.600047 0.000000
vt -0.000000 0.600047 0.000000
vt 0.000000 0.000000 0.000000
vt -0.100000 -0.600047 0.000000
vt 0.000000 -0.600047 0.000000
vt 0.000000 0.000000 0.000000
vt 0.095205 -0.156707 0.000000
vt 0.122402 0.297646 0.000000
vt 0.000000 0.000000 0.000000
vt 0.120783 0.298307 0.000000
vt 0.024728 0.454494 0.000000
vt 0.000000 -0.000000 0.000000
vt -0.068654 -0.314423 0.000000
vt 0.052405 -0.452138 0.000000
vt 0.000000 0.000000 0.000000
vt -0.100000 -0.000000 0.000000
vt -0.100000 -0.305901 0.000000
vt 0.000000 0.000000 0.000000
vt -0.059566 0.173415 0.000000
vt -0.183108 -0.264666 0.000000
vt 0.000000 -0.000000 0.000000
vt 0.100000 0.000000 0.000000
vt 0.100000 0.305903 0.000000
vt 0.000000 0.000000 0.000000
vt 0.305903 0.100000 0.000000
vt 0.000000 0.100000 0.000000
vt 0.000000 0.000000 0.000000
vt 0.305903 -0.000000 0.000000
vt 0.305903 0.100000 0.000000
vt 0.000000 0.000000 0.000000
vt 0.305901 0.000000 0.000000
vt -0.000000 0.100000 0.000000
vt 0.000000 0.000000 0.000000
vt -0.000000 0.100000 0.000000
vt -0.305901 0.100000 0.000000
vt 0.000000 0.000000 0.000000
vt 0.062789 -0.315648 0.000000
vt 0.322087 -0.506278 0.000000
vt -0.000000 0.000000 0.000000
vt -0.100000 0.000000 0.000000
vt -0.100000 -0.305903 0.000000
vt 0.000000 0.000000 0.000000
vt 0.305900 -0.000000 0.000000
vt 0.305900 0.100000 0.000000
vt 0.000000 0.000000 0.000000
vn 0.000000 -0.000000 0.100000
vn 0.000000 -0.000000 0.100000
vn 0.000000 -0.000000 0.100000
vn 0.000000 -0.000000 0.100000
vn 0.000000 -0.000000 0.100000
vn 0.000000 -0.000000 0.100000
vn 0.000000 -0.000000 0.100000
vn 0.000000 -0.000000 0.100000
vn 0.000000 -0.000000 0.100000
vn 0.000000 -0.000000 0.100000
vn 0.000000 -0.000000 0.100000
vn 0.004703 0.043661 0.089842
vn 0.004703 0.043661 0.089842
vn 0.004703 0.043661 0.089842
vn -0.004283 0.047966 0.087641
vn -0.004283 0.047966 0.087641
vn -0.004283 0.047966 0.087641
vn 0.014399 0.045953 0.087641
vn 0.014399 0.045953 0.087641
vn 0.014399 0.045953 0.087641
vn -0.034415 0.042724 0.083608
vn -0.034415 0.042724 0.083608
vn -0.034415 0.042724 0.083608
vn -0.022312 0.042676 0.087641
vn -0.022312 0.042676 0.087641
vn -0.022312 0.042676 0.087641
vn -0.036945 0.030889 0.087641
vn -0.036945 0.030889 0.087641
vn -0.036945 0.030889 0.087641
vn -0.044813 0.009340 0.088908
vn -0.044813 0.009340 0.088908
vn -0.044813 0.009340 0.088908
vn -0.045954 0.014399 0.087641
vn -0.045954 0.014399 0.087641
vn -0.045954 0.014399 0.087641
vn -0.048955 -0.004371 0.087088
vn -0.048955 -0.004371 0.087088
vn -0.048955 -0.004371 0.087088
vn -0.042723 -0.034415 0.083608
vn -0.042723 -0.034415 0.083608
vn -0.042723 -0.034415 0.083608
vn -0.030889 -0.036945 0.087641
vn -0.030889 -0.036945 0.087641
vn -0.030889 -0.036945 0.087641
vn -0.042449 -0.017131 0.088908
vn -0.042449 -0.017131 0.088908
vn -0.042449 -0.017131 0.088908
vn -0.010012 -0.048038 0.087133
vn -0.010012 -0.048038 0.087133
vn -0.010012 -0.048038 0.087133
vn -0.004863 -0.045146 0.089097
vn -0.004863 -0.045146 0.089097
vn -0.004863 -0.045146 0.089097
vn 0.019141 -0.047431 0.085930
vn 0.019141 -0.047431 0.085930
vn 0.019141 -0.047431 0.085930
vn 0.045954 -0.014399 0.087641
vn 0.045954 -0.014399 0.087641
vn 0.045954 -0.014399 0.087641
vn 0.045954 -0.014399 0.087641
vn 0.045954 -0.014399 0.087641
vn 0.045954 -0.014399 0.087641
vn 0.027548 -0.034199 0.089842
vn 0.027548 -0.034199 0.089842
vn 0.027548 -0.034199 0.089842
vn 0.036945 -0.030889 0.087641
vn 0.036945 -0.030889 0.087641
vn 0.036945 -0.030889 0.087641
vn 0.047966 0.004283 0.087641
vn 0.047966 0.004283 0.087641
vn 0.047966 0.004283 0.087641
vn 0.047966 0.004282 0.087641
vn 0.047966 0.004282 0.087641
vn 0.047966 0.004282 0.087641
vn 0.039239 0.031608 0.086378
vn 0.039239 0.031608 0.086378
vn 0.039239 0.031608 0.086378
vn 0.036765 0.019222 0.090988
vn 0.036765 0.019222 0.090988
vn 0.036765 0.019222 0.090988
vn 0.030889 0.036945 0.087641
vn 0.030889 0.036945 0.087641
vn 0.030889 0.036945 0.087641
vn 0.009196 0.085376 -0.051247
vn 0.009196 0.085376 -0.051247
vn 0.009196 0.085376 -0.051247
vn -0.008894 0.099604 0.000000
vn -0.008894 0.099604 0.000000
vn -0.008894 0.099604 0.000000
vn 0.029901 0.095425 -0.000000
vn 0.029901 0.095425 -0.000000
vn 0.029901 0.095425 -0.000000
vn -0.046333 0.088619 0.000000
vn -0.046333 0.088619 0.000000
vn -0.046333 0.088619 0.000000
vn -0.053868 0.066874 0.051246
vn -0.053868 0.066874 0.051246
vn -0.053868 0.066874 0.051246
vn -0.076719 0.064142 0.000000
vn -0.076719 0.064142 0.000000
vn -0.076719 0.064142 0.000000
vn -0.099604 -0.008893 0.000000
vn -0.099604 -0.008893 0.000000
vn -0.099604 -0.008893 0.000000
vn -0.099604 -0.008893 0.000000
vn -0.095425 0.029900 0.000000
vn -0.095425 0.029900 0.000000
vn -0.095425 0.029900 0.000000
vn -0.095425 0.029900 0.000000
vn -0.077877 -0.062731 0.000000
vn -0.077877 -0.062731 0.000000
vn -0.077877 -0.062731 0.000000
vn -0.077877 -0.062731 0.000000
vn -0.019543 -0.093772 0.028720
vn -0.019543 -0.093772 0.028720
vn -0.019543 -0.093772 0.028720
vn 0.017829 -0.094113 -0.028720
vn 0.017829 -0.094113 -0.028720
vn 0.017829 -0.094113 -0.028720
vn 0.035847 -0.088826 0.028721
vn 0.035847 -0.088826 0.028721
vn 0.035847 -0.088826 0.028721
vn -0.029900 -0.095425 0.000000
vn -0.029900 -0.095425 0.000000
vn -0.029900 -0.095425 0.000000
vn 0.067111 -0.068347 -0.028720
vn 0.067111 -0.068347 -0.028720
vn 0.067111 -0.068347 -0.028720
vn 0.076719 -0.064142 -0.000000
vn 0.076719 -0.064142 -0.000000
vn 0.076719 -0.064142 -0.000000
vn 0.099604 0.008893 -0.000000
vn 0.099604 0.008893 -0.000000
vn 0.099604 0.008893 -0.000000
vn 0.099604 0.008893 -0.000000
vn 0.095425 -0.029900 -0.000000
vn 0.095425 -0.029900 -0.000000
vn 0.095425 -0.029900 -0.000000
vn 0.095425 -0.029900 -0.000000
vn 0.066874 0.053868 -0.051246
vn 0.066874 0.053868 -0.051246
vn 0.066874 0.053868 -0.051246
vn 0.064142 0.076719 -0.000000
vn 0.064142 0.076719 -0.000000
vn 0.064142 0.076719 -0.000000
vn 0.088619 0.046333 -0.000000
vn 0.088619 0.046333 -0.000000
vn 0.088619 0.046333 -0.000000
usemtl Aluminum_-_Satin
f 1/1/1 2/2/2 3/3/3
f 4/4/4 1/5/1 3/6/3
f 5/7/5 2/8/2 1/9/1
f 6/10/6 1/11/1 4/12/4
f 7/13/7 6/14/6 4/15/4
f 8/16/8 1/17/1 6/18/6
f 9/19/9 2/20/2 5/21/5
f 10/22/10 5/23/5 1/24/1
f 11/25/11 3/26/3 2/27/2
f 10/28/12 1/29/13 12/30/14
f 13/31/15 10/32/16 12/33/17
f 14/34/18 12/35/19 1/36/20
f 13/37/21 15/38/22 5/39/23
f 10/40/24 13/41/25 5/42/26
f 9/43/27 5/44/28 15/45/29
f 16/46/30 2/47/31 9/48/32
f 15/49/33 16/50/34 9/51/35
f 17/52/36 2/53/37 16/54/38
f 11/55/39 17/56/40 18/57/41
f 3/58/42 11/59/43 18/60/44
f 11/61/45 2/62/46 17/63/47
f 18/64/48 19/65/49 3/66/50
f 4/67/51 3/68/52 19/69/53
f 19/70/54 20/71/55 4/72/56
f 6/73/57 7/74/58 21/75/59
f 21/76/60 22/77/61 6/78/62
f 7/79/63 4/80/64 20/81/65
f 20/82/66 21/83/67 7/84/68
f 23/85/69 8/86/70 6/87/71
f 22/88/72 23/89/73 6/90/74
f 1/91/75 8/92/76 23/93/77
f 23/94/78 24/95/79 1/96/80
f 14/97/81 1/98/82 24/99/83
f 12/100/84 25/101/85 26/102/86
f 26/103/87 13/104/88 12/105/89
f 14/106/90 25/107/91 12/108/92
f 26/109/93 27/110/94 13/111/95
f 15/112/96 13/113/97 27/114/98
f 27/115/99 28/116/100 15/117/101
f 29/118/102 17/119/103 16/120/104
f 30/121/105 29/122/102 16/123/104
f 15/124/106 28/125/107 30/126/108
f 30/127/108 16/128/109 15/129/106
f 17/130/110 29/131/111 31/132/112
f 31/133/112 18/134/113 17/135/110
f 19/136/114 18/137/115 32/138/116
f 19/139/117 32/140/118 33/141/119
f 33/142/120 20/143/121 19/144/122
f 31/145/123 32/146/124 18/147/125
f 33/148/126 34/149/127 20/150/128
f 21/151/129 20/152/130 34/153/131
f 35/154/132 36/155/133 23/156/134
f 22/157/135 35/158/132 23/159/134
f 21/160/136 35/161/137 22/162/138
f 34/163/139 35/164/137 21/165/136
f 24/166/140 36/167/141 25/168/142
f 14/169/143 24/170/144 25/171/145
f 23/172/146 36/173/147 24/174/148

# 36 vertices
# 174 texture params
# 148 normals
# 58 facets

# 1 groups
