# WaveFront *.obj file (generated by Autodesk ATF)

mtllib 2d3fbd61-e523-4335-a255-52e548cec481.mtl

g 1_MRSHLDSRVT-Body

v -215.481934 456.125885 365.000000
v -213.733078 456.282043 365.000000
v -212.842590 464.549133 365.000000
v -217.822906 464.104462 365.000000
v -217.157410 456.650879 365.000000
v -216.266922 464.917969 365.000000
v -210.525879 460.118073 365.000000
v -211.050873 458.442596 365.000000
v -218.949127 462.757416 365.000000
v -219.482162 460.199829 365.000000
v -218.504456 457.777100 365.000000
v -210.682022 461.866943 365.000000
v -214.160370 468.394928 363.200012
v -217.207275 468.122864 363.200012
v -211.241302 467.480255 363.200012
v -221.880249 464.358704 363.200012
v -222.794907 461.439636 363.200012
v -222.522873 458.392731 363.200012
v -218.758698 453.719757 363.200012
v -212.792725 453.077148 363.200012
v -208.119751 456.841309 363.200012
v -207.191071 461.297211 363.200012
v -208.894455 465.518127 363.200012
v -211.241302 467.480255 362.200012
v -217.207275 468.122864 362.200012
v -221.880249 464.358704 362.200012
v -222.522873 458.392731 362.200012
v -222.794907 461.439636 362.200012
v -218.758698 453.719757 362.200012
v -215.839630 452.805084 362.200012
v -211.367508 453.652313 362.200012
v -208.119751 456.841309 362.200012
v -207.477127 462.807281 362.200012
v -208.894455 465.518127 362.200012
vt -0.842325 0.263934 0.000000
vt -0.826709 0.089049 0.000000
vt 0.000000 0.000000 0.000000
vt -0.044467 0.498032 0.000000
vt -0.842325 0.263934 0.000000
vt 0.000000 0.000000 0.000000
vt -0.745358 -0.066550 0.000000
vt -0.797858 -0.234097 0.000000
vt 0.000000 0.000000 0.000000
vt 0.036884 0.342433 0.000000
vt -0.044467 0.498032 0.000000
vt 0.000000 0.000000 0.000000
vt 0.383603 -0.320720 0.000000
vt 0.826709 -0.089049 0.000000
vt 0.000000 0.000000 0.000000
vt 0.216055 -0.268221 0.000000
vt 0.383603 -0.320720 0.000000
vt 0.000000 0.000000 0.000000
vt -0.134705 0.112622 0.000000
vt -0.745358 -0.066550 0.000000
vt 0.000000 0.000000 0.000000
vt -0.255759 0.053304 0.000000
vt -0.610654 -0.179172 0.000000
vt 0.000000 0.000000 0.000000
vt -0.242273 -0.097771 0.000000
vt -0.354895 -0.232475 0.000000
vt 0.000000 0.000000 0.000000
vt 0.174887 0.015614 0.000000
vt 0.443106 0.231671 0.000000
vt 0.000000 0.000000 0.000000
vt -0.391400 0.210889 0.000000
vt -0.424573 -0.131924 0.000000
vt 0.000000 0.000000 0.000000
vt -0.023866 0.304970 0.000000
vt -0.391421 0.210849 0.000000
vt 0.000000 -0.000000 0.000000
vt 0.343178 -0.161815 0.000000
vt 0.424185 0.133166 0.000000
vt 0.000000 0.000000 0.000000
vt 0.439734 -0.065568 0.000000
vt 0.104545 0.432130 0.000000
vt 0.000000 -0.000000 0.000000
vt 0.073140 -0.159622 0.000000
vt 0.440087 -0.063155 0.000000
vt 0.000000 -0.000000 0.000000
vt -0.210856 -0.315429 0.000000
vt -0.083811 -0.436626 0.000000
vt 0.000000 -0.000000 0.000000
vt -0.112252 0.430192 0.000000
vt -0.254359 0.059626 0.000000
vt 0.000000 -0.000000 0.000000
vt 0.187192 0.330022 0.000000
vt -0.100853 0.433006 0.000000
vt 0.000000 -0.000000 0.000000
vt -0.304308 -0.031197 0.000000
vt -0.114802 -0.379913 0.000000
vt 0.000000 0.000000 0.000000
vt 0.443707 -0.028120 0.000000
vt 0.432122 0.416326 0.000000
vt 0.000000 0.000000 0.000000
vt 0.340014 -0.168362 0.000000
vt 0.443792 -0.026731 0.000000
vt 0.000000 0.000000 0.000000
vt -0.026396 -0.443813 0.000000
vt 0.211502 -0.335830 0.000000
vt 0.000000 0.000000 0.000000
vt 0.353691 0.269386 0.000000
vt 0.053820 0.597630 0.000000
vt 0.000000 0.000000 0.000000
vt -0.353857 -0.269168 0.000000
vt 0.013698 -0.175046 0.000000
vt 0.000000 0.000000 0.000000
vt 0.046495 0.169312 0.000000
vt -0.296683 0.331127 0.000000
vt 0.000000 0.000000 0.000000
vt -0.263048 0.440084 0.000000
vt -0.442677 0.105886 0.000000
vt 0.000000 0.000000 0.000000
vt 0.246801 -0.449397 0.000000
vt 0.164597 -0.061125 0.000000
vt 0.000000 0.000000 0.000000
vt 0.562950 -0.183598 0.000000
vt 0.366240 0.099117 0.000000
vt 0.000000 0.000000 0.000000
vt -0.562950 0.183598 0.000000
vt -0.220238 -0.308951 0.000000
vt 0.000000 0.000000 0.000000
vt 0.048512 0.393903 0.000000
vt -0.126185 0.376285 0.000000
vt 0.000000 0.000000 0.000000
vt 0.215719 0.641102 0.000000
vt -0.026256 0.396010 0.000000
vt 0.000000 0.000000 0.000000
vt -0.291010 -0.610622 0.000000
vt 0.125289 -0.426579 0.000000
vt 0.000000 0.000000 0.000000
vt 0.180804 0.246751 0.000000
vt -0.159210 0.415113 0.000000
vt 0.000000 0.000000 0.000000
vt -0.099742 -0.305987 0.000000
vt 0.033072 -0.599136 0.000000
vt -0.000000 0.000000 0.000000
vt 0.100000 0.305903 0.000000
vt 0.000000 0.305903 0.000000
vt 0.000000 0.000000 0.000000
vt -0.000000 -0.305902 0.000000
vt 0.100000 -0.305902 0.000000
vt 0.000000 0.000000 0.000000
vt -0.100000 0.600047 0.000000
vt -0.100000 0.000000 0.000000
vt 0.000000 0.000000 0.000000
vt 0.100000 -0.600047 0.000000
vt 0.100000 -0.000000 0.000000
vt 0.000000 0.000000 0.000000
vt -0.305903 0.100000 0.000000
vt -0.305903 -0.000000 0.000000
vt 0.000000 0.000000 0.000000
vt -0.000000 0.100000 0.000000
vt -0.305903 0.100000 0.000000
vt 0.000000 0.000000 0.000000
vt -0.305901 -0.100000 0.000000
vt -0.000000 -0.100000 0.000000
vt 0.000000 0.000000 0.000000
vt 0.305901 0.100000 0.000000
vt 0.000000 0.100000 0.000000
vt 0.000000 0.000000 0.000000
vt 0.100000 -0.600047 0.000000
vt 0.100000 0.000000 0.000000
vt 0.000000 0.000000 0.000000
vt -0.100000 0.600047 0.000000
vt -0.100000 -0.000000 0.000000
vt 0.000000 0.000000 0.000000
vt 0.099742 -0.305987 0.000000
vt 0.132814 0.293149 0.000000
vt 0.000000 0.000000 0.000000
vt -0.087705 0.309652 0.000000
vt -0.112433 -0.144842 0.000000
vt 0.000000 -0.000000 0.000000
vt -0.100000 -0.000000 0.000000
vt -0.100000 -0.305902 0.000000
vt 0.000000 0.000000 0.000000
vt 0.245290 -0.396244 0.000000
vt 0.058180 0.173884 0.000000
vt 0.000000 0.000000 0.000000
vt 0.000000 -0.455166 0.000000
vt 0.100000 -0.455166 0.000000
vt 0.000000 0.000000 0.000000
vt 0.452973 0.109500 0.000000
vt -0.147075 0.109500 0.000000
vt 0.000000 0.000000 0.000000
vt 0.455165 0.000000 0.000000
vt 0.455165 0.100000 0.000000
vt 0.000000 0.000000 0.000000
vt 0.100000 -0.305903 0.000000
vt 0.100000 -0.000000 0.000000
vt 0.000000 0.000000 0.000000
vt -0.000000 -0.305903 0.000000
vt 0.100000 -0.305903 0.000000
vt 0.000000 0.000000 0.000000
vt -0.455167 0.100000 0.000000
vt -0.455167 0.000000 0.000000
vt 0.000000 0.000000 0.000000
vt -0.364810 -0.289983 0.000000
vt -0.188034 -0.241285 0.000000
vt 0.000000 0.000000 0.000000
vn 0.000000 -0.000000 0.100000
vn 0.000000 -0.000000 0.100000
vn 0.000000 -0.000000 0.100000
vn 0.000000 -0.000000 0.100000
vn 0.000000 -0.000000 0.100000
vn 0.000000 -0.000000 0.100000
vn 0.000000 -0.000000 0.100000
vn 0.000000 -0.000000 0.100000
vn 0.000000 -0.000000 0.100000
vn 0.000000 -0.000000 0.100000
vn 0.000000 -0.000000 0.100000
vn 0.000000 -0.000000 0.100000
vn 0.004703 0.043661 0.089842
vn 0.004703 0.043661 0.089842
vn 0.004703 0.043661 0.089842
vn -0.004283 0.047966 0.087641
vn -0.004283 0.047966 0.087641
vn -0.004283 0.047966 0.087641
vn 0.014399 0.045953 0.087641
vn 0.014399 0.045953 0.087641
vn 0.014399 0.045953 0.087641
vn -0.034415 0.042724 0.083608
vn -0.034415 0.042724 0.083608
vn -0.034415 0.042724 0.083608
vn -0.022312 0.042676 0.087641
vn -0.022312 0.042676 0.087641
vn -0.022312 0.042676 0.087641
vn -0.036945 0.030889 0.087641
vn -0.036945 0.030889 0.087641
vn -0.036945 0.030889 0.087641
vn -0.044813 0.009340 0.088908
vn -0.044813 0.009340 0.088908
vn -0.044813 0.009340 0.088908
vn -0.045954 0.014399 0.087641
vn -0.045954 0.014399 0.087641
vn -0.045954 0.014399 0.087641
vn -0.048955 -0.004371 0.087088
vn -0.048955 -0.004371 0.087088
vn -0.048955 -0.004371 0.087088
vn -0.042723 -0.034415 0.083608
vn -0.042723 -0.034415 0.083608
vn -0.042723 -0.034415 0.083608
vn -0.030889 -0.036945 0.087641
vn -0.030889 -0.036945 0.087641
vn -0.030889 -0.036945 0.087641
vn -0.042449 -0.017131 0.088908
vn -0.042449 -0.017131 0.088908
vn -0.042449 -0.017131 0.088908
vn -0.005875 -0.054545 0.083608
vn -0.005875 -0.054545 0.083608
vn -0.005875 -0.054545 0.083608
vn 0.004283 -0.047966 0.087641
vn 0.004283 -0.047966 0.087641
vn 0.004283 -0.047966 0.087641
vn -0.014399 -0.045954 0.087641
vn -0.014399 -0.045954 0.087641
vn -0.014399 -0.045954 0.087641
vn 0.048038 -0.010012 0.087133
vn 0.048038 -0.010012 0.087133
vn 0.048038 -0.010012 0.087133
vn 0.051217 -0.016048 0.084376
vn 0.051217 -0.016048 0.084376
vn 0.051217 -0.016048 0.084376
vn 0.031608 -0.039239 0.086378
vn 0.031608 -0.039239 0.086378
vn 0.031608 -0.039239 0.086378
vn 0.031608 -0.039239 0.086378
vn 0.031608 -0.039239 0.086378
vn 0.031608 -0.039239 0.086378
vn 0.046321 0.004136 0.088528
vn 0.046321 0.004136 0.088528
vn 0.046321 0.004136 0.088528
vn 0.047212 0.038031 0.079528
vn 0.047212 0.038031 0.079528
vn 0.047212 0.038031 0.079528
vn 0.037866 0.015281 0.091283
vn 0.037866 0.015281 0.091283
vn 0.037866 0.015281 0.091283
vn 0.030889 0.036945 0.087641
vn 0.030889 0.036945 0.087641
vn 0.030889 0.036945 0.087641
vn 0.009196 0.085376 -0.051247
vn 0.009196 0.085376 -0.051247
vn 0.009196 0.085376 -0.051247
vn -0.008894 0.099604 0.000000
vn -0.008894 0.099604 0.000000
vn -0.008894 0.099604 0.000000
vn 0.029901 0.095425 -0.000000
vn 0.029901 0.095425 -0.000000
vn 0.029901 0.095425 -0.000000
vn -0.062731 0.077877 0.000000
vn -0.062731 0.077877 0.000000
vn -0.062731 0.077877 0.000000
vn -0.062731 0.077877 0.000000
vn -0.099604 -0.008893 0.000000
vn -0.099604 -0.008893 0.000000
vn -0.099604 -0.008893 0.000000
vn -0.099604 -0.008893 0.000000
vn -0.095425 0.029900 0.000000
vn -0.095425 0.029900 0.000000
vn -0.095425 0.029900 0.000000
vn -0.095425 0.029900 0.000000
vn -0.077877 -0.062731 0.000000
vn -0.077877 -0.062731 0.000000
vn -0.077877 -0.062731 0.000000
vn -0.077877 -0.062731 0.000000
vn -0.009196 -0.085376 0.051247
vn -0.009196 -0.085376 0.051247
vn -0.009196 -0.085376 0.051247
vn 0.017829 -0.094113 -0.028720
vn 0.017829 -0.094113 -0.028720
vn 0.017829 -0.094113 -0.028720
vn -0.029901 -0.095425 0.000000
vn -0.029901 -0.095425 0.000000
vn -0.029901 -0.095425 0.000000
vn 0.057288 -0.071120 0.040743
vn 0.057288 -0.071120 0.040743
vn 0.057288 -0.071120 0.040743
vn 0.070062 -0.071353 -0.000000
vn 0.070062 -0.071353 -0.000000
vn 0.070062 -0.071353 -0.000000
vn 0.090799 -0.009780 -0.040743
vn 0.090799 -0.009780 -0.040743
vn 0.090799 -0.009780 -0.040743
vn 0.097896 -0.020403 -0.000000
vn 0.097896 -0.020403 -0.000000
vn 0.097896 -0.020403 -0.000000
vn 0.064142 0.076719 -0.000000
vn 0.064142 0.076719 -0.000000
vn 0.064142 0.076719 -0.000000
vn 0.064142 0.076719 -0.000000
vn 0.092733 0.037423 -0.000000
vn 0.092733 0.037423 -0.000000
vn 0.092733 0.037423 -0.000000
vn 0.080929 0.042313 0.040745
vn 0.080929 0.042313 0.040745
vn 0.080929 0.042313 0.040745
usemtl Aluminum_-_Satin
f 1/1/1 2/2/2 3/3/3
f 4/4/4 1/5/1 3/6/3
f 5/7/5 1/8/1 4/9/4
f 6/10/6 4/11/4 3/12/3
f 7/13/7 3/14/3 2/15/2
f 8/16/8 7/17/7 2/18/2
f 9/19/9 5/20/5 4/21/4
f 10/22/10 5/23/5 9/24/9
f 11/25/11 5/26/5 10/27/10
f 12/28/12 3/29/3 7/30/7
f 6/31/13 3/32/14 13/33/15
f 14/34/16 6/35/17 13/36/18
f 15/37/19 13/38/20 3/39/21
f 14/40/22 16/41/23 4/42/24
f 6/43/25 14/44/26 4/45/27
f 9/46/28 4/47/29 16/48/30
f 17/49/31 10/50/32 9/51/33
f 16/52/34 17/53/35 9/54/36
f 18/55/37 10/56/38 17/57/39
f 11/58/40 18/59/41 19/60/42
f 5/61/43 11/62/44 19/63/45
f 11/64/46 10/65/47 18/66/48
f 1/67/49 19/68/50 20/69/51
f 20/70/52 2/71/53 1/72/54
f 5/73/55 19/74/56 1/75/57
f 8/76/58 21/77/59 22/78/60
f 22/79/61 7/80/62 8/81/63
f 8/82/64 2/83/65 20/84/66
f 20/85/67 21/86/68 8/87/69
f 12/88/70 7/89/71 22/90/72
f 3/91/73 12/92/74 22/93/75
f 22/94/76 23/95/77 3/96/78
f 15/97/79 3/98/80 23/99/81
f 13/100/82 24/101/83 25/102/84
f 25/103/85 14/104/86 13/105/87
f 15/106/88 24/107/89 13/108/90
f 16/109/91 14/110/92 25/111/93
f 25/112/93 26/113/94 16/114/91
f 27/115/95 18/116/96 17/117/97
f 28/118/98 27/119/95 17/120/97
f 17/121/99 16/122/100 26/123/101
f 26/124/101 28/125/102 17/126/99
f 19/127/103 18/128/104 27/129/105
f 27/130/105 29/131/106 19/132/103
f 20/133/107 19/134/108 30/135/109
f 30/136/110 31/137/111 20/138/112
f 29/139/113 30/140/114 19/141/115
f 21/142/116 20/143/117 31/144/118
f 32/145/119 21/146/120 31/147/121
f 32/148/122 33/149/123 22/150/124
f 21/151/125 32/152/126 22/153/127
f 34/154/128 24/155/129 15/156/130
f 23/157/131 34/158/128 15/159/130
f 34/160/132 23/161/133 22/162/134
f 22/163/135 33/164/136 34/165/137

# 34 vertices
# 165 texture params
# 137 normals
# 55 facets

# 1 groups
