# WaveFront *.obj file (generated by Autodesk ATF)

mtllib 97cd64d6-070d-486a-8231-ebebfd252de7.mtl

g 1_W15H6300-Body

v 0.000000 7.500000 0.000000
v 0.000000 7.244444 -1.941143
v 0.000000 6.495191 -3.750000
v 0.000000 5.303301 -5.303301
v 0.000000 3.750000 -6.495191
v 0.000000 1.941143 -7.244444
v 0.000000 -0.000000 -7.500000
v 0.000000 -1.941143 -7.244444
v 0.000000 -3.750000 -6.495191
v 0.000000 -5.303301 -5.303301
v 0.000000 -6.495191 -3.750000
v 0.000000 -7.244444 -1.941143
v 0.000000 -7.500000 0.000000
v 0.000000 -7.244444 1.941143
v 0.000000 -6.495191 3.750000
v 0.000000 -5.303301 5.303301
v 0.000000 -3.750000 6.495191
v 0.000000 -1.941143 7.244444
v 0.000000 0.000000 7.500000
v 0.000000 1.941143 7.244444
v 0.000000 3.750000 6.495191
v 0.000000 5.303301 5.303301
v 0.000000 6.495191 3.750000
v 0.000000 7.244444 1.941143
v 93.000000 7.071068 -2.500000
v 73.000000 7.071068 -2.500000
v 73.000000 5.000000 -2.500000
v 93.000000 5.000000 -2.500000
v 73.000000 7.451931 -0.847776
v 73.000000 7.451931 0.847776
v 73.000000 7.071068 2.500000
v 73.000000 5.000000 2.500000
v 93.000000 7.071068 2.500000
v 93.000000 5.000000 2.500000
v 177.000000 7.071068 2.500000
v 177.000000 7.451931 0.847776
v 177.000000 7.451931 -0.847776
v 177.000000 7.071068 -2.500000
v 177.000000 5.000000 -2.500000
v 177.000000 5.000000 2.500000
v 270.000000 6.504323 3.734137
v 270.000000 5.799079 4.756120
v 270.000000 4.934882 5.647738
v 270.000000 3.935418 6.384550
v 270.000000 2.828085 6.946361
v 270.000000 1.643233 7.317772
v 270.000000 0.413340 7.488601
v 270.000000 -0.827883 7.454167
v 270.000000 -2.046413 7.215414
v 270.000000 -3.208851 6.778884
v 270.000000 -4.283334 6.156545
v 270.000000 -5.240410 5.365454
v 270.000000 -6.053846 4.427296
v 270.000000 -6.701345 3.367784
v 270.000000 -7.165160 2.215961
v 270.000000 -7.432576 1.003399
v 270.000000 -7.496265 -0.236667
v 270.000000 -7.354480 -1.470246
v 270.000000 -7.011108 -2.663525
v 270.000000 -6.475560 -3.783797
v 270.000000 -5.762517 -4.800354
v 270.000000 -4.891522 -5.685333
v 270.000000 -3.886450 -6.414476
v 270.000000 -2.774850 -6.967798
v 270.000000 -1.587191 -7.330131
v 270.000000 -0.356027 -7.491545
v 270.000000 0.884896 -7.447614
v 270.000000 2.101564 -7.199544
v 270.000000 3.260628 -6.754133
v 270.000000 4.330317 -6.123590
v 270.000000 5.281312 -5.325199
v 270.000000 6.087546 -4.380843
v 270.000000 6.726919 -3.316409
v 270.000000 6.780925 -3.204536
v 270.000000 6.500000 -3.204536
v 270.000000 6.500000 3.734137
v 255.000000 6.504323 3.734137
v 255.000000 7.206878 2.076274
v 255.000000 7.494048 0.298741
v 255.000000 7.349282 -1.496011
v 255.000000 6.780925 -3.204536
v 255.000000 6.500000 3.734137
v 255.000000 6.500000 -3.204536
vt -0.000000 0.750000 0.000000
vt -0.194114 0.724444 0.000000
vt 0.194114 0.724444 0.000000
vt 0.375000 0.649519 0.000000
vt -0.375000 0.649519 0.000000
vt 0.530330 0.530330 0.000000
vt -0.530330 0.530330 0.000000
vt 0.649519 0.375000 0.000000
vt -0.649519 0.375000 0.000000
vt 0.724444 0.194114 0.000000
vt -0.724444 0.194114 0.000000
vt 0.750000 0.000000 0.000000
vt -0.750000 -0.000000 0.000000
vt 0.724444 -0.194114 0.000000
vt -0.724444 -0.194114 0.000000
vt 0.649519 -0.375000 0.000000
vt -0.649519 -0.375000 0.000000
vt 0.530330 -0.530330 0.000000
vt -0.530330 -0.530330 0.000000
vt 0.375000 -0.649519 0.000000
vt -0.375000 -0.649519 0.000000
vt 0.194114 -0.724444 0.000000
vt -0.194114 -0.724444 0.000000
vt 0.000000 -0.750000 0.000000
vt -3.600000 -0.042893 0.000000
vt -5.600000 -0.042893 0.000000
vt -3.600000 -0.250000 0.000000
vt -5.600000 -0.250000 0.000000
vt 0.500000 -0.042893 0.000000
vt 0.334778 -0.004807 0.000000
vt 0.500000 -0.250000 0.000000
vt 0.165222 -0.004807 0.000000
vt -0.000000 -0.250000 0.000000
vt -0.000000 -0.042893 0.000000
vt 7.600000 -0.042893 0.000000
vt 5.600000 -0.042893 0.000000
vt 7.600000 -0.250000 0.000000
vt 5.600000 -0.250000 0.000000
vt 0.000000 -0.042893 0.000000
vt -0.165222 -0.004807 0.000000
vt 0.000000 -0.250000 0.000000
vt -0.334778 -0.004807 0.000000
vt -0.500000 -0.250000 0.000000
vt -0.500000 -0.042893 0.000000
vt 4.800000 -0.042893 0.000000
vt -3.600000 -0.042893 0.000000
vt 4.800000 -0.250000 0.000000
vt -3.600000 -0.250000 0.000000
vt 5.600000 -0.042893 0.000000
vt -2.800000 -0.042893 0.000000
vt 5.600000 -0.250000 0.000000
vt -2.800000 -0.250000 0.000000
vt 0.250000 17.700000 0.000000
vt -0.250000 17.700000 0.000000
vt 0.250000 9.300000 0.000000
vt -0.250000 9.300000 0.000000
vt 0.250000 7.300000 0.000000
vt -0.250000 7.300000 0.000000
vt -0.373414 0.650432 0.000000
vt -0.475612 0.579908 0.000000
vt -0.373414 0.650000 0.000000
vt 0.147025 -0.735448 0.000000
vt 0.266353 -0.701111 0.000000
vt -0.564774 0.493488 0.000000
vt -0.638455 0.393542 0.000000
vt -0.694636 0.282808 0.000000
vt -0.731777 0.164323 0.000000
vt -0.748860 0.041334 0.000000
vt -0.745417 -0.082788 0.000000
vt -0.721541 -0.204641 0.000000
vt -0.677888 -0.320885 0.000000
vt -0.615655 -0.428333 0.000000
vt -0.536545 -0.524041 0.000000
vt -0.442730 -0.605385 0.000000
vt -0.336778 -0.670135 0.000000
vt -0.221596 -0.716516 0.000000
vt 0.023667 -0.749626 0.000000
vt -0.100340 -0.743258 0.000000
vt 0.378380 -0.647556 0.000000
vt 0.480035 -0.576252 0.000000
vt 0.568533 -0.489152 0.000000
vt 0.641448 -0.388645 0.000000
vt 0.696780 -0.277485 0.000000
vt 0.733013 -0.158719 0.000000
vt 0.749154 -0.035603 0.000000
vt 0.744761 0.088490 0.000000
vt 0.719954 0.210156 0.000000
vt 0.675413 0.326063 0.000000
vt 0.612359 0.433032 0.000000
vt 0.532520 0.528131 0.000000
vt 0.438084 0.608755 0.000000
vt 0.320454 0.650000 0.000000
vt 0.331641 0.672692 0.000000
vt 0.320454 0.678093 0.000000
vt -12.000000 0.210375 0.000000
vt -4.200000 0.254878 0.000000
vt -12.000000 0.390869 0.000000
vt 4.200000 0.254878 0.000000
vt 6.200000 0.254878 0.000000
vt -4.200000 0.084959 0.000000
vt -12.000000 0.029882 0.000000
vt -4.200000 -0.084959 0.000000
vt -12.000000 -0.150611 0.000000
vt -4.200000 -0.254878 0.000000
vt -12.000000 -0.331105 0.000000
vt 4.200000 -0.254878 0.000000
vt 13.500000 -0.392699 0.000000
vt 6.200000 -0.254878 0.000000
vt 13.500000 -0.196350 0.000000
vt 6.200000 -0.084959 0.000000
vt 13.500000 0.000000 0.000000
vt 6.200000 0.084959 0.000000
vt 13.500000 0.196350 0.000000
vt 13.500000 0.392699 0.000000
vt -13.500000 0.390869 0.000000
vt -13.500000 0.515181 0.000000
vt 13.500000 0.589049 0.000000
vt -13.500000 0.639493 0.000000
vt 13.500000 0.785398 0.000000
vt -13.500000 0.763805 0.000000
vt -13.500000 0.888118 0.000000
vt 13.500000 0.981748 0.000000
vt -13.500000 1.012430 0.000000
vt -13.500000 1.136742 0.000000
vt 13.500000 1.178097 0.000000
vt -13.500000 1.261055 0.000000
vt 13.500000 1.374447 0.000000
vt -13.500000 1.385367 0.000000
vt -13.500000 1.509679 0.000000
vt 13.500000 1.570796 0.000000
vt -13.500000 1.633991 0.000000
vt 13.500000 1.767146 0.000000
vt -13.500000 1.758304 0.000000
vt -13.500000 1.882616 0.000000
vt 13.500000 1.963495 0.000000
vt -13.500000 2.006928 0.000000
vt 13.500000 2.159845 0.000000
vt -13.500000 2.131241 0.000000
vt -13.500000 2.255553 0.000000
vt 13.500000 2.356194 0.000000
vt -13.500000 2.379865 0.000000
vt -13.500000 -2.332524 0.000000
vt 13.500000 -2.356194 0.000000
vt -13.500000 -2.208212 0.000000
vt 13.500000 -2.159845 0.000000
vt -13.500000 -2.083899 0.000000
vt 13.500000 -1.963495 0.000000
vt -13.500000 -1.959587 0.000000
vt -13.500000 -1.835275 0.000000
vt 13.500000 -1.767146 0.000000
vt -13.500000 -1.710962 0.000000
vt 13.500000 -1.570796 0.000000
vt -13.500000 -1.586650 0.000000
vt -13.500000 -1.462338 0.000000
vt 13.500000 -1.374447 0.000000
vt -13.500000 -1.338026 0.000000
vt 13.500000 -1.178097 0.000000
vt -13.500000 -1.213713 0.000000
vt -13.500000 -1.089401 0.000000
vt 13.500000 -0.981748 0.000000
vt -13.500000 -0.965089 0.000000
vt -13.500000 -0.840776 0.000000
vt 13.500000 -0.785398 0.000000
vt -13.500000 -0.716464 0.000000
vt 13.500000 -0.589049 0.000000
vt -13.500000 -0.592152 0.000000
vt -13.500000 -0.467840 0.000000
vt -13.500000 -0.343527 0.000000
vt -13.500000 -0.331105 0.000000
vt 1.500000 0.000432 0.000000
vt -0.000000 0.000432 0.000000
vt 1.500000 0.000000 0.000000
vt -0.000000 0.000000 0.000000
vt 0.320454 0.678093 0.000000
vt 0.149601 0.734928 0.000000
vt 0.320454 0.650000 0.000000
vt -0.029874 0.749405 0.000000
vt -0.207627 0.720688 0.000000
vt -0.373414 0.650432 0.000000
vt -0.373414 0.650000 0.000000
vt 0.000000 0.000000 0.000000
vt -0.693867 0.000000 0.000000
vt 0.000000 -1.500000 0.000000
vt -0.693867 -1.500000 0.000000
vt -1.500000 -0.028093 0.000000
vt -0.000000 -0.028093 0.000000
vt -1.500000 -0.000000 0.000000
vt 0.000000 -0.000000 0.000000
vn -0.100000 0.000000 0.000000
vn -0.100000 0.000000 0.000000
vn -0.100000 0.000000 0.000000
vn -0.100000 0.000000 0.000000
vn -0.100000 0.000000 0.000000
vn -0.100000 0.000000 0.000000
vn -0.100000 0.000000 0.000000
vn -0.100000 0.000000 0.000000
vn -0.100000 0.000000 0.000000
vn -0.100000 0.000000 0.000000
vn -0.100000 0.000000 0.000000
vn -0.100000 0.000000 0.000000
vn -0.100000 0.000000 0.000000
vn -0.100000 0.000000 0.000000
vn -0.100000 0.000000 0.000000
vn -0.100000 0.000000 0.000000
vn -0.100000 0.000000 0.000000
vn -0.100000 0.000000 0.000000
vn -0.100000 0.000000 0.000000
vn -0.100000 0.000000 0.000000
vn -0.100000 0.000000 0.000000
vn -0.100000 0.000000 0.000000
vn -0.100000 0.000000 0.000000
vn -0.100000 0.000000 0.000000
vn 0.000000 0.000000 0.100000
vn 0.000000 0.000000 0.100000
vn 0.000000 0.000000 0.100000
vn 0.000000 0.000000 0.100000
vn 0.100000 0.000000 0.000000
vn 0.100000 0.000000 0.000000
vn 0.100000 0.000000 0.000000
vn 0.100000 0.000000 0.000000
vn 0.100000 0.000000 0.000000
vn 0.100000 0.000000 0.000000
vn 0.000000 0.000000 -0.100000
vn 0.000000 0.000000 -0.100000
vn 0.000000 0.000000 -0.100000
vn 0.000000 0.000000 -0.100000
vn -0.100000 0.000000 0.000000
vn -0.100000 0.000000 0.000000
vn -0.100000 0.000000 0.000000
vn -0.100000 0.000000 0.000000
vn -0.100000 0.000000 0.000000
vn -0.100000 0.000000 0.000000
vn 0.000000 0.000000 0.100000
vn 0.000000 0.000000 0.100000
vn 0.000000 0.000000 -0.100000
vn 0.000000 0.000000 -0.100000
vn 0.000000 0.100000 0.000000
vn 0.000000 0.100000 0.000000
vn 0.000000 0.100000 0.000000
vn 0.000000 0.100000 0.000000
vn 0.000000 0.100000 0.000000
vn 0.000000 0.100000 0.000000
vn 0.100000 0.000000 0.000000
vn 0.100000 0.000000 0.000000
vn 0.100000 0.000000 0.000000
vn 0.100000 0.000000 0.000000
vn 0.100000 0.000000 0.000000
vn 0.100000 0.000000 0.000000
vn 0.100000 0.000000 0.000000
vn 0.100000 0.000000 0.000000
vn 0.100000 0.000000 0.000000
vn 0.100000 0.000000 0.000000
vn 0.100000 0.000000 0.000000
vn 0.100000 0.000000 0.000000
vn 0.100000 0.000000 0.000000
vn 0.100000 0.000000 0.000000
vn 0.100000 0.000000 0.000000
vn 0.100000 0.000000 0.000000
vn 0.100000 0.000000 0.000000
vn 0.100000 0.000000 0.000000
vn 0.100000 0.000000 0.000000
vn 0.100000 0.000000 0.000000
vn 0.100000 0.000000 0.000000
vn 0.100000 0.000000 0.000000
vn 0.100000 0.000000 0.000000
vn 0.100000 0.000000 0.000000
vn 0.100000 0.000000 0.000000
vn 0.100000 0.000000 0.000000
vn 0.100000 0.000000 0.000000
vn 0.100000 0.000000 0.000000
vn 0.100000 0.000000 0.000000
vn 0.100000 0.000000 0.000000
vn 0.100000 0.000000 0.000000
vn 0.100000 0.000000 0.000000
vn 0.100000 0.000000 0.000000
vn 0.100000 0.000000 0.000000
vn 0.100000 0.000000 0.000000
vn 0.100000 0.000000 0.000000
vn 0.000000 0.096092 0.027684
vn 0.000000 0.094281 0.033333
vn 0.000000 0.086724 0.049788
vn 0.000000 0.094281 0.033333
vn 0.000000 0.094281 0.033333
vn 0.000000 0.099359 0.011304
vn 0.000000 0.099921 0.003983
vn -0.000000 0.099359 -0.011304
vn -0.000000 0.097990 -0.019947
vn -0.000000 0.094281 -0.033333
vn -0.000000 0.090412 -0.042727
vn -0.000000 0.094281 -0.033333
vn -0.000000 0.086603 -0.050000
vn -0.000000 0.094281 -0.033333
vn -0.000000 0.096593 -0.025882
vn -0.000000 0.099359 -0.011304
vn -0.000000 0.100000 -0.000000
vn 0.000000 0.099359 0.011304
vn 0.000000 0.096593 0.025882
vn 0.000000 0.086603 0.050000
vn 0.000000 0.086724 0.049788
vn 0.000000 0.077321 0.063415
vn 0.000000 0.070711 0.070711
vn 0.000000 0.065798 0.075303
vn 0.000000 0.050000 0.086603
vn 0.000000 0.052472 0.085127
vn 0.000000 0.037708 0.092618
vn 0.000000 0.025882 0.096593
vn 0.000000 0.021910 0.097570
vn 0.000000 0.005511 0.099848
vn 0.000000 0.000000 0.100000
vn 0.000000 -0.011038 0.099389
vn 0.000000 -0.025882 0.096593
vn 0.000000 -0.027286 0.096206
vn 0.000000 -0.042785 0.090385
vn 0.000000 -0.050000 0.086603
vn 0.000000 -0.057111 0.082087
vn 0.000000 -0.070711 0.070711
vn 0.000000 -0.069872 0.071539
vn 0.000000 -0.080718 0.059031
vn 0.000000 -0.086603 0.050000
vn 0.000000 -0.089351 0.044904
vn 0.000000 -0.096593 0.025882
vn 0.000000 -0.095535 0.029546
vn 0.000000 -0.099101 0.013379
vn 0.000000 -0.100000 0.000000
vn 0.000000 -0.099950 -0.003156
vn 0.000000 -0.098060 -0.019603
vn 0.000000 -0.096593 -0.025882
vn 0.000000 -0.093481 -0.035514
vn 0.000000 -0.086603 -0.050000
vn 0.000000 -0.086341 -0.050451
vn 0.000000 -0.076834 -0.064005
vn 0.000000 -0.070711 -0.070711
vn 0.000000 -0.065220 -0.075804
vn 0.000000 -0.050000 -0.086603
vn 0.000000 -0.051819 -0.085526
vn 0.000000 -0.036998 -0.092904
vn 0.000000 -0.025882 -0.096593
vn 0.000000 -0.021163 -0.097735
vn 0.000000 -0.000000 -0.100000
vn 0.000000 -0.004747 -0.099887
vn -0.000000 0.011799 -0.099302
vn -0.000000 0.025882 -0.096593
vn -0.000000 0.028021 -0.095994
vn -0.000000 0.043475 -0.090055
vn -0.000000 0.050000 -0.086603
vn -0.000000 0.057738 -0.081648
vn -0.000000 0.070711 -0.070711
vn -0.000000 0.070417 -0.071003
vn -0.000000 0.081167 -0.058411
vn -0.000000 0.089692 -0.044219
vn -0.000000 0.090412 -0.042727
vn -0.000000 0.000000 -0.100000
vn -0.000000 0.000000 -0.100000
vn -0.000000 0.000000 -0.100000
vn -0.000000 0.000000 -0.100000
vn 0.100000 0.000000 0.000000
vn 0.100000 0.000000 0.000000
vn 0.100000 0.000000 0.000000
vn 0.100000 0.000000 0.000000
vn 0.100000 0.000000 0.000000
vn 0.100000 0.000000 0.000000
vn 0.100000 0.000000 0.000000
vn 0.000000 0.100000 0.000000
vn 0.000000 0.100000 0.000000
vn 0.000000 0.100000 0.000000
vn 0.000000 0.100000 0.000000
vn 0.000000 0.000000 0.100000
vn 0.000000 0.000000 0.100000
vn 0.000000 0.000000 0.100000
vn 0.000000 0.000000 0.100000
usemtl Aluminum_-_Polished
f 1/1/1 2/2/2 24/3/3
f 24/3/3 2/2/2 23/4/4
f 23/4/4 2/2/2 3/5/5
f 23/4/4 3/5/5 22/6/6
f 22/6/6 3/5/5 4/7/7
f 22/6/6 4/7/7 21/8/8
f 21/8/8 4/7/7 5/9/9
f 21/8/8 5/9/9 20/10/10
f 20/10/10 5/9/9 6/11/11
f 20/10/10 6/11/11 19/12/12
f 19/12/12 6/11/11 7/13/13
f 19/12/12 7/13/13 18/14/14
f 18/14/14 7/13/13 8/15/15
f 18/14/14 8/15/15 17/16/16
f 17/16/16 8/15/15 9/17/17
f 17/16/16 9/17/17 16/18/18
f 16/18/18 9/17/17 10/19/19
f 16/18/18 10/19/19 15/20/20
f 15/20/20 10/19/19 11/21/21
f 15/20/20 11/21/21 14/22/22
f 14/22/22 11/21/21 12/23/23
f 14/22/22 12/23/23 13/24/24
f 25/25/25 26/26/26 28/27/27
f 28/27/27 26/26/26 27/28/28
f 26/29/29 29/30/30 27/31/31
f 27/31/31 29/30/30 30/32/32
f 27/31/31 30/32/32 32/33/33
f 32/33/33 30/32/32 31/34/34
f 31/35/35 33/36/36 32/37/37
f 32/37/37 33/36/36 34/38/38
f 35/39/39 36/40/40 40/41/41
f 40/41/41 36/40/40 37/42/42
f 40/41/41 37/42/42 39/43/43
f 39/43/43 37/42/42 38/44/44
f 38/45/45 25/46/25 39/47/46
f 39/47/46 25/46/25 28/48/27
f 33/49/36 35/50/47 34/51/38
f 34/51/38 35/50/47 40/52/48
f 40/53/49 39/54/50 34/55/51
f 34/55/51 39/54/50 28/56/52
f 34/55/51 28/56/52 32/57/53
f 32/57/53 28/56/52 27/58/54
f 41/59/55 42/60/56 76/61/57
f 76/61/57 42/60/56 58/62/58
f 76/61/57 58/62/58 59/63/59
f 42/60/56 43/64/60 58/62/58
f 58/62/58 43/64/60 44/65/61
f 58/62/58 44/65/61 45/66/62
f 45/66/62 46/67/63 58/62/58
f 58/62/58 46/67/63 47/68/64
f 58/62/58 47/68/64 48/69/65
f 48/69/65 49/70/66 58/62/58
f 58/62/58 49/70/66 50/71/67
f 58/62/58 50/71/67 51/72/68
f 51/72/68 52/73/69 58/62/58
f 58/62/58 52/73/69 53/74/70
f 58/62/58 53/74/70 54/75/71
f 54/75/71 55/76/72 58/62/58
f 58/62/58 55/76/72 57/77/73
f 57/77/73 55/76/72 56/78/74
f 59/63/59 60/79/75 76/61/57
f 76/61/57 60/79/75 61/80/76
f 76/61/57 61/80/76 62/81/77
f 62/81/77 63/82/78 76/61/57
f 76/61/57 63/82/78 64/83/79
f 76/61/57 64/83/79 65/84/80
f 65/84/80 66/85/81 76/61/57
f 76/61/57 66/85/81 67/86/82
f 76/61/57 67/86/82 68/87/83
f 68/87/83 69/88/84 76/61/57
f 76/61/57 69/88/84 70/89/85
f 76/61/57 70/89/85 71/90/86
f 71/90/86 72/91/87 76/61/57
f 76/61/57 72/91/87 75/92/88
f 75/92/88 72/91/87 73/93/89
f 75/92/88 73/93/89 74/94/90
f 78/95/91 35/96/92 77/97/93
f 77/97/93 35/96/92 33/98/94
f 77/97/93 33/98/94 31/99/95
f 35/96/92 78/95/91 36/100/96
f 36/100/96 78/95/91 79/101/97
f 36/100/96 79/101/97 37/102/98
f 37/102/98 79/101/97 80/103/99
f 37/102/98 80/103/99 38/104/100
f 38/104/100 80/103/99 81/105/101
f 38/104/100 81/105/101 25/106/102
f 25/106/102 81/105/101 3/107/103
f 25/106/102 3/107/103 26/108/104
f 26/108/104 3/107/103 2/109/105
f 26/108/104 2/109/105 29/110/106
f 29/110/106 2/109/105 1/111/107
f 29/110/106 1/111/107 30/112/108
f 30/112/108 1/111/107 24/113/109
f 30/112/108 24/113/109 31/99/95
f 31/99/95 24/113/109 23/114/110
f 31/99/95 23/114/110 77/97/93
f 77/97/93 23/114/110 41/115/111
f 41/115/111 23/114/110 42/116/112
f 42/116/112 23/114/110 22/117/113
f 42/116/112 22/117/113 43/118/114
f 43/118/114 22/117/113 21/119/115
f 43/118/114 21/119/115 44/120/116
f 44/120/116 21/119/115 45/121/117
f 45/121/117 21/119/115 20/122/118
f 45/121/117 20/122/118 46/123/119
f 46/123/119 20/122/118 47/124/120
f 47/124/120 20/122/118 19/125/121
f 47/124/120 19/125/121 48/126/122
f 48/126/122 19/125/121 18/127/123
f 48/126/122 18/127/123 49/128/124
f 49/128/124 18/127/123 50/129/125
f 50/129/125 18/127/123 17/130/126
f 50/129/125 17/130/126 51/131/127
f 51/131/127 17/130/126 16/132/128
f 51/131/127 16/132/128 52/133/129
f 52/133/129 16/132/128 53/134/130
f 53/134/130 16/132/128 15/135/131
f 53/134/130 15/135/131 54/136/132
f 54/136/132 15/135/131 14/137/133
f 54/136/132 14/137/133 55/138/134
f 55/138/134 14/137/133 56/139/135
f 56/139/135 14/137/133 13/140/136
f 56/139/135 13/140/136 57/141/137
f 57/142/137 13/143/136 58/144/138
f 58/144/138 13/143/136 12/145/139
f 58/144/138 12/145/139 59/146/140
f 59/146/140 12/145/139 11/147/141
f 59/146/140 11/147/141 60/148/142
f 60/148/142 11/147/141 61/149/143
f 61/149/143 11/147/141 10/150/144
f 61/149/143 10/150/144 62/151/145
f 62/151/145 10/150/144 9/152/146
f 62/151/145 9/152/146 63/153/147
f 63/153/147 9/152/146 64/154/148
f 64/154/148 9/152/146 8/155/149
f 64/154/148 8/155/149 65/156/150
f 65/156/150 8/155/149 7/157/151
f 65/156/150 7/157/151 66/158/152
f 66/158/152 7/157/151 67/159/153
f 67/159/153 7/157/151 6/160/154
f 67/159/153 6/160/154 68/161/155
f 68/161/155 6/160/154 69/162/156
f 69/162/156 6/160/154 5/163/157
f 69/162/156 5/163/157 70/164/158
f 70/164/158 5/163/157 4/165/159
f 70/164/158 4/165/159 71/166/160
f 71/166/160 4/165/159 72/167/161
f 72/167/161 4/165/159 3/107/103
f 72/167/161 3/107/103 73/168/162
f 73/168/162 3/107/103 81/105/101
f 73/168/162 81/105/101 74/169/163
f 77/170/164 41/171/165 82/172/166
f 82/172/166 41/171/165 76/173/167
f 81/174/168 80/175/169 83/176/170
f 83/176/170 80/175/169 79/177/171
f 83/176/170 79/177/171 78/178/172
f 77/179/173 82/180/174 78/178/172
f 78/178/172 82/180/174 83/176/170
f 76/181/175 75/182/176 82/183/177
f 82/183/177 75/182/176 83/184/178
f 83/185/179 75/186/180 81/187/181
f 81/187/181 75/186/180 74/188/182

# 83 vertices
# 188 texture params
# 182 normals
# 162 facets

# 1 groups
