# WaveFront *.obj file (generated by Autodesk ATF)

mtllib 9e0db36b-9e16-44e4-a6a4-3e05bb2e9194.mtl

g 13_MRSHLDSRVT-Body

v 5.568422 4.832000 256.707428
v 6.500065 4.832000 256.993073
v 6.731577 4.832000 256.238037
v 5.799934 4.832000 255.952362
v 6.450672 4.832000 255.922348
v 5.849327 4.832000 257.023102
v 5.599623 4.832000 256.172058
v 6.700377 4.832000 256.773407
v 6.777008 4.832000 256.486145
v 5.522993 4.832000 256.459320
v 6.033268 4.832000 255.856537
v 6.266733 4.832000 257.088928
v 8.052206 4.358001 257.511902
v 8.299732 4.358001 256.195343
v 8.936325 3.100000 257.994904
v 9.196569 3.100000 255.578842
v 7.726133 4.358001 254.984741
v 8.622587 3.100000 254.481003
v 7.672176 3.100000 253.686401
v 6.550505 4.358001 254.342499
v 5.256111 3.100000 253.426163
v 5.221897 4.358001 254.513916
v 3.363675 3.100000 254.950546
v 4.247793 4.358001 255.433548
v 4.000267 4.358001 256.750092
v 2.993260 3.100000 256.132690
v 3.103430 3.100000 257.366608
v 4.573866 4.358001 257.960724
v 4.627825 3.100000 259.259064
v 5.749495 4.358001 258.602966
v 7.043888 3.100000 259.519287
v 7.078102 4.358001 258.431519
v 8.141716 3.100000 258.945313
vt -0.046939 0.116315 0.000000
vt -0.075504 0.023151 0.000000
vt 0.000000 0.000000 0.000000
vt 0.028568 0.093164 0.000000
vt -0.046939 0.116315 0.000000
vt 0.000000 0.000000 0.000000
vt 0.031569 0.028090 0.000000
vt 0.028568 0.093164 0.000000
vt 0.000000 0.000000 0.000000
vt -0.031567 -0.028090 0.000000
vt -0.028564 -0.093164 0.000000
vt 0.000000 0.000000 0.000000
vt -0.021970 0.020031 0.000000
vt -0.075507 0.023151 0.000000
vt 0.000000 0.000000 0.000000
vt 0.021967 -0.020031 0.000000
vt 0.075504 -0.023151 0.000000
vt 0.000000 0.000000 0.000000
vt 0.028726 -0.007663 0.000000
vt 0.053537 -0.003120 0.000000
vt 0.000000 0.000000 0.000000
vt -0.028726 0.007663 0.000000
vt -0.053537 0.003120 0.000000
vt 0.000000 0.000000 0.000000
vt 0.006581 0.041740 0.000000
vt -0.003001 0.065074 0.000000
vt 0.000000 0.000000 0.000000
vt -0.006583 -0.041741 0.000000
vt 0.003003 -0.065074 0.000000
vt 0.000000 0.000000 0.000000
vt -0.105259 -0.133979 0.000000
vt 0.026155 -0.159985 0.000000
vt 0.000000 0.000000 0.000000
vt -0.028631 0.008012 0.000000
vt -0.106092 -0.133320 0.000000
vt 0.000000 0.000000 0.000000
vt -0.173291 0.190418 0.000000
vt -0.239114 0.043304 0.000000
vt 0.000000 0.000000 0.000000
vt 0.148542 -0.210294 0.000000
vt 0.126004 -0.045487 0.000000
vt 0.000000 0.000000 0.000000
vt -0.130731 0.103706 0.000000
vt -0.119868 -0.059811 0.000000
vt -0.000000 0.000000 0.000000
vt -0.006869 0.163734 0.000000
vt -0.031643 0.158991 0.000000
vt -0.000000 0.000000 0.000000
vt -0.003270 0.202401 0.000000
vt -0.111492 0.123447 0.000000
vt -0.000000 0.000000 0.000000
vt 0.095497 0.078913 0.000000
vt -0.010377 0.202162 0.000000
vt -0.000000 0.000000 0.000000
vt 0.124675 -0.104190 0.000000
vt 0.180755 0.006271 0.000000
vt -0.000000 0.000000 0.000000
vt -0.164935 0.010098 0.000000
vt -0.061683 -0.118916 0.000000
vt -0.000000 0.000000 0.000000
vt -0.101233 0.130605 0.000000
vt -0.132190 0.101841 0.000000
vt -0.000000 0.000000 0.000000
vt -0.135163 0.120178 0.000000
vt -0.180771 -0.005781 0.000000
vt -0.000000 0.000000 0.000000
vt 0.141508 -0.112637 0.000000
vt 0.155183 0.129982 0.000000
vt 0.000000 0.000000 0.000000
vt 0.158637 -0.051765 0.000000
vt 0.142346 0.081202 0.000000
vt -0.000000 0.000000 0.000000
vt -0.158633 0.051776 0.000000
vt -0.164942 0.009993 0.000000
vt -0.000000 0.000000 0.000000
vt 0.155120 0.130056 0.000000
vt -0.011186 0.133494 0.000000
vt -0.000000 0.000000 0.000000
vt -0.068057 -0.218244 0.000000
vt 0.098236 -0.222262 0.000000
vt -0.000000 0.000000 0.000000
vt 0.055288 0.221822 0.000000
vt -0.066517 0.116282 0.000000
vt -0.000000 0.000000 0.000000
vt -0.061475 -0.158905 0.000000
vt 0.089446 -0.099726 0.000000
vt -0.000000 0.000000 0.000000
vt -0.082117 -0.138679 0.000000
vt -0.060631 -0.159228 0.000000
vt -0.000000 0.000000 0.000000
vt -0.151315 -0.058164 0.000000
vt -0.142094 -0.081642 0.000000
vt -0.000000 0.000000 0.000000
vt 0.105261 0.133979 0.000000
vt -0.026152 0.159985 0.000000
vt -0.000000 0.000000 0.000000
vt 0.028631 -0.008012 0.000000
vt 0.106094 0.133320 0.000000
vt -0.000000 0.000000 0.000000
vt -0.042489 0.186137 0.000000
vt -0.128828 0.036726 0.000000
vt -0.000000 0.000000 0.000000
vt 0.089897 0.133768 0.000000
vt -0.020583 0.189812 0.000000
vt -0.000000 0.000000 0.000000
vt 0.046573 0.166160 0.000000
vt -0.075969 0.147981 0.000000
vt 0.000000 -0.000000 0.000000
vt 0.130731 -0.103706 0.000000
vt 0.119871 0.059811 0.000000
vt 0.000000 -0.000000 0.000000
vt 0.006866 -0.163734 0.000000
vt 0.031640 -0.158991 0.000000
vt 0.000000 -0.000000 0.000000
vt 0.003267 -0.202402 0.000000
vt 0.111492 -0.123447 0.000000
vt 0.000000 -0.000000 0.000000
vt -0.048343 0.196571 0.000000
vt -0.180720 -0.007213 0.000000
vt 0.000000 -0.000000 0.000000
vt 0.164937 -0.010098 0.000000
vt 0.061683 0.118916 0.000000
vt 0.000000 -0.000000 0.000000
vt 0.101235 -0.130605 0.000000
vt 0.132190 -0.101841 0.000000
vt 0.000000 -0.000000 0.000000
vt -0.180771 -0.005781 0.000000
vt -0.045608 -0.125959 0.000000
vt 0.000000 -0.000000 0.000000
vt -0.141508 0.112637 0.000000
vt -0.155182 -0.129982 0.000000
vt 0.000000 -0.000000 0.000000
vt -0.158637 0.051766 0.000000
vt -0.142343 -0.081202 0.000000
vt 0.000000 0.000000 0.000000
vt 0.158633 -0.051776 0.000000
vt 0.164943 -0.009993 0.000000
vt 0.000000 -0.000000 0.000000
vt -0.155119 -0.130057 0.000000
vt 0.011188 -0.133494 0.000000
vt 0.000000 0.000000 0.000000
vt -0.166302 0.003683 0.000000
vt -0.129116 -0.114487 0.000000
vt 0.000000 0.000000 0.000000
vt 0.061477 0.158905 0.000000
vt -0.089445 0.099726 0.000000
vt 0.000000 0.000000 0.000000
vt 0.082116 0.138679 0.000000
vt 0.060634 0.159228 0.000000
vt 0.000000 0.000000 0.000000
vt 0.151315 0.058164 0.000000
vt 0.142091 0.081642 0.000000
vt 0.000000 0.000000 0.000000
vt 0.190639 0.010450 0.000000
vt 0.119833 0.124170 0.000000
vt 0.000000 0.000000 0.000000
vt 0.073613 -0.099639 0.000000
vt 0.190595 0.011224 0.000000
vt 0.000000 0.000000 0.000000
vn -0.000000 0.100000 0.000000
vn -0.000000 0.100000 0.000000
vn -0.000000 0.100000 0.000000
vn -0.000000 0.100000 0.000000
vn -0.000000 0.100000 0.000000
vn -0.000000 0.100000 0.000000
vn -0.000000 0.100000 0.000000
vn -0.000000 0.100000 0.000000
vn -0.000000 0.100000 0.000000
vn -0.000000 0.100000 0.000000
vn -0.000000 0.100000 0.000000
vn -0.000000 0.100000 0.000000
vn 0.030675 0.095004 0.005767
vn 0.030675 0.095004 0.005767
vn 0.030675 0.095004 0.005767
vn 0.029175 0.095332 0.007783
vn 0.029175 0.095332 0.007783
vn 0.029175 0.095332 0.007783
vn 0.079927 0.059478 0.008609
vn 0.079927 0.059478 0.008609
vn 0.079927 0.059478 0.008609
vn 0.083897 0.052081 0.015774
vn 0.083897 0.052081 0.015774
vn 0.083897 0.052081 0.015774
vn 0.028337 0.094957 -0.013426
vn 0.028337 0.094957 -0.013426
vn 0.028337 0.094957 -0.013426
vn 0.028762 0.095630 -0.005267
vn 0.028762 0.095630 -0.005267
vn 0.028762 0.095630 -0.005267
vn 0.068717 0.064945 -0.032559
vn 0.068717 0.064945 -0.032559
vn 0.068717 0.064945 -0.032559
vn 0.068626 0.063270 -0.035880
vn 0.068626 0.063270 -0.035880
vn 0.068626 0.063270 -0.035880
vn 0.050962 0.060724 -0.060955
vn 0.050962 0.060724 -0.060955
vn 0.050962 0.060724 -0.060955
vn 0.015043 0.094950 -0.027537
vn 0.015043 0.094950 -0.027537
vn 0.015043 0.094950 -0.027537
vn 0.021515 0.095763 -0.019144
vn 0.021515 0.095763 -0.019144
vn 0.021515 0.095763 -0.019144
vn 0.035899 0.066280 -0.065713
vn 0.035899 0.066280 -0.065713
vn 0.035899 0.066280 -0.065713
vn 0.009126 0.052326 -0.084727
vn 0.009126 0.052326 -0.084727
vn 0.009126 0.052326 -0.084727
vn -0.004012 0.094957 -0.031099
vn -0.004012 0.094957 -0.031099
vn -0.004012 0.094957 -0.031099
vn 0.004485 0.095763 -0.028448
vn 0.004485 0.095763 -0.028448
vn 0.004485 0.095763 -0.028448
vn -0.009730 0.064945 -0.075416
vn -0.009730 0.064945 -0.075416
vn -0.009730 0.064945 -0.075416
vn -0.052445 0.054870 -0.065107
vn -0.052445 0.054870 -0.065107
vn -0.052445 0.054870 -0.065107
vn -0.054612 0.060591 -0.057847
vn -0.054612 0.060591 -0.057847
vn -0.054612 0.060591 -0.057847
vn -0.021427 0.095004 -0.022696
vn -0.021427 0.095004 -0.022696
vn -0.021427 0.095004 -0.022696
vn -0.022313 0.095332 -0.020344
vn -0.022313 0.095332 -0.020344
vn -0.022313 0.095332 -0.020344
vn -0.011108 0.095630 -0.027048
vn -0.011108 0.095630 -0.027048
vn -0.011108 0.095630 -0.027048
vn -0.030675 0.095004 -0.005767
vn -0.030675 0.095004 -0.005767
vn -0.030675 0.095004 -0.005767
vn -0.029175 0.095332 -0.007783
vn -0.029175 0.095332 -0.007783
vn -0.029175 0.095332 -0.007783
vn -0.073875 0.065952 -0.013889
vn -0.073875 0.065952 -0.013889
vn -0.073875 0.065952 -0.013889
vn -0.075044 0.061769 -0.023514
vn -0.075044 0.061769 -0.023514
vn -0.075044 0.061769 -0.023514
vn -0.079543 0.060187 0.007102
vn -0.079543 0.060187 0.007102
vn -0.079543 0.060187 0.007102
vn -0.028337 0.094957 0.013426
vn -0.028337 0.094957 0.013426
vn -0.028337 0.094957 0.013426
vn -0.028762 0.095629 0.005266
vn -0.028762 0.095629 0.005266
vn -0.028762 0.095629 0.005266
vn -0.068717 0.064945 0.032558
vn -0.068717 0.064945 0.032558
vn -0.068717 0.064945 0.032558
vn -0.066365 0.052325 0.053458
vn -0.066365 0.052325 0.053458
vn -0.066365 0.052325 0.053458
vn -0.015043 0.094950 0.027537
vn -0.015043 0.094950 0.027537
vn -0.015043 0.094950 0.027537
vn -0.021515 0.095763 0.019145
vn -0.021515 0.095763 0.019145
vn -0.021515 0.095763 0.019145
vn -0.035899 0.066280 0.065713
vn -0.035899 0.066280 0.065713
vn -0.035899 0.066280 0.065713
vn -0.009126 0.052325 0.084728
vn -0.009126 0.052325 0.084728
vn -0.009126 0.052325 0.084728
vn 0.004013 0.094957 0.031099
vn 0.004013 0.094957 0.031099
vn 0.004013 0.094957 0.031099
vn -0.004486 0.095763 0.028448
vn -0.004486 0.095763 0.028448
vn -0.004486 0.095763 0.028448
vn 0.009732 0.064945 0.075415
vn 0.009732 0.064945 0.075415
vn 0.009732 0.064945 0.075415
vn 0.037001 0.060187 0.070770
vn 0.037001 0.060187 0.070770
vn 0.037001 0.060187 0.070770
vn 0.021426 0.095004 0.022696
vn 0.021426 0.095004 0.022696
vn 0.021426 0.095004 0.022696
vn 0.022312 0.095332 0.020346
vn 0.022312 0.095332 0.020346
vn 0.022312 0.095332 0.020346
vn 0.011111 0.095630 0.027047
vn 0.011111 0.095630 0.027047
vn 0.011111 0.095630 0.027047
vn 0.051602 0.065952 0.054659
vn 0.051602 0.065952 0.054659
vn 0.051602 0.065952 0.054659
vn 0.060333 0.061769 0.050443
vn 0.060333 0.061769 0.050443
vn 0.060333 0.061769 0.050443
usemtl Aluminum_-_Satin
f 1/1/1 2/2/2 3/3/3
f 4/4/4 1/5/1 3/6/3
f 5/7/5 4/8/4 3/9/3
f 6/10/6 2/11/2 1/12/1
f 7/13/7 1/14/1 4/15/4
f 8/16/8 3/17/3 2/18/2
f 9/19/9 3/20/3 8/21/8
f 10/22/10 1/23/1 7/24/7
f 11/25/11 4/26/4 5/27/5
f 12/28/12 2/29/2 6/30/6
f 13/31/13 14/32/14 9/33/15
f 8/34/16 13/35/17 9/36/18
f 13/37/19 15/38/20 16/39/21
f 16/40/22 14/41/23 13/42/24
f 3/43/25 14/44/26 17/45/27
f 3/46/28 9/47/29 14/48/30
f 17/49/31 14/50/32 16/51/33
f 18/52/34 17/53/35 16/54/36
f 18/55/37 19/56/38 17/57/39
f 5/58/40 17/59/41 20/60/42
f 5/61/43 3/62/44 17/63/45
f 20/64/46 17/65/47 19/66/48
f 19/67/49 21/68/50 20/69/51
f 20/70/52 22/71/53 11/72/54
f 11/73/55 5/74/56 20/75/57
f 21/76/58 22/77/59 20/78/60
f 22/79/61 21/80/62 23/81/63
f 23/82/64 24/83/65 22/84/66
f 4/85/67 22/86/68 24/87/69
f 7/88/70 4/89/71 24/90/72
f 4/91/73 11/92/74 22/93/75
f 24/94/76 25/95/77 10/96/78
f 7/97/79 24/98/80 10/99/81
f 26/100/82 25/101/83 24/102/84
f 23/103/85 26/104/86 24/105/87
f 26/106/88 27/107/89 25/108/90
f 1/109/91 25/110/92 28/111/93
f 1/112/94 10/113/95 25/114/96
f 28/115/97 25/116/98 27/117/99
f 27/118/100 29/119/101 28/120/102
f 6/121/103 28/122/104 30/123/105
f 6/124/106 1/125/107 28/126/108
f 29/127/109 30/128/110 28/129/111
f 29/130/112 31/131/113 30/132/114
f 30/133/115 32/134/116 12/135/117
f 12/136/118 6/137/119 30/138/120
f 31/139/121 32/140/122 30/141/123
f 31/142/124 33/143/125 32/144/126
f 2/145/127 32/146/128 13/147/129
f 8/148/130 2/149/131 13/150/132
f 2/151/133 12/152/134 32/153/135
f 13/154/136 32/155/137 33/156/138
f 15/157/139 13/158/140 33/159/141

# 33 vertices
# 159 texture params
# 141 normals
# 53 facets

# 1 groups
