# WaveFront *.obj file (generated by Autodesk ATF)

mtllib 9a211464-30c6-496e-8858-57c5e88dac86.mtl

g 2_MRSHLDSBM-Body

v -3582.816467 -2324.859009 206.000061
v -3587.999878 -2308.000031 206.000061
v -3587.999878 -2308.000031 4926.000061
v -3582.944031 -2324.667053 4926.000061
v -3569.480591 -2335.716400 206.000061
v -3572.070313 -2334.503937 4926.000061
v -3557.999878 -2338.000031 4926.000061
v -3557.999878 -2338.000031 206.000061
v -3400.000000 -2338.000031 4926.000061
v -3400.000000 -2338.000031 206.000061
v -3400.000000 -2350.000000 4926.000061
v -3400.000000 -2350.000000 206.000061
v -3557.999878 -2350.000000 4926.000061
v -3557.999878 -2350.000000 206.000061
v -3600.000000 -2308.000031 206.000061
v -3590.466309 -2334.644470 206.000061
v -3592.743225 -2331.602631 4926.000061
v -3600.000000 -2308.000031 4926.000061
v -3574.072571 -2346.802979 4926.000061
v -3575.957336 -2345.967560 206.000061
v -3600.000000 -2000.000000 206.000061
v -3587.999878 -2000.000000 206.000061
v -3587.999878 -2000.000000 4926.000061
v -3600.000000 -2000.000000 4926.000061
vt 472.000000 -1.763783 0.000000
vt 472.000000 0.000000 0.000000
vt 0.000000 0.000000 0.000000
vt -472.000007 1.761757 0.000000
vt -472.000000 0.020059 0.000000
vt 0.000000 0.000000 0.000000
vt 471.999969 -1.750079 0.000000
vt 472.000000 -0.030403 0.000000
vt 0.000000 0.000000 0.000000
vt -472.000340 1.647026 0.000000
vt -472.000052 0.180731 0.000000
vt 0.000000 0.000000 0.000000
vt -471.999969 -1.182980 0.000000
vt 0.000042 -1.449827 0.000000
vt 0.000000 0.000000 0.000000
vt -472.000000 0.000000 0.000000
vt -472.000000 -1.170563 0.000000
vt 0.000000 0.000000 0.000000
vt -472.000000 -15.799988 0.000000
vt 0.000000 -15.799988 0.000000
vt -472.000000 0.000000 0.000000
vt 0.000000 0.000000 0.000000
vt 472.000000 1.199997 0.000000
vt 0.000000 1.199997 0.000000
vt 472.000000 0.000000 0.000000
vt 0.000000 0.000000 0.000000
vt 472.000000 15.799988 0.000000
vt 0.000000 15.799988 0.000000
vt 472.000000 0.000000 0.000000
vt 0.000000 0.000000 0.000000
vt -471.999802 2.506802 0.000000
vt -472.000042 -0.323070 0.000000
vt 0.000000 0.000000 0.000000
vt 0.000000 2.469299 0.000000
vt -472.000000 2.469299 0.000000
vt 0.000000 0.000000 0.000000
vt -471.999970 -1.647294 0.000000
vt 0.000035 -1.840464 0.000000
vt 0.000000 0.000000 0.000000
vt -472.000000 0.000000 0.000000
vt -472.000000 -1.638757 0.000000
vt 0.000000 0.000000 0.000000
vt 472.000484 -1.925783 0.000000
vt 471.999907 0.481796 0.000000
vt 0.000000 0.000000 0.000000
vt -472.000276 1.976230 0.000000
vt -472.000025 0.135788 0.000000
vt 0.000000 0.000000 0.000000
vt 2.404266 3.796753 0.000000
vt 1.204254 3.796753 0.000000
vt 1.450897 1.132309 0.000000
vt 0.685913 2.110855 0.000000
vt 0.000000 0.000000 0.000000
vt -0.647675 1.025116 0.000000
vt -1.795746 -0.403244 0.000000
vt -1.795746 0.796753 0.000000
vt -17.595734 -0.403244 0.000000
vt -17.595734 0.796753 0.000000
vt 2.404266 34.596756 0.000000
vt 1.204254 34.596756 0.000000
vt 2.592743 -3.880295 0.000000
vt 1.705597 -1.666702 0.000000
vt 0.725677 -2.360260 0.000000
vt 1.200012 0.000000 0.000000
vt 0.000000 0.000000 0.000000
vt 0.000000 30.800003 0.000000
vt 1.200012 30.800003 0.000000
vt 4.200012 -4.199997 0.000000
vt 4.200012 -3.000000 0.000000
vt 2.792969 -2.650391 0.000000
vt 20.000000 -4.199997 0.000000
vt 20.000000 -3.000000 0.000000
vt -472.000000 -30.800003 0.000000
vt 0.000000 -30.800003 0.000000
vt -472.000000 0.000000 0.000000
vt 0.000000 0.000000 0.000000
vt -472.000000 -1.200012 0.000000
vt 0.000000 -1.200012 0.000000
vt -472.000000 0.000000 0.000000
vt 0.000000 0.000000 0.000000
vt -236.000000 -15.400002 0.000000
vt 236.000000 -15.400002 0.000000
vt -236.000000 15.400002 0.000000
vt 236.000000 15.400002 0.000000
vn 0.095584 0.029388 0.000000
vn 0.095584 0.029388 0.000000
vn 0.095584 0.029388 0.000000
vn 0.095694 0.029028 0.000001
vn 0.095694 0.029028 0.000001
vn 0.095694 0.029028 0.000001
vn 0.063136 0.077549 -0.000001
vn 0.063136 0.077549 -0.000001
vn 0.063136 0.077549 -0.000001
vn 0.067087 0.074158 0.000018
vn 0.067087 0.074158 0.000018
vn 0.067087 0.074158 0.000018
vn 0.024114 0.097049 -0.000012
vn 0.024114 0.097049 -0.000012
vn 0.024114 0.097049 -0.000012
vn 0.019509 0.098079 0.000000
vn 0.019509 0.098079 0.000000
vn 0.019509 0.098079 0.000000
vn 0.000000 0.100000 0.000000
vn 0.000000 0.100000 0.000000
vn 0.000000 0.100000 0.000000
vn 0.000000 0.100000 0.000000
vn 0.100000 0.000000 0.000000
vn 0.100000 0.000000 0.000000
vn 0.100000 0.000000 0.000000
vn 0.100000 0.000000 0.000000
vn 0.000000 -0.100000 0.000000
vn 0.000000 -0.100000 0.000000
vn 0.000000 -0.100000 0.000000
vn 0.000000 -0.100000 0.000000
vn -0.094154 -0.033689 -0.000024
vn -0.094154 -0.033689 -0.000024
vn -0.094154 -0.033689 -0.000024
vn -0.095584 -0.029388 0.000000
vn -0.095584 -0.029388 0.000000
vn -0.095584 -0.029388 0.000000
vn -0.021910 -0.097570 -0.000009
vn -0.021910 -0.097570 -0.000009
vn -0.021910 -0.097570 -0.000009
vn -0.019509 -0.098079 0.000000
vn -0.019509 -0.098079 0.000000
vn -0.019509 -0.098079 0.000000
vn -0.063135 -0.077549 0.000020
vn -0.063135 -0.077549 0.000020
vn -0.063135 -0.077549 0.000020
vn -0.061524 -0.078834 0.000011
vn -0.061524 -0.078834 0.000011
vn -0.061524 -0.078834 0.000011
vn 0.000000 0.000000 -0.100000
vn 0.000000 0.000000 -0.100000
vn 0.000000 0.000000 -0.100000
vn 0.000000 0.000000 -0.100000
vn 0.000000 0.000000 -0.100000
vn 0.000000 0.000000 -0.100000
vn 0.000000 0.000000 -0.100000
vn 0.000000 0.000000 -0.100000
vn 0.000000 0.000000 -0.100000
vn 0.000000 0.000000 -0.100000
vn 0.000000 0.000000 -0.100000
vn 0.000000 0.000000 -0.100000
vn 0.000000 0.000000 0.100000
vn 0.000000 0.000000 0.100000
vn 0.000000 0.000000 0.100000
vn 0.000000 0.000000 0.100000
vn 0.000000 0.000000 0.100000
vn 0.000000 0.000000 0.100000
vn 0.000000 0.000000 0.100000
vn 0.000000 0.000000 0.100000
vn 0.000000 0.000000 0.100000
vn 0.000000 0.000000 0.100000
vn 0.000000 0.000000 0.100000
vn 0.000000 0.000000 0.100000
vn -0.100000 0.000000 0.000000
vn -0.100000 0.000000 0.000000
vn -0.100000 0.000000 0.000000
vn -0.100000 0.000000 0.000000
vn 0.000000 0.100000 0.000000
vn 0.000000 0.100000 0.000000
vn 0.000000 0.100000 0.000000
vn 0.000000 0.100000 0.000000
vn 0.100000 0.000000 0.000000
vn 0.100000 0.000000 0.000000
vn 0.100000 0.000000 0.000000
vn 0.100000 0.000000 0.000000
usemtl Aluminum_-_Satin
f 1/1/1 2/2/2 3/3/3
f 3/4/4 4/5/5 1/6/6
f 5/7/7 1/8/8 4/9/9
f 4/10/10 6/11/11 5/12/12
f 5/13/13 6/14/14 7/15/15
f 8/16/16 5/17/17 7/18/18
f 8/19/19 7/20/20 10/21/21
f 10/21/21 7/20/20 9/22/22
f 10/23/23 9/24/24 12/25/25
f 12/25/25 9/24/24 11/26/26
f 12/27/27 11/28/28 14/29/29
f 14/29/29 11/28/28 13/30/30
f 15/31/31 16/32/32 17/33/33
f 18/34/34 15/35/35 17/36/36
f 19/37/37 20/38/38 14/39/39
f 13/40/40 19/41/41 14/42/42
f 19/43/43 17/44/44 16/45/45
f 16/46/46 20/47/47 19/48/48
f 15/49/49 2/50/50 16/51/51
f 16/51/51 2/50/50 1/52/52
f 16/51/51 1/52/52 20/53/53
f 20/53/53 1/52/52 5/54/54
f 20/53/53 5/54/54 14/55/55
f 14/55/55 5/54/54 8/56/56
f 14/55/55 8/56/56 12/57/57
f 12/57/57 8/56/56 10/58/58
f 21/59/59 22/60/60 15/49/49
f 15/49/49 22/60/60 2/50/50
f 19/61/61 4/62/62 17/63/63
f 17/63/63 4/62/62 3/64/64
f 17/63/63 3/64/64 18/65/65
f 18/65/65 3/64/64 24/66/66
f 24/66/66 3/64/64 23/67/67
f 13/68/68 7/69/69 19/61/61
f 19/61/61 7/69/69 6/70/70
f 19/61/61 6/70/70 4/62/62
f 13/68/68 11/71/71 7/69/69
f 7/69/69 11/71/71 9/72/72
f 15/73/73 18/74/74 21/75/75
f 21/75/75 18/74/74 24/76/76
f 21/77/77 24/78/78 22/79/79
f 22/79/79 24/78/78 23/80/80
f 3/81/81 2/82/82 23/83/83
f 23/83/83 2/82/82 22/84/84

# 24 vertices
# 84 texture params
# 84 normals
# 44 facets

# 1 groups
