# WaveFront *.obj file (generated by Autodesk ATF)

mtllib f85a7397-9967-4f8b-baec-e3f983eb379b.mtl

g 2_MRSHLDSBM-Body

v 232.485901 20.600006 358.281647
v 230.800003 20.600006 358.799988
v 230.800003 492.600006 358.799988
v 232.466705 492.600006 358.294403
v 233.571640 20.600006 356.948059
v 233.450394 492.600006 357.207031
v 233.800003 492.600006 355.799988
v 233.800003 20.600006 355.799988
v 233.800003 492.600006 340.000000
v 233.800003 20.600006 340.000000
v 235.000000 492.600006 340.000000
v 235.000000 20.600006 340.000000
v 235.000000 492.600006 355.799988
v 235.000000 20.600006 355.799988
v 230.800003 20.600006 360.000000
v 233.464447 20.600006 359.046631
v 233.160263 492.600006 359.274323
v 230.800003 492.600006 360.000000
v 234.680298 492.600006 357.407257
v 234.596756 20.600006 357.595734
v 200.000000 20.600006 360.000000
v 200.000000 20.600006 358.799988
v 200.000000 492.600006 358.799988
v 200.000000 492.600006 360.000000
vt 47.200000 -0.176378 0.000000
vt 47.200000 0.000000 0.000000
vt 0.000000 0.000000 0.000000
vt -47.200001 0.176176 0.000000
vt -47.200000 0.002006 0.000000
vt 0.000000 0.000000 0.000000
vt 47.199997 -0.175008 0.000000
vt 47.200000 -0.003040 0.000000
vt 0.000000 0.000000 0.000000
vt -47.200034 0.164703 0.000000
vt -47.200005 0.018073 0.000000
vt 0.000000 0.000000 0.000000
vt -47.199997 -0.118298 0.000000
vt 0.000004 -0.144983 0.000000
vt 0.000000 0.000000 0.000000
vt -47.200000 -0.000000 0.000000
vt -47.200000 -0.117056 0.000000
vt 0.000000 0.000000 0.000000
vt -47.200000 -1.579999 0.000000
vt 0.000000 -1.579999 0.000000
vt -47.200000 -0.000000 0.000000
vt 0.000000 0.000000 0.000000
vt 47.200000 0.120000 0.000000
vt -0.000000 0.120000 0.000000
vt 47.200000 0.000000 0.000000
vt 0.000000 0.000000 0.000000
vt 47.200000 1.579999 0.000000
vt 0.000000 1.579999 0.000000
vt 47.200000 -0.000000 0.000000
vt 0.000000 0.000000 0.000000
vt -47.199980 0.250680 0.000000
vt -47.200004 -0.032307 0.000000
vt 0.000000 0.000000 0.000000
vt 0.000000 0.246930 0.000000
vt -47.200000 0.246930 0.000000
vt 0.000000 0.000000 0.000000
vt -47.199997 -0.164729 0.000000
vt 0.000004 -0.184046 0.000000
vt 0.000000 0.000000 0.000000
vt -47.200000 0.000000 0.000000
vt -47.200000 -0.163876 0.000000
vt 0.000000 0.000000 0.000000
vt 47.200048 -0.192578 0.000000
vt 47.199991 0.048180 0.000000
vt 0.000000 0.000000 0.000000
vt -47.200028 0.197623 0.000000
vt -47.200003 0.013579 0.000000
vt 0.000000 0.000000 0.000000
vt 0.240427 0.379675 0.000000
vt 0.120425 0.379675 0.000000
vt 0.145090 0.113231 0.000000
vt 0.068591 0.211086 0.000000
vt 0.000000 0.000000 0.000000
vt -0.064767 0.102512 0.000000
vt -0.179575 -0.040324 0.000000
vt -0.179575 0.079675 0.000000
vt -1.759573 -0.040324 0.000000
vt -1.759573 0.079675 0.000000
vt 0.240427 3.459676 0.000000
vt 0.120425 3.459676 0.000000
vt 0.259274 -0.388029 0.000000
vt 0.170560 -0.166670 0.000000
vt 0.072568 -0.236026 0.000000
vt 0.120001 -0.000000 0.000000
vt 0.000000 0.000000 0.000000
vt 0.000000 3.080000 0.000000
vt 0.120001 3.080000 0.000000
vt 0.420001 -0.420000 0.000000
vt 0.420001 -0.300000 0.000000
vt 0.279297 -0.265039 0.000000
vt 2.000000 -0.420000 0.000000
vt 2.000000 -0.300000 0.000000
vt -47.200000 -3.080000 0.000000
vt 0.000000 -3.080000 0.000000
vt -47.200000 0.000000 0.000000
vt 0.000000 0.000000 0.000000
vt -47.200000 -0.120001 0.000000
vt 0.000000 -0.120001 0.000000
vt -47.200000 -0.000000 0.000000
vt 0.000000 0.000000 0.000000
vt -23.600000 -1.540000 0.000000
vt 23.600000 -1.540000 0.000000
vt -23.600000 1.540000 0.000000
vt 23.600000 1.540000 0.000000
vn -0.029388 -0.000000 -0.095584
vn -0.029388 -0.000000 -0.095584
vn -0.029388 -0.000000 -0.095584
vn -0.029028 0.000001 -0.095694
vn -0.029028 0.000001 -0.095694
vn -0.029028 0.000001 -0.095694
vn -0.077549 -0.000001 -0.063136
vn -0.077549 -0.000001 -0.063136
vn -0.077549 -0.000001 -0.063136
vn -0.074158 0.000018 -0.067087
vn -0.074158 0.000018 -0.067087
vn -0.074158 0.000018 -0.067087
vn -0.097049 -0.000012 -0.024114
vn -0.097049 -0.000012 -0.024114
vn -0.097049 -0.000012 -0.024114
vn -0.098079 -0.000000 -0.019509
vn -0.098079 -0.000000 -0.019509
vn -0.098079 -0.000000 -0.019509
vn -0.100000 -0.000000 0.000000
vn -0.100000 -0.000000 0.000000
vn -0.100000 -0.000000 0.000000
vn -0.100000 -0.000000 0.000000
vn -0.000000 0.000000 -0.100000
vn -0.000000 0.000000 -0.100000
vn -0.000000 0.000000 -0.100000
vn -0.000000 0.000000 -0.100000
vn 0.100000 0.000000 -0.000000
vn 0.100000 0.000000 -0.000000
vn 0.100000 0.000000 -0.000000
vn 0.100000 0.000000 -0.000000
vn 0.033689 -0.000024 0.094154
vn 0.033689 -0.000024 0.094154
vn 0.033689 -0.000024 0.094154
vn 0.029388 0.000000 0.095584
vn 0.029388 0.000000 0.095584
vn 0.029388 0.000000 0.095584
vn 0.097570 -0.000009 0.021910
vn 0.097570 -0.000009 0.021910
vn 0.097570 -0.000009 0.021910
vn 0.098079 0.000000 0.019509
vn 0.098079 0.000000 0.019509
vn 0.098079 0.000000 0.019509
vn 0.077549 0.000020 0.063135
vn 0.077549 0.000020 0.063135
vn 0.077549 0.000020 0.063135
vn 0.078834 0.000011 0.061524
vn 0.078834 0.000011 0.061524
vn 0.078834 0.000011 0.061524
vn 0.000000 -0.100000 -0.000000
vn 0.000000 -0.100000 -0.000000
vn 0.000000 -0.100000 -0.000000
vn 0.000000 -0.100000 -0.000000
vn 0.000000 -0.100000 -0.000000
vn 0.000000 -0.100000 -0.000000
vn 0.000000 -0.100000 -0.000000
vn 0.000000 -0.100000 -0.000000
vn 0.000000 -0.100000 -0.000000
vn 0.000000 -0.100000 -0.000000
vn 0.000000 -0.100000 -0.000000
vn 0.000000 -0.100000 -0.000000
vn -0.000000 0.100000 0.000000
vn -0.000000 0.100000 0.000000
vn -0.000000 0.100000 0.000000
vn -0.000000 0.100000 0.000000
vn -0.000000 0.100000 0.000000
vn -0.000000 0.100000 0.000000
vn -0.000000 0.100000 0.000000
vn -0.000000 0.100000 0.000000
vn -0.000000 0.100000 0.000000
vn -0.000000 0.100000 0.000000
vn -0.000000 0.100000 0.000000
vn -0.000000 0.100000 0.000000
vn 0.000000 -0.000000 0.100000
vn 0.000000 -0.000000 0.100000
vn 0.000000 -0.000000 0.100000
vn 0.000000 -0.000000 0.100000
vn -0.100000 -0.000000 0.000000
vn -0.100000 -0.000000 0.000000
vn -0.100000 -0.000000 0.000000
vn -0.100000 -0.000000 0.000000
vn -0.000000 0.000000 -0.100000
vn -0.000000 0.000000 -0.100000
vn -0.000000 0.000000 -0.100000
vn -0.000000 0.000000 -0.100000
usemtl Aluminum_-_Satin
f 1/1/1 2/2/2 3/3/3
f 3/4/4 4/5/5 1/6/6
f 5/7/7 1/8/8 4/9/9
f 4/10/10 6/11/11 5/12/12
f 5/13/13 6/14/14 7/15/15
f 8/16/16 5/17/17 7/18/18
f 8/19/19 7/20/20 10/21/21
f 10/21/21 7/20/20 9/22/22
f 10/23/23 9/24/24 12/25/25
f 12/25/25 9/24/24 11/26/26
f 12/27/27 11/28/28 14/29/29
f 14/29/29 11/28/28 13/30/30
f 15/31/31 16/32/32 17/33/33
f 18/34/34 15/35/35 17/36/36
f 19/37/37 20/38/38 14/39/39
f 13/40/40 19/41/41 14/42/42
f 19/43/43 17/44/44 16/45/45
f 16/46/46 20/47/47 19/48/48
f 15/49/49 2/50/50 16/51/51
f 16/51/51 2/50/50 1/52/52
f 16/51/51 1/52/52 20/53/53
f 20/53/53 1/52/52 5/54/54
f 20/53/53 5/54/54 14/55/55
f 14/55/55 5/54/54 8/56/56
f 14/55/55 8/56/56 12/57/57
f 12/57/57 8/56/56 10/58/58
f 21/59/59 22/60/60 15/49/49
f 15/49/49 22/60/60 2/50/50
f 19/61/61 4/62/62 17/63/63
f 17/63/63 4/62/62 3/64/64
f 17/63/63 3/64/64 18/65/65
f 18/65/65 3/64/64 24/66/66
f 24/66/66 3/64/64 23/67/67
f 13/68/68 7/69/69 19/61/61
f 19/61/61 7/69/69 6/70/70
f 19/61/61 6/70/70 4/62/62
f 13/68/68 11/71/71 7/69/69
f 7/69/69 11/71/71 9/72/72
f 15/73/73 18/74/74 21/75/75
f 21/75/75 18/74/74 24/76/76
f 21/77/77 24/78/78 22/79/79
f 22/79/79 24/78/78 23/80/80
f 3/81/81 2/82/82 23/83/83
f 23/83/83 2/82/82 22/84/84

# 24 vertices
# 84 texture params
# 84 normals
# 44 facets

# 1 groups
