# WaveFront *.obj file (generated by Autodesk ATF)

mtllib 56b0fb54-1b74-4b04-9ebc-0e73387e61f1.mtl

g 5_MRSHLDSPNL-Body

v -255.000000 0.600000 -380.000000
v -255.000000 -0.600000 -380.000000
v -255.000000 -0.600000 380.000000
v -255.000000 0.600000 380.000000
v 255.000000 0.600000 -380.000000
v 255.000000 -0.600000 -380.000000
v 255.000000 -0.600000 380.000000
v 255.000000 0.600000 380.000000
vt 0.120000 76.000000 0.000000
vt -0.000000 76.000000 0.000000
vt 0.120000 0.000000 0.000000
vt 0.000000 0.000000 0.000000
vt -0.120000 -51.000000 0.000000
vt -0.000000 -51.000000 0.000000
vt -0.120000 -0.000000 0.000000
vt 0.000000 0.000000 0.000000
vt 76.000000 -0.000000 0.000000
vt 0.000000 0.000000 0.000000
vt 76.000000 -51.000000 0.000000
vt 0.000000 -51.000000 0.000000
vt 0.120000 51.000000 0.000000
vt -0.000000 51.000000 0.000000
vt 0.120000 -0.000000 0.000000
vt 0.000000 0.000000 0.000000
vt -0.120000 -76.000000 0.000000
vt -0.000000 -76.000000 0.000000
vt -0.120000 0.000000 0.000000
vt 0.000000 0.000000 0.000000
vt 38.000000 25.500000 0.000000
vt -38.000000 25.500000 0.000000
vt 38.000000 -25.500000 0.000000
vt -38.000000 -25.500000 0.000000
vn -0.100000 -0.000000 0.000000
vn -0.100000 -0.000000 0.000000
vn -0.100000 -0.000000 0.000000
vn -0.100000 -0.000000 0.000000
vn -0.000000 0.000000 -0.100000
vn -0.000000 0.000000 -0.100000
vn -0.000000 0.000000 -0.100000
vn -0.000000 0.000000 -0.100000
vn 0.000000 -0.100000 -0.000000
vn 0.000000 -0.100000 -0.000000
vn 0.000000 -0.100000 -0.000000
vn 0.000000 -0.100000 -0.000000
vn 0.000000 -0.000000 0.100000
vn 0.000000 -0.000000 0.100000
vn 0.000000 -0.000000 0.100000
vn 0.000000 -0.000000 0.100000
vn 0.100000 0.000000 -0.000000
vn 0.100000 0.000000 -0.000000
vn 0.100000 0.000000 -0.000000
vn 0.100000 0.000000 -0.000000
vn -0.000000 0.100000 0.000000
vn -0.000000 0.100000 0.000000
vn -0.000000 0.100000 0.000000
vn -0.000000 0.100000 0.000000
usemtl Aluminum_-_Satin
f 1/1/1 2/2/2 4/3/3
f 4/3/3 2/2/2 3/4/4
f 5/5/5 6/6/6 1/7/7
f 1/7/7 6/6/6 2/8/8
f 3/9/9 2/10/10 7/11/11
f 7/11/11 2/10/10 6/12/12
f 4/13/13 3/14/14 8/15/15
f 8/15/15 3/14/14 7/16/16
f 8/17/17 7/18/18 5/19/19
f 5/19/19 7/18/18 6/20/20
f 1/21/21 4/22/22 5/23/23
f 5/23/23 4/22/22 8/24/24

# 8 vertices
# 24 texture params
# 24 normals
# 12 facets

# 1 groups
