# WaveFront *.obj file (generated by Autodesk ATF)

mtllib d65f96ad-4685-4a69-b5e5-4b7331dcd962.mtl

g 35_MRSHLDSRVT-Body

v 967.934647 -60.332680 48.319998
v 956.268997 -58.493271 48.319998
v 955.610809 -62.667332 48.319998
v 958.766022 -67.003765 48.319998
v 967.276459 -64.506721 48.319998
v 964.119720 -67.315769 48.319998
v 956.569138 -65.000648 48.319998
v 964.779434 -55.996227 48.319998
v 961.906891 -55.229931 48.319998
v 959.425735 -55.684223 48.319998
v 961.638565 -67.770081 48.319998
v 966.976318 -57.999344 48.319998
v 951.380920 -80.522060 43.580008
v 964.546509 -82.997322 43.580008
v 958.372421 -93.067398 30.999999
v 946.550980 -89.363251 30.999999
v 970.711594 -91.965694 30.999999
v 976.652527 -77.261333 43.580008
v 981.689911 -86.225872 30.999999
v 989.636002 -76.721764 30.999999
v 983.075027 -65.505047 43.580008
v 993.340149 -64.900265 30.999999
v 981.360779 -52.218971 43.580008
v 992.238464 -52.561111 30.999999
v 986.498642 -41.582832 30.999999
v 972.164536 -42.477932 43.580008
v 976.994476 -33.636751 30.999999
v 958.998947 -40.002670 43.580008
v 952.833862 -31.034298 30.999999
v 946.892929 -45.738659 43.580008
v 933.909454 -46.278248 30.999999
v 940.470428 -57.494946 43.580008
v 931.306992 -70.438881 30.999999
v 942.184677 -70.781021 43.580008
vt 1.232384 0.233465 0.000000
vt 0.065819 0.417406 0.000000
vt 0.000000 0.000000 0.000000
vt 0.315521 -0.433643 0.000000
vt 1.232384 0.233465 0.000000
vt 0.000000 0.000000 0.000000
vt 0.851044 0.249704 0.000000
vt 0.916862 0.667109 0.000000
vt 0.000000 0.000000 0.000000
vt 0.535370 -0.031200 0.000000
vt 0.851044 0.249704 0.000000
vt 0.000000 0.000000 0.000000
vt 0.095833 -0.233332 0.000000
vt 0.315521 -0.433643 0.000000
vt 0.000000 0.000000 0.000000
vt -0.315521 0.433645 0.000000
vt -1.166565 0.183941 0.000000
vt 0.000000 0.000000 0.000000
vt -0.287254 0.076630 0.000000
vt -0.851044 -0.249704 0.000000
vt 0.000000 0.000000 0.000000
vt -0.248116 -0.045429 0.000000
vt -0.563789 -0.326334 0.000000
vt 0.000000 0.000000 0.000000
vt 0.287254 -0.076632 0.000000
vt 0.535370 -0.031200 0.000000
vt 0.000000 0.000000 0.000000
vt -0.095833 0.233334 0.000000
vt -0.315521 0.433645 0.000000
vt 0.000000 0.000000 0.000000
vt -1.052600 -1.339787 0.000000
vt 0.261539 -1.599851 0.000000
vt 0.000000 0.000000 0.000000
vt -0.286302 0.080117 0.000000
vt -1.060933 -1.333199 0.000000
vt 0.000000 0.000000 0.000000
vt 0.424901 -1.861368 0.000000
vt 1.288300 -0.367258 0.000000
vt 0.000000 0.000000 0.000000
vt -0.898959 -1.337680 0.000000
vt 0.205838 -1.898121 0.000000
vt 0.000000 0.000000 0.000000
vt -0.465735 -1.661600 0.000000
vt 0.759680 -1.479815 0.000000
vt 0.000000 0.000000 0.000000
vt -1.307298 1.037064 0.000000
vt -1.198679 -0.598115 0.000000
vt 0.000000 0.000000 0.000000
vt -0.068679 1.637343 0.000000
vt -0.316419 1.589907 0.000000
vt 0.000000 0.000000 0.000000
vt -0.032703 2.024012 0.000000
vt -1.114921 1.234470 0.000000
vt 0.000000 0.000000 0.000000
vt 0.954965 0.789134 0.000000
vt -0.103779 2.021614 0.000000
vt 0.000000 0.000000 0.000000
vt 1.246748 -1.041906 0.000000
vt 1.807554 0.062712 0.000000
vt 0.000000 0.000000 0.000000
vt -1.649361 0.100982 0.000000
vt -0.616833 -1.189161 0.000000
vt 0.000000 0.000000 0.000000
vt -1.012336 1.306047 0.000000
vt -1.321885 1.018406 0.000000
vt 0.000000 0.000000 0.000000
vt -1.351629 1.201781 0.000000
vt -1.807717 -0.057811 0.000000
vt 0.000000 0.000000 0.000000
vt 1.392040 -1.154730 0.000000
vt 1.623599 0.062261 0.000000
vt 0.000000 0.000000 0.000000
vt 1.586365 -0.517654 0.000000
vt 1.423455 0.812025 0.000000
vt 0.000000 0.000000 0.000000
vt -1.586331 0.517758 0.000000
vt -1.649425 0.099933 0.000000
vt 0.000000 0.000000 0.000000
vt 1.551205 1.300565 0.000000
vt -0.111863 1.334942 0.000000
vt 0.000000 0.000000 0.000000
vt 1.623661 0.060622 0.000000
vt 1.553791 1.297474 0.000000
vt 0.000000 0.000000 0.000000
vt 1.663016 -0.036828 0.000000
vt 1.291160 1.144868 0.000000
vt 0.000000 0.000000 0.000000
vt -0.614758 -1.589046 0.000000
vt 0.894455 -0.997265 0.000000
vt 0.000000 0.000000 0.000000
vt -0.821174 -1.386791 0.000000
vt -0.606323 -1.592283 0.000000
vt 0.000000 0.000000 0.000000
vt -1.513151 -0.581637 0.000000
vt -1.420936 -0.816424 0.000000
vt 0.000000 0.000000 0.000000
vt -1.906390 -0.104497 0.000000
vt -1.198329 -1.241703 0.000000
vt 0.000000 0.000000 0.000000
vt -0.736140 0.996389 0.000000
vt -1.905950 -0.112240 0.000000
vt 0.000000 0.000000 0.000000
vt 1.052600 1.339789 0.000000
vt -0.261539 1.599853 0.000000
vt 0.000000 0.000000 0.000000
vt 0.286302 -0.080115 0.000000
vt 1.060932 1.333201 0.000000
vt 0.000000 0.000000 0.000000
vt 1.732914 -1.904178 0.000000
vt 2.391142 -0.433038 0.000000
vt 0.000000 0.000000 0.000000
vt -1.485428 2.102947 0.000000
vt -1.260036 0.454868 0.000000
vt 0.000000 0.000000 0.000000
vt 1.307298 -1.037064 0.000000
vt 1.198679 0.598115 0.000000
vt 0.000000 0.000000 0.000000
vt 0.068678 -1.637343 0.000000
vt 0.316418 -1.589909 0.000000
vt 0.000000 0.000000 0.000000
vt 0.032703 -2.024012 0.000000
vt 1.114921 -1.234470 0.000000
vt 0.000000 0.000000 0.000000
vt -0.483441 1.965701 0.000000
vt -1.807202 -0.072133 0.000000
vt 0.000000 0.000000 0.000000
vt 1.649361 -0.100982 0.000000
vt 0.616833 1.189161 0.000000
vt 0.000000 0.000000 0.000000
vt 1.012336 -1.306047 0.000000
vt 1.321885 -1.018406 0.000000
vt 0.000000 0.000000 0.000000
vt -1.807717 -0.057813 0.000000
vt -0.456089 -1.259592 0.000000
vt 0.000000 0.000000 0.000000
vt -1.415084 1.126370 0.000000
vt -1.551831 -1.299818 0.000000
vt 0.000000 0.000000 0.000000
vt -1.586365 0.517656 0.000000
vt -1.423455 -0.812023 0.000000
vt 0.000000 0.000000 0.000000
vt 1.586331 -0.517760 0.000000
vt 1.649425 -0.099933 0.000000
vt 0.000000 0.000000 0.000000
vt -1.551205 -1.300565 0.000000
vt 0.111863 -1.334942 0.000000
vt 0.000000 0.000000 0.000000
vt 0.680563 2.182439 0.000000
vt -0.982375 2.222622 0.000000
vt 0.000000 0.000000 0.000000
vt -0.552890 -2.218224 0.000000
vt 0.665158 -1.162821 0.000000
vt 0.000000 0.000000 0.000000
vt 0.614758 1.589046 0.000000
vt -0.894455 0.997265 0.000000
vt 0.000000 0.000000 0.000000
vt 0.821174 1.386791 0.000000
vt 0.606323 1.592283 0.000000
vt 0.000000 0.000000 0.000000
vt 1.513151 0.581637 0.000000
vt 1.420936 0.816422 0.000000
vt 0.000000 0.000000 0.000000
vn 0.000000 0.000000 0.100000
vn 0.000000 0.000000 0.100000
vn 0.000000 0.000000 0.100000
vn 0.000000 0.000000 0.100000
vn 0.000000 0.000000 0.100000
vn 0.000000 0.000000 0.100000
vn 0.000000 0.000000 0.100000
vn 0.000000 0.000000 0.100000
vn 0.000000 0.000000 0.100000
vn 0.000000 0.000000 0.100000
vn 0.000000 0.000000 0.100000
vn 0.000000 0.000000 0.100000
vn -0.005767 -0.030675 0.095004
vn -0.005767 -0.030675 0.095004
vn -0.005767 -0.030675 0.095004
vn -0.007783 -0.029175 0.095332
vn -0.007783 -0.029175 0.095332
vn -0.007783 -0.029175 0.095332
vn -0.013889 -0.073875 0.065952
vn -0.013889 -0.073875 0.065952
vn -0.013889 -0.073875 0.065952
vn -0.023515 -0.075044 0.061769
vn -0.023515 -0.075044 0.061769
vn -0.023515 -0.075044 0.061769
vn 0.007102 -0.079543 0.060187
vn 0.007102 -0.079543 0.060187
vn 0.007102 -0.079543 0.060187
vn 0.013426 -0.028337 0.094957
vn 0.013426 -0.028337 0.094957
vn 0.013426 -0.028337 0.094957
vn 0.005266 -0.028762 0.095630
vn 0.005266 -0.028762 0.095630
vn 0.005266 -0.028762 0.095630
vn 0.032559 -0.068717 0.064945
vn 0.032559 -0.068717 0.064945
vn 0.032559 -0.068717 0.064945
vn 0.035880 -0.068626 0.063270
vn 0.035880 -0.068626 0.063270
vn 0.035880 -0.068626 0.063270
vn 0.060955 -0.050962 0.060724
vn 0.060955 -0.050962 0.060724
vn 0.060955 -0.050962 0.060724
vn 0.027537 -0.015043 0.094950
vn 0.027537 -0.015043 0.094950
vn 0.027537 -0.015043 0.094950
vn 0.019145 -0.021515 0.095763
vn 0.019145 -0.021515 0.095763
vn 0.019145 -0.021515 0.095763
vn 0.065713 -0.035899 0.066280
vn 0.065713 -0.035899 0.066280
vn 0.065713 -0.035899 0.066280
vn 0.075817 -0.023757 0.060724
vn 0.075817 -0.023757 0.060724
vn 0.075817 -0.023757 0.060724
vn 0.031099 0.004013 0.094957
vn 0.031099 0.004013 0.094957
vn 0.031099 0.004013 0.094957
vn 0.028448 -0.004486 0.095763
vn 0.028448 -0.004486 0.095763
vn 0.028448 -0.004486 0.095763
vn 0.075415 0.009730 0.064945
vn 0.075415 0.009730 0.064945
vn 0.075415 0.009730 0.064945
vn 0.077133 0.006887 0.063270
vn 0.077133 0.006887 0.063270
vn 0.077133 0.006887 0.063270
vn 0.070770 0.037001 0.060187
vn 0.070770 0.037001 0.060187
vn 0.070770 0.037001 0.060187
vn 0.022696 0.021426 0.095004
vn 0.022696 0.021426 0.095004
vn 0.022696 0.021426 0.095004
vn 0.020345 0.022313 0.095332
vn 0.020345 0.022313 0.095332
vn 0.020345 0.022313 0.095332
vn 0.027048 0.011109 0.095630
vn 0.027048 0.011109 0.095630
vn 0.027048 0.011109 0.095630
vn 0.054659 0.051602 0.065952
vn 0.054659 0.051602 0.065952
vn 0.054659 0.051602 0.065952
vn 0.050443 0.060334 0.061769
vn 0.050443 0.060334 0.061769
vn 0.050443 0.060334 0.061769
vn 0.005767 0.030675 0.095004
vn 0.005767 0.030675 0.095004
vn 0.005767 0.030675 0.095004
vn 0.007783 0.029175 0.095332
vn 0.007783 0.029175 0.095332
vn 0.007783 0.029175 0.095332
vn 0.008609 0.079927 0.059478
vn 0.008609 0.079927 0.059478
vn 0.008609 0.079927 0.059478
vn 0.015774 0.083897 0.052081
vn 0.015774 0.083897 0.052081
vn 0.015774 0.083897 0.052081
vn -0.013426 0.028337 0.094957
vn -0.013426 0.028337 0.094957
vn -0.013426 0.028337 0.094957
vn -0.005266 0.028762 0.095630
vn -0.005266 0.028762 0.095630
vn -0.005266 0.028762 0.095630
vn -0.032559 0.068717 0.064945
vn -0.032559 0.068717 0.064945
vn -0.032559 0.068717 0.064945
vn -0.053458 0.066365 0.052326
vn -0.053458 0.066365 0.052326
vn -0.053458 0.066365 0.052326
vn -0.027537 0.015043 0.094950
vn -0.027537 0.015043 0.094950
vn -0.027537 0.015043 0.094950
vn -0.019145 0.021515 0.095763
vn -0.019145 0.021515 0.095763
vn -0.019145 0.021515 0.095763
vn -0.065713 0.035899 0.066280
vn -0.065713 0.035899 0.066280
vn -0.065713 0.035899 0.066280
vn -0.084727 0.009126 0.052326
vn -0.084727 0.009126 0.052326
vn -0.084727 0.009126 0.052326
vn -0.031099 -0.004013 0.094957
vn -0.031099 -0.004013 0.094957
vn -0.031099 -0.004013 0.094957
vn -0.028448 0.004486 0.095763
vn -0.028448 0.004486 0.095763
vn -0.028448 0.004486 0.095763
vn -0.075415 -0.009730 0.064945
vn -0.075415 -0.009730 0.064945
vn -0.075415 -0.009730 0.064945
vn -0.065106 -0.052445 0.054870
vn -0.065106 -0.052445 0.054870
vn -0.065106 -0.052445 0.054870
vn -0.057847 -0.054612 0.060591
vn -0.057847 -0.054612 0.060591
vn -0.057847 -0.054612 0.060591
vn -0.022696 -0.021426 0.095004
vn -0.022696 -0.021426 0.095004
vn -0.022696 -0.021426 0.095004
vn -0.020345 -0.022313 0.095332
vn -0.020345 -0.022313 0.095332
vn -0.020345 -0.022313 0.095332
vn -0.027048 -0.011109 0.095630
vn -0.027048 -0.011109 0.095630
vn -0.027048 -0.011109 0.095630
usemtl Aluminum_-_Satin
f 1/1/1 2/2/2 3/3/3
f 4/4/4 1/5/1 3/6/3
f 5/7/5 1/8/1 4/9/4
f 6/10/6 5/11/5 4/12/4
f 7/13/7 4/14/4 3/15/3
f 8/16/8 2/17/2 1/18/1
f 9/19/9 2/20/2 8/21/8
f 10/22/10 2/23/2 9/24/9
f 11/25/11 6/26/6 4/27/4
f 12/28/12 8/29/8 1/30/1
f 13/31/13 14/32/14 11/33/15
f 4/34/16 13/35/17 11/36/18
f 15/37/19 14/38/20 13/39/21
f 16/40/22 15/41/23 13/42/24
f 15/43/25 17/44/26 14/45/27
f 6/46/28 14/47/29 18/48/30
f 6/49/31 11/50/32 14/51/33
f 18/52/34 14/53/35 17/54/36
f 19/55/37 18/56/38 17/57/39
f 19/58/40 20/59/41 18/60/42
f 5/61/43 18/62/44 21/63/45
f 5/64/46 6/65/47 18/66/48
f 21/67/49 18/68/50 20/69/51
f 20/70/52 22/71/53 21/72/54
f 21/73/55 23/74/56 1/75/57
f 1/76/58 5/77/59 21/78/60
f 24/79/61 23/80/62 21/81/63
f 22/82/64 24/83/65 21/84/66
f 24/85/67 25/86/68 23/87/69
f 12/88/70 23/89/71 26/90/72
f 8/91/73 12/92/74 26/93/75
f 12/94/76 1/95/77 23/96/78
f 26/97/79 23/98/80 25/99/81
f 27/100/82 26/101/83 25/102/84
f 26/103/85 28/104/86 9/105/87
f 8/106/88 26/107/89 9/108/90
f 26/109/91 27/110/92 29/111/93
f 29/112/94 28/113/95 26/114/96
f 10/115/97 28/116/98 30/117/99
f 10/118/100 9/119/101 28/120/102
f 30/121/103 28/122/104 29/123/105
f 29/124/106 31/125/107 30/126/108
f 2/127/109 30/128/110 32/129/111
f 2/130/112 10/131/113 30/132/114
f 31/133/115 32/134/116 30/135/117
f 31/136/118 33/137/119 32/138/120
f 32/139/121 34/140/122 3/141/123
f 3/142/124 2/143/125 32/144/126
f 33/145/127 34/146/128 32/147/129
f 34/148/130 33/149/131 16/150/132
f 16/151/133 13/152/134 34/153/135
f 7/154/136 34/155/137 13/156/138
f 4/157/139 7/158/140 13/159/141
f 7/160/142 3/161/143 34/162/144

# 34 vertices
# 162 texture params
# 144 normals
# 54 facets

# 1 groups
