# WaveFront *.obj file (generated by Autodesk ATF)

mtllib bfd3d799-e5ee-4298-b1ac-d60f9fe75426.mtl

g 47_MRSHLDSRVT-Body

v 6.500065 4.832000 -288.011475
v 6.731577 4.832000 -288.766510
v 6.450672 4.832000 -289.082184
v 5.599623 4.832000 -288.832489
v 5.849327 4.832000 -287.981445
v 5.522993 4.832000 -288.545227
v 6.033268 4.832000 -289.148010
v 5.568422 4.832000 -288.297119
v 6.777008 4.832000 -288.518402
v 5.799934 4.832000 -289.052185
v 6.700377 4.832000 -288.231140
v 6.266733 4.832000 -287.915619
v 8.052206 4.358001 -287.492645
v 8.299732 4.358001 -288.809204
v 9.306740 3.100000 -288.191803
v 8.936325 3.100000 -287.009644
v 9.196569 3.100000 -289.425720
v 7.726133 4.358001 -290.019806
v 8.622587 3.100000 -290.523529
v 7.672176 3.100000 -291.318146
v 6.550505 4.358001 -290.662048
v 6.490026 3.100000 -291.688568
v 5.221897 4.358001 -290.490631
v 5.256111 3.100000 -291.578400
v 4.158283 3.100000 -291.004395
v 4.247793 4.358001 -289.570984
v 3.363675 3.100000 -290.053986
v 4.000267 4.358001 -288.254456
v 3.103430 3.100000 -287.637939
v 4.573866 4.358001 -287.043823
v 4.627825 3.100000 -285.745483
v 5.749495 4.358001 -286.401581
v 7.043888 3.100000 -285.485260
v 7.078102 4.358001 -286.573029
vt -0.107071 -0.004939 0.000000
vt -0.031567 -0.028090 0.000000
vt 0.000000 0.000000 0.000000
vt -0.024969 0.085105 0.000000
vt -0.107071 -0.004939 0.000000
vt 0.000000 0.000000 0.000000
vt -0.085104 -0.024970 0.000000
vt -0.082101 -0.090044 0.000000
vt 0.000000 0.000000 0.000000
vt -0.028726 0.007663 0.000000
vt -0.085104 -0.024970 0.000000
vt 0.000000 0.000000 0.000000
vt 0.006583 0.041740 0.000000
vt -0.024969 0.085105 0.000000
vt 0.000000 0.000000 0.000000
vt -0.024811 -0.004543 0.000000
vt -0.056378 -0.032633 0.000000
vt 0.000000 0.000000 0.000000
vt 0.050693 -0.027694 0.000000
vt 0.075504 -0.023151 0.000000
vt 0.000000 0.000000 0.000000
vt -0.009583 0.023333 0.000000
vt -0.031552 0.043365 0.000000
vt 0.000000 0.000000 0.000000
vt 0.021967 -0.020031 0.000000
vt 0.050693 -0.027694 0.000000
vt 0.000000 0.000000 0.000000
vt -0.006583 -0.041741 0.000000
vt 0.003003 -0.065074 0.000000
vt 0.000000 0.000000 0.000000
vt -0.105259 -0.133979 0.000000
vt 0.026155 -0.159985 0.000000
vt 0.000000 0.000000 0.000000
vt -0.028631 0.008012 0.000000
vt -0.106092 -0.133320 0.000000
vt 0.000000 0.000000 0.000000
vt 0.042491 -0.186137 0.000000
vt 0.128830 -0.036726 0.000000
vt 0.000000 0.000000 0.000000
vt -0.089896 -0.133768 0.000000
vt 0.020585 -0.189812 0.000000
vt 0.000000 0.000000 0.000000
vt -0.046573 -0.166160 0.000000
vt 0.075969 -0.147981 0.000000
vt -0.000000 0.000000 0.000000
vt -0.130731 0.103706 0.000000
vt -0.119868 -0.059811 0.000000
vt -0.000000 0.000000 0.000000
vt -0.006869 0.163734 0.000000
vt -0.031643 0.158991 0.000000
vt -0.000000 0.000000 0.000000
vt -0.003271 0.202401 0.000000
vt -0.111493 0.123447 0.000000
vt -0.000000 0.000000 0.000000
vt 0.095494 0.078913 0.000000
vt -0.010380 0.202161 0.000000
vt -0.000000 0.000000 0.000000
vt 0.124674 -0.104191 0.000000
vt 0.180755 0.006271 0.000000
vt -0.000000 0.000000 0.000000
vt -0.164937 0.010098 0.000000
vt -0.061683 -0.118916 0.000000
vt -0.000000 0.000000 0.000000
vt -0.101235 0.130605 0.000000
vt -0.132190 0.101841 0.000000
vt -0.000000 0.000000 0.000000
vt -0.135163 0.120178 0.000000
vt -0.180771 -0.005781 0.000000
vt -0.000000 0.000000 0.000000
vt 0.139204 -0.115473 0.000000
vt 0.162360 0.006226 0.000000
vt -0.000000 0.000000 0.000000
vt 0.158637 -0.051765 0.000000
vt 0.142346 0.081202 0.000000
vt -0.000000 0.000000 0.000000
vt -0.158633 0.051776 0.000000
vt -0.164943 0.009993 0.000000
vt -0.000000 0.000000 0.000000
vt 0.155121 0.130056 0.000000
vt -0.011186 0.133494 0.000000
vt -0.000000 0.000000 0.000000
vt 0.162367 0.006062 0.000000
vt 0.155380 0.129747 0.000000
vt -0.000000 0.000000 0.000000
vt 0.166302 -0.003683 0.000000
vt 0.129115 0.114487 0.000000
vt -0.000000 0.000000 0.000000
vt -0.061474 -0.158905 0.000000
vt 0.089448 -0.099727 0.000000
vt -0.000000 0.000000 0.000000
vt -0.082116 -0.138679 0.000000
vt -0.060630 -0.159228 0.000000
vt -0.000000 0.000000 0.000000
vt -0.151315 -0.058164 0.000000
vt -0.142094 -0.081642 0.000000
vt -0.000000 0.000000 0.000000
vt -0.190639 -0.010450 0.000000
vt -0.119831 -0.124171 0.000000
vt -0.000000 0.000000 0.000000
vt -0.073613 0.099639 0.000000
vt -0.190595 -0.011224 0.000000
vt -0.000000 0.000000 0.000000
vt 0.105259 0.133979 0.000000
vt -0.026152 0.159985 0.000000
vt -0.000000 0.000000 0.000000
vt 0.028631 -0.008012 0.000000
vt 0.106092 0.133320 0.000000
vt -0.000000 0.000000 0.000000
vt 0.197864 0.114504 0.000000
vt -0.040587 0.161315 0.000000
vt -0.000000 0.000000 0.000000
vt -0.204539 -0.102102 0.000000
vt -0.076598 -0.141803 0.000000
vt -0.000000 0.000000 0.000000
vt 0.130731 -0.103706 0.000000
vt 0.119871 0.059811 0.000000
vt 0.000000 -0.000000 0.000000
vt 0.006866 -0.163734 0.000000
vt 0.031640 -0.158991 0.000000
vt 0.000000 -0.000000 0.000000
vt 0.003267 -0.202402 0.000000
vt 0.111492 -0.123447 0.000000
vt 0.000000 -0.000000 0.000000
vt -0.048343 0.196571 0.000000
vt -0.180720 -0.007213 0.000000
vt 0.000000 -0.000000 0.000000
vt 0.164937 -0.010098 0.000000
vt 0.061683 0.118916 0.000000
vt 0.000000 -0.000000 0.000000
vt 0.101235 -0.130605 0.000000
vt 0.132190 -0.101841 0.000000
vt 0.000000 -0.000000 0.000000
vt -0.180771 -0.005781 0.000000
vt -0.045608 -0.125959 0.000000
vt 0.000000 -0.000000 0.000000
vt -0.141508 0.112637 0.000000
vt -0.155182 -0.129982 0.000000
vt 0.000000 -0.000000 0.000000
vt -0.158637 0.051766 0.000000
vt -0.142343 -0.081202 0.000000
vt 0.000000 0.000000 0.000000
vt 0.158633 -0.051776 0.000000
vt 0.164943 -0.009993 0.000000
vt 0.000000 -0.000000 0.000000
vt -0.155119 -0.130057 0.000000
vt 0.011188 -0.133494 0.000000
vt 0.000000 0.000000 0.000000
vt 0.068057 0.218243 0.000000
vt -0.098237 0.222262 0.000000
vt 0.000000 0.000000 0.000000
vt -0.055290 -0.221822 0.000000
vt 0.066515 -0.116282 0.000000
vt 0.000000 0.000000 0.000000
vt 0.061477 0.158905 0.000000
vt -0.089445 0.099726 0.000000
vt 0.000000 0.000000 0.000000
vt 0.082116 0.138679 0.000000
vt 0.060634 0.159228 0.000000
vt 0.000000 0.000000 0.000000
vt 0.151315 0.058164 0.000000
vt 0.142091 0.081642 0.000000
vt 0.000000 0.000000 0.000000
vn -0.000000 0.100000 0.000000
vn -0.000000 0.100000 0.000000
vn -0.000000 0.100000 0.000000
vn -0.000000 0.100000 0.000000
vn -0.000000 0.100000 0.000000
vn -0.000000 0.100000 0.000000
vn -0.000000 0.100000 0.000000
vn -0.000000 0.100000 0.000000
vn -0.000000 0.100000 0.000000
vn -0.000000 0.100000 0.000000
vn -0.000000 0.100000 0.000000
vn -0.000000 0.100000 0.000000
vn 0.030675 0.095004 0.005767
vn 0.030675 0.095004 0.005767
vn 0.030675 0.095004 0.005767
vn 0.029175 0.095332 0.007783
vn 0.029175 0.095332 0.007783
vn 0.029175 0.095332 0.007783
vn 0.073875 0.065952 0.013889
vn 0.073875 0.065952 0.013889
vn 0.073875 0.065952 0.013889
vn 0.075044 0.061769 0.023514
vn 0.075044 0.061769 0.023514
vn 0.075044 0.061769 0.023514
vn 0.079543 0.060187 -0.007102
vn 0.079543 0.060187 -0.007102
vn 0.079543 0.060187 -0.007102
vn 0.028337 0.094957 -0.013426
vn 0.028337 0.094957 -0.013426
vn 0.028337 0.094957 -0.013426
vn 0.028762 0.095630 -0.005267
vn 0.028762 0.095630 -0.005267
vn 0.028762 0.095630 -0.005267
vn 0.068717 0.064945 -0.032559
vn 0.068717 0.064945 -0.032559
vn 0.068717 0.064945 -0.032559
vn 0.068626 0.063270 -0.035881
vn 0.068626 0.063270 -0.035881
vn 0.068626 0.063270 -0.035881
vn 0.050963 0.060723 -0.060955
vn 0.050963 0.060723 -0.060955
vn 0.050963 0.060723 -0.060955
vn 0.015043 0.094950 -0.027537
vn 0.015043 0.094950 -0.027537
vn 0.015043 0.094950 -0.027537
vn 0.021515 0.095763 -0.019145
vn 0.021515 0.095763 -0.019145
vn 0.021515 0.095763 -0.019145
vn 0.035899 0.066280 -0.065713
vn 0.035899 0.066280 -0.065713
vn 0.035899 0.066280 -0.065713
vn 0.023757 0.060724 -0.075817
vn 0.023757 0.060724 -0.075817
vn 0.023757 0.060724 -0.075817
vn -0.004012 0.094957 -0.031099
vn -0.004012 0.094957 -0.031099
vn -0.004012 0.094957 -0.031099
vn 0.004486 0.095763 -0.028448
vn 0.004486 0.095763 -0.028448
vn 0.004486 0.095763 -0.028448
vn -0.009730 0.064945 -0.075415
vn -0.009730 0.064945 -0.075415
vn -0.009730 0.064945 -0.075415
vn -0.006887 0.063271 -0.077132
vn -0.006887 0.063271 -0.077132
vn -0.006887 0.063271 -0.077132
vn -0.037002 0.060187 -0.070770
vn -0.037002 0.060187 -0.070770
vn -0.037002 0.060187 -0.070770
vn -0.021427 0.095004 -0.022696
vn -0.021427 0.095004 -0.022696
vn -0.021427 0.095004 -0.022696
vn -0.022313 0.095332 -0.020344
vn -0.022313 0.095332 -0.020344
vn -0.022313 0.095332 -0.020344
vn -0.011108 0.095630 -0.027048
vn -0.011108 0.095630 -0.027048
vn -0.011108 0.095630 -0.027048
vn -0.051603 0.065951 -0.054658
vn -0.051603 0.065951 -0.054658
vn -0.051603 0.065951 -0.054658
vn -0.060333 0.061769 -0.050443
vn -0.060333 0.061769 -0.050443
vn -0.060333 0.061769 -0.050443
vn -0.030675 0.095004 -0.005767
vn -0.030675 0.095004 -0.005767
vn -0.030675 0.095004 -0.005767
vn -0.029175 0.095332 -0.007783
vn -0.029175 0.095332 -0.007783
vn -0.029175 0.095332 -0.007783
vn -0.083121 0.054870 -0.008953
vn -0.083121 0.054870 -0.008953
vn -0.083121 0.054870 -0.008953
vn -0.078184 0.060591 -0.014700
vn -0.078184 0.060591 -0.014700
vn -0.078184 0.060591 -0.014700
vn -0.028337 0.094957 0.013426
vn -0.028337 0.094957 0.013426
vn -0.028337 0.094957 0.013426
vn -0.028762 0.095629 0.005266
vn -0.028762 0.095629 0.005266
vn -0.028762 0.095629 0.005266
vn -0.068717 0.064945 0.032558
vn -0.068717 0.064945 0.032558
vn -0.068717 0.064945 0.032558
vn -0.066365 0.052325 0.053458
vn -0.066365 0.052325 0.053458
vn -0.066365 0.052325 0.053458
vn -0.015043 0.094950 0.027537
vn -0.015043 0.094950 0.027537
vn -0.015043 0.094950 0.027537
vn -0.021515 0.095763 0.019145
vn -0.021515 0.095763 0.019145
vn -0.021515 0.095763 0.019145
vn -0.035899 0.066280 0.065713
vn -0.035899 0.066280 0.065713
vn -0.035899 0.066280 0.065713
vn -0.009126 0.052325 0.084728
vn -0.009126 0.052325 0.084728
vn -0.009126 0.052325 0.084728
vn 0.004013 0.094957 0.031099
vn 0.004013 0.094957 0.031099
vn 0.004013 0.094957 0.031099
vn -0.004486 0.095763 0.028448
vn -0.004486 0.095763 0.028448
vn -0.004486 0.095763 0.028448
vn 0.009732 0.064945 0.075415
vn 0.009732 0.064945 0.075415
vn 0.009732 0.064945 0.075415
vn 0.052444 0.054870 0.065107
vn 0.052444 0.054870 0.065107
vn 0.052444 0.054870 0.065107
vn 0.054612 0.060591 0.057847
vn 0.054612 0.060591 0.057847
vn 0.054612 0.060591 0.057847
vn 0.021426 0.095004 0.022696
vn 0.021426 0.095004 0.022696
vn 0.021426 0.095004 0.022696
vn 0.022312 0.095332 0.020346
vn 0.022312 0.095332 0.020346
vn 0.022312 0.095332 0.020346
vn 0.011111 0.095630 0.027047
vn 0.011111 0.095630 0.027047
vn 0.011111 0.095630 0.027047
usemtl Aluminum_-_Satin
f 1/1/1 2/2/2 3/3/3
f 4/4/4 1/5/1 3/6/3
f 5/7/5 1/8/1 4/9/4
f 6/10/6 5/11/5 4/12/4
f 7/13/7 4/14/4 3/15/3
f 8/16/8 5/17/5 6/18/6
f 9/19/9 2/20/2 1/21/1
f 10/22/10 4/23/4 7/24/7
f 11/25/11 9/26/9 1/27/1
f 12/28/12 1/29/1 5/30/5
f 13/31/13 14/32/14 9/33/15
f 11/34/16 13/35/17 9/36/18
f 15/37/19 14/38/20 13/39/21
f 16/40/22 15/41/23 13/42/24
f 15/43/25 17/44/26 14/45/27
f 2/46/28 14/47/29 18/48/30
f 2/49/31 9/50/32 14/51/33
f 18/52/34 14/53/35 17/54/36
f 19/55/37 18/56/38 17/57/39
f 19/58/40 20/59/41 18/60/42
f 3/61/43 18/62/44 21/63/45
f 3/64/46 2/65/47 18/66/48
f 21/67/49 18/68/50 20/69/51
f 20/70/52 22/71/53 21/72/54
f 21/73/55 23/74/56 7/75/57
f 7/76/58 3/77/59 21/78/60
f 24/79/61 23/80/62 21/81/63
f 22/82/64 24/83/65 21/84/66
f 24/85/67 25/86/68 23/87/69
f 10/88/70 23/89/71 26/90/72
f 4/91/73 10/92/74 26/93/75
f 10/94/76 7/95/77 23/96/78
f 26/97/79 23/98/80 25/99/81
f 27/100/82 26/101/83 25/102/84
f 26/103/85 28/104/86 6/105/87
f 4/106/88 26/107/89 6/108/90
f 27/109/91 29/110/92 28/111/93
f 28/112/94 26/113/95 27/114/96
f 8/115/97 28/116/98 30/117/99
f 8/118/100 6/119/101 28/120/102
f 30/121/103 28/122/104 29/123/105
f 29/124/106 31/125/107 30/126/108
f 5/127/109 30/128/110 32/129/111
f 5/130/112 8/131/113 30/132/114
f 31/133/115 32/134/116 30/135/117
f 31/136/118 33/137/119 32/138/120
f 32/139/121 34/140/122 12/141/123
f 12/142/124 5/143/125 32/144/126
f 33/145/127 34/146/128 32/147/129
f 34/148/130 33/149/131 16/150/132
f 16/151/133 13/152/134 34/153/135
f 1/154/136 34/155/137 13/156/138
f 11/157/139 1/158/140 13/159/141
f 1/160/142 12/161/143 34/162/144

# 34 vertices
# 162 texture params
# 144 normals
# 54 facets

# 1 groups
