# WaveFront *.obj file (generated by Autodesk ATF)

mtllib add8122b-0d06-4af1-8b71-fbed9524f6bf.mtl

g 5_819368022247-Body

v 290.000000 -26.200000 -15.000000
v 290.000000 -26.097777 -15.776457
v 290.000000 -25.798076 -16.500000
v 290.000000 -25.321320 -17.121320
v 290.000000 -24.700000 -17.598076
v 290.000000 -23.976457 -17.897777
v 290.000000 -23.200000 -18.000000
v 290.000000 -22.423543 -17.897777
v 290.000000 -21.700000 -17.598076
v 290.000000 -21.078680 -17.121320
v 290.000000 -20.601924 -16.500000
v 290.000000 -20.302223 -15.776457
v 290.000000 -20.200000 -15.000000
v 290.000000 -20.302223 -14.223543
v 290.000000 -20.601924 -13.500000
v 290.000000 -21.078680 -12.878680
v 290.000000 -21.700000 -12.401924
v 290.000000 -22.423543 -12.102223
v 290.000000 -23.200000 -12.000000
v 290.000000 -23.976457 -12.102223
v 290.000000 -24.700000 -12.401924
v 290.000000 -25.321320 -12.878680
v 290.000000 -25.798076 -13.500000
v 290.000000 -26.097777 -14.223543
v 250.000000 -26.200000 -15.000000
v 250.000000 -26.097777 -14.223543
v 250.000000 -25.798076 -13.500000
v 250.000000 -25.321320 -12.878680
v 250.000000 -24.700000 -12.401924
v 250.000000 -23.976457 -12.102223
v 250.000000 -23.200000 -12.000000
v 250.000000 -22.423543 -12.102223
v 250.000000 -21.700000 -12.401924
v 250.000000 -21.078680 -12.878680
v 250.000000 -20.601924 -13.500000
v 250.000000 -20.302223 -14.223543
v 250.000000 -20.200000 -15.000000
v 250.000000 -20.302223 -15.776457
v 250.000000 -20.601924 -16.500000
v 250.000000 -21.078680 -17.121320
v 250.000000 -21.700000 -17.598076
v 250.000000 -22.423543 -17.897777
v 250.000000 -23.200000 -18.000000
v 250.000000 -23.976457 -17.897777
v 250.000000 -24.700000 -17.598076
v 250.000000 -25.321320 -17.121320
v 250.000000 -25.798076 -16.500000
v 250.000000 -26.097777 -15.776457
vt 2.320000 -2.620000 0.000000
vt 2.397646 -2.609778 0.000000
vt 2.242354 -2.609778 0.000000
vt 2.170000 -2.579808 0.000000
vt 2.470000 -2.579808 0.000000
vt 2.107868 -2.532132 0.000000
vt 2.532132 -2.532132 0.000000
vt 2.060192 -2.470000 0.000000
vt 2.579808 -2.470000 0.000000
vt 2.030222 -2.397646 0.000000
vt 2.609778 -2.397646 0.000000
vt 2.020000 -2.320000 0.000000
vt 2.620000 -2.320000 0.000000
vt 2.030222 -2.242354 0.000000
vt 2.609778 -2.242354 0.000000
vt 2.060192 -2.170000 0.000000
vt 2.579808 -2.170000 0.000000
vt 2.107868 -2.107868 0.000000
vt 2.532132 -2.107868 0.000000
vt 2.170000 -2.060192 0.000000
vt 2.470000 -2.060192 0.000000
vt 2.242354 -2.030222 0.000000
vt 2.397646 -2.030222 0.000000
vt 2.320000 -2.020000 0.000000
vt -2.320000 -2.620000 0.000000
vt -2.242354 -2.609778 0.000000
vt -2.397646 -2.609778 0.000000
vt -2.320000 -2.020000 0.000000
vt -2.397646 -2.030222 0.000000
vt -2.242354 -2.030222 0.000000
vt -2.170000 -2.579808 0.000000
vt -2.170000 -2.060192 0.000000
vt -2.107868 -2.532132 0.000000
vt -2.107868 -2.107868 0.000000
vt -2.060192 -2.470000 0.000000
vt -2.060192 -2.170000 0.000000
vt -2.030222 -2.397646 0.000000
vt -2.030222 -2.242354 0.000000
vt -2.020000 -2.320000 0.000000
vt -2.470000 -2.579808 0.000000
vt -2.470000 -2.060192 0.000000
vt -2.532132 -2.532132 0.000000
vt -2.532132 -2.107868 0.000000
vt -2.579808 -2.470000 0.000000
vt -2.579808 -2.170000 0.000000
vt -2.609778 -2.397646 0.000000
vt -2.609778 -2.242354 0.000000
vt -2.620000 -2.320000 0.000000
vt -2.000000 0.863938 0.000000
vt 2.000000 0.863938 0.000000
vt -2.000000 0.942478 0.000000
vt 2.000000 0.942478 0.000000
vt -2.000000 -0.942478 0.000000
vt 2.000000 -0.942478 0.000000
vt -2.000000 -0.863938 0.000000
vt 2.000000 -0.863938 0.000000
vt -2.000000 -0.785398 0.000000
vt 2.000000 -0.785398 0.000000
vt -2.000000 -0.706858 0.000000
vt 2.000000 -0.706858 0.000000
vt -2.000000 -0.628319 0.000000
vt 2.000000 -0.628319 0.000000
vt -2.000000 -0.549779 0.000000
vt 2.000000 -0.549779 0.000000
vt -2.000000 -0.471239 0.000000
vt 2.000000 -0.471239 0.000000
vt -2.000000 -0.392699 0.000000
vt 2.000000 -0.392699 0.000000
vt -2.000000 -0.314159 0.000000
vt 2.000000 -0.314159 0.000000
vt -2.000000 -0.235619 0.000000
vt 2.000000 -0.235619 0.000000
vt -2.000000 -0.157080 0.000000
vt 2.000000 -0.157080 0.000000
vt -2.000000 -0.078540 0.000000
vt 2.000000 -0.078540 0.000000
vt -2.000000 0.000000 0.000000
vt 2.000000 0.000000 0.000000
vt -2.000000 0.078540 0.000000
vt 2.000000 0.078540 0.000000
vt -2.000000 0.157080 0.000000
vt 2.000000 0.157080 0.000000
vt -2.000000 0.235619 0.000000
vt 2.000000 0.235619 0.000000
vt -2.000000 0.314159 0.000000
vt 2.000000 0.314159 0.000000
vt -2.000000 0.392699 0.000000
vt 2.000000 0.392699 0.000000
vt -2.000000 0.471239 0.000000
vt 2.000000 0.471239 0.000000
vt -2.000000 0.549779 0.000000
vt 2.000000 0.549779 0.000000
vt -2.000000 0.628319 0.000000
vt 2.000000 0.628319 0.000000
vt -2.000000 0.706858 0.000000
vt 2.000000 0.706858 0.000000
vt -2.000000 0.785398 0.000000
vt 2.000000 0.785398 0.000000
vn 0.100000 0.000000 0.000000
vn 0.100000 0.000000 0.000000
vn 0.100000 0.000000 0.000000
vn 0.100000 0.000000 0.000000
vn 0.100000 0.000000 0.000000
vn 0.100000 0.000000 0.000000
vn 0.100000 0.000000 0.000000
vn 0.100000 0.000000 0.000000
vn 0.100000 0.000000 0.000000
vn 0.100000 0.000000 0.000000
vn 0.100000 0.000000 0.000000
vn 0.100000 0.000000 0.000000
vn 0.100000 0.000000 0.000000
vn 0.100000 0.000000 0.000000
vn 0.100000 0.000000 0.000000
vn 0.100000 0.000000 0.000000
vn 0.100000 0.000000 0.000000
vn 0.100000 0.000000 0.000000
vn 0.100000 0.000000 0.000000
vn 0.100000 0.000000 0.000000
vn 0.100000 0.000000 0.000000
vn 0.100000 0.000000 0.000000
vn 0.100000 0.000000 0.000000
vn 0.100000 0.000000 0.000000
vn -0.100000 0.000000 0.000000
vn -0.100000 0.000000 0.000000
vn -0.100000 0.000000 0.000000
vn -0.100000 0.000000 0.000000
vn -0.100000 0.000000 0.000000
vn -0.100000 0.000000 0.000000
vn -0.100000 0.000000 0.000000
vn -0.100000 0.000000 0.000000
vn -0.100000 0.000000 0.000000
vn -0.100000 0.000000 0.000000
vn -0.100000 0.000000 0.000000
vn -0.100000 0.000000 0.000000
vn -0.100000 0.000000 0.000000
vn -0.100000 0.000000 0.000000
vn -0.100000 0.000000 0.000000
vn -0.100000 0.000000 0.000000
vn -0.100000 0.000000 0.000000
vn -0.100000 0.000000 0.000000
vn -0.100000 0.000000 0.000000
vn -0.100000 0.000000 0.000000
vn -0.100000 0.000000 0.000000
vn -0.100000 0.000000 0.000000
vn -0.100000 0.000000 0.000000
vn -0.100000 0.000000 0.000000
vn 0.000000 -0.096593 0.025882
vn 0.000000 -0.096593 0.025882
vn 0.000000 -0.100000 0.000000
vn 0.000000 -0.100000 0.000000
vn 0.000000 -0.096593 -0.025882
vn 0.000000 -0.096593 -0.025882
vn 0.000000 -0.086603 -0.050000
vn 0.000000 -0.086603 -0.050000
vn 0.000000 -0.070711 -0.070711
vn 0.000000 -0.070711 -0.070711
vn 0.000000 -0.050000 -0.086603
vn 0.000000 -0.050000 -0.086603
vn 0.000000 -0.025882 -0.096593
vn 0.000000 -0.025882 -0.096593
vn -0.000000 0.000000 -0.100000
vn -0.000000 0.000000 -0.100000
vn -0.000000 0.025882 -0.096593
vn -0.000000 0.025882 -0.096593
vn -0.000000 0.050000 -0.086603
vn -0.000000 0.050000 -0.086603
vn -0.000000 0.070711 -0.070711
vn -0.000000 0.070711 -0.070711
vn -0.000000 0.086603 -0.050000
vn -0.000000 0.086603 -0.050000
vn -0.000000 0.096593 -0.025882
vn -0.000000 0.096593 -0.025882
vn -0.000000 0.100000 -0.000000
vn -0.000000 0.100000 -0.000000
vn 0.000000 0.096593 0.025882
vn 0.000000 0.096593 0.025882
vn 0.000000 0.086603 0.050000
vn 0.000000 0.086603 0.050000
vn 0.000000 0.070711 0.070711
vn 0.000000 0.070711 0.070711
vn 0.000000 0.050000 0.086603
vn 0.000000 0.050000 0.086603
vn 0.000000 0.025882 0.096593
vn 0.000000 0.025882 0.096593
vn 0.000000 0.000000 0.100000
vn 0.000000 0.000000 0.100000
vn 0.000000 -0.025882 0.096593
vn 0.000000 -0.025882 0.096593
vn 0.000000 -0.050000 0.086603
vn 0.000000 -0.050000 0.086603
vn 0.000000 -0.070711 0.070711
vn 0.000000 -0.070711 0.070711
vn 0.000000 -0.086603 0.050000
vn 0.000000 -0.086603 0.050000
usemtl Aluminum_-_Polished
f 1/1/1 2/2/2 24/3/3
f 24/3/3 2/2/2 23/4/4
f 23/4/4 2/2/2 3/5/5
f 23/4/4 3/5/5 22/6/6
f 22/6/6 3/5/5 4/7/7
f 22/6/6 4/7/7 21/8/8
f 21/8/8 4/7/7 5/9/9
f 21/8/8 5/9/9 20/10/10
f 20/10/10 5/9/9 6/11/11
f 20/10/10 6/11/11 19/12/12
f 19/12/12 6/11/11 7/13/13
f 19/12/12 7/13/13 18/14/14
f 18/14/14 7/13/13 8/15/15
f 18/14/14 8/15/15 17/16/16
f 17/16/16 8/15/15 9/17/17
f 17/16/16 9/17/17 16/18/18
f 16/18/18 9/17/17 10/19/19
f 16/18/18 10/19/19 15/20/20
f 15/20/20 10/19/19 11/21/21
f 15/20/20 11/21/21 14/22/22
f 14/22/22 11/21/21 12/23/23
f 14/22/22 12/23/23 13/24/24
f 25/25/25 26/26/26 48/27/27
f 48/27/27 26/26/26 37/28/28
f 48/27/27 37/28/28 38/29/29
f 37/28/28 26/26/26 36/30/30
f 36/30/30 26/26/26 27/31/31
f 36/30/30 27/31/31 35/32/32
f 35/32/32 27/31/31 28/33/33
f 35/32/32 28/33/33 34/34/34
f 34/34/34 28/33/33 29/35/35
f 34/34/34 29/35/35 33/36/36
f 33/36/36 29/35/35 30/37/37
f 33/36/36 30/37/37 32/38/38
f 32/38/38 30/37/37 31/39/39
f 48/27/27 38/29/29 47/40/40
f 47/40/40 38/29/29 39/41/41
f 47/40/40 39/41/41 46/42/42
f 46/42/42 39/41/41 40/43/43
f 46/42/42 40/43/43 45/44/44
f 45/44/44 40/43/43 41/45/45
f 45/44/44 41/45/45 44/46/46
f 44/46/46 41/45/45 42/47/47
f 44/46/46 42/47/47 43/48/48
f 24/49/49 26/50/50 1/51/51
f 1/51/51 26/50/50 25/52/52
f 1/53/51 25/54/52 2/55/53
f 2/55/53 25/54/52 48/56/54
f 2/55/53 48/56/54 3/57/55
f 3/57/55 48/56/54 47/58/56
f 3/57/55 47/58/56 4/59/57
f 4/59/57 47/58/56 46/60/58
f 4/59/57 46/60/58 5/61/59
f 5/61/59 46/60/58 45/62/60
f 5/61/59 45/62/60 6/63/61
f 6/63/61 45/62/60 44/64/62
f 6/63/61 44/64/62 7/65/63
f 7/65/63 44/64/62 43/66/64
f 7/65/63 43/66/64 8/67/65
f 8/67/65 43/66/64 42/68/66
f 8/67/65 42/68/66 9/69/67
f 9/69/67 42/68/66 41/70/68
f 9/69/67 41/70/68 10/71/69
f 10/71/69 41/70/68 40/72/70
f 10/71/69 40/72/70 11/73/71
f 11/73/71 40/72/70 39/74/72
f 11/73/71 39/74/72 12/75/73
f 12/75/73 39/74/72 38/76/74
f 12/75/73 38/76/74 13/77/75
f 13/77/75 38/76/74 37/78/76
f 13/77/75 37/78/76 14/79/77
f 14/79/77 37/78/76 36/80/78
f 14/79/77 36/80/78 15/81/79
f 15/81/79 36/80/78 35/82/80
f 15/81/79 35/82/80 16/83/81
f 16/83/81 35/82/80 34/84/82
f 16/83/81 34/84/82 17/85/83
f 17/85/83 34/84/82 33/86/84
f 17/85/83 33/86/84 18/87/85
f 18/87/85 33/86/84 32/88/86
f 18/87/85 32/88/86 19/89/87
f 19/89/87 32/88/86 31/90/88
f 19/89/87 31/90/88 20/91/89
f 20/91/89 31/90/88 30/92/90
f 20/91/89 30/92/90 21/93/91
f 21/93/91 30/92/90 29/94/92
f 21/93/91 29/94/92 22/95/93
f 22/95/93 29/94/92 28/96/94
f 22/95/93 28/96/94 23/97/95
f 23/97/95 28/96/94 27/98/96
f 23/97/95 27/98/96 24/49/49
f 24/49/49 27/98/96 26/50/50

# 48 vertices
# 98 texture params
# 96 normals
# 92 facets

# 1 groups
