# WaveFront *.obj file (generated by Autodesk ATF)

mtllib 0b3d5d6f-12f9-4b57-a361-3d21d76fcff1.mtl

g 20_MRSHLDSRVT-Body

v 5.849327 4.832000 144.816284
v 6.700377 4.832000 144.566574
v 6.450672 4.832000 143.715530
v 5.599623 4.832000 143.965240
v 6.033268 4.832000 143.649719
v 6.266733 4.832000 144.882095
v 6.500065 4.832000 144.786270
v 5.799934 4.832000 143.745544
v 6.777008 4.832000 144.279327
v 5.522993 4.832000 144.252487
v 6.731577 4.832000 144.031204
v 5.568422 4.832000 144.500610
v 8.052206 4.358001 145.305084
v 8.299732 4.358001 143.988541
v 8.936325 3.100000 145.788086
v 9.196569 3.100000 143.372025
v 7.726133 4.358001 142.777924
v 8.622587 3.100000 142.274185
v 7.672176 3.100000 141.479584
v 6.550505 4.358001 142.135681
v 5.256111 3.100000 141.219345
v 5.221897 4.358001 142.307098
v 3.363675 3.100000 142.743729
v 4.247793 4.358001 143.226730
v 4.000267 4.358001 144.543289
v 2.993260 3.100000 143.925888
v 3.103430 3.100000 145.159790
v 4.573866 4.358001 145.753891
v 4.627825 3.100000 147.052231
v 5.749495 4.358001 146.396133
v 7.043888 3.100000 147.312485
v 7.078102 4.358001 146.224716
v 8.141716 3.100000 146.738495
vt -0.110075 0.060135 0.000000
vt -0.085104 -0.024970 0.000000
vt 0.000000 0.000000 0.000000
vt -0.024971 0.085105 0.000000
vt -0.110075 0.060135 0.000000
vt 0.000000 0.000000 0.000000
vt 0.006581 0.041740 0.000000
vt -0.024971 0.085105 0.000000
vt 0.000000 0.000000 0.000000
vt -0.006581 -0.041741 0.000000
vt 0.024971 -0.085105 0.000000
vt 0.000000 0.000000 0.000000
vt 0.009583 -0.023333 0.000000
vt 0.031552 -0.043364 0.000000
vt 0.000000 0.000000 0.000000
vt -0.009583 0.023333 0.000000
vt -0.031552 0.043365 0.000000
vt 0.000000 0.000000 0.000000
vt 0.028725 -0.007663 0.000000
vt 0.085104 0.024970 0.000000
vt 0.000000 0.000000 0.000000
vt -0.028725 0.007663 0.000000
vt -0.085104 -0.024970 0.000000
vt 0.000000 0.000000 0.000000
vt 0.024812 0.004543 0.000000
vt 0.056380 0.032634 0.000000
vt 0.000000 0.000000 0.000000
vt -0.024812 -0.004543 0.000000
vt -0.056380 -0.032633 0.000000
vt 0.000000 0.000000 0.000000
vt -0.105259 -0.133979 0.000000
vt 0.026153 -0.159985 0.000000
vt 0.000000 0.000000 0.000000
vt -0.028629 0.008012 0.000000
vt -0.106093 -0.133320 0.000000
vt 0.000000 0.000000 0.000000
vt 0.204541 0.102102 0.000000
vt 0.076598 0.141803 0.000000
vt 0.000000 0.000000 0.000000
vt -0.197865 -0.114504 0.000000
vt 0.040587 -0.161315 0.000000
vt 0.000000 0.000000 0.000000
vt -0.130730 0.103706 0.000000
vt -0.119869 -0.059811 0.000000
vt -0.000000 0.000000 0.000000
vt -0.006866 0.163734 0.000000
vt -0.031641 0.158991 0.000000
vt -0.000000 0.000000 0.000000
vt -0.003269 0.202401 0.000000
vt -0.111492 0.123447 0.000000
vt -0.000000 0.000000 0.000000
vt 0.095497 0.078913 0.000000
vt -0.010377 0.202162 0.000000
vt -0.000000 0.000000 0.000000
vt 0.124675 -0.104190 0.000000
vt 0.180755 0.006271 0.000000
vt -0.000000 0.000000 0.000000
vt 0.103253 -0.129014 0.000000
vt 0.164935 -0.010098 0.000000
vt -0.000000 0.000000 0.000000
vt -0.101234 0.130605 0.000000
vt -0.132188 0.101841 0.000000
vt -0.000000 0.000000 0.000000
vt -0.135163 0.120178 0.000000
vt -0.180771 -0.005781 0.000000
vt -0.000000 0.000000 0.000000
vt 0.141508 -0.112637 0.000000
vt 0.155183 0.129982 0.000000
vt 0.000000 0.000000 0.000000
vt 0.158637 -0.051765 0.000000
vt 0.142346 0.081202 0.000000
vt -0.000000 0.000000 0.000000
vt -0.158633 0.051776 0.000000
vt -0.164942 0.009993 0.000000
vt -0.000000 0.000000 0.000000
vt 0.155120 0.130056 0.000000
vt -0.011186 0.133494 0.000000
vt -0.000000 0.000000 0.000000
vt 0.166293 -0.004018 0.000000
vt 0.068057 0.218244 0.000000
vt -0.000000 0.000000 0.000000
vt -0.061475 -0.158905 0.000000
vt 0.089446 -0.099726 0.000000
vt -0.000000 0.000000 0.000000
vt -0.082117 -0.138679 0.000000
vt -0.060631 -0.159228 0.000000
vt -0.000000 0.000000 0.000000
vt -0.151315 -0.058164 0.000000
vt -0.142094 -0.081642 0.000000
vt -0.000000 0.000000 0.000000
vt 0.055288 0.221822 0.000000
vt -0.066517 0.116282 0.000000
vt -0.000000 0.000000 0.000000
vt 0.105259 0.133979 0.000000
vt -0.026155 0.159985 0.000000
vt -0.000000 0.000000 0.000000
vt 0.028629 -0.008012 0.000000
vt 0.106093 0.133320 0.000000
vt -0.000000 0.000000 0.000000
vt -0.042491 0.186137 0.000000
vt -0.128830 0.036726 0.000000
vt -0.000000 0.000000 0.000000
vt 0.089896 0.133768 0.000000
vt -0.020585 0.189812 0.000000
vt -0.000000 0.000000 0.000000
vt 0.046573 0.166160 0.000000
vt -0.075967 0.147982 0.000000
vt 0.000000 -0.000000 0.000000
vt 0.130730 -0.103706 0.000000
vt 0.119868 0.059811 0.000000
vt 0.000000 -0.000000 0.000000
vt 0.006868 -0.163734 0.000000
vt 0.031642 -0.158991 0.000000
vt 0.000000 -0.000000 0.000000
vt 0.003270 -0.202401 0.000000
vt 0.111492 -0.123447 0.000000
vt 0.000000 -0.000000 0.000000
vt -0.048344 0.196570 0.000000
vt -0.180720 -0.007213 0.000000
vt 0.000000 -0.000000 0.000000
vt -0.103253 0.129014 0.000000
vt -0.164935 0.010098 0.000000
vt 0.000000 -0.000000 0.000000
vt 0.101234 -0.130605 0.000000
vt 0.132188 -0.101841 0.000000
vt 0.000000 -0.000000 0.000000
vt -0.180771 -0.005781 0.000000
vt -0.045608 -0.125959 0.000000
vt 0.000000 -0.000000 0.000000
vt -0.141508 0.112637 0.000000
vt -0.155184 -0.129982 0.000000
vt 0.000000 -0.000000 0.000000
vt -0.158637 0.051766 0.000000
vt -0.142346 -0.081202 0.000000
vt 0.000000 0.000000 0.000000
vt 0.158633 -0.051776 0.000000
vt 0.164942 -0.009993 0.000000
vt 0.000000 -0.000000 0.000000
vt -0.155121 -0.130056 0.000000
vt 0.011186 -0.133494 0.000000
vt 0.000000 0.000000 0.000000
vt -0.166302 0.003683 0.000000
vt -0.129116 -0.114487 0.000000
vt 0.000000 0.000000 0.000000
vt 0.061475 0.158905 0.000000
vt -0.089446 0.099726 0.000000
vt 0.000000 0.000000 0.000000
vt 0.082117 0.138679 0.000000
vt 0.060631 0.159228 0.000000
vt 0.000000 0.000000 0.000000
vt 0.151315 0.058164 0.000000
vt 0.142094 0.081642 0.000000
vt 0.000000 0.000000 0.000000
vt 0.190639 0.010450 0.000000
vt 0.119832 0.124171 0.000000
vt 0.000000 0.000000 0.000000
vt 0.073613 -0.099639 0.000000
vt 0.190595 0.011224 0.000000
vt 0.000000 0.000000 0.000000
vn -0.000000 0.100000 0.000000
vn -0.000000 0.100000 0.000000
vn -0.000000 0.100000 0.000000
vn -0.000000 0.100000 0.000000
vn -0.000000 0.100000 0.000000
vn -0.000000 0.100000 0.000000
vn -0.000000 0.100000 0.000000
vn -0.000000 0.100000 0.000000
vn -0.000000 0.100000 0.000000
vn -0.000000 0.100000 0.000000
vn -0.000000 0.100000 0.000000
vn -0.000000 0.100000 0.000000
vn 0.030675 0.095004 0.005767
vn 0.030675 0.095004 0.005767
vn 0.030675 0.095004 0.005767
vn 0.029175 0.095332 0.007783
vn 0.029175 0.095332 0.007783
vn 0.029175 0.095332 0.007783
vn 0.078184 0.060591 0.014699
vn 0.078184 0.060591 0.014699
vn 0.078184 0.060591 0.014699
vn 0.083121 0.054870 0.008953
vn 0.083121 0.054870 0.008953
vn 0.083121 0.054870 0.008953
vn 0.028337 0.094957 -0.013426
vn 0.028337 0.094957 -0.013426
vn 0.028337 0.094957 -0.013426
vn 0.028762 0.095629 -0.005266
vn 0.028762 0.095629 -0.005266
vn 0.028762 0.095629 -0.005266
vn 0.068717 0.064945 -0.032559
vn 0.068717 0.064945 -0.032559
vn 0.068717 0.064945 -0.032559
vn 0.068626 0.063270 -0.035880
vn 0.068626 0.063270 -0.035880
vn 0.068626 0.063270 -0.035880
vn 0.050962 0.060724 -0.060955
vn 0.050962 0.060724 -0.060955
vn 0.050962 0.060724 -0.060955
vn 0.015043 0.094950 -0.027537
vn 0.015043 0.094950 -0.027537
vn 0.015043 0.094950 -0.027537
vn 0.021515 0.095763 -0.019145
vn 0.021515 0.095763 -0.019145
vn 0.021515 0.095763 -0.019145
vn 0.035899 0.066280 -0.065713
vn 0.035899 0.066280 -0.065713
vn 0.035899 0.066280 -0.065713
vn 0.009126 0.052326 -0.084727
vn 0.009126 0.052326 -0.084727
vn 0.009126 0.052326 -0.084727
vn -0.004012 0.094957 -0.031099
vn -0.004012 0.094957 -0.031099
vn -0.004012 0.094957 -0.031099
vn 0.004485 0.095763 -0.028448
vn 0.004485 0.095763 -0.028448
vn 0.004485 0.095763 -0.028448
vn -0.009730 0.064945 -0.075416
vn -0.009730 0.064945 -0.075416
vn -0.009730 0.064945 -0.075416
vn -0.052445 0.054870 -0.065107
vn -0.052445 0.054870 -0.065107
vn -0.052445 0.054870 -0.065107
vn -0.021427 0.095004 -0.022696
vn -0.021427 0.095004 -0.022696
vn -0.021427 0.095004 -0.022696
vn -0.022313 0.095332 -0.020344
vn -0.022313 0.095332 -0.020344
vn -0.022313 0.095332 -0.020344
vn -0.011108 0.095630 -0.027048
vn -0.011108 0.095630 -0.027048
vn -0.011108 0.095630 -0.027048
vn -0.054612 0.060591 -0.057847
vn -0.054612 0.060591 -0.057847
vn -0.054612 0.060591 -0.057847
vn -0.030675 0.095004 -0.005767
vn -0.030675 0.095004 -0.005767
vn -0.030675 0.095004 -0.005767
vn -0.029175 0.095332 -0.007783
vn -0.029175 0.095332 -0.007783
vn -0.029175 0.095332 -0.007783
vn -0.073875 0.065952 -0.013889
vn -0.073875 0.065952 -0.013889
vn -0.073875 0.065952 -0.013889
vn -0.075044 0.061769 -0.023514
vn -0.075044 0.061769 -0.023514
vn -0.075044 0.061769 -0.023514
vn -0.079543 0.060187 0.007102
vn -0.079543 0.060187 0.007102
vn -0.079543 0.060187 0.007102
vn -0.028337 0.094957 0.013426
vn -0.028337 0.094957 0.013426
vn -0.028337 0.094957 0.013426
vn -0.028762 0.095630 0.005266
vn -0.028762 0.095630 0.005266
vn -0.028762 0.095630 0.005266
vn -0.068717 0.064945 0.032559
vn -0.068717 0.064945 0.032559
vn -0.068717 0.064945 0.032559
vn -0.066365 0.052326 0.053458
vn -0.066365 0.052326 0.053458
vn -0.066365 0.052326 0.053458
vn -0.015043 0.094950 0.027537
vn -0.015043 0.094950 0.027537
vn -0.015043 0.094950 0.027537
vn -0.021515 0.095763 0.019145
vn -0.021515 0.095763 0.019145
vn -0.021515 0.095763 0.019145
vn -0.035899 0.066280 0.065713
vn -0.035899 0.066280 0.065713
vn -0.035899 0.066280 0.065713
vn -0.009127 0.052326 0.084727
vn -0.009127 0.052326 0.084727
vn -0.009127 0.052326 0.084727
vn 0.004012 0.094957 0.031099
vn 0.004012 0.094957 0.031099
vn 0.004012 0.094957 0.031099
vn -0.004485 0.095763 0.028448
vn -0.004485 0.095763 0.028448
vn -0.004485 0.095763 0.028448
vn 0.009730 0.064945 0.075415
vn 0.009730 0.064945 0.075415
vn 0.009730 0.064945 0.075415
vn 0.037002 0.060187 0.070770
vn 0.037002 0.060187 0.070770
vn 0.037002 0.060187 0.070770
vn 0.021427 0.095004 0.022696
vn 0.021427 0.095004 0.022696
vn 0.021427 0.095004 0.022696
vn 0.022313 0.095332 0.020344
vn 0.022313 0.095332 0.020344
vn 0.022313 0.095332 0.020344
vn 0.011108 0.095630 0.027048
vn 0.011108 0.095630 0.027048
vn 0.011108 0.095630 0.027048
vn 0.051602 0.065952 0.054659
vn 0.051602 0.065952 0.054659
vn 0.051602 0.065952 0.054659
vn 0.060333 0.061769 0.050443
vn 0.060333 0.061769 0.050443
vn 0.060333 0.061769 0.050443
usemtl Aluminum_-_Satin
f 1/1/1 2/2/2 3/3/3
f 4/4/4 1/5/1 3/6/3
f 5/7/5 4/8/4 3/9/3
f 6/10/6 2/11/2 1/12/1
f 7/13/7 2/14/2 6/15/6
f 8/16/8 4/17/4 5/18/5
f 9/19/9 3/20/3 2/21/2
f 10/22/10 1/23/1 4/24/4
f 11/25/11 3/26/3 9/27/9
f 12/28/12 1/29/1 10/30/10
f 13/31/13 14/32/14 9/33/15
f 2/34/16 13/35/17 9/36/18
f 14/37/19 13/38/20 15/39/21
f 15/40/22 16/41/23 14/42/24
f 11/43/25 14/44/26 17/45/27
f 11/46/28 9/47/29 14/48/30
f 17/49/31 14/50/32 16/51/33
f 18/52/34 17/53/35 16/54/36
f 18/55/37 19/56/38 17/57/39
f 17/58/40 20/59/41 3/60/42
f 3/61/43 11/62/44 17/63/45
f 20/64/46 17/65/47 19/66/48
f 19/67/49 21/68/50 20/69/51
f 20/70/52 22/71/53 5/72/54
f 5/73/55 3/74/56 20/75/57
f 21/76/58 22/77/59 20/78/60
f 21/79/61 23/80/62 22/81/63
f 8/82/64 22/83/65 24/84/66
f 4/85/67 8/86/68 24/87/69
f 8/88/70 5/89/71 22/90/72
f 23/91/73 24/92/74 22/93/75
f 24/94/76 25/95/77 10/96/78
f 4/97/79 24/98/80 10/99/81
f 26/100/82 25/101/83 24/102/84
f 23/103/85 26/104/86 24/105/87
f 26/106/88 27/107/89 25/108/90
f 12/109/91 25/110/92 28/111/93
f 12/112/94 10/113/95 25/114/96
f 28/115/97 25/116/98 27/117/99
f 27/118/100 29/119/101 28/120/102
f 28/121/103 30/122/104 1/123/105
f 1/124/106 12/125/107 28/126/108
f 29/127/109 30/128/110 28/129/111
f 29/130/112 31/131/113 30/132/114
f 30/133/115 32/134/116 6/135/117
f 6/136/118 1/137/119 30/138/120
f 31/139/121 32/140/122 30/141/123
f 31/142/124 33/143/125 32/144/126
f 7/145/127 32/146/128 13/147/129
f 2/148/130 7/149/131 13/150/132
f 7/151/133 6/152/134 32/153/135
f 13/154/136 32/155/137 33/156/138
f 15/157/139 13/158/140 33/159/141

# 33 vertices
# 159 texture params
# 141 normals
# 53 facets

# 1 groups
