# WaveFront *.obj file (generated by Autodesk ATF)

mtllib 561a7244-e6d1-4486-9fd7-5da76a0c65f4.mtl

g 5_MRSHLDSRVT-Body

v -3650.000000 2137.330780 462.820244
v -3650.000000 2121.770935 470.955429
v -3650.000000 2110.508728 484.425850
v -3650.000000 2128.425903 545.491219
v -3650.000000 2178.229065 541.044540
v -3650.000000 2171.574097 466.508751
v -3650.000000 2162.669220 549.179726
v -3650.000000 2189.491272 527.574120
v -3650.000000 2106.820221 518.669281
v -3650.000000 2114.955444 534.229050
v -3650.000000 2194.821625 501.998100
v -3650.000000 2185.044556 477.770920
v -3632.000122 2141.603699 583.949089
v -3632.000122 2172.072754 581.228676
v -3632.000122 2112.413025 574.802475
v -3632.000122 2218.802490 543.586960
v -3632.000122 2227.949066 514.396248
v -3632.000122 2225.228729 483.927269
v -3632.000122 2187.586975 437.197495
v -3632.000122 2158.396301 428.050880
v -3632.000122 2127.927246 430.771294
v -3632.000122 2081.197510 468.413010
v -3632.000122 2071.910706 512.972183
v -3632.000122 2088.944550 555.181274
v -3622.000122 2112.413025 574.802475
v -3622.000122 2172.072754 581.228676
v -3622.000122 2199.181213 567.055359
v -3622.000122 2218.802490 543.586960
v -3622.000122 2225.228729 483.927269
v -3622.000122 2227.949066 514.396248
v -3622.000122 2211.055450 456.818695
v -3622.000122 2187.586975 437.197495
v -3622.000122 2158.396301 428.050880
v -3622.000122 2127.927246 430.771294
v -3622.000122 2081.197510 468.413010
v -3622.000122 2072.050934 497.603722
v -3622.000122 2080.522919 542.324944
vt -2.160561 2.682205 0.000000
vt -1.347042 1.126221 0.000000
vt 0.000000 0.000000 0.000000
vt 6.106537 1.791718 0.000000
vt -2.160561 2.682205 0.000000
vt 0.000000 0.000000 0.000000
vt -0.444668 4.980316 0.000000
vt -8.267097 0.890488 0.000000
vt 0.000000 0.000000 0.000000
vt -7.453579 -0.665497 0.000000
vt -7.822430 -4.089828 0.000000
vt 0.000000 0.000000 0.000000
vt 0.368851 3.424332 0.000000
vt -0.444668 4.980316 0.000000
vt 0.000000 0.000000 0.000000
vt -1.347042 1.126221 0.000000
vt -7.453579 -0.665497 0.000000
vt 0.000000 0.000000 0.000000
vt 3.424343 -0.368851 0.000000
vt 6.106537 1.791718 0.000000
vt 0.000000 0.000000 0.000000
vt 1.555977 0.813522 0.000000
vt 2.682194 2.160568 0.000000
vt 0.000000 0.000000 0.000000
vt -2.557602 0.533035 0.000000
vt -6.106537 -1.791718 0.000000
vt 0.000000 0.000000 0.000000
vt -2.422718 -0.977707 0.000000
vt -3.548935 -2.324753 0.000000
vt 0.000000 0.000000 0.000000
vt -3.913976 2.108886 0.000000
vt -4.245725 -1.319239 0.000000
vt 0.000000 0.000000 0.000000
vt -0.238639 3.049703 0.000000
vt -3.914191 2.108487 0.000000
vt 0.000000 0.000000 0.000000
vt 3.431787 -1.618151 0.000000
vt 4.241847 1.331657 0.000000
vt 0.000000 0.000000 0.000000
vt 4.397350 -0.655683 0.000000
vt 1.045444 4.321304 0.000000
vt 0.000000 0.000000 0.000000
vt 0.731414 -1.596225 0.000000
vt 4.400880 -0.631552 0.000000
vt 0.000000 0.000000 0.000000
vt -2.108555 -3.154289 0.000000
vt -0.838111 -4.366256 0.000000
vt 0.000000 0.000000 0.000000
vt -1.122526 4.301915 0.000000
vt -2.543606 0.596257 0.000000
vt 0.000000 0.000000 0.000000
vt 1.871918 3.300222 0.000000
vt -1.008536 4.330057 0.000000
vt 0.000000 0.000000 0.000000
vt -3.043068 -0.311974 0.000000
vt -1.148031 -3.799131 0.000000
vt 0.000000 0.000000 0.000000
vt 4.437066 -0.281197 0.000000
vt 4.321225 4.163262 0.000000
vt 0.000000 0.000000 0.000000
vt 3.400148 -1.683618 0.000000
vt 4.437924 -0.267314 0.000000
vt 0.000000 0.000000 0.000000
vt -0.263958 -4.438126 0.000000
vt 2.115003 -3.358302 0.000000
vt 0.000000 0.000000 0.000000
vt -3.431787 1.618151 0.000000
vt -4.241847 -1.331657 0.000000
vt 0.000000 0.000000 0.000000
vt 1.045444 4.321304 0.000000
vt -3.351906 4.976987 0.000000
vt 0.000000 0.000000 0.000000
vt -0.838111 -4.366256 0.000000
vt 1.270445 -1.211968 0.000000
vt 0.000000 0.000000 0.000000
vt -0.731414 1.596225 0.000000
vt -4.400880 0.631552 0.000000
vt 0.000000 0.000000 0.000000
vt 3.913976 -2.108886 0.000000
vt 4.245725 1.319239 0.000000
vt 0.000000 0.000000 0.000000
vt -3.914191 2.108487 0.000000
vt -3.675552 -0.941217 0.000000
vt 0.000000 0.000000 0.000000
vt 5.128077 2.960565 0.000000
vt 1.710396 3.386752 0.000000
vt 0.000000 0.000000 0.000000
vt -5.184770 -2.860118 0.000000
vt -0.752723 -3.896752 0.000000
vt 0.000000 0.000000 0.000000
vt -3.955212 2.030495 0.000000
vt -4.119935 -1.934872 0.000000
vt 0.000000 0.000000 0.000000
vt 3.982421 -1.976596 0.000000
vt 1.507877 0.899549 0.000000
vt 0.000000 0.000000 0.000000
vt 4.437924 -0.267314 0.000000
vt 1.037776 1.416305 0.000000
vt 0.000000 0.000000 0.000000
vt 2.629888 -2.734826 0.000000
vt 4.437924 -0.267314 0.000000
vt 0.000000 0.000000 0.000000
vt -0.997408 -3.059872 0.000000
vt 0.330721 -5.991362 0.000000
vt 0.000000 0.000000 0.000000
vt 1.000000 3.059026 0.000000
vt 0.000000 3.059026 0.000000
vt 0.000000 0.000000 0.000000
vt 0.000000 -3.059013 0.000000
vt 1.000000 -3.059013 0.000000
vt 0.000000 0.000000 0.000000
vt 1.000000 0.000000 0.000000
vt 1.000000 3.059006 0.000000
vt 0.000000 0.000000 0.000000
vt -2.221214 2.328908 0.000000
vt 0.068351 -3.217583 0.000000
vt 0.000000 0.000000 0.000000
vt 1.000000 -3.059020 0.000000
vt 1.000000 0.000000 0.000000
vt 0.000000 0.000000 0.000000
vt -3.059018 1.000000 0.000000
vt -3.059018 0.000000 0.000000
vt 0.000000 0.000000 0.000000
vt 0.000000 1.000000 0.000000
vt -3.059018 1.000000 0.000000
vt 0.000000 0.000000 0.000000
vt 3.059015 -1.000000 0.000000
vt 3.059015 0.000000 0.000000
vt 0.000000 0.000000 0.000000
vt -3.059015 1.000000 0.000000
vt -3.059015 0.000000 0.000000
vt 0.000000 0.000000 0.000000
vt 1.000000 -6.000478 0.000000
vt 1.000000 0.000000 0.000000
vt 0.000000 0.000000 0.000000
vt 3.977014 4.603161 0.000000
vt 1.456404 2.869929 0.000000
vt 0.000000 0.000000 0.000000
vt -0.000000 -3.059021 0.000000
vt 1.000000 -3.059021 0.000000
vt 0.000000 0.000000 0.000000
vt 1.000000 -3.059013 0.000000
vt 1.000000 0.000000 0.000000
vt 0.000000 0.000000 0.000000
vt -0.000000 -3.059013 0.000000
vt 1.000000 -3.059013 0.000000
vt 0.000000 0.000000 0.000000
vt 1.000000 -3.059026 0.000000
vt 1.000000 0.000000 0.000000
vt 0.000000 0.000000 0.000000
vt -0.000000 -3.059026 0.000000
vt 1.000000 -3.059026 0.000000
vt 0.000000 0.000000 0.000000
vt -1.000000 -6.000473 0.000000
vt -0.000000 -6.000473 0.000000
vt 0.000000 0.000000 0.000000
vt 1.000000 6.000473 0.000000
vt 0.000000 6.000473 0.000000
vt 0.000000 0.000000 0.000000
vt -1.507379 -1.043984 0.000000
vt 3.044285 -1.043984 0.000000
vt 0.000000 0.000000 0.000000
vt 3.044281 -1.043982 0.000000
vt 4.551661 0.000000 0.000000
vt 0.000000 0.000000 0.000000
vt -3.044281 1.043985 0.000000
vt -4.551658 0.000000 0.000000
vt 0.000000 0.000000 0.000000
vt 0.000000 1.000000 0.000000
vt -3.059015 1.000000 0.000000
vt 0.000000 0.000000 0.000000
vt 1.425172 -1.153680 0.000000
vt 0.147369 3.214948 0.000000
vt 0.000000 0.000000 0.000000
vt -1.000000 0.000000 0.000000
vt -1.000000 -3.059021 0.000000
vt 0.000000 0.000000 0.000000
vn -0.100000 0.000000 0.000000
vn -0.100000 0.000000 0.000000
vn -0.100000 0.000000 0.000000
vn -0.100000 0.000000 0.000000
vn -0.100000 0.000000 0.000000
vn -0.100000 0.000000 0.000000
vn -0.100000 0.000000 0.000000
vn -0.100000 0.000000 0.000000
vn -0.100000 0.000000 0.000000
vn -0.100000 0.000000 0.000000
vn -0.100000 0.000000 0.000000
vn -0.100000 0.000000 0.000000
vn -0.089842 -0.004703 0.043661
vn -0.089842 -0.004703 0.043661
vn -0.089842 -0.004703 0.043661
vn -0.087641 0.004283 0.047966
vn -0.087641 0.004283 0.047966
vn -0.087641 0.004283 0.047966
vn -0.087641 -0.014399 0.045954
vn -0.087641 -0.014399 0.045954
vn -0.087641 -0.014399 0.045954
vn -0.083608 0.034415 0.042723
vn -0.083608 0.034415 0.042723
vn -0.083608 0.034415 0.042723
vn -0.087641 0.022312 0.042676
vn -0.087641 0.022312 0.042676
vn -0.087641 0.022312 0.042676
vn -0.087641 0.036945 0.030889
vn -0.087641 0.036945 0.030889
vn -0.087641 0.036945 0.030889
vn -0.088908 0.044813 0.009340
vn -0.088908 0.044813 0.009340
vn -0.088908 0.044813 0.009340
vn -0.087641 0.045954 0.014399
vn -0.087641 0.045954 0.014399
vn -0.087641 0.045954 0.014399
vn -0.087088 0.048955 -0.004371
vn -0.087088 0.048955 -0.004371
vn -0.087088 0.048955 -0.004371
vn -0.083608 0.042723 -0.034415
vn -0.083608 0.042723 -0.034415
vn -0.083608 0.042723 -0.034415
vn -0.087641 0.030889 -0.036945
vn -0.087641 0.030889 -0.036945
vn -0.087641 0.030889 -0.036945
vn -0.088908 0.042449 -0.017131
vn -0.088908 0.042449 -0.017131
vn -0.088908 0.042449 -0.017131
vn -0.087641 0.014399 -0.045954
vn -0.087641 0.014399 -0.045954
vn -0.087641 0.014399 -0.045954
vn -0.083608 -0.034415 -0.042723
vn -0.083608 -0.034415 -0.042723
vn -0.083608 -0.034415 -0.042723
vn -0.087641 -0.036945 -0.030889
vn -0.087641 -0.036945 -0.030889
vn -0.087641 -0.036945 -0.030889
vn -0.087641 -0.022312 -0.042676
vn -0.087641 -0.022312 -0.042676
vn -0.087641 -0.022312 -0.042676
vn -0.089842 0.004703 -0.043661
vn -0.089842 0.004703 -0.043661
vn -0.089842 0.004703 -0.043661
vn -0.087641 -0.004283 -0.047966
vn -0.087641 -0.004283 -0.047966
vn -0.087641 -0.004283 -0.047966
vn -0.086378 -0.050097 -0.005396
vn -0.086378 -0.050097 -0.005396
vn -0.086378 -0.050097 -0.005396
vn -0.089106 -0.044433 -0.009261
vn -0.089106 -0.044433 -0.009261
vn -0.089106 -0.044433 -0.009261
vn -0.085930 -0.047431 0.019141
vn -0.085930 -0.047431 0.019141
vn -0.085930 -0.047431 0.019141
vn -0.087641 -0.042676 0.022312
vn -0.087641 -0.042676 0.022312
vn -0.087641 -0.042676 0.022312
vn -0.087641 -0.030889 0.036945
vn -0.087641 -0.030889 0.036945
vn -0.087641 -0.030889 0.036945
vn -0.087641 -0.030889 0.036945
vn -0.087641 -0.030889 0.036945
vn -0.087641 -0.030889 0.036945
vn 0.051246 -0.009196 0.085377
vn 0.051246 -0.009196 0.085377
vn 0.051246 -0.009196 0.085377
vn 0.000000 0.008893 0.099604
vn 0.000000 0.008893 0.099604
vn 0.000000 0.008893 0.099604
vn 0.000000 -0.029901 0.095425
vn 0.000000 -0.029901 0.095425
vn 0.000000 -0.029901 0.095425
vn 0.000000 0.046333 0.088619
vn 0.000000 0.046333 0.088619
vn 0.000000 0.046333 0.088619
vn -0.051246 0.053868 0.066874
vn -0.051246 0.053868 0.066874
vn -0.051246 0.053868 0.066874
vn 0.000000 0.076719 0.064142
vn 0.000000 0.076719 0.064142
vn 0.000000 0.076719 0.064142
vn 0.000000 0.099604 -0.008893
vn 0.000000 0.099604 -0.008893
vn 0.000000 0.099604 -0.008893
vn 0.000000 0.099604 -0.008893
vn 0.000000 0.095425 0.029900
vn 0.000000 0.095425 0.029900
vn 0.000000 0.095425 0.029900
vn 0.000000 0.095425 0.029900
vn 0.000000 0.077877 -0.062731
vn 0.000000 0.077877 -0.062731
vn 0.000000 0.077877 -0.062731
vn -0.076035 0.057559 -0.030094
vn -0.076035 0.057559 -0.030094
vn -0.076035 0.057559 -0.030094
vn 0.000000 0.064142 -0.076719
vn 0.000000 0.064142 -0.076719
vn 0.000000 0.064142 -0.076719
vn 0.000000 0.029901 -0.095425
vn 0.000000 0.029901 -0.095425
vn 0.000000 0.029901 -0.095425
vn 0.000000 0.029901 -0.095425
vn 0.000000 -0.008893 -0.099604
vn 0.000000 -0.008893 -0.099604
vn 0.000000 -0.008893 -0.099604
vn 0.000000 -0.008893 -0.099604
vn 0.000000 -0.062731 -0.077877
vn 0.000000 -0.062731 -0.077877
vn 0.000000 -0.062731 -0.077877
vn 0.000000 -0.062731 -0.077877
vn -0.028720 -0.093772 -0.019544
vn -0.028720 -0.093772 -0.019544
vn -0.028720 -0.093772 -0.019544
vn 0.028720 -0.094113 0.017829
vn 0.028720 -0.094113 0.017829
vn 0.028720 -0.094113 0.017829
vn -0.028721 -0.088826 0.035847
vn -0.028721 -0.088826 0.035847
vn -0.028721 -0.088826 0.035847
vn 0.000000 -0.095425 -0.029900
vn 0.000000 -0.095425 -0.029900
vn 0.000000 -0.095425 -0.029900
vn 0.028720 -0.068347 0.067111
vn 0.028720 -0.068347 0.067111
vn 0.028720 -0.068347 0.067111
vn 0.000000 -0.064142 0.076719
vn 0.000000 -0.064142 0.076719
vn 0.000000 -0.064142 0.076719
usemtl Aluminum_-_Satin
f 1/1/1 2/2/2 3/3/3
f 4/4/4 1/5/1 3/6/3
f 5/7/5 1/8/1 4/9/4
f 6/10/6 1/11/1 5/12/5
f 7/13/7 5/14/5 4/15/4
f 8/16/8 6/17/6 5/18/5
f 9/19/9 4/20/4 3/21/3
f 10/22/10 4/23/4 9/24/9
f 11/25/11 6/26/6 8/27/8
f 12/28/12 6/29/6 11/30/11
f 7/31/13 4/32/14 13/33/15
f 14/34/16 7/35/17 13/36/18
f 15/37/19 13/38/20 4/39/21
f 14/40/22 16/41/23 5/42/24
f 7/43/25 14/44/26 5/45/27
f 8/46/28 5/47/29 16/48/30
f 17/49/31 11/50/32 8/51/33
f 16/52/34 17/53/35 8/54/36
f 18/55/37 11/56/38 17/57/39
f 12/58/40 18/59/41 19/60/42
f 6/61/43 12/62/44 19/63/45
f 12/64/46 11/65/47 18/66/48
f 19/67/49 20/68/50 6/69/51
f 2/70/52 21/71/53 22/72/54
f 22/73/55 3/74/56 2/75/57
f 1/76/58 21/77/59 2/78/60
f 1/79/61 6/80/62 20/81/63
f 20/82/64 21/83/65 1/84/66
f 9/85/67 3/86/68 22/87/69
f 22/88/70 23/89/71 9/90/72
f 9/91/73 23/92/74 24/93/75
f 24/94/76 10/95/77 9/96/78
f 15/97/79 4/98/80 10/99/81
f 24/100/82 15/101/83 10/102/84
f 13/103/85 25/104/86 26/105/87
f 26/106/88 14/107/89 13/108/90
f 15/109/91 25/110/92 13/111/93
f 26/112/94 27/113/95 14/114/96
f 16/115/97 14/116/98 27/117/99
f 27/118/100 28/119/101 16/120/102
f 29/121/103 18/122/104 17/123/105
f 30/124/106 29/125/103 17/126/105
f 16/127/107 28/128/108 30/129/109
f 30/130/109 17/131/110 16/132/107
f 19/133/111 18/134/112 29/135/113
f 29/136/114 31/137/115 19/138/116
f 32/139/117 19/140/118 31/141/119
f 20/142/120 19/143/121 32/144/122
f 33/145/123 20/146/120 32/147/122
f 21/148/124 20/149/125 33/150/126
f 34/151/127 21/152/124 33/153/126
f 35/154/128 22/155/129 21/156/130
f 21/157/130 34/158/131 35/159/128
f 23/160/132 22/161/133 36/162/134
f 23/163/135 36/164/136 37/165/137
f 37/166/138 24/167/139 23/168/140
f 35/169/141 36/170/142 22/171/143
f 37/172/144 25/173/145 24/174/146
f 15/175/147 24/176/148 25/177/149

# 37 vertices
# 177 texture params
# 149 normals
# 59 facets

# 1 groups
