# WaveFront *.obj file (generated by Autodesk ATF)

mtllib e178bf0f-cda2-4c6f-aa99-51797cc03aaa.mtl

g 6_MRSHLDSRVT-Body

v 212.842590 46.650875 365.000000
v 217.822906 47.095543 365.000000
v 217.157410 54.549122 365.000000
v 210.517838 50.199810 365.000000
v 212.177094 54.104454 365.000000
v 213.733078 54.917973 365.000000
v 216.266922 46.282024 365.000000
v 219.474121 50.118069 365.000000
v 219.317978 51.866928 365.000000
v 218.949127 48.442585 365.000000
v 211.050873 52.757412 365.000000
v 211.495544 47.777092 365.000000
v 215.839630 58.394909 363.200012
v 212.792725 58.122868 363.200012
v 218.758698 57.480247 363.200012
v 208.119751 54.358696 363.200012
v 207.205093 51.439625 363.200012
v 207.477127 48.392727 363.200012
v 211.241302 43.719749 363.200012
v 214.160370 42.805088 363.200012
v 217.207275 43.077129 363.200012
v 221.880249 46.841301 363.200012
v 222.808929 51.297218 363.200012
v 221.105545 55.518127 363.200012
v 218.758698 57.480247 362.200012
v 212.792725 58.122868 362.200012
v 210.081879 56.705536 362.200012
v 208.119751 54.358696 362.200012
v 207.477127 48.392727 362.200012
v 207.205093 51.439625 362.200012
v 208.894455 45.681870 362.200012
v 211.241302 43.719749 362.200012
v 214.160370 42.805088 362.200012
v 218.632492 43.652298 362.200012
v 221.880249 46.841301 362.200012
v 222.522873 52.807270 362.200012
v 221.105545 55.518127 362.200012
vt -0.789825 0.431482 0.000000
vt -0.745358 -0.066550 0.000000
vt 0.000000 0.000000 0.000000
vt -0.434931 0.663957 0.000000
vt -0.789825 0.431482 0.000000
vt 0.000000 0.000000 0.000000
vt -0.044467 0.498032 0.000000
vt -0.434931 0.663957 0.000000
vt 0.000000 0.000000 0.000000
vt 0.036885 0.342433 0.000000
vt -0.044467 0.498032 0.000000
vt 0.000000 0.000000 0.000000
vt -0.036885 -0.342433 0.000000
vt 0.044467 -0.498032 0.000000
vt 0.000000 0.000000 0.000000
vt 0.302253 -0.165121 0.000000
vt 0.745358 0.066550 0.000000
vt 0.000000 0.000000 0.000000
vt 0.174886 0.015614 0.000000
vt 0.443105 0.231671 0.000000
vt 0.000000 0.000000 0.000000
vt 0.134704 -0.112622 0.000000
vt 0.302253 -0.165121 0.000000
vt 0.000000 0.000000 0.000000
vt -0.134704 0.112622 0.000000
vt -0.390464 0.165926 0.000000
vt 0.000000 0.000000 0.000000
vt -0.242272 -0.097771 0.000000
vt -0.354893 -0.232475 0.000000
vt 0.000000 0.000000 0.000000
vt -0.391398 0.210889 0.000000
vt -0.424573 -0.131924 0.000000
vt 0.000000 0.000000 0.000000
vt -0.023864 0.304970 0.000000
vt -0.391419 0.210849 0.000000
vt 0.000000 -0.000000 0.000000
vt 0.343179 -0.161815 0.000000
vt 0.424185 0.133166 0.000000
vt 0.000000 0.000000 0.000000
vt 0.439735 -0.065568 0.000000
vt 0.104544 0.432130 0.000000
vt 0.000000 -0.000000 0.000000
vt 0.073141 -0.159622 0.000000
vt 0.440088 -0.063155 0.000000
vt 0.000000 -0.000000 0.000000
vt -0.210856 -0.315429 0.000000
vt -0.083811 -0.436626 0.000000
vt 0.000000 -0.000000 0.000000
vt -0.112253 0.430192 0.000000
vt -0.254361 0.059626 0.000000
vt 0.000000 -0.000000 0.000000
vt 0.187192 0.330022 0.000000
vt -0.100854 0.433006 0.000000
vt 0.000000 -0.000000 0.000000
vt -0.304307 -0.031197 0.000000
vt -0.114803 -0.379913 0.000000
vt 0.000000 0.000000 0.000000
vt 0.443707 -0.028120 0.000000
vt 0.432122 0.416326 0.000000
vt 0.000000 0.000000 0.000000
vt 0.340015 -0.168362 0.000000
vt 0.443792 -0.026731 0.000000
vt 0.000000 0.000000 0.000000
vt -0.026396 -0.443813 0.000000
vt 0.211500 -0.335830 0.000000
vt 0.000000 0.000000 0.000000
vt -0.343179 0.161815 0.000000
vt -0.424185 -0.133166 0.000000
vt 0.000000 0.000000 0.000000
vt 0.104544 0.432130 0.000000
vt -0.335191 0.497699 0.000000
vt 0.000000 0.000000 0.000000
vt -0.083811 -0.436626 0.000000
vt 0.127044 -0.121197 0.000000
vt 0.000000 0.000000 0.000000
vt -0.073141 0.159622 0.000000
vt -0.440088 0.063155 0.000000
vt 0.000000 0.000000 0.000000
vt 0.391398 -0.210889 0.000000
vt 0.424573 0.131924 0.000000
vt 0.000000 0.000000 0.000000
vt -0.391419 0.210849 0.000000
vt -0.367555 -0.094122 0.000000
vt 0.000000 0.000000 0.000000
vt -0.263050 0.440084 0.000000
vt -0.442679 0.105886 0.000000
vt 0.000000 0.000000 0.000000
vt 0.246803 -0.449397 0.000000
vt 0.164598 -0.061125 0.000000
vt 0.000000 0.000000 0.000000
vt 0.048509 0.393903 0.000000
vt -0.126186 0.376284 0.000000
vt 0.000000 0.000000 0.000000
vt 0.215718 0.641101 0.000000
vt -0.026257 0.396009 0.000000
vt 0.000000 0.000000 0.000000
vt -0.291008 -0.610622 0.000000
vt 0.125290 -0.426579 0.000000
vt 0.000000 0.000000 0.000000
vt 0.180804 0.246751 0.000000
vt -0.159211 0.415113 0.000000
vt 0.000000 0.000000 0.000000
vt -0.099741 -0.305987 0.000000
vt 0.033072 -0.599136 0.000000
vt -0.000000 0.000000 0.000000
vt 0.100000 0.305903 0.000000
vt 0.000000 0.305903 0.000000
vt 0.000000 0.000000 0.000000
vt -0.000000 -0.305901 0.000000
vt 0.100000 -0.305901 0.000000
vt 0.000000 0.000000 0.000000
vt 0.100000 -0.000000 0.000000
vt 0.100000 0.305901 0.000000
vt 0.000000 0.000000 0.000000
vt -0.222121 0.232891 0.000000
vt 0.006835 -0.321758 0.000000
vt 0.000000 -0.000000 0.000000
vt 0.100000 -0.305902 0.000000
vt 0.100000 -0.000000 0.000000
vt 0.000000 0.000000 0.000000
vt -0.305902 0.100000 0.000000
vt -0.305902 -0.000000 0.000000
vt 0.000000 0.000000 0.000000
vt -0.000000 0.100000 0.000000
vt -0.305902 0.100000 0.000000
vt 0.000000 0.000000 0.000000
vt 0.305902 -0.100000 0.000000
vt 0.305902 -0.000000 0.000000
vt 0.000000 0.000000 0.000000
vt -0.305902 0.100000 0.000000
vt -0.305902 0.000000 0.000000
vt 0.000000 0.000000 0.000000
vt 0.100000 -0.600048 0.000000
vt 0.100000 0.000000 0.000000
vt 0.000000 0.000000 0.000000
vt 0.397701 0.460316 0.000000
vt 0.145640 0.286993 0.000000
vt 0.000000 0.000000 0.000000
vt 0.000000 -0.305902 0.000000
vt 0.100000 -0.305902 0.000000
vt 0.000000 0.000000 0.000000
vt -0.087705 0.309652 0.000000
vt -0.112434 -0.144842 0.000000
vt 0.000000 -0.000000 0.000000
vt -0.000000 0.305903 0.000000
vt -0.100000 0.305903 0.000000
vt 0.000000 0.000000 0.000000
vt -0.000000 0.305901 0.000000
vt -0.100000 -0.000000 0.000000
vt 0.000000 0.000000 0.000000
vt -0.100000 -0.000000 0.000000
vt -0.100000 -0.305901 0.000000
vt 0.000000 0.000000 0.000000
vt 0.245290 -0.396244 0.000000
vt 0.058180 0.173884 0.000000
vt 0.000000 0.000000 0.000000
vt 0.000000 -0.455167 0.000000
vt 0.100000 -0.455167 0.000000
vt 0.000000 0.000000 0.000000
vt 0.452975 0.109500 0.000000
vt -0.147073 0.109500 0.000000
vt 0.000000 0.000000 0.000000
vt 0.455166 0.000000 0.000000
vt 0.455166 0.100000 0.000000
vt 0.000000 0.000000 0.000000
vt 0.100000 -0.305902 0.000000
vt 0.100000 -0.000000 0.000000
vt 0.000000 0.000000 0.000000
vt -0.000000 -0.305902 0.000000
vt 0.100000 -0.305902 0.000000
vt 0.000000 0.000000 0.000000
vt -0.455166 0.100000 0.000000
vt -0.455166 0.000000 0.000000
vt 0.000000 0.000000 0.000000
vt -0.364807 -0.289986 0.000000
vt -0.188032 -0.241287 0.000000
vt 0.000000 0.000000 0.000000
vn 0.000000 -0.000000 0.100000
vn 0.000000 -0.000000 0.100000
vn 0.000000 -0.000000 0.100000
vn 0.000000 -0.000000 0.100000
vn 0.000000 -0.000000 0.100000
vn 0.000000 -0.000000 0.100000
vn 0.000000 -0.000000 0.100000
vn 0.000000 -0.000000 0.100000
vn 0.000000 -0.000000 0.100000
vn 0.000000 -0.000000 0.100000
vn 0.000000 -0.000000 0.100000
vn 0.000000 -0.000000 0.100000
vn 0.004703 0.043661 0.089842
vn 0.004703 0.043661 0.089842
vn 0.004703 0.043661 0.089842
vn -0.004283 0.047966 0.087641
vn -0.004283 0.047966 0.087641
vn -0.004283 0.047966 0.087641
vn 0.014399 0.045954 0.087641
vn 0.014399 0.045954 0.087641
vn 0.014399 0.045954 0.087641
vn -0.034415 0.042723 0.083608
vn -0.034415 0.042723 0.083608
vn -0.034415 0.042723 0.083608
vn -0.022312 0.042676 0.087641
vn -0.022312 0.042676 0.087641
vn -0.022312 0.042676 0.087641
vn -0.036945 0.030889 0.087641
vn -0.036945 0.030889 0.087641
vn -0.036945 0.030889 0.087641
vn -0.044813 0.009340 0.088908
vn -0.044813 0.009340 0.088908
vn -0.044813 0.009340 0.088908
vn -0.045954 0.014399 0.087641
vn -0.045954 0.014399 0.087641
vn -0.045954 0.014399 0.087641
vn -0.048955 -0.004371 0.087088
vn -0.048955 -0.004371 0.087088
vn -0.048955 -0.004371 0.087088
vn -0.042723 -0.034415 0.083608
vn -0.042723 -0.034415 0.083608
vn -0.042723 -0.034415 0.083608
vn -0.030889 -0.036945 0.087641
vn -0.030889 -0.036945 0.087641
vn -0.030889 -0.036945 0.087641
vn -0.042449 -0.017131 0.088908
vn -0.042449 -0.017131 0.088908
vn -0.042449 -0.017131 0.088908
vn -0.014399 -0.045954 0.087641
vn -0.014399 -0.045954 0.087641
vn -0.014399 -0.045954 0.087641
vn 0.034415 -0.042723 0.083608
vn 0.034415 -0.042723 0.083608
vn 0.034415 -0.042723 0.083608
vn 0.036945 -0.030889 0.087641
vn 0.036945 -0.030889 0.087641
vn 0.036945 -0.030889 0.087641
vn 0.022312 -0.042676 0.087641
vn 0.022312 -0.042676 0.087641
vn 0.022312 -0.042676 0.087641
vn -0.004703 -0.043661 0.089842
vn -0.004703 -0.043661 0.089842
vn -0.004703 -0.043661 0.089842
vn 0.004283 -0.047966 0.087641
vn 0.004283 -0.047966 0.087641
vn 0.004283 -0.047966 0.087641
vn 0.048038 -0.010012 0.087133
vn 0.048038 -0.010012 0.087133
vn 0.048038 -0.010012 0.087133
vn 0.051217 -0.016048 0.084376
vn 0.051217 -0.016048 0.084376
vn 0.051217 -0.016048 0.084376
vn 0.046321 0.004136 0.088528
vn 0.046321 0.004136 0.088528
vn 0.046321 0.004136 0.088528
vn 0.047212 0.038031 0.079528
vn 0.047212 0.038031 0.079528
vn 0.047212 0.038031 0.079528
vn 0.037866 0.015281 0.091283
vn 0.037866 0.015281 0.091283
vn 0.037866 0.015281 0.091283
vn 0.030889 0.036945 0.087641
vn 0.030889 0.036945 0.087641
vn 0.030889 0.036945 0.087641
vn 0.009196 0.085377 -0.051246
vn 0.009196 0.085377 -0.051246
vn 0.009196 0.085377 -0.051246
vn -0.008893 0.099604 0.000000
vn -0.008893 0.099604 0.000000
vn -0.008893 0.099604 0.000000
vn 0.029901 0.095425 -0.000000
vn 0.029901 0.095425 -0.000000
vn 0.029901 0.095425 -0.000000
vn -0.046333 0.088619 0.000000
vn -0.046333 0.088619 0.000000
vn -0.046333 0.088619 0.000000
vn -0.053868 0.066874 0.051246
vn -0.053868 0.066874 0.051246
vn -0.053868 0.066874 0.051246
vn -0.076719 0.064142 0.000000
vn -0.076719 0.064142 0.000000
vn -0.076719 0.064142 0.000000
vn -0.099604 -0.008893 0.000000
vn -0.099604 -0.008893 0.000000
vn -0.099604 -0.008893 0.000000
vn -0.099604 -0.008893 0.000000
vn -0.095425 0.029900 0.000000
vn -0.095425 0.029900 0.000000
vn -0.095425 0.029900 0.000000
vn -0.095425 0.029900 0.000000
vn -0.077877 -0.062731 0.000000
vn -0.077877 -0.062731 0.000000
vn -0.077877 -0.062731 0.000000
vn -0.057559 -0.030094 0.076035
vn -0.057559 -0.030094 0.076035
vn -0.057559 -0.030094 0.076035
vn -0.064142 -0.076719 0.000000
vn -0.064142 -0.076719 0.000000
vn -0.064142 -0.076719 0.000000
vn 0.017829 -0.094113 -0.028721
vn 0.017829 -0.094113 -0.028721
vn 0.017829 -0.094113 -0.028721
vn 0.008893 -0.099604 -0.000000
vn 0.008893 -0.099604 -0.000000
vn 0.008893 -0.099604 -0.000000
vn -0.029901 -0.095425 0.000000
vn -0.029901 -0.095425 0.000000
vn -0.029901 -0.095425 0.000000
vn -0.029901 -0.095425 0.000000
vn 0.057289 -0.071120 0.040743
vn 0.057289 -0.071120 0.040743
vn 0.057289 -0.071120 0.040743
vn 0.070062 -0.071353 -0.000000
vn 0.070062 -0.071353 -0.000000
vn 0.070062 -0.071353 -0.000000
vn 0.090799 -0.009780 -0.040742
vn 0.090799 -0.009780 -0.040742
vn 0.090799 -0.009780 -0.040742
vn 0.097896 -0.020403 -0.000000
vn 0.097896 -0.020403 -0.000000
vn 0.097896 -0.020403 -0.000000
vn 0.064142 0.076719 -0.000000
vn 0.064142 0.076719 -0.000000
vn 0.064142 0.076719 -0.000000
vn 0.064142 0.076719 -0.000000
vn 0.092733 0.037423 -0.000000
vn 0.092733 0.037423 -0.000000
vn 0.092733 0.037423 -0.000000
vn 0.080929 0.042313 0.040744
vn 0.080929 0.042313 0.040744
vn 0.080929 0.042313 0.040744
usemtl Aluminum_-_Satin
f 1/1/1 2/2/2 3/3/3
f 4/4/4 1/5/1 3/6/3
f 5/7/5 4/8/4 3/9/3
f 6/10/6 5/11/5 3/12/3
f 7/13/7 2/14/2 1/15/1
f 8/16/8 3/17/3 2/18/2
f 9/19/9 3/20/3 8/21/8
f 10/22/10 8/23/8 2/24/2
f 11/25/11 4/26/4 5/27/5
f 12/28/12 1/29/1 4/30/4
f 6/31/13 3/32/14 13/33/15
f 14/34/16 6/35/17 13/36/18
f 15/37/19 13/38/20 3/39/21
f 14/40/22 16/41/23 5/42/24
f 6/43/25 14/44/26 5/45/27
f 11/46/28 5/47/29 16/48/30
f 17/49/31 4/50/32 11/51/33
f 16/52/34 17/53/35 11/54/36
f 18/55/37 4/56/38 17/57/39
f 12/58/40 18/59/41 19/60/42
f 1/61/43 12/62/44 19/63/45
f 12/64/46 4/65/47 18/66/48
f 19/67/49 20/68/50 1/69/51
f 2/70/52 21/71/53 22/72/54
f 22/73/55 10/74/56 2/75/57
f 7/76/58 21/77/59 2/78/60
f 7/79/61 1/80/62 20/81/63
f 20/82/64 21/83/65 7/84/66
f 10/85/67 22/86/68 23/87/69
f 23/88/70 8/89/71 10/90/72
f 9/91/73 8/92/74 23/93/75
f 3/94/76 9/95/77 23/96/78
f 23/97/79 24/98/80 3/99/81
f 15/100/82 3/101/83 24/102/84
f 13/103/85 25/104/86 26/105/87
f 26/106/88 14/107/89 13/108/90
f 15/109/91 25/110/92 13/111/93
f 26/112/94 27/113/95 14/114/96
f 16/115/97 14/116/98 27/117/99
f 27/118/100 28/119/101 16/120/102
f 29/121/103 18/122/104 17/123/105
f 30/124/106 29/125/103 17/126/105
f 16/127/107 28/128/108 30/129/109
f 30/130/109 17/131/110 16/132/107
f 19/133/111 18/134/112 29/135/113
f 29/136/114 31/137/115 19/138/116
f 32/139/117 19/140/118 31/141/119
f 33/142/120 34/143/121 21/144/122
f 20/145/123 33/146/124 21/147/125
f 19/148/126 33/149/127 20/150/128
f 32/151/129 33/152/127 19/153/126
f 22/154/130 21/155/131 34/156/132
f 35/157/133 22/158/134 34/159/135
f 35/160/136 36/161/137 23/162/138
f 22/163/139 35/164/140 23/165/141
f 37/166/142 25/167/143 15/168/144
f 24/169/145 37/170/142 15/171/144
f 37/172/146 24/173/147 23/174/148
f 23/175/149 36/176/150 37/177/151

# 37 vertices
# 177 texture params
# 151 normals
# 59 facets

# 1 groups
