# WaveFront *.obj file (generated by Autodesk ATF)

mtllib e4653b06-ca60-446c-8dd0-5e7fb65def52.mtl

g 16_MRSHLDSRVT-Body

v -2086.187897 -55.684223 48.319998
v -2089.044495 -65.000648 48.319998
v -2081.493835 -67.315769 48.319998
v -2078.637390 -57.999344 48.319998
v -2078.337097 -64.506721 48.319998
v -2089.344635 -58.493271 48.319998
v -2080.834198 -55.996227 48.319998
v -2086.847687 -67.003765 48.319998
v -2083.706665 -55.229931 48.319998
v -2083.975067 -67.770081 48.319998
v -2077.678986 -60.332680 48.319998
v -2090.002747 -62.667332 48.319998
v -2094.232635 -80.522060 43.580008
v -2081.067200 -82.997322 43.580008
v -2099.062653 -89.363251 30.999999
v -2074.902039 -91.965694 30.999999
v -2068.961029 -77.261333 43.580008
v -2063.923798 -86.225872 30.999999
v -2055.977631 -76.721764 30.999999
v -2062.538605 -65.505047 43.580008
v -2053.375244 -52.561111 30.999999
v -2064.252930 -52.218971 43.580008
v -2068.619080 -33.636751 30.999999
v -2073.449097 -42.477932 43.580008
v -2086.614685 -40.002670 43.580008
v -2080.440674 -29.932604 30.999999
v -2092.779846 -31.034298 30.999999
v -2098.720703 -45.738659 43.580008
v -2111.704102 -46.278248 30.999999
v -2105.143280 -57.494946 43.580008
v -2114.306641 -70.438881 30.999999
v -2103.428955 -70.781021 43.580008
v -2108.566742 -81.417160 30.999999
vt -0.469406 1.163155 0.000000
vt -0.755066 0.231512 0.000000
vt 0.000000 0.000000 0.000000
vt 0.285645 0.931643 0.000000
vt -0.469406 1.163155 0.000000
vt 0.000000 0.000000 0.000000
vt 0.315674 0.280905 0.000000
vt 0.285645 0.931643 0.000000
vt 0.000000 0.000000 0.000000
vt -0.315674 -0.280905 0.000000
vt -0.285660 -0.931643 0.000000
vt 0.000000 0.000000 0.000000
vt -0.219681 0.200312 0.000000
vt -0.755051 0.231512 0.000000
vt 0.000000 0.000000 0.000000
vt 0.219681 -0.200312 0.000000
vt 0.755066 -0.231512 0.000000
vt 0.000000 0.000000 0.000000
vt -0.287247 0.076630 0.000000
vt -0.535370 0.031200 0.000000
vt 0.000000 0.000000 0.000000
vt 0.287262 -0.076632 0.000000
vt 0.535385 -0.031200 0.000000
vt 0.000000 0.000000 0.000000
vt 0.065811 0.417404 0.000000
vt -0.030029 0.650738 0.000000
vt 0.000000 0.000000 0.000000
vt -0.065811 -0.417406 0.000000
vt 0.030014 -0.650738 0.000000
vt 0.000000 0.000000 0.000000
vt -1.052593 -1.339787 0.000000
vt 0.261531 -1.599851 0.000000
vt 0.000000 0.000000 0.000000
vt -0.286309 0.080117 0.000000
vt -1.060924 -1.333200 0.000000
vt 0.000000 0.000000 0.000000
vt 2.045407 1.021024 0.000000
vt 0.765976 1.418028 0.000000
vt 0.000000 0.000000 0.000000
vt -1.978650 -1.145043 0.000000
vt 0.405875 -1.613146 0.000000
vt 0.000000 0.000000 0.000000
vt -1.307298 1.037064 0.000000
vt -1.198694 -0.598115 0.000000
vt 0.000000 0.000000 0.000000
vt -0.068663 1.637343 0.000000
vt -0.316411 1.589907 0.000000
vt 0.000000 0.000000 0.000000
vt -0.032689 2.024015 0.000000
vt -1.114924 1.234472 0.000000
vt 0.000000 0.000000 0.000000
vt 0.954955 0.789135 0.000000
vt -0.103780 2.021617 0.000000
vt 0.000000 0.000000 0.000000
vt 1.246739 -1.041910 0.000000
vt 1.807548 0.062712 0.000000
vt 0.000000 0.000000 0.000000
vt -1.649354 0.100982 0.000000
vt -0.616826 -1.189161 0.000000
vt 0.000000 0.000000 0.000000
vt -1.012336 1.306047 0.000000
vt -1.321885 1.018406 0.000000
vt 0.000000 0.000000 0.000000
vt -1.351630 1.201780 0.000000
vt -1.807712 -0.057811 0.000000
vt 0.000000 0.000000 0.000000
vt 1.415084 -1.126372 0.000000
vt 1.551827 1.299818 0.000000
vt 0.000000 0.000000 0.000000
vt 1.586365 -0.517654 0.000000
vt 1.423448 0.812025 0.000000
vt 0.000000 0.000000 0.000000
vt -1.586331 0.517758 0.000000
vt -1.649418 0.099933 0.000000
vt 0.000000 0.000000 0.000000
vt 1.551200 1.300566 0.000000
vt -0.111868 1.334943 0.000000
vt 0.000000 0.000000 0.000000
vt -0.680573 -2.182432 0.000000
vt 0.982365 -2.222615 0.000000
vt 0.000000 0.000000 0.000000
vt 0.552901 2.218217 0.000000
vt -0.665152 1.162818 0.000000
vt 0.000000 0.000000 0.000000
vt -0.614765 -1.589045 0.000000
vt 0.894448 -0.997264 0.000000
vt 0.000000 0.000000 0.000000
vt -0.821175 -1.386790 0.000000
vt -0.606332 -1.592282 0.000000
vt 0.000000 0.000000 0.000000
vt -1.513151 -0.581638 0.000000
vt -1.420929 -0.816425 0.000000
vt 0.000000 0.000000 0.000000
vt 1.052593 1.339789 0.000000
vt -0.261547 1.599853 0.000000
vt 0.000000 0.000000 0.000000
vt 0.286294 -0.080115 0.000000
vt 1.060925 1.333201 0.000000
vt 0.000000 0.000000 0.000000
vt -0.424908 1.861369 0.000000
vt -1.288300 0.367258 0.000000
vt 0.000000 0.000000 0.000000
vt 0.898962 1.337680 0.000000
vt -0.205851 1.898122 0.000000
vt 0.000000 0.000000 0.000000
vt 0.465729 1.661598 0.000000
vt -0.759687 1.479815 0.000000
vt 0.000000 0.000000 0.000000
vt 1.307298 -1.037064 0.000000
vt 1.198679 0.598115 0.000000
vt 0.000000 0.000000 0.000000
vt 0.068677 -1.637343 0.000000
vt 0.316425 -1.589909 0.000000
vt 0.000000 0.000000 0.000000
vt 0.032708 -2.024010 0.000000
vt 1.114927 -1.234469 0.000000
vt 0.000000 0.000000 0.000000
vt -0.483450 1.965696 0.000000
vt -1.807197 -0.072133 0.000000
vt 0.000000 0.000000 0.000000
vt 1.649368 -0.100982 0.000000
vt 0.616841 1.189162 0.000000
vt 0.000000 0.000000 0.000000
vt 1.012336 -1.306047 0.000000
vt 1.321885 -1.018406 0.000000
vt 0.000000 0.000000 0.000000
vt -1.807712 -0.057813 0.000000
vt -0.456093 -1.259594 0.000000
vt 0.000000 0.000000 0.000000
vt -1.415077 1.126371 0.000000
vt -1.551826 -1.299818 0.000000
vt 0.000000 0.000000 0.000000
vt -1.586380 0.517656 0.000000
vt -1.423462 -0.812023 0.000000
vt 0.000000 0.000000 0.000000
vt 1.586346 -0.517760 0.000000
vt 1.649432 -0.099933 0.000000
vt 0.000000 0.000000 0.000000
vt -1.551200 -1.300566 0.000000
vt 0.111868 -1.334943 0.000000
vt 0.000000 0.000000 0.000000
vt -1.663016 0.036828 0.000000
vt -1.291155 -1.144870 0.000000
vt 0.000000 0.000000 0.000000
vt 0.614750 1.589046 0.000000
vt -0.894463 0.997265 0.000000
vt 0.000000 0.000000 0.000000
vt 0.821161 1.386790 0.000000
vt 0.606318 1.592283 0.000000
vt 0.000000 0.000000 0.000000
vt 1.513152 0.581637 0.000000
vt 1.420944 0.816422 0.000000
vt 0.000000 0.000000 0.000000
vt 1.906390 0.104497 0.000000
vt 1.198323 1.241705 0.000000
vt 0.000000 0.000000 0.000000
vt 0.736134 -0.996387 0.000000
vt 1.905950 0.112240 0.000000
vt 0.000000 0.000000 0.000000
vn 0.000000 0.000000 0.100000
vn 0.000000 0.000000 0.100000
vn 0.000000 0.000000 0.100000
vn 0.000000 0.000000 0.100000
vn 0.000000 0.000000 0.100000
vn 0.000000 0.000000 0.100000
vn 0.000000 0.000000 0.100000
vn 0.000000 0.000000 0.100000
vn 0.000000 0.000000 0.100000
vn 0.000000 0.000000 0.100000
vn 0.000000 0.000000 0.100000
vn 0.000000 0.000000 0.100000
vn -0.005767 -0.030675 0.095004
vn -0.005767 -0.030675 0.095004
vn -0.005767 -0.030675 0.095004
vn -0.007783 -0.029175 0.095332
vn -0.007783 -0.029175 0.095332
vn -0.007783 -0.029175 0.095332
vn -0.014699 -0.078184 0.060591
vn -0.014699 -0.078184 0.060591
vn -0.014699 -0.078184 0.060591
vn -0.008953 -0.083121 0.054870
vn -0.008953 -0.083121 0.054870
vn -0.008953 -0.083121 0.054870
vn 0.013426 -0.028337 0.094957
vn 0.013426 -0.028337 0.094957
vn 0.013426 -0.028337 0.094957
vn 0.005266 -0.028762 0.095629
vn 0.005266 -0.028762 0.095629
vn 0.005266 -0.028762 0.095629
vn 0.032559 -0.068717 0.064945
vn 0.032559 -0.068717 0.064945
vn 0.032559 -0.068717 0.064945
vn 0.035880 -0.068626 0.063270
vn 0.035880 -0.068626 0.063270
vn 0.035880 -0.068626 0.063270
vn 0.060955 -0.050963 0.060723
vn 0.060955 -0.050963 0.060723
vn 0.060955 -0.050963 0.060723
vn 0.027537 -0.015043 0.094950
vn 0.027537 -0.015043 0.094950
vn 0.027537 -0.015043 0.094950
vn 0.019145 -0.021515 0.095763
vn 0.019145 -0.021515 0.095763
vn 0.019145 -0.021515 0.095763
vn 0.065713 -0.035899 0.066280
vn 0.065713 -0.035899 0.066280
vn 0.065713 -0.035899 0.066280
vn 0.084727 -0.009126 0.052326
vn 0.084727 -0.009126 0.052326
vn 0.084727 -0.009126 0.052326
vn 0.031099 0.004013 0.094957
vn 0.031099 0.004013 0.094957
vn 0.031099 0.004013 0.094957
vn 0.028448 -0.004485 0.095763
vn 0.028448 -0.004485 0.095763
vn 0.028448 -0.004485 0.095763
vn 0.075415 0.009731 0.064945
vn 0.075415 0.009731 0.064945
vn 0.075415 0.009731 0.064945
vn 0.065107 0.052444 0.054870
vn 0.065107 0.052444 0.054870
vn 0.065107 0.052444 0.054870
vn 0.057847 0.054612 0.060591
vn 0.057847 0.054612 0.060591
vn 0.057847 0.054612 0.060591
vn 0.022696 0.021426 0.095004
vn 0.022696 0.021426 0.095004
vn 0.022696 0.021426 0.095004
vn 0.020345 0.022312 0.095332
vn 0.020345 0.022312 0.095332
vn 0.020345 0.022312 0.095332
vn 0.027048 0.011110 0.095630
vn 0.027048 0.011110 0.095630
vn 0.027048 0.011110 0.095630
vn 0.005767 0.030675 0.095004
vn 0.005767 0.030675 0.095004
vn 0.005767 0.030675 0.095004
vn 0.007783 0.029175 0.095332
vn 0.007783 0.029175 0.095332
vn 0.007783 0.029175 0.095332
vn 0.013889 0.073875 0.065952
vn 0.013889 0.073875 0.065952
vn 0.013889 0.073875 0.065952
vn 0.023514 0.075044 0.061769
vn 0.023514 0.075044 0.061769
vn 0.023514 0.075044 0.061769
vn -0.007102 0.079543 0.060187
vn -0.007102 0.079543 0.060187
vn -0.007102 0.079543 0.060187
vn -0.013426 0.028337 0.094957
vn -0.013426 0.028337 0.094957
vn -0.013426 0.028337 0.094957
vn -0.005266 0.028762 0.095630
vn -0.005266 0.028762 0.095630
vn -0.005266 0.028762 0.095630
vn -0.032559 0.068717 0.064945
vn -0.032559 0.068717 0.064945
vn -0.032559 0.068717 0.064945
vn -0.053458 0.066364 0.052326
vn -0.053458 0.066364 0.052326
vn -0.053458 0.066364 0.052326
vn -0.027537 0.015044 0.094950
vn -0.027537 0.015044 0.094950
vn -0.027537 0.015044 0.094950
vn -0.019145 0.021515 0.095763
vn -0.019145 0.021515 0.095763
vn -0.019145 0.021515 0.095763
vn -0.065713 0.035900 0.066280
vn -0.065713 0.035900 0.066280
vn -0.065713 0.035900 0.066280
vn -0.084728 0.009127 0.052325
vn -0.084728 0.009127 0.052325
vn -0.084728 0.009127 0.052325
vn -0.031099 -0.004013 0.094957
vn -0.031099 -0.004013 0.094957
vn -0.031099 -0.004013 0.094957
vn -0.028448 0.004485 0.095763
vn -0.028448 0.004485 0.095763
vn -0.028448 0.004485 0.095763
vn -0.075415 -0.009731 0.064945
vn -0.075415 -0.009731 0.064945
vn -0.075415 -0.009731 0.064945
vn -0.070770 -0.037002 0.060187
vn -0.070770 -0.037002 0.060187
vn -0.070770 -0.037002 0.060187
vn -0.022696 -0.021427 0.095004
vn -0.022696 -0.021427 0.095004
vn -0.022696 -0.021427 0.095004
vn -0.020345 -0.022312 0.095332
vn -0.020345 -0.022312 0.095332
vn -0.020345 -0.022312 0.095332
vn -0.027048 -0.011108 0.095630
vn -0.027048 -0.011108 0.095630
vn -0.027048 -0.011108 0.095630
vn -0.054659 -0.051602 0.065952
vn -0.054659 -0.051602 0.065952
vn -0.054659 -0.051602 0.065952
vn -0.050443 -0.060333 0.061769
vn -0.050443 -0.060333 0.061769
vn -0.050443 -0.060333 0.061769
usemtl Aluminum_-_Satin
f 1/1/1 2/2/2 3/3/3
f 4/4/4 1/5/1 3/6/3
f 5/7/5 4/8/4 3/9/3
f 6/10/6 2/11/2 1/12/1
f 7/13/7 1/14/1 4/15/4
f 8/16/8 3/17/3 2/18/2
f 9/19/9 1/20/1 7/21/7
f 10/22/10 3/23/3 8/24/8
f 11/25/11 4/26/4 5/27/5
f 12/28/12 2/29/2 6/30/6
f 13/31/13 14/32/14 10/33/15
f 8/34/16 13/35/17 10/36/18
f 14/37/19 13/38/20 15/39/21
f 15/40/22 16/41/23 14/42/24
f 3/43/25 14/44/26 17/45/27
f 3/46/28 10/47/29 14/48/30
f 17/49/31 14/50/32 16/51/33
f 18/52/34 17/53/35 16/54/36
f 18/55/37 19/56/38 17/57/39
f 5/58/40 17/59/41 20/60/42
f 5/61/43 3/62/44 17/63/45
f 20/64/46 17/65/47 19/66/48
f 19/67/49 21/68/50 20/69/51
f 20/70/52 22/71/53 11/72/54
f 11/73/55 5/74/56 20/75/57
f 21/76/58 22/77/59 20/78/60
f 22/79/61 21/80/62 23/81/63
f 23/82/64 24/83/65 22/84/66
f 4/85/67 22/86/68 24/87/69
f 7/88/70 4/89/71 24/90/72
f 4/91/73 11/92/74 22/93/75
f 24/94/76 25/95/77 9/96/78
f 7/97/79 24/98/80 9/99/81
f 26/100/82 25/101/83 24/102/84
f 23/103/85 26/104/86 24/105/87
f 26/106/88 27/107/89 25/108/90
f 1/109/91 25/110/92 28/111/93
f 1/112/94 9/113/95 25/114/96
f 28/115/97 25/116/98 27/117/99
f 27/118/100 29/119/101 28/120/102
f 6/121/103 28/122/104 30/123/105
f 6/124/106 1/125/107 28/126/108
f 29/127/109 30/128/110 28/129/111
f 29/130/112 31/131/113 30/132/114
f 30/133/115 32/134/116 12/135/117
f 12/136/118 6/137/119 30/138/120
f 31/139/121 32/140/122 30/141/123
f 31/142/124 33/143/125 32/144/126
f 2/145/127 32/146/128 13/147/129
f 8/148/130 2/149/131 13/150/132
f 2/151/133 12/152/134 32/153/135
f 13/154/136 32/155/137 33/156/138
f 15/157/139 13/158/140 33/159/141

# 33 vertices
# 159 texture params
# 141 normals
# 53 facets

# 1 groups
