# WaveFront *.obj file (generated by Autodesk ATF)

mtllib 90c2c32d-7537-41c9-823d-7a5f469338c0.mtl

g 43_MRSHLDSRVT-Body

v 6.500065 4.832000 -223.893280
v 6.450672 4.832000 -224.964020
v 5.522993 4.832000 -224.427048
v 5.849327 4.832000 -223.863266
v 6.731577 4.832000 -224.648346
v 5.599623 4.832000 -224.714310
v 6.033268 4.832000 -225.029831
v 6.266733 4.832000 -223.797440
v 6.777008 4.832000 -224.400223
v 5.799934 4.832000 -224.933990
v 5.568422 4.832000 -224.178940
v 6.700377 4.832000 -224.112961
v 8.052206 4.358001 -223.374451
v 8.299732 4.358001 -224.691010
v 9.306740 3.100000 -224.073608
v 8.936325 3.100000 -222.891464
v 9.196569 3.100000 -225.307526
v 7.726133 4.358001 -225.901611
v 8.622587 3.100000 -226.405350
v 7.672176 3.100000 -227.199966
v 6.550505 4.358001 -226.543869
v 6.490026 3.100000 -227.570374
v 5.221897 4.358001 -226.372437
v 5.256111 3.100000 -227.460205
v 4.158283 3.100000 -226.886230
v 4.247793 4.358001 -225.452820
v 3.363675 3.100000 -225.935806
v 4.000267 4.358001 -224.136261
v 3.103430 3.100000 -223.519745
v 4.573866 4.358001 -222.925659
v 4.627825 3.100000 -221.627319
v 5.749495 4.358001 -222.283401
v 7.043888 3.100000 -221.367065
v 7.078102 4.358001 -222.454834
vt -0.053377 -0.097707 0.000000
vt 0.053697 -0.092768 0.000000
vt 0.000000 0.000000 0.000000
vt -0.056378 -0.032633 0.000000
vt -0.053377 -0.097707 0.000000
vt 0.000000 0.000000 0.000000
vt 0.075507 -0.023151 0.000000
vt 0.107074 0.004939 0.000000
vt 0.000000 0.000000 0.000000
vt -0.024971 0.085105 0.000000
vt -0.053697 0.092768 0.000000
vt 0.000000 0.000000 0.000000
vt 0.006581 0.041740 0.000000
vt -0.024971 0.085105 0.000000
vt 0.000000 0.000000 0.000000
vt -0.006583 -0.041741 0.000000
vt 0.003001 -0.065074 0.000000
vt 0.000000 0.000000 0.000000
vt 0.050694 -0.027694 0.000000
vt 0.075507 -0.023151 0.000000
vt 0.000000 0.000000 0.000000
vt -0.009584 0.023333 0.000000
vt -0.031552 0.043365 0.000000
vt 0.000000 0.000000 0.000000
vt -0.024811 -0.004543 0.000000
vt -0.056378 -0.032633 0.000000
vt 0.000000 0.000000 0.000000
vt 0.021968 -0.020031 0.000000
vt 0.050694 -0.027694 0.000000
vt 0.000000 0.000000 0.000000
vt -0.105261 -0.133979 0.000000
vt 0.026153 -0.159985 0.000000
vt 0.000000 0.000000 0.000000
vt -0.028631 0.008012 0.000000
vt -0.106094 -0.133320 0.000000
vt 0.000000 0.000000 0.000000
vt 0.042491 -0.186137 0.000000
vt 0.128830 -0.036726 0.000000
vt 0.000000 0.000000 0.000000
vt -0.089895 -0.133768 0.000000
vt 0.020584 -0.189812 0.000000
vt 0.000000 0.000000 0.000000
vt -0.046573 -0.166160 0.000000
vt 0.075969 -0.147981 0.000000
vt -0.000000 0.000000 0.000000
vt -0.130728 0.103706 0.000000
vt -0.119868 -0.059811 0.000000
vt -0.000000 0.000000 0.000000
vt -0.006866 0.163734 0.000000
vt -0.031641 0.158991 0.000000
vt -0.000000 0.000000 0.000000
vt -0.003271 0.202401 0.000000
vt -0.111493 0.123447 0.000000
vt -0.000000 0.000000 0.000000
vt 0.095496 0.078913 0.000000
vt -0.010379 0.202161 0.000000
vt -0.000000 0.000000 0.000000
vt 0.124675 -0.104191 0.000000
vt 0.180756 0.006271 0.000000
vt -0.000000 0.000000 0.000000
vt -0.164935 0.010098 0.000000
vt -0.061684 -0.118916 0.000000
vt -0.000000 0.000000 0.000000
vt -0.101232 0.130605 0.000000
vt -0.132187 0.101841 0.000000
vt -0.000000 0.000000 0.000000
vt -0.135163 0.120178 0.000000
vt -0.180772 -0.005781 0.000000
vt -0.000000 0.000000 0.000000
vt 0.139204 -0.115473 0.000000
vt 0.162359 0.006226 0.000000
vt -0.000000 0.000000 0.000000
vt 0.158637 -0.051765 0.000000
vt 0.142345 0.081202 0.000000
vt -0.000000 0.000000 0.000000
vt -0.158633 0.051776 0.000000
vt -0.164942 0.009993 0.000000
vt -0.000000 0.000000 0.000000
vt 0.155120 0.130057 0.000000
vt -0.011187 0.133494 0.000000
vt -0.000000 0.000000 0.000000
vt 0.162366 0.006062 0.000000
vt 0.155379 0.129747 0.000000
vt -0.000000 0.000000 0.000000
vt 0.166302 -0.003683 0.000000
vt 0.129116 0.114487 0.000000
vt -0.000000 0.000000 0.000000
vt -0.061477 -0.158905 0.000000
vt 0.089445 -0.099726 0.000000
vt -0.000000 0.000000 0.000000
vt -0.082118 -0.138679 0.000000
vt -0.060633 -0.159228 0.000000
vt -0.000000 0.000000 0.000000
vt -0.151315 -0.058164 0.000000
vt -0.142093 -0.081642 0.000000
vt -0.000000 0.000000 0.000000
vt -0.190639 -0.010450 0.000000
vt -0.119833 -0.124170 0.000000
vt -0.000000 0.000000 0.000000
vt -0.073615 0.099639 0.000000
vt -0.190595 -0.011224 0.000000
vt -0.000000 0.000000 0.000000
vt 0.105261 0.133979 0.000000
vt -0.026153 0.159985 0.000000
vt -0.000000 0.000000 0.000000
vt 0.028631 -0.008012 0.000000
vt 0.106094 0.133320 0.000000
vt -0.000000 0.000000 0.000000
vt 0.197865 0.114504 0.000000
vt -0.040587 0.161315 0.000000
vt -0.000000 0.000000 0.000000
vt -0.204541 -0.102103 0.000000
vt -0.076596 -0.141803 0.000000
vt -0.000000 0.000000 0.000000
vt 0.130730 -0.103706 0.000000
vt 0.119868 0.059811 0.000000
vt 0.000000 -0.000000 0.000000
vt 0.006868 -0.163734 0.000000
vt 0.031641 -0.158991 0.000000
vt 0.000000 -0.000000 0.000000
vt 0.003271 -0.202401 0.000000
vt 0.111493 -0.123447 0.000000
vt 0.000000 -0.000000 0.000000
vt -0.048345 0.196570 0.000000
vt -0.180720 -0.007213 0.000000
vt 0.000000 -0.000000 0.000000
vt 0.164937 -0.010098 0.000000
vt 0.061684 0.118916 0.000000
vt 0.000000 -0.000000 0.000000
vt 0.101234 -0.130605 0.000000
vt 0.132188 -0.101841 0.000000
vt 0.000000 -0.000000 0.000000
vt 0.135162 -0.120178 0.000000
vt 0.180771 0.005781 0.000000
vt 0.000000 -0.000000 0.000000
vt -0.141508 0.112637 0.000000
vt -0.155183 -0.129982 0.000000
vt 0.000000 -0.000000 0.000000
vt -0.158637 0.051766 0.000000
vt -0.142345 -0.081202 0.000000
vt 0.000000 0.000000 0.000000
vt 0.158633 -0.051776 0.000000
vt 0.164943 -0.009993 0.000000
vt 0.000000 -0.000000 0.000000
vt -0.155120 -0.130057 0.000000
vt 0.011187 -0.133494 0.000000
vt 0.000000 0.000000 0.000000
vt -0.166294 0.004018 0.000000
vt -0.068056 -0.218244 0.000000
vt 0.000000 0.000000 0.000000
vt 0.061477 0.158905 0.000000
vt -0.089445 0.099726 0.000000
vt 0.000000 0.000000 0.000000
vt 0.082118 0.138679 0.000000
vt 0.060633 0.159228 0.000000
vt 0.000000 0.000000 0.000000
vt 0.151315 0.058164 0.000000
vt 0.142093 0.081642 0.000000
vt 0.000000 0.000000 0.000000
vt -0.055290 -0.221822 0.000000
vt 0.066515 -0.116282 0.000000
vt 0.000000 0.000000 0.000000
vn -0.000000 0.100000 0.000000
vn -0.000000 0.100000 0.000000
vn -0.000000 0.100000 0.000000
vn -0.000000 0.100000 0.000000
vn -0.000000 0.100000 0.000000
vn -0.000000 0.100000 0.000000
vn -0.000000 0.100000 0.000000
vn -0.000000 0.100000 0.000000
vn -0.000000 0.100000 0.000000
vn -0.000000 0.100000 0.000000
vn -0.000000 0.100000 0.000000
vn -0.000000 0.100000 0.000000
vn 0.030675 0.095004 0.005767
vn 0.030675 0.095004 0.005767
vn 0.030675 0.095004 0.005767
vn 0.029175 0.095332 0.007783
vn 0.029175 0.095332 0.007783
vn 0.029175 0.095332 0.007783
vn 0.073875 0.065952 0.013889
vn 0.073875 0.065952 0.013889
vn 0.073875 0.065952 0.013889
vn 0.075044 0.061769 0.023515
vn 0.075044 0.061769 0.023515
vn 0.075044 0.061769 0.023515
vn 0.079543 0.060187 -0.007102
vn 0.079543 0.060187 -0.007102
vn 0.079543 0.060187 -0.007102
vn 0.028337 0.094957 -0.013426
vn 0.028337 0.094957 -0.013426
vn 0.028337 0.094957 -0.013426
vn 0.028762 0.095629 -0.005266
vn 0.028762 0.095629 -0.005266
vn 0.028762 0.095629 -0.005266
vn 0.068717 0.064945 -0.032559
vn 0.068717 0.064945 -0.032559
vn 0.068717 0.064945 -0.032559
vn 0.068626 0.063270 -0.035880
vn 0.068626 0.063270 -0.035880
vn 0.068626 0.063270 -0.035880
vn 0.050963 0.060724 -0.060954
vn 0.050963 0.060724 -0.060954
vn 0.050963 0.060724 -0.060954
vn 0.015044 0.094950 -0.027537
vn 0.015044 0.094950 -0.027537
vn 0.015044 0.094950 -0.027537
vn 0.021515 0.095763 -0.019145
vn 0.021515 0.095763 -0.019145
vn 0.021515 0.095763 -0.019145
vn 0.035899 0.066281 -0.065712
vn 0.035899 0.066281 -0.065712
vn 0.035899 0.066281 -0.065712
vn 0.023756 0.060724 -0.075818
vn 0.023756 0.060724 -0.075818
vn 0.023756 0.060724 -0.075818
vn -0.004013 0.094957 -0.031099
vn -0.004013 0.094957 -0.031099
vn -0.004013 0.094957 -0.031099
vn 0.004485 0.095763 -0.028448
vn 0.004485 0.095763 -0.028448
vn 0.004485 0.095763 -0.028448
vn -0.009731 0.064945 -0.075415
vn -0.009731 0.064945 -0.075415
vn -0.009731 0.064945 -0.075415
vn -0.006887 0.063270 -0.077133
vn -0.006887 0.063270 -0.077133
vn -0.006887 0.063270 -0.077133
vn -0.037001 0.060187 -0.070770
vn -0.037001 0.060187 -0.070770
vn -0.037001 0.060187 -0.070770
vn -0.021426 0.095004 -0.022696
vn -0.021426 0.095004 -0.022696
vn -0.021426 0.095004 -0.022696
vn -0.022312 0.095332 -0.020345
vn -0.022312 0.095332 -0.020345
vn -0.022312 0.095332 -0.020345
vn -0.011110 0.095630 -0.027048
vn -0.011110 0.095630 -0.027048
vn -0.011110 0.095630 -0.027048
vn -0.051602 0.065952 -0.054659
vn -0.051602 0.065952 -0.054659
vn -0.051602 0.065952 -0.054659
vn -0.060334 0.061769 -0.050442
vn -0.060334 0.061769 -0.050442
vn -0.060334 0.061769 -0.050442
vn -0.030675 0.095004 -0.005767
vn -0.030675 0.095004 -0.005767
vn -0.030675 0.095004 -0.005767
vn -0.029175 0.095332 -0.007783
vn -0.029175 0.095332 -0.007783
vn -0.029175 0.095332 -0.007783
vn -0.083121 0.054870 -0.008953
vn -0.083121 0.054870 -0.008953
vn -0.083121 0.054870 -0.008953
vn -0.078184 0.060591 -0.014699
vn -0.078184 0.060591 -0.014699
vn -0.078184 0.060591 -0.014699
vn -0.028337 0.094957 0.013426
vn -0.028337 0.094957 0.013426
vn -0.028337 0.094957 0.013426
vn -0.028762 0.095630 0.005266
vn -0.028762 0.095630 0.005266
vn -0.028762 0.095630 0.005266
vn -0.068717 0.064945 0.032559
vn -0.068717 0.064945 0.032559
vn -0.068717 0.064945 0.032559
vn -0.066364 0.052326 0.053458
vn -0.066364 0.052326 0.053458
vn -0.066364 0.052326 0.053458
vn -0.015044 0.094950 0.027537
vn -0.015044 0.094950 0.027537
vn -0.015044 0.094950 0.027537
vn -0.021515 0.095763 0.019145
vn -0.021515 0.095763 0.019145
vn -0.021515 0.095763 0.019145
vn -0.035900 0.066280 0.065713
vn -0.035900 0.066280 0.065713
vn -0.035900 0.066280 0.065713
vn -0.009127 0.052325 0.084728
vn -0.009127 0.052325 0.084728
vn -0.009127 0.052325 0.084728
vn 0.004013 0.094957 0.031099
vn 0.004013 0.094957 0.031099
vn 0.004013 0.094957 0.031099
vn -0.004486 0.095763 0.028448
vn -0.004486 0.095763 0.028448
vn -0.004486 0.095763 0.028448
vn 0.009731 0.064945 0.075415
vn 0.009731 0.064945 0.075415
vn 0.009731 0.064945 0.075415
vn 0.052445 0.054870 0.065106
vn 0.052445 0.054870 0.065106
vn 0.052445 0.054870 0.065106
vn 0.021426 0.095004 0.022696
vn 0.021426 0.095004 0.022696
vn 0.021426 0.095004 0.022696
vn 0.022312 0.095332 0.020345
vn 0.022312 0.095332 0.020345
vn 0.022312 0.095332 0.020345
vn 0.011110 0.095630 0.027048
vn 0.011110 0.095630 0.027048
vn 0.011110 0.095630 0.027048
vn 0.054612 0.060591 0.057848
vn 0.054612 0.060591 0.057848
vn 0.054612 0.060591 0.057848
usemtl Aluminum_-_Satin
f 1/1/1 2/2/2 3/3/3
f 4/4/4 1/5/1 3/6/3
f 5/7/5 2/8/2 1/9/1
f 6/10/6 3/11/3 2/12/2
f 7/13/7 6/14/6 2/15/2
f 8/16/8 1/17/1 4/18/4
f 9/19/9 5/20/5 1/21/1
f 10/22/10 6/23/6 7/24/7
f 11/25/11 4/26/4 3/27/3
f 12/28/12 9/29/9 1/30/1
f 13/31/13 14/32/14 9/33/15
f 12/34/16 13/35/17 9/36/18
f 15/37/19 14/38/20 13/39/21
f 16/40/22 15/41/23 13/42/24
f 15/43/25 17/44/26 14/45/27
f 5/46/28 14/47/29 18/48/30
f 5/49/31 9/50/32 14/51/33
f 18/52/34 14/53/35 17/54/36
f 19/55/37 18/56/38 17/57/39
f 19/58/40 20/59/41 18/60/42
f 2/61/43 18/62/44 21/63/45
f 2/64/46 5/65/47 18/66/48
f 21/67/49 18/68/50 20/69/51
f 20/70/52 22/71/53 21/72/54
f 21/73/55 23/74/56 7/75/57
f 7/76/58 2/77/59 21/78/60
f 24/79/61 23/80/62 21/81/63
f 22/82/64 24/83/65 21/84/66
f 24/85/67 25/86/68 23/87/69
f 10/88/70 23/89/71 26/90/72
f 6/91/73 10/92/74 26/93/75
f 10/94/76 7/95/77 23/96/78
f 26/97/79 23/98/80 25/99/81
f 27/100/82 26/101/83 25/102/84
f 26/103/85 28/104/86 3/105/87
f 6/106/88 26/107/89 3/108/90
f 27/109/91 29/110/92 28/111/93
f 28/112/94 26/113/95 27/114/96
f 11/115/97 28/116/98 30/117/99
f 11/118/100 3/119/101 28/120/102
f 30/121/103 28/122/104 29/123/105
f 29/124/106 31/125/107 30/126/108
f 4/127/109 30/128/110 32/129/111
f 4/130/112 11/131/113 30/132/114
f 32/133/115 30/134/116 31/135/117
f 31/136/118 33/137/119 32/138/120
f 32/139/121 34/140/122 8/141/123
f 8/142/124 4/143/125 32/144/126
f 33/145/127 34/146/128 32/147/129
f 33/148/130 16/149/131 34/150/132
f 1/151/133 34/152/134 13/153/135
f 12/154/136 1/155/137 13/156/138
f 1/157/139 8/158/140 34/159/141
f 16/160/142 13/161/143 34/162/144

# 34 vertices
# 162 texture params
# 144 normals
# 54 facets

# 1 groups
