# WaveFront *.obj file (generated by Autodesk ATF)

mtllib 85ef8480-757a-4774-b340-fc4874bc706e.mtl

g 1_PlexiglassCover001-Body

v 440.000000 -130.000000 260.000000
v 440.000000 -100.808643 258.019393
v 440.000000 -72.152353 252.113874
v 440.000000 -44.556388 242.391691
v 440.000000 -18.526573 229.031047
v 440.000000 5.459977 212.276837
v 440.000000 26.963596 192.436159
v 440.000000 45.590132 169.872687
v 440.000000 60.998168 145.000000
v 440.000000 60.998168 -40.000000
v 440.000000 66.998168 -40.000000
v 440.000000 66.998168 145.000000
v 440.000000 51.333983 170.970670
v 440.000000 32.267932 194.557277
v 440.000000 10.157697 215.317332
v 440.000000 -14.581929 232.861371
v 440.000000 -41.486824 246.860263
v 440.000000 -70.052246 257.051387
v 440.000000 -99.742303 263.243554
v 440.000000 -130.000000 265.320599
v -25.000000 66.998168 -40.000000
v -25.000000 60.998168 -40.000000
v -25.000000 -130.000000 265.320599
v -25.000000 66.998168 145.000000
v -25.000000 51.333983 170.970670
v -25.000000 32.267932 194.557277
v -25.000000 10.157697 215.317332
v -25.000000 -14.581929 232.861371
v -25.000000 -41.486824 246.860263
v -25.000000 -70.052246 257.051387
v -25.000000 -99.742303 263.243554
v -25.000000 -130.000000 260.000000
v -25.000000 60.998168 145.000000
v -25.000000 45.590132 169.872687
v -25.000000 26.963596 192.436159
v -25.000000 5.459977 212.276837
v -25.000000 -18.526573 229.031047
v -25.000000 -44.556388 242.391691
v -25.000000 -72.152353 252.113874
v -25.000000 -100.808643 258.019393
v 195.000000 66.998168 109.346893
v 192.411810 66.998168 109.006151
v 190.000000 66.998168 108.007147
v 187.928932 66.998168 106.417960
v 186.339746 66.998168 104.346893
v 185.340742 66.998168 101.935083
v 185.000000 66.998168 99.346893
v 185.340742 66.998168 96.758702
v 186.339746 66.998168 94.346893
v 187.928932 66.998168 92.275825
v 190.000000 66.998168 90.686639
v 192.411810 66.998168 89.687634
v 195.000000 66.998168 89.346893
v 305.000000 66.998168 89.346893
v 320.000000 66.998168 89.346893
v 322.588190 66.998168 89.687634
v 325.000000 66.998168 90.686639
v 327.071068 66.998168 92.275825
v 328.660254 66.998168 94.346893
v 329.659258 66.998168 96.758702
v 330.000000 66.998168 99.346893
v 329.659258 66.998168 101.935083
v 328.660254 66.998168 104.346893
v 327.071068 66.998168 106.417960
v 325.000000 66.998168 108.007147
v 322.588190 66.998168 109.006151
v 320.000000 66.998168 109.346893
v 305.000000 66.998168 109.346893
v 195.000000 60.998168 89.346893
v 192.411810 60.998168 89.687634
v 190.000000 60.998168 90.686639
v 187.928932 60.998168 92.275825
v 186.339746 60.998168 94.346893
v 185.340742 60.998168 96.758702
v 185.000000 60.998168 99.346893
v 185.340742 60.998168 101.935083
v 186.339746 60.998168 104.346893
v 187.928932 60.998168 106.417960
v 190.000000 60.998168 108.007147
v 192.411810 60.998168 109.006151
v 195.000000 60.998168 109.346893
v 305.000000 60.998168 109.346893
v 320.000000 60.998168 109.346893
v 322.588190 60.998168 109.006151
v 325.000000 60.998168 108.007147
v 327.071068 60.998168 106.417960
v 328.660254 60.998168 104.346893
v 329.659258 60.998168 101.935083
v 330.000000 60.998168 99.346893
v 329.659258 60.998168 96.758702
v 328.660254 60.998168 94.346893
v 327.071068 60.998168 92.275825
v 325.000000 60.998168 90.686639
v 322.588190 60.998168 89.687634
v 320.000000 60.998168 89.346893
v 305.000000 60.998168 89.346893
vt -31.373360 -19.100000 0.000000
vt -31.175300 -16.180864 0.000000
vt -31.905420 -19.100000 0.000000
vt -31.697716 -16.074230 0.000000
vt -30.584748 -13.315235 0.000000
vt -31.078499 -13.105225 0.000000
vt -29.612530 -10.555639 0.000000
vt -30.059387 -10.248682 0.000000
vt -28.276465 -7.952657 0.000000
vt -28.659498 -7.558193 0.000000
vt -26.601044 -5.554002 0.000000
vt -26.905094 -5.084230 0.000000
vt -24.616976 -3.403640 0.000000
vt -24.829088 -2.873207 0.000000
vt -22.360629 -1.540987 0.000000
vt -22.470427 -0.966602 0.000000
vt -19.873360 -0.000183 0.000000
vt -19.873360 0.599817 0.000000
vt -1.373360 -0.000183 0.000000
vt -1.373360 0.599817 0.000000
vt 2.500000 0.600000 0.000000
vt -44.000000 0.600000 0.000000
vt 2.500000 0.000000 0.000000
vt -44.000000 0.000000 0.000000
vt -23.250000 34.782237 0.000000
vt -23.250000 31.746971 0.000000
vt 23.250000 34.782237 0.000000
vt 23.250000 31.746971 0.000000
vt -23.250000 28.711705 0.000000
vt 23.250000 28.711705 0.000000
vt -23.250000 25.676439 0.000000
vt 23.250000 25.676439 0.000000
vt -23.250000 22.641173 0.000000
vt 23.250000 22.641173 0.000000
vt -23.250000 19.605907 0.000000
vt 23.250000 19.605907 0.000000
vt -23.250000 16.570641 0.000000
vt 23.250000 16.570641 0.000000
vt -23.250000 13.535375 0.000000
vt 23.250000 13.535375 0.000000
vt -23.250000 10.500109 0.000000
vt 23.250000 10.500109 0.000000
vt -0.532060 -2.500000 0.000000
vt -0.000000 -2.500000 0.000000
vt -0.532060 44.000000 0.000000
vt -0.000000 44.000000 0.000000
vt -4.000000 -3.900183 0.000000
vt 14.500000 -3.900183 0.000000
vt -4.000000 -3.300183 0.000000
vt 14.500000 -3.300183 0.000000
vt 17.097067 -4.866602 0.000000
vt 16.987269 -5.440987 0.000000
vt 19.455728 -6.773207 0.000000
vt 19.243616 -7.303640 0.000000
vt 21.531733 -8.984230 0.000000
vt 21.227684 -9.454002 0.000000
vt 23.286137 -11.458193 0.000000
vt 22.903105 -11.852657 0.000000
vt 24.686026 -14.148682 0.000000
vt 24.239169 -14.455639 0.000000
vt 25.705139 -17.005225 0.000000
vt 25.211387 -17.215235 0.000000
vt 26.324355 -19.974230 0.000000
vt 25.801939 -20.080864 0.000000
vt 26.532060 -23.000000 0.000000
vt 26.000000 -23.000000 0.000000
vt -23.250000 33.946479 0.000000
vt -23.250000 31.018393 0.000000
vt 23.250000 33.946479 0.000000
vt 23.250000 31.018393 0.000000
vt -23.250000 28.090307 0.000000
vt 23.250000 28.090307 0.000000
vt -23.250000 25.162221 0.000000
vt 23.250000 25.162221 0.000000
vt -23.250000 22.234134 0.000000
vt 23.250000 22.234134 0.000000
vt -23.250000 19.306048 0.000000
vt 23.250000 19.306048 0.000000
vt -23.250000 16.377962 0.000000
vt 23.250000 16.377962 0.000000
vt -23.250000 13.449875 0.000000
vt 23.250000 13.449875 0.000000
vt -23.250000 10.521789 0.000000
vt 23.250000 10.521789 0.000000
vt 18.500000 44.000000 0.000000
vt 14.934689 19.500000 0.000000
vt 18.500000 -2.500000 0.000000
vt 14.900615 19.241181 0.000000
vt 14.800715 19.000000 0.000000
vt -0.000000 44.000000 0.000000
vt 13.227582 32.707107 0.000000
vt 13.434689 32.866025 0.000000
vt 13.675870 32.965926 0.000000
vt -0.000000 -2.500000 0.000000
vt 12.934689 19.500000 0.000000
vt 12.934689 30.500000 0.000000
vt 12.934689 32.000000 0.000000
vt 13.227582 18.792893 0.000000
vt 13.068664 19.000000 0.000000
vt 12.968763 19.241181 0.000000
vt 14.641796 18.792893 0.000000
vt 14.434689 18.633975 0.000000
vt 14.193508 18.534074 0.000000
vt 13.934689 18.500000 0.000000
vt 13.675870 18.534074 0.000000
vt 13.434689 18.633975 0.000000
vt 12.968763 32.258819 0.000000
vt 13.068664 32.500000 0.000000
vt 13.934689 33.000000 0.000000
vt 14.193508 32.965926 0.000000
vt 14.434689 32.866025 0.000000
vt 14.641796 32.707107 0.000000
vt 14.800715 32.500000 0.000000
vt 14.900615 32.258819 0.000000
vt 14.934689 32.000000 0.000000
vt 14.934689 30.500000 0.000000
vt -18.500000 -2.500000 0.000000
vt -14.934689 19.500000 0.000000
vt -18.500000 44.000000 0.000000
vt -14.934689 30.500000 0.000000
vt -14.934689 32.000000 0.000000
vt -0.000000 -2.500000 0.000000
vt -13.227582 18.792893 0.000000
vt -13.434689 18.633975 0.000000
vt -13.675870 18.534074 0.000000
vt -0.000000 44.000000 0.000000
vt -12.934689 19.500000 0.000000
vt -12.968763 19.241181 0.000000
vt -13.068664 19.000000 0.000000
vt -13.227582 32.707107 0.000000
vt -13.068664 32.500000 0.000000
vt -12.968763 32.258819 0.000000
vt -13.934689 18.500000 0.000000
vt -14.193508 18.534074 0.000000
vt -14.434689 18.633975 0.000000
vt -14.641796 18.792893 0.000000
vt -14.800715 19.000000 0.000000
vt -14.900615 19.241181 0.000000
vt -14.900615 32.258819 0.000000
vt -14.800715 32.500000 0.000000
vt -14.641796 32.707107 0.000000
vt -14.434689 32.866025 0.000000
vt -14.193508 32.965926 0.000000
vt -13.934689 33.000000 0.000000
vt -13.675870 32.965926 0.000000
vt -13.434689 32.866025 0.000000
vt -12.934689 32.000000 0.000000
vt -12.934689 30.500000 0.000000
vt 11.000000 0.000000 0.000000
vt 0.000000 0.000000 0.000000
vt 11.000000 -0.600000 0.000000
vt 0.000000 -0.600000 0.000000
vt 1.000000 1.570796 0.000000
vt 0.400000 1.570796 0.000000
vt 1.000000 1.308997 0.000000
vt 0.400000 1.308997 0.000000
vt 1.000000 1.047198 0.000000
vt 0.400000 1.047198 0.000000
vt 1.000000 0.785398 0.000000
vt 0.400000 0.785398 0.000000
vt 1.000000 0.523599 0.000000
vt 0.400000 0.523599 0.000000
vt 1.000000 0.261799 0.000000
vt 0.400000 0.261799 0.000000
vt 1.000000 -0.000000 0.000000
vt 0.400000 0.000000 0.000000
vt 1.000000 -0.261799 0.000000
vt 0.400000 -0.261799 0.000000
vt 1.000000 -0.523599 0.000000
vt 0.400000 -0.523599 0.000000
vt 1.000000 -0.785398 0.000000
vt 0.400000 -0.785398 0.000000
vt 1.000000 -1.047198 0.000000
vt 0.400000 -1.047198 0.000000
vt 1.000000 -1.308997 0.000000
vt 0.400000 -1.308997 0.000000
vt 1.000000 -1.570796 0.000000
vt 0.400000 -1.570796 0.000000
vt 0.000000 0.000000 0.000000
vt -1.500000 0.000000 0.000000
vt 0.000000 -0.600000 0.000000
vt -1.500000 -0.600000 0.000000
vt -11.000000 -0.600000 0.000000
vt -0.000000 -0.600000 0.000000
vt -11.000000 0.000000 0.000000
vt -0.000000 0.000000 0.000000
vt 1.000000 -1.570796 0.000000
vt 0.400000 -1.570796 0.000000
vt 1.000000 -1.832596 0.000000
vt 0.400000 -1.832596 0.000000
vt 1.000000 -2.094395 0.000000
vt 0.400000 -2.094395 0.000000
vt 1.000000 -2.356194 0.000000
vt 0.400000 -2.356194 0.000000
vt 1.000000 -2.617994 0.000000
vt 0.400000 -2.617994 0.000000
vt 1.000000 -2.879793 0.000000
vt 0.400000 -2.879793 0.000000
vt 1.000000 -3.141593 0.000000
vt 0.400000 -3.141593 0.000000
vt 1.000000 3.141593 0.000000
vt 0.400000 3.141593 0.000000
vt 1.000000 2.879793 0.000000
vt 0.400000 2.879793 0.000000
vt 1.000000 2.617994 0.000000
vt 0.400000 2.617994 0.000000
vt 1.000000 2.356194 0.000000
vt 0.400000 2.356194 0.000000
vt 1.000000 2.094395 0.000000
vt 0.400000 2.094395 0.000000
vt 1.000000 1.832596 0.000000
vt 0.400000 1.832596 0.000000
vt 1.000000 1.570796 0.000000
vt 0.400000 1.570796 0.000000
vt -0.000000 -0.600000 0.000000
vt 1.500000 -0.600000 0.000000
vt -0.000000 0.000000 0.000000
vt 1.500000 0.000000 0.000000
vn 0.100000 0.000000 0.000000
vn 0.100000 0.000000 0.000000
vn 0.100000 0.000000 0.000000
vn 0.100000 0.000000 0.000000
vn 0.100000 0.000000 0.000000
vn 0.100000 0.000000 0.000000
vn 0.100000 0.000000 0.000000
vn 0.100000 0.000000 0.000000
vn 0.100000 0.000000 0.000000
vn 0.100000 0.000000 0.000000
vn 0.100000 0.000000 0.000000
vn 0.100000 0.000000 0.000000
vn 0.100000 0.000000 0.000000
vn 0.100000 0.000000 0.000000
vn 0.100000 0.000000 0.000000
vn 0.100000 0.000000 0.000000
vn 0.100000 0.000000 0.000000
vn 0.100000 0.000000 0.000000
vn 0.100000 0.000000 0.000000
vn 0.100000 0.000000 0.000000
vn 0.000000 0.000000 -0.100000
vn 0.000000 0.000000 -0.100000
vn 0.000000 0.000000 -0.100000
vn 0.000000 0.000000 -0.100000
vn 0.000000 0.000000 0.100000
vn 0.000000 0.013665 0.099062
vn 0.000000 0.000000 0.100000
vn 0.000000 0.013665 0.099062
vn 0.000000 0.027073 0.096266
vn 0.000000 0.027073 0.096266
vn 0.000000 0.039973 0.091663
vn 0.000000 0.039973 0.091663
vn 0.000000 0.052124 0.085341
vn 0.000000 0.052124 0.085341
vn 0.000000 0.063296 0.077418
vn 0.000000 0.063296 0.077418
vn 0.000000 0.073282 0.068043
vn 0.000000 0.073282 0.068043
vn 0.000000 0.081892 0.057391
vn 0.000000 0.081892 0.057391
vn 0.000000 0.088966 0.045662
vn 0.000000 0.088966 0.045662
vn 0.000000 -0.100000 0.000000
vn 0.000000 -0.100000 0.000000
vn 0.000000 -0.100000 0.000000
vn 0.000000 -0.100000 0.000000
vn -0.100000 0.000000 0.000000
vn -0.100000 0.000000 0.000000
vn -0.100000 0.000000 0.000000
vn -0.100000 0.000000 0.000000
vn -0.100000 0.000000 0.000000
vn -0.100000 0.000000 0.000000
vn -0.100000 0.000000 0.000000
vn -0.100000 0.000000 0.000000
vn -0.100000 0.000000 0.000000
vn -0.100000 0.000000 0.000000
vn -0.100000 0.000000 0.000000
vn -0.100000 0.000000 0.000000
vn -0.100000 0.000000 0.000000
vn -0.100000 0.000000 0.000000
vn -0.100000 0.000000 0.000000
vn -0.100000 0.000000 0.000000
vn -0.100000 0.000000 0.000000
vn -0.100000 0.000000 0.000000
vn -0.100000 0.000000 0.000000
vn -0.100000 0.000000 0.000000
vn 0.000000 -0.000000 -0.100000
vn 0.000000 -0.013508 -0.099084
vn 0.000000 0.000000 -0.100000
vn 0.000000 -0.013508 -0.099084
vn 0.000000 -0.026768 -0.096351
vn 0.000000 -0.026768 -0.096351
vn 0.000000 -0.039537 -0.091852
vn 0.000000 -0.039537 -0.091852
vn 0.000000 -0.051582 -0.085670
vn 0.000000 -0.051582 -0.085670
vn 0.000000 -0.062681 -0.077917
vn 0.000000 -0.062681 -0.077917
vn 0.000000 -0.072631 -0.068736
vn 0.000000 -0.072631 -0.068736
vn 0.000000 -0.081250 -0.058296
vn 0.000000 -0.081250 -0.058296
vn 0.000000 -0.088380 -0.046786
vn 0.000000 -0.088380 -0.046786
vn 0.000000 0.100000 0.000000
vn 0.000000 0.100000 0.000000
vn 0.000000 0.100000 0.000000
vn 0.000000 0.100000 0.000000
vn 0.000000 0.100000 0.000000
vn 0.000000 0.100000 0.000000
vn 0.000000 0.100000 0.000000
vn 0.000000 0.100000 0.000000
vn 0.000000 0.100000 0.000000
vn 0.000000 0.100000 0.000000
vn 0.000000 0.100000 0.000000
vn 0.000000 0.100000 0.000000
vn 0.000000 0.100000 0.000000
vn 0.000000 0.100000 0.000000
vn 0.000000 0.100000 0.000000
vn 0.000000 0.100000 0.000000
vn 0.000000 0.100000 0.000000
vn 0.000000 0.100000 0.000000
vn 0.000000 0.100000 0.000000
vn 0.000000 0.100000 0.000000
vn 0.000000 0.100000 0.000000
vn 0.000000 0.100000 0.000000
vn 0.000000 0.100000 0.000000
vn 0.000000 0.100000 0.000000
vn 0.000000 0.100000 0.000000
vn 0.000000 0.100000 0.000000
vn 0.000000 0.100000 0.000000
vn 0.000000 0.100000 0.000000
vn 0.000000 0.100000 0.000000
vn 0.000000 0.100000 0.000000
vn 0.000000 0.100000 0.000000
vn 0.000000 0.100000 0.000000
vn 0.000000 -0.100000 0.000000
vn 0.000000 -0.100000 0.000000
vn 0.000000 -0.100000 0.000000
vn 0.000000 -0.100000 0.000000
vn 0.000000 -0.100000 0.000000
vn 0.000000 -0.100000 0.000000
vn 0.000000 -0.100000 0.000000
vn 0.000000 -0.100000 0.000000
vn 0.000000 -0.100000 0.000000
vn 0.000000 -0.100000 0.000000
vn 0.000000 -0.100000 0.000000
vn 0.000000 -0.100000 0.000000
vn 0.000000 -0.100000 0.000000
vn 0.000000 -0.100000 0.000000
vn 0.000000 -0.100000 0.000000
vn 0.000000 -0.100000 0.000000
vn 0.000000 -0.100000 0.000000
vn 0.000000 -0.100000 0.000000
vn 0.000000 -0.100000 0.000000
vn 0.000000 -0.100000 0.000000
vn 0.000000 -0.100000 0.000000
vn 0.000000 -0.100000 0.000000
vn 0.000000 -0.100000 0.000000
vn 0.000000 -0.100000 0.000000
vn 0.000000 -0.100000 0.000000
vn 0.000000 -0.100000 0.000000
vn 0.000000 -0.100000 0.000000
vn 0.000000 -0.100000 0.000000
vn 0.000000 -0.100000 0.000000
vn 0.000000 -0.100000 0.000000
vn 0.000000 -0.100000 0.000000
vn 0.000000 -0.100000 0.000000
vn 0.000000 0.000000 -0.100000
vn 0.000000 0.000000 -0.100000
vn 0.000000 0.000000 -0.100000
vn 0.000000 0.000000 -0.100000
vn 0.025882 0.000000 -0.096593
vn 0.025882 0.000000 -0.096593
vn 0.050000 0.000000 -0.086603
vn 0.050000 0.000000 -0.086603
vn 0.070711 0.000000 -0.070711
vn 0.070711 0.000000 -0.070711
vn 0.086603 0.000000 -0.050000
vn 0.086603 0.000000 -0.050000
vn 0.096593 0.000000 -0.025882
vn 0.096593 0.000000 -0.025882
vn 0.100000 -0.000000 0.000000
vn 0.100000 0.000000 -0.000000
vn 0.096593 -0.000000 0.025882
vn 0.096593 -0.000000 0.025882
vn 0.086603 -0.000000 0.050000
vn 0.086603 -0.000000 0.050000
vn 0.070711 -0.000000 0.070711
vn 0.070711 -0.000000 0.070711
vn 0.050000 -0.000000 0.086603
vn 0.050000 -0.000000 0.086603
vn 0.025882 -0.000000 0.096593
vn 0.025882 -0.000000 0.096593
vn 0.000000 -0.000000 0.100000
vn 0.000000 -0.000000 0.100000
vn 0.000000 0.000000 -0.100000
vn 0.000000 0.000000 -0.100000
vn 0.000000 0.000000 0.100000
vn 0.000000 0.000000 0.100000
vn 0.000000 -0.000000 0.100000
vn 0.000000 -0.000000 0.100000
vn -0.025882 0.000000 0.096593
vn -0.025882 0.000000 0.096593
vn -0.050000 0.000000 0.086603
vn -0.050000 0.000000 0.086603
vn -0.070711 0.000000 0.070711
vn -0.070711 0.000000 0.070711
vn -0.086603 0.000000 0.050000
vn -0.086603 0.000000 0.050000
vn -0.096593 0.000000 0.025882
vn -0.096593 0.000000 0.025882
vn -0.100000 0.000000 0.000000
vn -0.100000 0.000000 0.000000
vn -0.096593 0.000000 -0.025882
vn -0.096593 0.000000 -0.025882
vn -0.086603 0.000000 -0.050000
vn -0.086603 0.000000 -0.050000
vn -0.070711 0.000000 -0.070711
vn -0.070711 0.000000 -0.070711
vn -0.050000 0.000000 -0.086603
vn -0.050000 0.000000 -0.086603
vn -0.025882 0.000000 -0.096593
vn -0.025882 0.000000 -0.096593
usemtl Polycarbonate_(Clear)
f 1/1/1 2/2/2 20/3/3
f 20/3/3 2/2/2 19/4/4
f 19/4/4 2/2/2 3/5/5
f 19/4/4 3/5/5 18/6/6
f 18/6/6 3/5/5 4/7/7
f 18/6/6 4/7/7 17/8/8
f 17/8/8 4/7/7 5/9/9
f 17/8/8 5/9/9 16/10/10
f 16/10/10 5/9/9 6/11/11
f 16/10/10 6/11/11 15/12/12
f 15/12/12 6/11/11 7/13/13
f 15/12/12 7/13/13 14/14/14
f 14/14/14 7/13/13 8/15/15
f 14/14/14 8/15/15 13/16/16
f 13/16/16 8/15/15 9/17/17
f 13/16/16 9/17/17 12/18/18
f 12/18/18 9/17/17 10/19/19
f 12/18/18 10/19/19 11/20/20
f 21/21/21 11/22/22 22/23/23
f 22/23/23 11/22/22 10/24/24
f 20/25/25 19/26/26 23/27/27
f 23/27/27 19/26/26 31/28/28
f 31/28/28 19/26/26 18/29/29
f 31/28/28 18/29/29 30/30/30
f 30/30/30 18/29/29 17/31/31
f 30/30/30 17/31/31 29/32/32
f 29/32/32 17/31/31 16/33/33
f 29/32/32 16/33/33 28/34/34
f 28/34/34 16/33/33 15/35/35
f 28/34/34 15/35/35 27/36/36
f 27/36/36 15/35/35 14/37/37
f 27/36/36 14/37/37 26/38/38
f 26/38/38 14/37/37 13/39/39
f 26/38/38 13/39/39 25/40/40
f 25/40/40 13/39/39 12/41/41
f 25/40/40 12/41/41 24/42/42
f 23/43/43 32/44/44 20/45/45
f 20/45/45 32/44/44 1/46/46
f 22/47/47 33/48/48 21/49/49
f 21/49/49 33/48/48 24/50/50
f 24/50/50 33/48/48 25/51/51
f 25/51/51 33/48/48 34/52/52
f 25/51/51 34/52/52 26/53/53
f 26/53/53 34/52/52 35/54/54
f 26/53/53 35/54/54 27/55/55
f 27/55/55 35/54/54 36/56/56
f 27/55/55 36/56/56 28/57/57
f 28/57/57 36/56/56 37/58/58
f 28/57/57 37/58/58 29/59/59
f 29/59/59 37/58/58 38/60/60
f 29/59/59 38/60/60 30/61/61
f 30/61/61 38/60/60 39/62/62
f 30/61/61 39/62/62 31/63/63
f 31/63/63 39/62/62 40/64/64
f 31/63/63 40/64/64 23/65/65
f 23/65/65 40/64/64 32/66/66
f 32/67/67 40/68/68 1/69/69
f 1/69/69 40/68/68 2/70/70
f 2/70/70 40/68/68 39/71/71
f 2/70/70 39/71/71 3/72/72
f 3/72/72 39/71/71 38/73/73
f 3/72/72 38/73/73 4/74/74
f 4/74/74 38/73/73 37/75/75
f 4/74/74 37/75/75 5/76/76
f 5/76/76 37/75/75 36/77/77
f 5/76/76 36/77/77 6/78/78
f 6/78/78 36/77/77 35/79/79
f 6/78/78 35/79/79 7/80/80
f 7/80/80 35/79/79 34/81/81
f 7/80/80 34/81/81 8/82/82
f 8/82/82 34/81/81 33/83/83
f 8/82/82 33/83/83 9/84/84
f 12/85/85 41/86/86 24/87/87
f 24/87/87 41/86/86 42/88/88
f 24/87/87 42/88/88 43/89/89
f 11/90/90 58/91/91 12/85/85
f 12/85/85 58/91/91 59/92/92
f 12/85/85 59/92/92 60/93/93
f 21/94/94 53/95/95 11/90/90
f 11/90/90 53/95/95 54/96/96
f 11/90/90 54/96/96 55/97/97
f 24/87/87 50/98/98 21/94/94
f 21/94/94 50/98/98 51/99/99
f 21/94/94 51/99/99 52/100/100
f 43/89/89 44/101/101 24/87/87
f 24/87/87 44/101/101 45/102/102
f 24/87/87 45/102/102 46/103/103
f 46/103/103 47/104/104 24/87/87
f 24/87/87 47/104/104 48/105/105
f 24/87/87 48/105/105 49/106/106
f 49/106/106 50/98/98 24/87/87
f 52/100/100 53/95/95 21/94/94
f 55/97/97 56/107/107 11/90/90
f 11/90/90 56/107/107 57/108/108
f 11/90/90 57/108/108 58/91/91
f 60/93/93 61/109/109 12/85/85
f 12/85/85 61/109/109 62/110/110
f 12/85/85 62/110/110 63/111/111
f 63/111/111 64/112/112 12/85/85
f 12/85/85 64/112/112 65/113/113
f 12/85/85 65/113/113 66/114/114
f 66/114/114 67/115/115 12/85/85
f 12/85/85 67/115/115 68/116/116
f 12/85/85 68/116/116 41/86/86
f 33/117/117 81/118/118 9/119/119
f 9/119/119 81/118/118 82/120/120
f 9/119/119 82/120/120 83/121/121
f 22/122/122 72/123/123 33/117/117
f 33/117/117 72/123/123 73/124/124
f 33/117/117 73/124/124 74/125/125
f 10/126/126 69/127/127 22/122/122
f 22/122/122 69/127/127 70/128/128
f 22/122/122 70/128/128 71/129/129
f 9/119/119 92/130/130 10/126/126
f 10/126/126 92/130/130 93/131/131
f 10/126/126 93/131/131 94/132/132
f 71/129/129 72/123/123 22/122/122
f 74/125/125 75/133/133 33/117/117
f 33/117/117 75/133/133 76/134/134
f 33/117/117 76/134/134 77/135/135
f 77/135/135 78/136/136 33/117/117
f 33/117/117 78/136/136 79/137/137
f 33/117/117 79/137/137 80/138/138
f 80/138/138 81/118/118 33/117/117
f 83/121/121 84/139/139 9/119/119
f 9/119/119 84/139/139 85/140/140
f 9/119/119 85/140/140 86/141/141
f 86/141/141 87/142/142 9/119/119
f 9/119/119 87/142/142 88/143/143
f 9/119/119 88/143/143 89/144/144
f 89/144/144 90/145/145 9/119/119
f 9/119/119 90/145/145 91/146/146
f 9/119/119 91/146/146 92/130/130
f 94/132/132 95/147/147 10/126/126
f 10/126/126 95/147/147 96/148/148
f 10/126/126 96/148/148 69/127/127
f 41/149/149 68/150/150 81/151/151
f 81/151/151 68/150/150 82/152/152
f 41/153/149 81/154/151 42/155/153
f 42/155/153 81/154/151 80/156/154
f 42/155/153 80/156/154 43/157/155
f 43/157/155 80/156/154 79/158/156
f 43/157/155 79/158/156 44/159/157
f 44/159/157 79/158/156 78/160/158
f 44/159/157 78/160/158 45/161/159
f 45/161/159 78/160/158 77/162/160
f 45/161/159 77/162/160 46/163/161
f 46/163/161 77/162/160 76/164/162
f 46/163/161 76/164/162 47/165/163
f 47/165/163 76/164/162 75/166/164
f 47/165/163 75/166/164 48/167/165
f 48/167/165 75/166/164 74/168/166
f 48/167/165 74/168/166 49/169/167
f 49/169/167 74/168/166 73/170/168
f 49/169/167 73/170/168 50/171/169
f 50/171/169 73/170/168 72/172/170
f 50/171/169 72/172/170 51/173/171
f 51/173/171 72/172/170 71/174/172
f 51/173/171 71/174/172 52/175/173
f 52/175/173 71/174/172 70/176/174
f 52/175/173 70/176/174 53/177/175
f 53/177/175 70/176/174 69/178/176
f 68/179/150 67/180/177 82/181/152
f 82/181/152 67/180/177 83/182/178
f 69/183/176 96/184/179 53/185/175
f 53/185/175 96/184/179 54/186/180
f 55/187/181 95/188/182 56/189/183
f 56/189/183 95/188/182 94/190/184
f 56/189/183 94/190/184 57/191/185
f 57/191/185 94/190/184 93/192/186
f 57/191/185 93/192/186 58/193/187
f 58/193/187 93/192/186 92/194/188
f 58/193/187 92/194/188 59/195/189
f 59/195/189 92/194/188 91/196/190
f 59/195/189 91/196/190 60/197/191
f 60/197/191 91/196/190 90/198/192
f 60/197/191 90/198/192 61/199/193
f 61/199/193 90/198/192 89/200/194
f 61/201/193 89/202/194 62/203/195
f 62/203/195 89/202/194 88/204/196
f 62/203/195 88/204/196 63/205/197
f 63/205/197 88/204/196 87/206/198
f 63/205/197 87/206/198 64/207/199
f 64/207/199 87/206/198 86/208/200
f 64/207/199 86/208/200 65/209/201
f 65/209/201 86/208/200 85/210/202
f 65/209/201 85/210/202 66/211/203
f 66/211/203 85/210/202 84/212/204
f 66/211/203 84/212/204 67/213/177
f 67/213/177 84/212/204 83/214/178
f 96/215/179 95/216/182 54/217/180
f 54/217/180 95/216/182 55/218/181

# 96 vertices
# 218 texture params
# 204 normals
# 192 facets

# 1 groups
