# WaveFront *.obj file (generated by Autodesk ATF)

mtllib 5426103b-b976-4685-b3c0-5f0d9a535bf6.mtl

g 33_MRSHLDSRVT-Body

v 635.678062 -58.493271 48.319998
v 638.175087 -67.003765 48.319998
v 646.685562 -64.506721 48.319998
v 644.188538 -55.996227 48.319998
v 635.019913 -62.667332 48.319998
v 647.343750 -60.332680 48.319998
v 635.978241 -65.000648 48.319998
v 646.385422 -57.999344 48.319998
v 641.315994 -55.229931 48.319998
v 641.047668 -67.770081 48.319998
v 643.528824 -67.315769 48.319998
v 638.834801 -55.684223 48.319998
v 630.790024 -80.522060 43.580008
v 643.955536 -82.997322 43.580008
v 625.960045 -89.363251 30.999999
v 650.120697 -91.965694 30.999999
v 656.061630 -77.261333 43.580008
v 661.099014 -86.225872 30.999999
v 669.045029 -76.721764 30.999999
v 662.484131 -65.505047 43.580008
v 672.749252 -64.900265 30.999999
v 660.769882 -52.218971 43.580008
v 671.647491 -52.561111 30.999999
v 665.907669 -41.582832 30.999999
v 651.573639 -42.477932 43.580008
v 656.403580 -33.636751 30.999999
v 638.408089 -40.002670 43.580008
v 632.242928 -31.034298 30.999999
v 626.301994 -45.738659 43.580008
v 621.264648 -36.774120 30.999999
v 613.318558 -46.278248 30.999999
v 619.879494 -57.494946 43.580008
v 610.716133 -70.438881 30.999999
v 621.593781 -70.781021 43.580008
v 616.455956 -81.417160 30.999999
vt -1.100750 0.601345 0.000000
vt -0.851048 -0.249704 0.000000
vt 0.000000 0.000000 0.000000
vt -0.249702 0.851049 0.000000
vt -1.100750 0.601345 0.000000
vt 0.000000 0.000000 0.000000
vt -0.065815 -0.417406 0.000000
vt 0.249702 -0.851049 0.000000
vt 0.000000 0.000000 0.000000
vt 0.065819 0.417404 0.000000
vt -0.249702 0.851049 0.000000
vt 0.000000 0.000000 0.000000
vt 0.095833 -0.233332 0.000000
vt 0.315517 -0.433643 0.000000
vt 0.000000 0.000000 0.000000
vt -0.095833 0.233334 0.000000
vt -0.315521 0.433645 0.000000
vt 0.000000 0.000000 0.000000
vt -0.287254 0.076630 0.000000
vt -0.851048 -0.249704 0.000000
vt 0.000000 0.000000 0.000000
vt 0.287258 -0.076632 0.000000
vt 0.851048 0.249704 0.000000
vt 0.000000 0.000000 0.000000
vt 0.248116 0.045431 0.000000
vt 0.563789 0.326336 0.000000
vt 0.000000 0.000000 0.000000
vt -0.248119 -0.045429 0.000000
vt -0.563793 -0.326334 0.000000
vt 0.000000 0.000000 0.000000
vt -1.052601 -1.339787 0.000000
vt 0.261532 -1.599851 0.000000
vt 0.000000 0.000000 0.000000
vt -0.286306 0.080117 0.000000
vt -1.060932 -1.333199 0.000000
vt 0.000000 0.000000 0.000000
vt 2.045410 1.021025 0.000000
vt 0.765971 1.418030 0.000000
vt 0.000000 0.000000 0.000000
vt -1.978654 -1.145043 0.000000
vt 0.405875 -1.613146 0.000000
vt 0.000000 0.000000 0.000000
vt -1.307298 1.037064 0.000000
vt -1.198687 -0.598115 0.000000
vt 0.000000 0.000000 0.000000
vt -0.068671 1.637343 0.000000
vt -0.316411 1.589907 0.000000
vt 0.000000 0.000000 0.000000
vt -0.032699 2.024012 0.000000
vt -1.114925 1.234470 0.000000
vt 0.000000 0.000000 0.000000
vt 0.954965 0.789134 0.000000
vt -0.103779 2.021614 0.000000
vt 0.000000 0.000000 0.000000
vt 1.246749 -1.041904 0.000000
vt 1.807548 0.062712 0.000000
vt 0.000000 0.000000 0.000000
vt -1.649361 0.100982 0.000000
vt -0.616833 -1.189161 0.000000
vt 0.000000 0.000000 0.000000
vt -1.012336 1.306047 0.000000
vt -1.321885 1.018406 0.000000
vt 0.000000 0.000000 0.000000
vt -1.351624 1.201781 0.000000
vt -1.807712 -0.057811 0.000000
vt 0.000000 0.000000 0.000000
vt 1.392036 -1.154731 0.000000
vt 1.623599 0.062261 0.000000
vt 0.000000 0.000000 0.000000
vt 1.586365 -0.517654 0.000000
vt 1.423455 0.812025 0.000000
vt 0.000000 0.000000 0.000000
vt -1.586331 0.517758 0.000000
vt -1.649425 0.099933 0.000000
vt 0.000000 0.000000 0.000000
vt 1.551200 1.300565 0.000000
vt -0.111863 1.334942 0.000000
vt 0.000000 0.000000 0.000000
vt 1.623661 0.060622 0.000000
vt 1.553787 1.297474 0.000000
vt 0.000000 0.000000 0.000000
vt 1.663011 -0.036828 0.000000
vt 1.291157 1.144869 0.000000
vt 0.000000 0.000000 0.000000
vt -0.614758 -1.589046 0.000000
vt 0.894455 -0.997265 0.000000
vt 0.000000 0.000000 0.000000
vt -0.821174 -1.386791 0.000000
vt -0.606323 -1.592283 0.000000
vt 0.000000 0.000000 0.000000
vt -1.513151 -0.581637 0.000000
vt -1.420936 -0.816424 0.000000
vt 0.000000 0.000000 0.000000
vt -1.906385 -0.104497 0.000000
vt -1.198324 -1.241704 0.000000
vt 0.000000 0.000000 0.000000
vt -0.736133 0.996387 0.000000
vt -1.905945 -0.112240 0.000000
vt 0.000000 0.000000 0.000000
vt 1.052600 1.339789 0.000000
vt -0.261535 1.599853 0.000000
vt 0.000000 0.000000 0.000000
vt 0.286302 -0.080115 0.000000
vt 1.060932 1.333201 0.000000
vt 0.000000 0.000000 0.000000
vt -2.045410 -1.021025 0.000000
vt -0.765967 -1.418030 0.000000
vt 0.000000 0.000000 0.000000
vt 1.978654 1.145042 0.000000
vt -0.405874 1.613146 0.000000
vt 0.000000 0.000000 0.000000
vt 1.307298 -1.037064 0.000000
vt 1.198687 0.598115 0.000000
vt 0.000000 0.000000 0.000000
vt 0.068670 -1.637343 0.000000
vt 0.316414 -1.589909 0.000000
vt 0.000000 0.000000 0.000000
vt 0.032699 -2.024012 0.000000
vt 1.114925 -1.234470 0.000000
vt 0.000000 0.000000 0.000000
vt -0.954961 -0.789134 0.000000
vt 0.103782 -2.021614 0.000000
vt 0.000000 0.000000 0.000000
vt -1.246746 1.041906 0.000000
vt -1.807551 -0.062714 0.000000
vt 0.000000 0.000000 0.000000
vt 1.649361 -0.100982 0.000000
vt 0.616833 1.189161 0.000000
vt 0.000000 0.000000 0.000000
vt 1.012336 -1.306047 0.000000
vt 1.321885 -1.018406 0.000000
vt 0.000000 0.000000 0.000000
vt 1.351627 -1.201779 0.000000
vt 1.807714 0.057813 0.000000
vt 0.000000 0.000000 0.000000
vt -1.415082 1.126370 0.000000
vt -1.551827 -1.299818 0.000000
vt 0.000000 0.000000 0.000000
vt -1.586369 0.517656 0.000000
vt -1.423455 -0.812023 0.000000
vt 0.000000 0.000000 0.000000
vt 1.586335 -0.517760 0.000000
vt 1.649425 -0.099933 0.000000
vt 0.000000 0.000000 0.000000
vt -1.551200 -1.300566 0.000000
vt 0.111865 -1.334943 0.000000
vt 0.000000 0.000000 0.000000
vt -1.663013 0.036828 0.000000
vt -1.291158 -1.144868 0.000000
vt 0.000000 0.000000 0.000000
vt 0.614758 1.589046 0.000000
vt -0.894455 0.997265 0.000000
vt 0.000000 0.000000 0.000000
vt 0.821171 1.386791 0.000000
vt 0.606324 1.592283 0.000000
vt 0.000000 0.000000 0.000000
vt 1.513151 0.581637 0.000000
vt 1.420936 0.816422 0.000000
vt 0.000000 0.000000 0.000000
vt 1.906388 0.104497 0.000000
vt 1.198327 1.241703 0.000000
vt 0.000000 0.000000 0.000000
vt 0.736133 -0.996388 0.000000
vt 1.905947 0.112240 0.000000
vt 0.000000 0.000000 0.000000
vn 0.000000 0.000000 0.100000
vn 0.000000 0.000000 0.100000
vn 0.000000 0.000000 0.100000
vn 0.000000 0.000000 0.100000
vn 0.000000 0.000000 0.100000
vn 0.000000 0.000000 0.100000
vn 0.000000 0.000000 0.100000
vn 0.000000 0.000000 0.100000
vn 0.000000 0.000000 0.100000
vn 0.000000 0.000000 0.100000
vn 0.000000 0.000000 0.100000
vn 0.000000 0.000000 0.100000
vn -0.005767 -0.030675 0.095004
vn -0.005767 -0.030675 0.095004
vn -0.005767 -0.030675 0.095004
vn -0.007783 -0.029175 0.095332
vn -0.007783 -0.029175 0.095332
vn -0.007783 -0.029175 0.095332
vn -0.014699 -0.078184 0.060591
vn -0.014699 -0.078184 0.060591
vn -0.014699 -0.078184 0.060591
vn -0.008953 -0.083121 0.054870
vn -0.008953 -0.083121 0.054870
vn -0.008953 -0.083121 0.054870
vn 0.013426 -0.028337 0.094957
vn 0.013426 -0.028337 0.094957
vn 0.013426 -0.028337 0.094957
vn 0.005266 -0.028762 0.095629
vn 0.005266 -0.028762 0.095629
vn 0.005266 -0.028762 0.095629
vn 0.032559 -0.068717 0.064945
vn 0.032559 -0.068717 0.064945
vn 0.032559 -0.068717 0.064945
vn 0.035880 -0.068626 0.063270
vn 0.035880 -0.068626 0.063270
vn 0.035880 -0.068626 0.063270
vn 0.060955 -0.050962 0.060724
vn 0.060955 -0.050962 0.060724
vn 0.060955 -0.050962 0.060724
vn 0.027537 -0.015043 0.094950
vn 0.027537 -0.015043 0.094950
vn 0.027537 -0.015043 0.094950
vn 0.019145 -0.021515 0.095763
vn 0.019145 -0.021515 0.095763
vn 0.019145 -0.021515 0.095763
vn 0.065713 -0.035899 0.066280
vn 0.065713 -0.035899 0.066280
vn 0.065713 -0.035899 0.066280
vn 0.075817 -0.023757 0.060724
vn 0.075817 -0.023757 0.060724
vn 0.075817 -0.023757 0.060724
vn 0.031099 0.004013 0.094957
vn 0.031099 0.004013 0.094957
vn 0.031099 0.004013 0.094957
vn 0.028448 -0.004486 0.095763
vn 0.028448 -0.004486 0.095763
vn 0.028448 -0.004486 0.095763
vn 0.075415 0.009731 0.064945
vn 0.075415 0.009731 0.064945
vn 0.075415 0.009731 0.064945
vn 0.077133 0.006887 0.063270
vn 0.077133 0.006887 0.063270
vn 0.077133 0.006887 0.063270
vn 0.070770 0.037001 0.060187
vn 0.070770 0.037001 0.060187
vn 0.070770 0.037001 0.060187
vn 0.022696 0.021426 0.095004
vn 0.022696 0.021426 0.095004
vn 0.022696 0.021426 0.095004
vn 0.020345 0.022313 0.095332
vn 0.020345 0.022313 0.095332
vn 0.020345 0.022313 0.095332
vn 0.027048 0.011109 0.095630
vn 0.027048 0.011109 0.095630
vn 0.027048 0.011109 0.095630
vn 0.054659 0.051602 0.065952
vn 0.054659 0.051602 0.065952
vn 0.054659 0.051602 0.065952
vn 0.050443 0.060333 0.061769
vn 0.050443 0.060333 0.061769
vn 0.050443 0.060333 0.061769
vn 0.005767 0.030675 0.095004
vn 0.005767 0.030675 0.095004
vn 0.005767 0.030675 0.095004
vn 0.007783 0.029175 0.095332
vn 0.007783 0.029175 0.095332
vn 0.007783 0.029175 0.095332
vn 0.014699 0.078184 0.060591
vn 0.014699 0.078184 0.060591
vn 0.014699 0.078184 0.060591
vn 0.008953 0.083121 0.054870
vn 0.008953 0.083121 0.054870
vn 0.008953 0.083121 0.054870
vn -0.013426 0.028337 0.094957
vn -0.013426 0.028337 0.094957
vn -0.013426 0.028337 0.094957
vn -0.005266 0.028762 0.095630
vn -0.005266 0.028762 0.095630
vn -0.005266 0.028762 0.095630
vn -0.032559 0.068717 0.064945
vn -0.032559 0.068717 0.064945
vn -0.032559 0.068717 0.064945
vn -0.035880 0.068626 0.063270
vn -0.035880 0.068626 0.063270
vn -0.035880 0.068626 0.063270
vn -0.060955 0.050962 0.060724
vn -0.060955 0.050962 0.060724
vn -0.060955 0.050962 0.060724
vn -0.027537 0.015043 0.094950
vn -0.027537 0.015043 0.094950
vn -0.027537 0.015043 0.094950
vn -0.019145 0.021515 0.095763
vn -0.019145 0.021515 0.095763
vn -0.019145 0.021515 0.095763
vn -0.065713 0.035899 0.066280
vn -0.065713 0.035899 0.066280
vn -0.065713 0.035899 0.066280
vn -0.084727 0.009126 0.052326
vn -0.084727 0.009126 0.052326
vn -0.084727 0.009126 0.052326
vn -0.031099 -0.004013 0.094957
vn -0.031099 -0.004013 0.094957
vn -0.031099 -0.004013 0.094957
vn -0.028448 0.004486 0.095763
vn -0.028448 0.004486 0.095763
vn -0.028448 0.004486 0.095763
vn -0.075415 -0.009731 0.064945
vn -0.075415 -0.009731 0.064945
vn -0.075415 -0.009731 0.064945
vn -0.070770 -0.037001 0.060187
vn -0.070770 -0.037001 0.060187
vn -0.070770 -0.037001 0.060187
vn -0.022696 -0.021426 0.095004
vn -0.022696 -0.021426 0.095004
vn -0.022696 -0.021426 0.095004
vn -0.020345 -0.022312 0.095332
vn -0.020345 -0.022312 0.095332
vn -0.020345 -0.022312 0.095332
vn -0.027048 -0.011109 0.095630
vn -0.027048 -0.011109 0.095630
vn -0.027048 -0.011109 0.095630
vn -0.054659 -0.051602 0.065952
vn -0.054659 -0.051602 0.065952
vn -0.054659 -0.051602 0.065952
vn -0.050443 -0.060333 0.061769
vn -0.050443 -0.060333 0.061769
vn -0.050443 -0.060333 0.061769
usemtl Aluminum_-_Satin
f 1/1/1 2/2/2 3/3/3
f 4/4/4 1/5/1 3/6/3
f 5/7/5 2/8/2 1/9/1
f 6/10/6 4/11/4 3/12/3
f 7/13/7 2/14/2 5/15/5
f 8/16/8 4/17/4 6/18/6
f 9/19/9 1/20/1 4/21/4
f 10/22/10 3/23/3 2/24/2
f 11/25/11 3/26/3 10/27/10
f 12/28/12 1/29/1 9/30/9
f 13/31/13 14/32/14 10/33/15
f 2/34/16 13/35/17 10/36/18
f 14/37/19 13/38/20 15/39/21
f 15/40/22 16/41/23 14/42/24
f 11/43/25 14/44/26 17/45/27
f 11/46/28 10/47/29 14/48/30
f 17/49/31 14/50/32 16/51/33
f 18/52/34 17/53/35 16/54/36
f 18/55/37 19/56/38 17/57/39
f 3/58/40 17/59/41 20/60/42
f 3/61/43 11/62/44 17/63/45
f 20/64/46 17/65/47 19/66/48
f 19/67/49 21/68/50 20/69/51
f 20/70/52 22/71/53 6/72/54
f 6/73/55 3/74/56 20/75/57
f 23/76/58 22/77/59 20/78/60
f 21/79/61 23/80/62 20/81/63
f 23/82/64 24/83/65 22/84/66
f 8/85/67 22/86/68 25/87/69
f 4/88/70 8/89/71 25/90/72
f 8/91/73 6/92/74 22/93/75
f 25/94/76 22/95/77 24/96/78
f 26/97/79 25/98/80 24/99/81
f 25/100/82 27/101/83 9/102/84
f 4/103/85 25/104/86 9/105/87
f 27/106/88 25/107/89 26/108/90
f 26/109/91 28/110/92 27/111/93
f 12/112/94 27/113/95 29/114/96
f 12/115/97 9/116/98 27/117/99
f 29/118/100 27/119/101 28/120/102
f 30/121/103 29/122/104 28/123/105
f 30/124/106 31/125/107 29/126/108
f 1/127/109 29/128/110 32/129/111
f 1/130/112 12/131/113 29/132/114
f 32/133/115 29/134/116 31/135/117
f 31/136/118 33/137/119 32/138/120
f 32/139/121 34/140/122 5/141/123
f 5/142/124 1/143/125 32/144/126
f 33/145/127 34/146/128 32/147/129
f 33/148/130 35/149/131 34/150/132
f 7/151/133 34/152/134 13/153/135
f 2/154/136 7/155/137 13/156/138
f 7/157/139 5/158/140 34/159/141
f 13/160/142 34/161/143 35/162/144
f 15/163/145 13/164/146 35/165/147

# 35 vertices
# 165 texture params
# 147 normals
# 55 facets

# 1 groups
