# WaveFront *.obj file (generated by Autodesk ATF)

mtllib e14c649f-8125-4172-9221-da374e71c79f.mtl

g 38_MRSHLDSRVT-Body

v 1447.862701 -57.999344 48.319998
v 1437.155304 -58.493271 48.319998
v 1437.455444 -65.000648 48.319998
v 1448.162842 -64.506721 48.319998
v 1442.524872 -67.770081 48.319998
v 1442.793274 -55.229931 48.319998
v 1448.820953 -60.332680 48.319998
v 1436.497192 -62.667332 48.319998
v 1445.006104 -67.315769 48.319998
v 1440.312042 -55.684223 48.319998
v 1445.665741 -55.996227 48.319998
v 1439.652405 -67.003765 48.319998
v 1432.267303 -80.522060 43.580008
v 1445.432892 -82.997322 43.580008
v 1427.437286 -89.363251 30.999999
v 1451.597900 -91.965694 30.999999
v 1457.538910 -77.261333 43.580008
v 1470.522308 -76.721764 30.999999
v 1463.961334 -65.505047 43.580008
v 1473.124847 -52.561111 30.999999
v 1462.247162 -52.218971 43.580008
v 1457.880859 -33.636751 30.999999
v 1453.050842 -42.477932 43.580008
v 1439.885406 -40.002670 43.580008
v 1446.059418 -29.932604 30.999999
v 1433.720245 -31.034298 30.999999
v 1427.779236 -45.738659 43.580008
v 1422.741852 -36.774120 30.999999
v 1414.795837 -46.278248 30.999999
v 1421.356812 -57.494946 43.580008
v 1411.091766 -58.099728 30.999999
v 1423.070984 -70.781021 43.580008
v 1412.193451 -70.438881 30.999999
v 1417.933197 -81.417160 30.999999
vt 1.040726 0.700130 0.000000
vt -0.030014 0.650738 0.000000
vt 0.000000 0.000000 0.000000
vt 1.070740 0.049393 0.000000
vt 1.040726 0.700130 0.000000
vt 0.000000 0.000000 0.000000
vt 0.506943 -0.276943 0.000000
vt 1.070740 0.049393 0.000000
vt 0.000000 0.000000 0.000000
vt -0.506943 0.276941 0.000000
vt -1.070740 -0.049393 0.000000
vt 0.000000 0.000000 0.000000
vt 0.065811 0.417404 0.000000
vt -0.030014 0.650738 0.000000
vt 0.000000 0.000000 0.000000
vt -0.065811 -0.417406 0.000000
vt 0.030014 -0.650738 0.000000
vt 0.000000 0.000000 0.000000
vt 0.248123 0.045431 0.000000
vt 0.563797 0.326336 0.000000
vt 0.000000 0.000000 0.000000
vt -0.248123 -0.045429 0.000000
vt -0.563797 -0.326334 0.000000
vt 0.000000 0.000000 0.000000
vt -0.219696 0.200312 0.000000
vt -0.506943 0.276941 0.000000
vt 0.000000 0.000000 0.000000
vt 0.219696 -0.200312 0.000000
vt 0.506943 -0.276943 0.000000
vt 0.000000 0.000000 0.000000
vt -1.052593 -1.339787 0.000000
vt 0.261547 -1.599851 0.000000
vt 0.000000 0.000000 0.000000
vt -0.286294 0.080117 0.000000
vt -1.060926 -1.333199 0.000000
vt 0.000000 0.000000 0.000000
vt -1.978665 -1.145042 0.000000
vt 0.405860 -1.613144 0.000000
vt 0.000000 0.000000 0.000000
vt 2.045420 1.021025 0.000000
vt 0.765973 1.418030 0.000000
vt 0.000000 0.000000 0.000000
vt -1.307298 1.037064 0.000000
vt -1.198679 -0.598115 0.000000
vt 0.000000 0.000000 0.000000
vt -0.068678 1.637343 0.000000
vt -0.316426 1.589907 0.000000
vt 0.000000 0.000000 0.000000
vt -0.032698 2.024015 0.000000
vt -1.114915 1.234472 0.000000
vt 0.000000 0.000000 0.000000
vt 0.483438 -1.965704 0.000000
vt 1.807197 0.072131 0.000000
vt 0.000000 0.000000 0.000000
vt -1.649354 0.100982 0.000000
vt -0.616826 -1.189161 0.000000
vt 0.000000 0.000000 0.000000
vt -1.012336 1.306047 0.000000
vt -1.321885 1.018406 0.000000
vt 0.000000 0.000000 0.000000
vt 1.807712 0.057811 0.000000
vt 0.456082 1.259590 0.000000
vt 0.000000 0.000000 0.000000
vt 1.415084 -1.126373 0.000000
vt 1.551835 1.299818 0.000000
vt 0.000000 0.000000 0.000000
vt 1.586365 -0.517654 0.000000
vt 1.423462 0.812025 0.000000
vt 0.000000 0.000000 0.000000
vt -1.586331 0.517758 0.000000
vt -1.649418 0.099933 0.000000
vt 0.000000 0.000000 0.000000
vt 1.551210 1.300565 0.000000
vt -0.111858 1.334942 0.000000
vt 0.000000 0.000000 0.000000
vt 1.662938 -0.040184 0.000000
vt 0.680563 2.182438 0.000000
vt 0.000000 0.000000 0.000000
vt -0.614750 -1.589046 0.000000
vt 0.894463 -0.997265 0.000000
vt 0.000000 0.000000 0.000000
vt -0.821172 -1.386792 0.000000
vt -0.606314 -1.592284 0.000000
vt 0.000000 0.000000 0.000000
vt -1.513152 -0.581637 0.000000
vt -1.420944 -0.816423 0.000000
vt 0.000000 0.000000 0.000000
vt 0.552884 2.218225 0.000000
vt -0.665167 1.162822 0.000000
vt 0.000000 0.000000 0.000000
vt 1.052593 1.339789 0.000000
vt -0.261531 1.599852 0.000000
vt 0.000000 0.000000 0.000000
vt 0.286294 -0.080115 0.000000
vt 1.060925 1.333201 0.000000
vt 0.000000 0.000000 0.000000
vt -0.424890 1.861367 0.000000
vt -1.288285 0.367258 0.000000
vt 0.000000 0.000000 0.000000
vt 0.898966 1.337678 0.000000
vt -0.205832 1.898118 0.000000
vt 0.000000 0.000000 0.000000
vt 0.465729 1.661598 0.000000
vt -0.759687 1.479815 0.000000
vt 0.000000 0.000000 0.000000
vt 1.307298 -1.037064 0.000000
vt 1.198694 0.598115 0.000000
vt 0.000000 0.000000 0.000000
vt 0.068662 -1.637343 0.000000
vt 0.316409 -1.589909 0.000000
vt 0.000000 0.000000 0.000000
vt 0.032689 -2.024015 0.000000
vt 1.114924 -1.234472 0.000000
vt 0.000000 0.000000 0.000000
vt -0.954973 -0.789135 0.000000
vt 0.103769 -2.021617 0.000000
vt 0.000000 0.000000 0.000000
vt -1.246749 1.041904 0.000000
vt -1.807548 -0.062714 0.000000
vt 0.000000 0.000000 0.000000
vt 1.649354 -0.100982 0.000000
vt 0.616826 1.189161 0.000000
vt 0.000000 0.000000 0.000000
vt 1.012336 -1.306047 0.000000
vt 1.321885 -1.018406 0.000000
vt 0.000000 0.000000 0.000000
vt -1.807712 -0.057813 0.000000
vt -0.456082 -1.259590 0.000000
vt 0.000000 0.000000 0.000000
vt -1.392041 1.154727 0.000000
vt -1.623594 -0.062261 0.000000
vt 0.000000 0.000000 0.000000
vt -1.586365 0.517655 0.000000
vt -1.423462 -0.812023 0.000000
vt 0.000000 0.000000 0.000000
vt 1.586331 -0.517760 0.000000
vt 1.649418 -0.099933 0.000000
vt 0.000000 0.000000 0.000000
vt -1.551201 -1.300565 0.000000
vt 0.111857 -1.334942 0.000000
vt 0.000000 0.000000 0.000000
vt -1.623656 -0.060622 0.000000
vt -1.553787 -1.297474 0.000000
vt 0.000000 0.000000 0.000000
vt -1.663006 0.036828 0.000000
vt -1.291158 -1.144867 0.000000
vt 0.000000 0.000000 0.000000
vt 0.614750 1.589046 0.000000
vt -0.894463 0.997265 0.000000
vt 0.000000 0.000000 0.000000
vt 0.821172 1.386792 0.000000
vt 0.606314 1.592284 0.000000
vt 0.000000 0.000000 0.000000
vt 1.513152 0.581637 0.000000
vt 1.420944 0.816422 0.000000
vt 0.000000 0.000000 0.000000
vt 1.906390 0.104497 0.000000
vt 1.198323 1.241705 0.000000
vt 0.000000 0.000000 0.000000
vt 0.736134 -0.996387 0.000000
vt 1.905950 0.112240 0.000000
vt 0.000000 0.000000 0.000000
vn 0.000000 0.000000 0.100000
vn 0.000000 0.000000 0.100000
vn 0.000000 0.000000 0.100000
vn 0.000000 0.000000 0.100000
vn 0.000000 0.000000 0.100000
vn 0.000000 0.000000 0.100000
vn 0.000000 0.000000 0.100000
vn 0.000000 0.000000 0.100000
vn 0.000000 0.000000 0.100000
vn 0.000000 0.000000 0.100000
vn 0.000000 0.000000 0.100000
vn 0.000000 0.000000 0.100000
vn -0.005767 -0.030675 0.095004
vn -0.005767 -0.030675 0.095004
vn -0.005767 -0.030675 0.095004
vn -0.007783 -0.029175 0.095332
vn -0.007783 -0.029175 0.095332
vn -0.007783 -0.029175 0.095332
vn -0.008953 -0.083121 0.054870
vn -0.008953 -0.083121 0.054870
vn -0.008953 -0.083121 0.054870
vn -0.014699 -0.078184 0.060591
vn -0.014699 -0.078184 0.060591
vn -0.014699 -0.078184 0.060591
vn 0.013426 -0.028337 0.094957
vn 0.013426 -0.028337 0.094957
vn 0.013426 -0.028337 0.094957
vn 0.005266 -0.028762 0.095630
vn 0.005266 -0.028762 0.095630
vn 0.005266 -0.028762 0.095630
vn 0.032559 -0.068717 0.064945
vn 0.032559 -0.068717 0.064945
vn 0.032559 -0.068717 0.064945
vn 0.053458 -0.066365 0.052326
vn 0.053458 -0.066365 0.052326
vn 0.053458 -0.066365 0.052326
vn 0.027537 -0.015043 0.094950
vn 0.027537 -0.015043 0.094950
vn 0.027537 -0.015043 0.094950
vn 0.019145 -0.021515 0.095763
vn 0.019145 -0.021515 0.095763
vn 0.019145 -0.021515 0.095763
vn 0.065713 -0.035899 0.066280
vn 0.065713 -0.035899 0.066280
vn 0.065713 -0.035899 0.066280
vn 0.084727 -0.009127 0.052326
vn 0.084727 -0.009127 0.052326
vn 0.084727 -0.009127 0.052326
vn 0.031099 0.004012 0.094957
vn 0.031099 0.004012 0.094957
vn 0.031099 0.004012 0.094957
vn 0.028448 -0.004485 0.095763
vn 0.028448 -0.004485 0.095763
vn 0.028448 -0.004485 0.095763
vn 0.075415 0.009730 0.064945
vn 0.075415 0.009730 0.064945
vn 0.075415 0.009730 0.064945
vn 0.065106 0.052445 0.054870
vn 0.065106 0.052445 0.054870
vn 0.065106 0.052445 0.054870
vn 0.022696 0.021427 0.095004
vn 0.022696 0.021427 0.095004
vn 0.022696 0.021427 0.095004
vn 0.020344 0.022313 0.095332
vn 0.020344 0.022313 0.095332
vn 0.020344 0.022313 0.095332
vn 0.027048 0.011108 0.095630
vn 0.027048 0.011108 0.095630
vn 0.027048 0.011108 0.095630
vn 0.057847 0.054612 0.060591
vn 0.057847 0.054612 0.060591
vn 0.057847 0.054612 0.060591
vn 0.005767 0.030675 0.095004
vn 0.005767 0.030675 0.095004
vn 0.005767 0.030675 0.095004
vn 0.007783 0.029175 0.095332
vn 0.007783 0.029175 0.095332
vn 0.007783 0.029175 0.095332
vn 0.013889 0.073875 0.065952
vn 0.013889 0.073875 0.065952
vn 0.013889 0.073875 0.065952
vn 0.023514 0.075044 0.061769
vn 0.023514 0.075044 0.061769
vn 0.023514 0.075044 0.061769
vn -0.007102 0.079543 0.060187
vn -0.007102 0.079543 0.060187
vn -0.007102 0.079543 0.060187
vn -0.013426 0.028337 0.094957
vn -0.013426 0.028337 0.094957
vn -0.013426 0.028337 0.094957
vn -0.005266 0.028762 0.095630
vn -0.005266 0.028762 0.095630
vn -0.005266 0.028762 0.095630
vn -0.032559 0.068717 0.064945
vn -0.032559 0.068717 0.064945
vn -0.032559 0.068717 0.064945
vn -0.035880 0.068626 0.063270
vn -0.035880 0.068626 0.063270
vn -0.035880 0.068626 0.063270
vn -0.060955 0.050962 0.060724
vn -0.060955 0.050962 0.060724
vn -0.060955 0.050962 0.060724
vn -0.027537 0.015043 0.094950
vn -0.027537 0.015043 0.094950
vn -0.027537 0.015043 0.094950
vn -0.019145 0.021515 0.095763
vn -0.019145 0.021515 0.095763
vn -0.019145 0.021515 0.095763
vn -0.065713 0.035899 0.066280
vn -0.065713 0.035899 0.066280
vn -0.065713 0.035899 0.066280
vn -0.075818 0.023756 0.060724
vn -0.075818 0.023756 0.060724
vn -0.075818 0.023756 0.060724
vn -0.031099 -0.004012 0.094957
vn -0.031099 -0.004012 0.094957
vn -0.031099 -0.004012 0.094957
vn -0.028448 0.004485 0.095763
vn -0.028448 0.004485 0.095763
vn -0.028448 0.004485 0.095763
vn -0.075416 -0.009730 0.064945
vn -0.075416 -0.009730 0.064945
vn -0.075416 -0.009730 0.064945
vn -0.077133 -0.006887 0.063270
vn -0.077133 -0.006887 0.063270
vn -0.077133 -0.006887 0.063270
vn -0.070771 -0.037001 0.060187
vn -0.070771 -0.037001 0.060187
vn -0.070771 -0.037001 0.060187
vn -0.022696 -0.021427 0.095004
vn -0.022696 -0.021427 0.095004
vn -0.022696 -0.021427 0.095004
vn -0.020344 -0.022313 0.095332
vn -0.020344 -0.022313 0.095332
vn -0.020344 -0.022313 0.095332
vn -0.027048 -0.011108 0.095630
vn -0.027048 -0.011108 0.095630
vn -0.027048 -0.011108 0.095630
vn -0.054659 -0.051602 0.065952
vn -0.054659 -0.051602 0.065952
vn -0.054659 -0.051602 0.065952
vn -0.050443 -0.060333 0.061769
vn -0.050443 -0.060333 0.061769
vn -0.050443 -0.060333 0.061769
usemtl Aluminum_-_Satin
f 1/1/1 2/2/2 3/3/3
f 4/4/4 1/5/1 3/6/3
f 5/7/5 4/8/4 3/9/3
f 6/10/6 2/11/2 1/12/1
f 7/13/7 1/14/1 4/15/4
f 8/16/8 3/17/3 2/18/2
f 9/19/9 4/20/4 5/21/5
f 10/22/10 2/23/2 6/24/6
f 11/25/11 6/26/6 1/27/1
f 12/28/12 5/29/5 3/30/3
f 13/31/13 14/32/14 5/33/15
f 12/34/16 13/35/17 5/36/18
f 15/37/19 16/38/20 14/39/21
f 14/40/22 13/41/23 15/42/24
f 9/43/25 14/44/26 17/45/27
f 9/46/28 5/47/29 14/48/30
f 17/49/31 14/50/32 16/51/33
f 16/52/34 18/53/35 17/54/36
f 4/55/37 17/56/38 19/57/39
f 4/58/40 9/59/41 17/60/42
f 18/61/43 19/62/44 17/63/45
f 18/64/46 20/65/47 19/66/48
f 19/67/49 21/68/50 7/69/51
f 7/70/52 4/71/53 19/72/54
f 20/73/55 21/74/56 19/75/57
f 20/76/58 22/77/59 21/78/60
f 1/79/61 21/80/62 23/81/63
f 11/82/64 1/83/65 23/84/66
f 1/85/67 7/86/68 21/87/69
f 22/88/70 23/89/71 21/90/72
f 23/91/73 24/92/74 6/93/75
f 11/94/76 23/95/77 6/96/78
f 25/97/79 24/98/80 23/99/81
f 22/100/82 25/101/83 23/102/84
f 25/103/85 26/104/86 24/105/87
f 10/106/88 24/107/89 27/108/90
f 10/109/91 6/110/92 24/111/93
f 27/112/94 24/113/95 26/114/96
f 28/115/97 27/116/98 26/117/99
f 28/118/100 29/119/101 27/120/102
f 2/121/103 27/122/104 30/123/105
f 2/124/106 10/125/107 27/126/108
f 29/127/109 30/128/110 27/129/111
f 29/130/112 31/131/113 30/132/114
f 30/133/115 32/134/116 8/135/117
f 8/136/118 2/137/119 30/138/120
f 33/139/121 32/140/122 30/141/123
f 31/142/124 33/143/125 30/144/126
f 33/145/127 34/146/128 32/147/129
f 3/148/130 32/149/131 13/150/132
f 12/151/133 3/152/134 13/153/135
f 3/154/136 8/155/137 32/156/138
f 13/157/139 32/158/140 34/159/141
f 15/160/142 13/161/143 34/162/144

# 34 vertices
# 162 texture params
# 144 normals
# 54 facets

# 1 groups
