# WaveFront *.obj file (generated by Autodesk ATF)

mtllib c3df3e62-9601-4c87-b752-ad2f5fdbf679.mtl

g 24_MRSHLDSRVT-Body

v -798.470535 -55.996227 48.319998
v -806.981049 -58.493271 48.319998
v -804.484024 -67.003765 48.319998
v -795.973511 -64.506721 48.319998
v -807.639160 -62.667332 48.319998
v -795.315323 -60.332680 48.319998
v -806.680832 -65.000648 48.319998
v -796.273727 -57.999344 48.319998
v -801.611481 -67.770081 48.319998
v -801.343079 -55.229931 48.319998
v -803.824310 -55.684223 48.319998
v -799.130249 -67.315769 48.319998
v -811.869049 -80.522060 43.580008
v -798.703537 -82.997322 43.580008
v -804.877548 -93.067398 30.999999
v -816.699066 -89.363251 30.999999
v -792.538376 -91.965694 30.999999
v -786.597443 -77.261333 43.580008
v -773.614044 -76.721764 30.999999
v -780.174942 -65.505047 43.580008
v -769.909897 -64.900265 30.999999
v -781.889267 -52.218971 43.580008
v -771.011581 -52.561111 30.999999
v -776.751404 -41.582832 30.999999
v -791.085434 -42.477932 43.580008
v -786.255493 -33.636751 30.999999
v -804.251022 -40.002670 43.580008
v -810.416183 -31.034298 30.999999
v -816.357117 -45.738659 43.580008
v -829.340515 -46.278248 30.999999
v -822.779541 -57.494946 43.580008
v -833.044662 -58.099728 30.999999
v -821.065292 -70.781021 43.580008
v -831.942978 -70.438881 30.999999
vt 0.601349 1.100754 0.000000
vt -0.249702 0.851049 0.000000
vt 0.000000 0.000000 0.000000
vt 0.851051 0.249704 0.000000
vt 0.601349 1.100754 0.000000
vt 0.000000 0.000000 0.000000
vt -0.065811 -0.417406 0.000000
vt 0.249702 -0.851049 0.000000
vt 0.000000 0.000000 0.000000
vt 0.065819 0.417404 0.000000
vt -0.249702 0.851049 0.000000
vt 0.000000 0.000000 0.000000
vt 0.095833 -0.233332 0.000000
vt 0.315514 -0.433643 0.000000
vt 0.000000 0.000000 0.000000
vt -0.095840 0.233334 0.000000
vt -0.315521 0.433645 0.000000
vt 0.000000 0.000000 0.000000
vt 0.287254 -0.076632 0.000000
vt 0.851051 0.249704 0.000000
vt 0.000000 0.000000 0.000000
vt -0.287254 0.076630 0.000000
vt -0.851051 -0.249704 0.000000
vt 0.000000 0.000000 0.000000
vt -0.248123 -0.045429 0.000000
vt -0.563797 -0.326334 0.000000
vt 0.000000 0.000000 0.000000
vt 0.248123 0.045431 0.000000
vt 0.563797 0.326336 0.000000
vt 0.000000 0.000000 0.000000
vt -1.052593 -1.339787 0.000000
vt 0.261539 -1.599851 0.000000
vt 0.000000 0.000000 0.000000
vt -0.286302 0.080117 0.000000
vt -1.060925 -1.333199 0.000000
vt 0.000000 0.000000 0.000000
vt 0.424899 -1.861368 0.000000
vt 1.288293 -0.367258 0.000000
vt 0.000000 0.000000 0.000000
vt -0.898964 -1.337680 0.000000
vt 0.205842 -1.898120 0.000000
vt 0.000000 0.000000 0.000000
vt -0.465728 -1.661599 0.000000
vt 0.759688 -1.479814 0.000000
vt 0.000000 0.000000 0.000000
vt -1.307298 1.037064 0.000000
vt -1.198687 -0.598115 0.000000
vt 0.000000 0.000000 0.000000
vt -0.068670 1.637343 0.000000
vt -0.316418 1.589907 0.000000
vt 0.000000 0.000000 0.000000
vt -0.032699 2.024012 0.000000
vt -1.114925 1.234470 0.000000
vt 0.000000 0.000000 0.000000
vt 0.483444 -1.965700 0.000000
vt 1.807197 0.072130 0.000000
vt 0.000000 0.000000 0.000000
vt -1.649361 0.100982 0.000000
vt -0.616833 -1.189161 0.000000
vt 0.000000 0.000000 0.000000
vt -1.012336 1.306047 0.000000
vt -1.321885 1.018406 0.000000
vt 0.000000 0.000000 0.000000
vt -1.351624 1.201781 0.000000
vt -1.807712 -0.057811 0.000000
vt 0.000000 0.000000 0.000000
vt 1.392037 -1.154730 0.000000
vt 1.623594 0.062261 0.000000
vt 0.000000 0.000000 0.000000
vt 1.586365 -0.517654 0.000000
vt 1.423448 0.812025 0.000000
vt 0.000000 0.000000 0.000000
vt -1.586331 0.517758 0.000000
vt -1.649425 0.099933 0.000000
vt 0.000000 0.000000 0.000000
vt 1.551200 1.300566 0.000000
vt -0.111868 1.334943 0.000000
vt 0.000000 0.000000 0.000000
vt 1.623656 0.060622 0.000000
vt 1.553787 1.297474 0.000000
vt 0.000000 0.000000 0.000000
vt 1.663016 -0.036828 0.000000
vt 1.291160 1.144868 0.000000
vt 0.000000 0.000000 0.000000
vt -0.614765 -1.589045 0.000000
vt 0.894448 -0.997264 0.000000
vt 0.000000 0.000000 0.000000
vt -0.821175 -1.386790 0.000000
vt -0.606332 -1.592282 0.000000
vt 0.000000 0.000000 0.000000
vt -1.513151 -0.581638 0.000000
vt -1.420929 -0.816425 0.000000
vt 0.000000 0.000000 0.000000
vt -1.906385 -0.104497 0.000000
vt -1.198330 -1.241701 0.000000
vt 0.000000 0.000000 0.000000
vt -0.736133 0.996387 0.000000
vt -1.905945 -0.112240 0.000000
vt 0.000000 0.000000 0.000000
vt 1.052600 1.339789 0.000000
vt -0.261539 1.599853 0.000000
vt 0.000000 0.000000 0.000000
vt 0.286302 -0.080115 0.000000
vt 1.060932 1.333201 0.000000
vt 0.000000 0.000000 0.000000
vt 1.978658 1.145042 0.000000
vt -0.405875 1.613146 0.000000
vt 0.000000 0.000000 0.000000
vt -2.045413 -1.021025 0.000000
vt -0.765967 -1.418030 0.000000
vt 0.000000 0.000000 0.000000
vt 1.307298 -1.037064 0.000000
vt 1.198687 0.598115 0.000000
vt 0.000000 0.000000 0.000000
vt 0.068669 -1.637343 0.000000
vt 0.316417 -1.589909 0.000000
vt 0.000000 0.000000 0.000000
vt 0.032699 -2.024012 0.000000
vt 1.114925 -1.234470 0.000000
vt 0.000000 0.000000 0.000000
vt -0.483445 1.965700 0.000000
vt -1.807197 -0.072133 0.000000
vt 0.000000 0.000000 0.000000
vt 1.649354 -0.100982 0.000000
vt 0.616826 1.189161 0.000000
vt 0.000000 0.000000 0.000000
vt 1.012336 -1.306047 0.000000
vt 1.321885 -1.018406 0.000000
vt 0.000000 0.000000 0.000000
vt -1.807712 -0.057813 0.000000
vt -0.456082 -1.259590 0.000000
vt 0.000000 0.000000 0.000000
vt -1.392040 1.154728 0.000000
vt -1.623599 -0.062261 0.000000
vt 0.000000 0.000000 0.000000
vt -1.586365 0.517656 0.000000
vt -1.423455 -0.812023 0.000000
vt 0.000000 0.000000 0.000000
vt 1.586331 -0.517760 0.000000
vt 1.649418 -0.099933 0.000000
vt 0.000000 0.000000 0.000000
vt -1.551205 -1.300565 0.000000
vt 0.111863 -1.334942 0.000000
vt 0.000000 0.000000 0.000000
vt -1.623661 -0.060622 0.000000
vt -1.553791 -1.297474 0.000000
vt 0.000000 0.000000 0.000000
vt -1.662938 0.040183 0.000000
vt -0.680568 -2.182436 0.000000
vt 0.000000 0.000000 0.000000
vt 0.614758 1.589046 0.000000
vt -0.894455 0.997265 0.000000
vt 0.000000 0.000000 0.000000
vt 0.821168 1.386790 0.000000
vt 0.606325 1.592282 0.000000
vt 0.000000 0.000000 0.000000
vt 1.513151 0.581637 0.000000
vt 1.420936 0.816422 0.000000
vt 0.000000 0.000000 0.000000
vt -0.552892 -2.218222 0.000000
vt 0.665160 -1.162820 0.000000
vt 0.000000 0.000000 0.000000
vn 0.000000 0.000000 0.100000
vn 0.000000 0.000000 0.100000
vn 0.000000 0.000000 0.100000
vn 0.000000 0.000000 0.100000
vn 0.000000 0.000000 0.100000
vn 0.000000 0.000000 0.100000
vn 0.000000 0.000000 0.100000
vn 0.000000 0.000000 0.100000
vn 0.000000 0.000000 0.100000
vn 0.000000 0.000000 0.100000
vn 0.000000 0.000000 0.100000
vn 0.000000 0.000000 0.100000
vn -0.005767 -0.030675 0.095004
vn -0.005767 -0.030675 0.095004
vn -0.005767 -0.030675 0.095004
vn -0.007783 -0.029175 0.095332
vn -0.007783 -0.029175 0.095332
vn -0.007783 -0.029175 0.095332
vn -0.013889 -0.073875 0.065952
vn -0.013889 -0.073875 0.065952
vn -0.013889 -0.073875 0.065952
vn -0.023514 -0.075044 0.061769
vn -0.023514 -0.075044 0.061769
vn -0.023514 -0.075044 0.061769
vn 0.007102 -0.079543 0.060187
vn 0.007102 -0.079543 0.060187
vn 0.007102 -0.079543 0.060187
vn 0.013426 -0.028337 0.094957
vn 0.013426 -0.028337 0.094957
vn 0.013426 -0.028337 0.094957
vn 0.005266 -0.028762 0.095630
vn 0.005266 -0.028762 0.095630
vn 0.005266 -0.028762 0.095630
vn 0.032559 -0.068717 0.064945
vn 0.032559 -0.068717 0.064945
vn 0.032559 -0.068717 0.064945
vn 0.053458 -0.066365 0.052326
vn 0.053458 -0.066365 0.052326
vn 0.053458 -0.066365 0.052326
vn 0.027537 -0.015043 0.094950
vn 0.027537 -0.015043 0.094950
vn 0.027537 -0.015043 0.094950
vn 0.019145 -0.021515 0.095763
vn 0.019145 -0.021515 0.095763
vn 0.019145 -0.021515 0.095763
vn 0.065713 -0.035899 0.066280
vn 0.065713 -0.035899 0.066280
vn 0.065713 -0.035899 0.066280
vn 0.075817 -0.023757 0.060723
vn 0.075817 -0.023757 0.060723
vn 0.075817 -0.023757 0.060723
vn 0.031099 0.004013 0.094957
vn 0.031099 0.004013 0.094957
vn 0.031099 0.004013 0.094957
vn 0.028448 -0.004486 0.095763
vn 0.028448 -0.004486 0.095763
vn 0.028448 -0.004486 0.095763
vn 0.075415 0.009731 0.064945
vn 0.075415 0.009731 0.064945
vn 0.075415 0.009731 0.064945
vn 0.077133 0.006887 0.063270
vn 0.077133 0.006887 0.063270
vn 0.077133 0.006887 0.063270
vn 0.070770 0.037001 0.060187
vn 0.070770 0.037001 0.060187
vn 0.070770 0.037001 0.060187
vn 0.022696 0.021426 0.095004
vn 0.022696 0.021426 0.095004
vn 0.022696 0.021426 0.095004
vn 0.020345 0.022312 0.095332
vn 0.020345 0.022312 0.095332
vn 0.020345 0.022312 0.095332
vn 0.027048 0.011110 0.095630
vn 0.027048 0.011110 0.095630
vn 0.027048 0.011110 0.095630
vn 0.054659 0.051602 0.065952
vn 0.054659 0.051602 0.065952
vn 0.054659 0.051602 0.065952
vn 0.050443 0.060333 0.061769
vn 0.050443 0.060333 0.061769
vn 0.050443 0.060333 0.061769
vn 0.005767 0.030675 0.095004
vn 0.005767 0.030675 0.095004
vn 0.005767 0.030675 0.095004
vn 0.007783 0.029175 0.095332
vn 0.007783 0.029175 0.095332
vn 0.007783 0.029175 0.095332
vn 0.008953 0.083121 0.054870
vn 0.008953 0.083121 0.054870
vn 0.008953 0.083121 0.054870
vn 0.014699 0.078184 0.060591
vn 0.014699 0.078184 0.060591
vn 0.014699 0.078184 0.060591
vn -0.013426 0.028337 0.094957
vn -0.013426 0.028337 0.094957
vn -0.013426 0.028337 0.094957
vn -0.005266 0.028762 0.095630
vn -0.005266 0.028762 0.095630
vn -0.005266 0.028762 0.095630
vn -0.032559 0.068717 0.064945
vn -0.032559 0.068717 0.064945
vn -0.032559 0.068717 0.064945
vn -0.053458 0.066365 0.052326
vn -0.053458 0.066365 0.052326
vn -0.053458 0.066365 0.052326
vn -0.027537 0.015043 0.094950
vn -0.027537 0.015043 0.094950
vn -0.027537 0.015043 0.094950
vn -0.019145 0.021515 0.095763
vn -0.019145 0.021515 0.095763
vn -0.019145 0.021515 0.095763
vn -0.065713 0.035899 0.066280
vn -0.065713 0.035899 0.066280
vn -0.065713 0.035899 0.066280
vn -0.075817 0.023757 0.060724
vn -0.075817 0.023757 0.060724
vn -0.075817 0.023757 0.060724
vn -0.031099 -0.004013 0.094957
vn -0.031099 -0.004013 0.094957
vn -0.031099 -0.004013 0.094957
vn -0.028448 0.004485 0.095763
vn -0.028448 0.004485 0.095763
vn -0.028448 0.004485 0.095763
vn -0.075415 -0.009730 0.064945
vn -0.075415 -0.009730 0.064945
vn -0.075415 -0.009730 0.064945
vn -0.077133 -0.006887 0.063270
vn -0.077133 -0.006887 0.063270
vn -0.077133 -0.006887 0.063270
vn -0.065107 -0.052444 0.054870
vn -0.065107 -0.052444 0.054870
vn -0.065107 -0.052444 0.054870
vn -0.022696 -0.021426 0.095004
vn -0.022696 -0.021426 0.095004
vn -0.022696 -0.021426 0.095004
vn -0.020345 -0.022312 0.095332
vn -0.020345 -0.022312 0.095332
vn -0.020345 -0.022312 0.095332
vn -0.027048 -0.011109 0.095630
vn -0.027048 -0.011109 0.095630
vn -0.027048 -0.011109 0.095630
vn -0.057847 -0.054612 0.060591
vn -0.057847 -0.054612 0.060591
vn -0.057847 -0.054612 0.060591
usemtl Aluminum_-_Satin
f 1/1/1 2/2/2 3/3/3
f 4/4/4 1/5/1 3/6/3
f 5/7/5 3/8/3 2/9/2
f 6/10/6 1/11/1 4/12/4
f 7/13/7 3/14/3 5/15/5
f 8/16/8 1/17/1 6/18/6
f 9/19/9 4/20/4 3/21/3
f 10/22/10 2/23/2 1/24/1
f 11/25/11 2/26/2 10/27/10
f 12/28/12 4/29/4 9/30/9
f 13/31/13 14/32/14 9/33/15
f 3/34/16 13/35/17 9/36/18
f 15/37/19 14/38/20 13/39/21
f 16/40/22 15/41/23 13/42/24
f 15/43/25 17/44/26 14/45/27
f 12/46/28 14/47/29 18/48/30
f 12/49/31 9/50/32 14/51/33
f 18/52/34 14/53/35 17/54/36
f 17/55/37 19/56/38 18/57/39
f 4/58/40 18/59/41 20/60/42
f 4/61/43 12/62/44 18/63/45
f 20/64/46 18/65/47 19/66/48
f 19/67/49 21/68/50 20/69/51
f 20/70/52 22/71/53 6/72/54
f 6/73/55 4/74/56 20/75/57
f 23/76/58 22/77/59 20/78/60
f 21/79/61 23/80/62 20/81/63
f 23/82/64 24/83/65 22/84/66
f 8/85/67 22/86/68 25/87/69
f 1/88/70 8/89/71 25/90/72
f 8/91/73 6/92/74 22/93/75
f 25/94/76 22/95/77 24/96/78
f 26/97/79 25/98/80 24/99/81
f 25/100/82 27/101/83 10/102/84
f 1/103/85 25/104/86 10/105/87
f 26/106/88 28/107/89 27/108/90
f 27/109/91 25/110/92 26/111/93
f 11/112/94 27/113/95 29/114/96
f 11/115/97 10/116/98 27/117/99
f 29/118/100 27/119/101 28/120/102
f 28/121/103 30/122/104 29/123/105
f 2/124/106 29/125/107 31/126/108
f 2/127/109 11/128/110 29/129/111
f 30/130/112 31/131/113 29/132/114
f 30/133/115 32/134/116 31/135/117
f 31/136/118 33/137/119 5/138/120
f 5/139/121 2/140/122 31/141/123
f 34/142/124 33/143/125 31/144/126
f 32/145/127 34/146/128 31/147/129
f 34/148/130 16/149/131 33/150/132
f 7/151/133 33/152/134 13/153/135
f 3/154/136 7/155/137 13/156/138
f 7/157/139 5/158/140 33/159/141
f 16/160/142 13/161/143 33/162/144

# 34 vertices
# 162 texture params
# 144 normals
# 54 facets

# 1 groups
